<?xml version="1.0" encoding="UTF-8" standalone="no"?><!DOCTYPE svg PUBLIC "-//W3C//DTD SVG 1.1//EN" "http://www.w3.org/Graphics/SVG/1.1/DTD/svg11.dtd"><svg width="100%" height="100%" viewBox="0 0 212 856" version="1.1" xmlns="http://www.w3.org/2000/svg" xmlns:xlink="http://www.w3.org/1999/xlink" xml:space="preserve" xmlns:serif="http://www.serif.com/" style="fill-rule:evenodd;clip-rule:evenodd;stroke-linejoin:round;stroke-miterlimit:2;"><g id="tooth16"><g id="tooth16-column"><rect id="base" x="0" y="0" width="211.4" height="855.667" style="fill:none;"/><g id="tooth16-front-view"><g id="tooth-16-front-base-shape"><path id="tooth16-front-base-root2" d="M117.632,197.018c0,0 -16.434,-56.557 -25.889,-52.152c-9.455,4.404 -10.487,12.983 -15.718,53.136c-5.232,40.153 46.326,50.39 41.608,-0.984Z" style="fill:#e5e5e5;"/><path id="tooth16-front-base-root21" serif:id="tooth16-front-base-root2" d="M118.552,196.715c0,0 -8.097,-27.844 -16.21,-43.033c-2.158,-4.041 -4.34,-7.197 -6.36,-8.794c-1.628,-1.287 -3.2,-1.625 -4.625,-0.961c-4.976,2.318 -7.779,5.698 -9.982,13.817c-2.101,7.742 -3.679,19.968 -6.304,40.117c-3.26,25.024 14.884,38.702 28.727,34.242c9.19,-2.961 16.746,-13.929 14.794,-35.185c-0.006,-0.069 -0.019,-0.137 -0.038,-0.203Zm-1.869,0.507c1.79,19.775 -4.88,30.159 -13.444,32.919c-12.812,4.128 -29.278,-8.838 -26.26,-31.998c2.606,-20.004 4.161,-32.144 6.247,-39.83c1.984,-7.31 4.424,-10.421 8.904,-12.508c0.844,-0.393 1.741,-0.033 2.704,0.729c1.866,1.476 3.84,4.428 5.834,8.161c7.755,14.519 15.485,40.715 16.016,42.527Z" style="fill:#6b6b6b;"/><path id="tooth16-front-base-root1" d="M35.341,269.834c0,0 22.191,-21.648 97.606,-10.842c12.496,1.791 22.503,5.387 30.909,8.448c-1.276,-90.017 -9.661,-107.235 -20.336,-122.574c-10.691,-15.363 -23.564,-6.721 -24.965,41.328c-1.4,48.05 -38.265,55.75 -44.382,1.968c-3.586,-31.526 -8.051,-42.321 -11.132,-45.857c-2.175,-2.496 -7.42,-0.452 -9.076,0.915c-21.009,17.346 -18.626,126.615 -18.626,126.615Z" style="fill:#fff;"/><path id="tooth16-front-base-root11" serif:id="tooth16-front-base-root1" d="M35.992,270.59c0,0 22.026,-21.3 96.827,-10.582c12.423,1.78 22.369,5.359 30.726,8.401c0.297,0.108 0.624,0.056 0.878,-0.14c0.254,-0.196 0.402,-0.511 0.397,-0.845c-1.283,-90.466 -9.797,-107.753 -20.525,-123.168c-3.45,-4.957 -7.177,-7.481 -10.652,-7.344c-2.396,0.095 -4.734,1.416 -6.838,4.195c-4.797,6.335 -8.501,20.689 -9.211,45.055c-0.412,14.131 -3.916,24.714 -8.833,31.166c-3.161,4.147 -6.893,6.561 -10.733,7.018c-3.804,0.453 -7.685,-1.033 -11.17,-4.553c-5.471,-5.526 -9.928,-15.94 -11.726,-31.754c-3.633,-31.94 -8.26,-42.849 -11.382,-46.431c-1.061,-1.218 -2.701,-1.622 -4.44,-1.475c-2.344,0.198 -4.844,1.378 -5.932,2.277c-2.622,2.165 -4.914,5.692 -6.882,10.25c-2.866,6.636 -5.074,15.488 -6.763,25.375c-6.52,38.161 -5.353,91.823 -5.353,91.823c0.009,0.402 0.238,0.762 0.585,0.919c0.348,0.158 0.75,0.084 1.028,-0.187Zm0.279,-2.786c-0.134,-10.052 -0.391,-55.773 5.355,-89.402c1.656,-9.695 3.808,-18.378 6.618,-24.886c1.816,-4.205 3.893,-7.488 6.312,-9.486c0.898,-0.742 2.969,-1.69 4.904,-1.853c1.114,-0.094 2.196,0.045 2.875,0.825c1.18,1.354 2.55,3.832 4.016,8.235c2.282,6.859 4.728,18.245 6.867,37.049c1.871,16.455 6.62,27.244 12.312,32.994c3.958,3.998 8.39,5.618 12.71,5.104c4.285,-0.51 8.488,-3.136 12.015,-7.764c5.115,-6.711 8.834,-17.695 9.263,-32.394c0.69,-23.684 4.123,-37.675 8.785,-43.832c1.679,-2.218 3.497,-3.357 5.41,-3.433c2.988,-0.118 6.067,2.254 9.033,6.515c10.564,15.179 18.786,32.224 20.125,120.523c-8.185,-2.969 -17.862,-6.312 -29.796,-8.022c-64.741,-9.277 -90.564,5.295 -96.805,9.827Z" style="fill:#6b6b6b;"/><path id="tooth-16-front-base-shape" d="M163.856,267.44c-8.407,-3.061 -18.601,-5.533 -30.909,-8.448c-17.564,-4.158 -36.233,-4.523 -52.643,-2.83c-22.577,2.329 -40.879,8.552 -46.142,14.145c-5.16,11.532 -17.427,43.807 -8.992,74.311c0.491,1.775 1.101,3.412 1.819,4.92c14.646,30.767 73.999,7.872 73.999,7.872c0,0 43.457,18.696 64.723,-0.984c2.248,-2.081 4.127,-4.393 5.68,-6.888c17.947,-28.828 -7.533,-81.968 -7.535,-82.099Z" style="fill:#fff;"/><path id="tooth16-front-base-shape1" serif:id="tooth-16-front-base-shape" d="M164.741,267.036c-0.105,-0.261 -0.31,-0.47 -0.573,-0.566c-8.435,-3.071 -18.663,-5.554 -31.012,-8.478c-17.664,-4.182 -36.441,-4.552 -52.945,-2.85c-13.637,1.407 -25.724,4.229 -34.356,7.474c-5.895,2.216 -10.202,4.659 -12.373,6.966c-0.078,0.083 -0.142,0.179 -0.189,0.285c-5.21,11.644 -17.563,44.24 -9.046,75.041c0.508,1.838 1.141,3.532 1.884,5.094c6.022,12.651 19.349,16.588 33.232,16.624c18.906,0.048 38.771,-7.067 41.608,-8.122c2.388,0.985 16.933,6.748 32.712,7.794c11.658,0.772 23.967,-1.052 32.661,-9.098c2.316,-2.143 4.251,-4.526 5.851,-7.095c9.117,-14.645 7.286,-35.46 3.093,-52.635c-3.738,-15.31 -9.304,-27.696 -10.38,-30.068l-0.165,-0.366Zm-1.579,1.235l0.01,0.022c1.063,2.342 6.56,14.574 10.251,29.692c4.061,16.634 5.996,36.804 -2.834,50.987c-1.506,2.42 -3.328,4.663 -5.509,6.681c-8.319,7.698 -20.123,9.338 -31.278,8.599c-16.952,-1.123 -32.452,-7.791 -32.452,-7.791c-0.22,-0.095 -0.466,-0.1 -0.689,-0.013c0,0 -21.197,8.18 -41.294,8.129c-13.127,-0.034 -25.823,-3.538 -31.518,-15.5c-0.693,-1.455 -1.281,-3.034 -1.754,-4.746c-8.313,-30.063 3.713,-61.859 8.865,-73.418c2.076,-2.129 6.103,-4.319 11.537,-6.362c8.518,-3.202 20.445,-5.979 33.901,-7.367c16.316,-1.683 34.879,-1.324 52.341,2.81c12.081,2.86 22.119,5.291 30.424,8.278Z" style="fill:#6b6b6b;"/></g><g id="tooth16-accents"><path d="M100.989,324.938c13.465,26.509 40.696,14.553 47.132,10.837c-11.036,4.536 -27.311,6.321 -39.684,-3.082c-4.111,-3.124 -6.753,-6.817 -7.448,-7.755Z" style="fill:#6b6b6b;"/><path d="M60.306,340.558c8.244,1.772 18.812,1.87 27.266,-1.586c2.863,-1.17 8.246,-2.869 14.101,3.1c2.33,2.376 3.695,5.025 3.946,5.511c-3.237,-9.438 -10.468,-14.62 -18.952,-11.096c-0.782,0.325 -10.376,4.754 -24.482,4.191c-0.942,-0.038 -0.94,-0.043 -1.879,-0.12Z" style="fill:#6b6b6b;"/></g><g id="tooth16-statuses"><path id="front-right" d="M168.258,265.359c-0.761,-1.819 -2.487,-3.076 -4.475,-3.044c-2.658,0.043 -4.783,2.374 -4.742,5.202l0.662,2.559c1.036,2.283 6.394,14.204 9.991,28.94c3.797,15.553 5.939,34.43 -2.317,47.692c-1.468,2.358 -0.861,5.541 1.355,7.103c2.216,1.562 5.206,0.916 6.674,-1.442c7.077,-11.367 8.206,-26.146 6.475,-40.464c-2.454,-20.294 -10.508,-39.531 -12.972,-45.097c-0.299,-0.676 -0.57,-1.272 -0.651,-1.448Z" style="fill:none;"/><path id="front-left" d="M38.51,272.511c1.143,-2.554 0.122,-5.614 -2.277,-6.831c-2.4,-1.216 -5.276,-0.13 -6.418,2.424c-5.412,12.095 -18.11,45.969 -9.263,77.961c0.578,2.089 1.298,4.014 2.143,5.789c1.201,2.523 4.101,3.534 6.472,2.256c2.371,-1.278 3.321,-4.365 2.119,-6.888c-0.591,-1.241 -1.091,-2.59 -1.495,-4.051c-8.023,-29.015 3.812,-59.692 8.72,-70.661Z" style="fill:none;"/><path id="front-bottom" d="M31.285,347.222c-1.201,-2.523 -4.101,-3.534 -6.472,-2.256c-2.371,1.278 -3.321,4.365 -2.119,6.888c6.679,14.03 21.263,18.831 36.659,18.871c17.569,0.045 35.943,-5.898 41.551,-7.87c4.65,1.805 18.095,6.577 32.539,7.534c12.664,0.839 25.984,-1.356 35.429,-10.096c2.587,-2.394 4.747,-5.055 6.534,-7.925c1.468,-2.358 0.861,-5.541 -1.355,-7.103c-2.216,-1.562 -5.206,-0.916 -6.674,1.442c-1.319,2.119 -2.915,4.084 -4.825,5.851c-7.569,7.004 -18.362,8.273 -28.51,7.6c-16.322,-1.081 -31.248,-7.5 -31.248,-7.5c-1.102,-0.474 -2.329,-0.498 -3.446,-0.067c0,0 -20.517,7.933 -39.972,7.883c-11.617,-0.03 -23.051,-2.667 -28.091,-13.253Z" style="fill:none;"/><path id="front-top" d="M162.298,272.289c2.515,0.916 5.255,-0.514 6.115,-3.19c0.86,-2.676 -0.483,-5.592 -2.997,-6.508c-8.547,-3.112 -18.909,-5.638 -31.422,-8.601c-30.063,-7.118 -63.274,-3.438 -83.704,2.822c-9.565,2.931 -16.464,6.611 -19.53,9.869c-1.881,1.999 -1.883,5.246 -0.005,7.248c1.878,2.002 4.93,2.004 6.81,0.005c2.388,-2.538 7.939,-4.99 15.389,-7.272c19.269,-5.904 50.593,-9.38 78.948,-2.666c12.103,2.865 22.13,5.284 30.396,8.294Z" style="fill:none;"/></g></g><g id="tooth16-top-view"><g id="tooth16-top-view-statuses"><ellipse id="tooth16-top-center" cx="101.099" cy="508.367" rx="50.872" ry="50.392" style="fill:#fff;"/><path d="M101.099,456.926c28.658,0 51.92,23.052 51.92,51.44c0,28.388 -23.262,51.44 -51.92,51.44c-28.658,0 -51.92,-23.052 -51.92,-51.44c0,-28.388 23.262,-51.44 51.92,-51.44Zm0,2.097c-27.495,0 -49.823,22.107 -49.823,49.343c0,27.236 22.328,49.343 49.823,49.343c27.495,0 49.823,-22.107 49.823,-49.343c0,-27.236 -22.328,-49.343 -49.823,-49.343Z" style="fill:#6b6b6b;"/><path id="tooth16-top-left" d="M42.741,566.725c-14.942,-14.942 -24.189,-35.578 -24.189,-58.358c0,-22.779 9.247,-43.416 24.189,-58.358l22.564,22.564c-9.309,9.134 -15.078,21.802 -15.078,35.794c0,13.992 5.769,26.659 15.078,35.794l-22.564,22.564Z" style="fill:#fff;"/><path d="M42,567.466c-15.132,-15.132 -24.496,-36.031 -24.496,-59.099c0,-23.069 9.364,-43.968 24.496,-59.099c0.41,-0.41 1.073,-0.41 1.483,0l22.564,22.564c0.198,0.198 0.308,0.467 0.307,0.746c-0.001,0.28 -0.114,0.548 -0.314,0.743c-9.114,8.944 -14.764,21.346 -14.764,35.045c0,13.699 5.65,26.102 14.764,35.045c0.2,0.196 0.313,0.464 0.314,0.743c0.001,0.28 -0.109,0.549 -0.307,0.746l-22.564,22.564c-0.41,0.41 -1.073,0.41 -1.483,0Zm0.746,-2.229l21.077,-21.077c-9.063,-9.263 -14.644,-21.888 -14.644,-35.793c0,-13.906 5.581,-26.53 14.644,-35.793l-21.077,-21.077c-14.319,14.689 -23.145,34.757 -23.145,56.87c0,22.113 8.826,42.181 23.145,56.87Z" style="fill:#6b6b6b;"/><path id="tooth16-top-bottom" d="M159.457,566.725c-14.942,14.942 -35.578,24.189 -58.358,24.189c-22.779,0 -43.416,-9.247 -58.358,-24.189l22.564,-22.564c9.194,9.022 21.842,14.598 35.794,14.598c13.952,0 26.599,-5.576 35.794,-14.598l22.564,22.564Z" style="fill:#fff;"/><path d="M160.198,567.466c-15.132,15.132 -36.031,24.496 -59.099,24.496c-23.069,0 -43.968,-9.364 -59.099,-24.496c-0.41,-0.41 -0.41,-1.073 -0,-1.483l22.564,-22.564c0.407,-0.407 1.065,-0.41 1.476,-0.007c9.006,8.837 21.394,14.298 35.059,14.298c13.665,0 26.054,-5.461 35.059,-14.298c0.411,-0.403 1.069,-0.4 1.476,0.007l22.564,22.564c0.41,0.41 0.41,1.073 -0,1.483Zm-2.229,-0.746l-21.091,-21.091c-9.315,8.783 -21.916,14.178 -35.78,14.178c-13.863,0 -26.464,-5.395 -35.78,-14.178l-21.091,21.091c14.689,14.319 34.757,23.145 56.87,23.145c22.113,0 42.181,-8.826 56.87,-23.145Z" style="fill:#6b6b6b;"/><path id="tooth16-top-right" d="M159.457,450.009c14.942,14.942 24.189,35.578 24.189,58.358c0,22.779 -9.247,43.416 -24.189,58.358l-22.564,-22.564c9.309,-9.134 15.078,-21.802 15.078,-35.794c0,-13.992 -5.769,-26.659 -15.078,-35.794l22.564,-22.564Z" style="fill:#fff;"/><path d="M160.198,449.267c15.132,15.132 24.496,36.031 24.496,59.099c0,23.069 -9.364,43.968 -24.496,59.099c-0.41,0.41 -1.073,0.41 -1.483,0l-22.564,-22.564c-0.198,-0.198 -0.308,-0.467 -0.307,-0.746c0.001,-0.28 0.114,-0.548 0.314,-0.743c9.114,-8.944 14.764,-21.346 14.764,-35.045c0,-13.699 -5.65,-26.102 -14.764,-35.045c-0.2,-0.196 -0.313,-0.464 -0.314,-0.743c-0.001,-0.28 0.109,-0.549 0.307,-0.746l22.564,-22.564c0.41,-0.41 1.073,-0.41 1.483,0Zm-0.746,2.229l-21.077,21.077c9.063,9.263 14.644,21.888 14.644,35.793c0,13.906 -5.581,26.53 -14.644,35.793l21.077,21.077c14.319,-14.689 23.145,-34.757 23.145,-56.87c0,-22.113 -8.826,-42.181 -23.145,-56.87Z" style="fill:#6b6b6b;"/><path id="tooth16-top-top" d="M42.741,450.009c14.942,-14.942 35.578,-24.189 58.358,-24.189c22.779,0 43.416,9.247 58.358,24.189l-22.564,22.564c-9.194,-9.022 -21.842,-14.598 -35.794,-14.598c-13.952,0 -26.599,5.576 -35.794,14.598l-22.564,-22.564Z" style="fill:#fff;"/><path d="M42,449.267c15.132,-15.132 36.031,-24.496 59.099,-24.496c23.069,0 43.968,9.364 59.099,24.496c0.41,0.41 0.41,1.073 -0,1.483l-22.564,22.564c-0.407,0.407 -1.065,0.41 -1.476,0.007c-9.006,-8.837 -21.394,-14.298 -35.059,-14.298c-13.665,0 -26.054,5.461 -35.059,14.298c-0.411,0.403 -1.069,0.4 -1.476,-0.007l-22.564,-22.564c-0.41,-0.41 -0.41,-1.073 0,-1.483Zm2.229,0.746l21.091,21.091c9.315,-8.783 21.916,-14.178 35.78,-14.178c13.863,0 26.464,5.395 35.78,14.178l21.091,-21.091c-14.689,-14.319 -34.757,-23.145 -56.87,-23.145c-22.113,0 -42.181,8.826 -56.87,23.145Z" style="fill:#6b6b6b;"/></g></g><g id="tooth16-back-view"><g id="tooth16-back-view-base-shape"><path id="tooth16-back-view-base-shape" d="M177.413,679.012c-0.521,-6.037 -0.658,-16.095 -5.706,-24.455c-6.416,-10.625 -20.766,-18.507 -53.922,-11.907c0,0 -13.378,4.914 -43.955,-1.966c-21.092,-4.745 -34.011,1.883 -41.697,13.041c-5.113,7.423 -7.911,16.852 -9.258,26.269c-2.53,17.685 5.085,44.118 16.301,58.382c3.734,4.749 7.868,8.149 12.159,9.428c7.709,2.297 28.175,5.125 49.543,5.672c26.255,0.672 53.872,-2.101 60.861,-13.534c12.676,-20.738 17.2,-43.241 15.673,-60.931Z" style="fill:#fff;"/><path id="tooth16-back-view-base-shape" serif:id="tooth16-back-view-base-shape" d="M178.371,678.918c-0.531,-6.153 -0.709,-16.394 -5.855,-24.915c-6.539,-10.828 -21.119,-19.086 -54.909,-12.36c-0.046,0.009 -0.092,0.022 -0.137,0.039c0,0 -13.22,4.8 -43.443,-1.999c-21.597,-4.859 -34.802,2.013 -42.671,13.438c-5.202,7.552 -8.062,17.139 -9.433,26.72c-2.565,17.929 5.144,44.732 16.515,59.193c3.876,4.929 8.184,8.43 12.638,9.757c7.746,2.308 28.309,5.16 49.779,5.71c15.846,0.405 32.184,-0.446 44.238,-3.668c8.279,-2.213 14.556,-5.592 17.453,-10.331c12.811,-20.958 17.368,-43.705 15.825,-61.583Zm-1.916,0.187c1.51,17.502 -2.98,39.762 -15.522,60.279c-2.694,4.408 -8.609,7.403 -16.309,9.462c-11.913,3.185 -28.062,4.008 -43.723,3.607c-21.266,-0.544 -41.635,-3.348 -49.307,-5.634c-4.129,-1.231 -8.088,-4.53 -11.681,-9.099c-11.061,-14.067 -18.583,-40.131 -16.088,-57.571c1.324,-9.254 4.058,-18.524 9.083,-25.818c7.502,-10.891 20.135,-17.277 40.722,-12.645c29.662,6.673 43.326,2.325 44.395,1.958c32.478,-6.452 46.583,1.052 52.873,11.467c4.951,8.199 5.046,18.074 5.557,23.995Z" style="fill:#6b6b6b;"/></g><g id="tooth16-back-view-accents"><path d="M95.688,677.458c2.977,-3.292 8.712,-9.492 23.157,-12.097c7.328,-1.321 15.768,-1.057 22.122,0.308c-9.009,-3.255 -21.643,-4.722 -31.212,-0.52c-6.721,2.952 -10.943,7.236 -14.066,12.308Z" style="fill:#6b6b6b;"/><path d="M66.952,660.231c4.801,3.283 14.504,9.307 25.04,8.186c6.93,-0.738 14.17,-5.451 17.646,-12.991c-2.666,3.93 -7.151,7.384 -11.719,9.061c-12.278,4.509 -24.385,-0.899 -30.967,-4.256Z" style="fill:#6b6b6b;"/></g><g id="tooth16-back-view-statuses"><path id="back-right" d="M157.558,737.387c-1.411,2.308 -0.682,5.327 1.626,6.738c2.308,1.411 5.327,0.682 6.738,-1.626c13.293,-21.746 17.975,-45.359 16.374,-63.909c-0.567,-6.57 -0.9,-17.47 -6.394,-26.567c-1.398,-2.315 -4.413,-3.06 -6.729,-1.662c-2.315,1.398 -3.06,4.413 -1.662,6.729c4.604,7.623 4.543,16.837 5.019,22.343c1.452,16.83 -2.912,38.224 -14.972,57.954Z" style="fill:none;"/><path id="back-left" d="M36.168,656.506c1.534,-2.228 0.972,-5.282 -1.256,-6.816c-2.228,-1.534 -5.282,-0.972 -6.816,1.256c-5.524,8.02 -8.618,18.181 -10.073,28.355c-2.69,18.809 5.371,46.935 17.301,62.106c1.672,2.126 4.756,2.495 6.882,0.823c2.126,-1.672 2.495,-4.756 0.823,-6.882c-10.503,-13.357 -17.671,-38.099 -15.302,-54.659c1.239,-8.661 3.74,-17.356 8.442,-24.183Z" style="fill:none;"/><path id="back-bottom" d="M43.029,735.348c-1.672,-2.126 -4.756,-2.495 -6.882,-0.823c-2.126,1.672 -2.495,4.756 -0.823,6.882c4.453,5.663 9.495,9.571 14.612,11.096c7.908,2.357 28.897,5.314 50.818,5.874c16.253,0.416 33.007,-0.497 45.371,-3.802c9.468,-2.531 16.484,-6.656 19.797,-12.075c1.411,-2.308 0.682,-5.327 -1.626,-6.738c-2.308,-1.411 -5.327,-0.682 -6.738,1.626c-2.279,3.729 -7.45,5.976 -13.965,7.718c-11.604,3.102 -27.336,3.863 -42.589,3.473c-20.816,-0.532 -40.759,-3.231 -48.269,-5.469c-3.466,-1.033 -6.69,-3.925 -9.707,-7.761Z" style="fill:none;"/><path id="back-top" d="M167.511,657.09c1.398,2.315 4.413,3.06 6.729,1.662c2.315,-1.398 3.06,-4.413 1.662,-6.729c-7.059,-11.689 -22.597,-21.442 -59.075,-14.18c-0.249,0.05 -0.494,0.119 -0.733,0.206c0,0 -12.526,4.302 -41.19,-2.147c-23.737,-5.34 -38.159,2.486 -46.809,15.043c-1.534,2.228 -0.972,5.282 1.256,6.816c2.228,1.534 5.282,0.972 6.816,-1.256c6.723,-9.76 18.136,-15.191 36.585,-11.04c29.295,6.591 43.744,2.748 46.3,1.929c29.628,-5.838 42.702,0.164 48.458,9.696Z" style="fill:none;"/></g></g></g><rect id="base1" serif:id="base" x="0" y="0" width="211.4" height="855.667" style="fill:none;"/></g></svg>