<?xml version="1.0" encoding="UTF-8" standalone="no"?><!DOCTYPE svg PUBLIC "-//W3C//DTD SVG 1.1//EN" "http://www.w3.org/Graphics/SVG/1.1/DTD/svg11.dtd"><svg width="100%" height="100%" viewBox="0 0 1410 1410" version="1.1" xmlns="http://www.w3.org/2000/svg" xmlns:xlink="http://www.w3.org/1999/xlink" xml:space="preserve" xmlns:serif="http://www.serif.com/" style="fill-rule:evenodd;clip-rule:evenodd;stroke-linecap:round;stroke-linejoin:round;stroke-miterlimit:1.5;"><g id="tooth32-surface-map"><g id="tooth-surfacemap"><path id="tooth-surfacemap-center" d="M515.476,893.858c-49.201,-48.281 -79.695,-115.236 -79.695,-189.191c0,-73.955 30.494,-140.91 79.695,-189.191c48.598,-47.689 115.448,-77.159 189.191,-77.159c73.743,0 140.593,29.47 189.191,77.159c49.201,48.281 79.695,115.236 79.695,189.191c0,73.955 -30.494,140.91 -79.695,189.191c-48.598,47.689 -115.448,77.159 -189.191,77.159c-73.743,0 -140.593,-29.47 -189.191,-77.159Z" style="fill:#fff;stroke:#808080;stroke-width:2.33px;"/><path d="M704.667,434.123c150.728,0 273.081,121.238 273.081,270.544c0,149.306 -122.352,270.544 -273.081,270.544c-150.728,0 -273.081,-121.238 -273.081,-270.544c0,-149.306 122.352,-270.544 273.081,-270.544Zm0,8.389c-146.077,0 -264.692,117.457 -264.692,262.155c0,144.698 118.615,262.155 264.692,262.155c146.077,0 264.692,-117.457 264.692,-262.155c0,-144.698 -118.615,-262.155 -264.692,-262.155Z" style="fill:#6b6b6b;"/><path id="tooth-surfacemap-left" d="M396.212,1013.121c-78.976,-78.976 -127.852,-188.053 -127.852,-308.455c0,-120.402 48.876,-229.478 127.852,-308.455l119.263,119.263c-49.201,48.281 -79.695,115.236 -79.695,189.191c0,73.955 30.494,140.91 79.695,189.191l-119.263,119.263Z" style="fill:#fff;"/><path d="M393.246,1016.087c-79.735,-79.735 -129.08,-189.861 -129.08,-311.42c0,-121.56 49.345,-231.685 129.08,-311.42c1.638,-1.638 4.294,-1.638 5.932,-0l119.263,119.263c0.791,0.791 1.234,1.866 1.228,2.986c-0.005,1.119 -0.458,2.19 -1.257,2.974c-48.423,47.517 -78.439,113.412 -78.439,186.197c0,72.785 30.015,138.68 78.439,186.197c0.799,0.784 1.251,1.855 1.257,2.974c0.005,1.119 -0.437,2.194 -1.228,2.986l-119.263,119.263c-1.638,1.638 -4.294,1.638 -5.932,0Zm2.98,-8.912l113.312,-113.312c-48.217,-48.801 -77.953,-115.586 -77.953,-189.196c0,-73.61 29.736,-140.395 77.953,-189.196l-113.312,-113.312c-76.481,77.969 -123.671,184.771 -123.671,302.508c0,117.737 47.19,224.539 123.671,302.508Z" style="fill:#6b6b6b;"/><path id="tooth-surfacemap-top" serif:id="tooth-surfacemap-center" d="M1013.121,1013.121c-78.976,78.976 -188.053,127.852 -308.455,127.852c-120.402,0 -229.478,-48.876 -308.455,-127.852l119.263,-119.263c48.598,47.689 115.448,77.159 189.191,77.159c73.743,0 140.593,-29.47 189.191,-77.159l119.263,119.263Z" style="fill:#fff;"/><path d="M1016.087,1016.087c-79.735,79.735 -189.861,129.08 -311.42,129.08c-121.56,0 -231.685,-49.345 -311.42,-129.08c-1.638,-1.638 -1.638,-4.294 0,-5.932l119.263,-119.263c1.627,-1.627 4.261,-1.64 5.904,-0.028c47.843,46.948 113.655,75.958 186.253,75.958c72.598,0 138.41,-29.01 186.253,-75.958c1.642,-1.612 4.277,-1.599 5.904,0.028l119.263,119.263c1.638,1.638 1.638,4.294 0,5.932Zm-8.912,-2.98l-113.368,-113.368c-49.087,46.729 -115.752,75.471 -189.141,75.471c-73.389,0 -140.053,-28.743 -189.141,-75.471l-113.368,113.368c77.969,76.481 184.771,123.671 302.508,123.671c117.737,0 224.539,-47.19 302.508,-123.671Z" style="fill:#6b6b6b;"/><path id="tooth-surfacemap-right" d="M1013.121,396.212c78.976,78.976 127.852,188.053 127.852,308.455c0,120.402 -48.876,229.478 -127.852,308.455l-119.263,-119.263c49.201,-48.281 79.695,-115.236 79.695,-189.191c0,-73.955 -30.494,-140.91 -79.695,-189.191l119.263,-119.263Z" style="fill:#fff;"/><path d="M1016.087,393.246c79.735,79.735 129.08,189.861 129.08,311.42c0,121.56 -49.345,231.685 -129.08,311.42c-1.638,1.638 -4.294,1.638 -5.932,0l-119.263,-119.263c-0.791,-0.791 -1.234,-1.866 -1.228,-2.986c0.005,-1.119 0.458,-2.19 1.257,-2.974c48.423,-47.517 78.439,-113.412 78.439,-186.197c0,-72.785 -30.015,-138.68 -78.439,-186.197c-0.799,-0.784 -1.251,-1.855 -1.257,-2.974c-0.005,-1.119 0.437,-2.194 1.228,-2.986l119.263,-119.263c1.638,-1.638 4.294,-1.638 5.932,0Zm-2.98,8.912l-113.312,113.312c48.217,48.801 77.953,115.586 77.953,189.196c0,73.61 -29.736,140.395 -77.953,189.196l113.312,113.312c76.481,-77.969 123.671,-184.771 123.671,-302.508c0,-117.737 -47.19,-224.539 -123.671,-302.508Z" style="fill:#6b6b6b;"/><path id="tooth-surfacemap-bottom" d="M396.212,396.212c78.976,-78.976 188.053,-127.852 308.455,-127.852c120.402,0 229.478,48.876 308.455,127.852l-119.263,119.263c-48.598,-47.689 -115.448,-77.159 -189.191,-77.159c-73.743,0 -140.593,29.47 -189.191,77.159l-119.263,-119.263Z" style="fill:#fff;"/><path d="M393.246,393.246c79.735,-79.735 189.861,-129.08 311.42,-129.08c121.56,0 231.685,49.345 311.42,129.08c1.638,1.638 1.638,4.294 -0,5.932l-119.263,119.263c-1.627,1.627 -4.261,1.64 -5.904,0.028c-47.843,-46.948 -113.655,-75.958 -186.253,-75.958c-72.598,0 -138.41,29.01 -186.253,75.958c-1.642,1.612 -4.277,1.599 -5.904,-0.028l-119.263,-119.263c-1.638,-1.638 -1.638,-4.294 -0,-5.932Zm8.912,2.98l113.368,113.368c49.087,-46.729 115.752,-75.471 189.141,-75.471c73.389,0 140.053,28.743 189.141,75.471l113.368,-113.368c-77.969,-76.481 -184.771,-123.671 -302.508,-123.671c-117.737,0 -224.539,47.19 -302.508,123.671Z" style="fill:#6b6b6b;"/></g><g id="tooth-surface-map"><g id="zoomed-view-labels-middle"><path d="M1039.045,1141.724l-256.865,-256.864" style="fill:none;stroke:#e8e8e8;stroke-width:4.19px;stroke-dasharray:4.194,4.194;"/><g><ellipse cx="1079.448" cy="1182.171" rx="57.059" ry="57.103" style="fill:#fff;stroke:#bcbcbc;stroke-width:4.19px;"/><g transform="matrix(0.99923,0,0,1,-0.46032,0)"><g transform="matrix(68.607105,0,0,68.607105,1107.305586,1206.725956)"></g><text x="1053.941px" y="1206.726px" style="font-family:'ArialMT', 'Arial', sans-serif;font-size:68.607px;fill:#4f4f4f;">O</text></g></g></g><g id="tooth-surfacemap-labels-left"><g id="zoomed-view-labels-left"><path d="M378.507,702.586l-161.067,0" style="fill:none;stroke:#e8e8e8;stroke-width:4.19px;stroke-dasharray:4.194,4.194;"/><ellipse cx="158.732" cy="702.586" rx="57.059" ry="57.103" style="fill:#fff;stroke:#bcbcbc;stroke-width:4.19px;"/><g transform="matrix(68.607105,0,0,68.607105,182.699719,727.140699)"></g><text x="133.154px" y="727.141px" style="font-family:'ArialMT', 'Arial', sans-serif;font-size:68.607px;fill:#4f4f4f;">D</text></g></g><g id="tooth-surfacemap-labels-down"><g id="zoomed-view-labels-left1" serif:id="zoomed-view-labels-left"><path d="M719.767,1044.833l-503.333,0" style="fill:none;stroke:#e8e8e8;stroke-width:4.19px;stroke-dasharray:4.194,4.194;"/><ellipse cx="158.732" cy="1044.833" rx="57.059" ry="57.103" style="fill:#fff;stroke:#bcbcbc;stroke-width:4.19px;"/><g transform="matrix(68.607105,0,0,68.607105,177.004793,1069.388159)"></g><text x="138.849px" y="1069.388px" style="font-family:'ArialMT', 'Arial', sans-serif;font-size:68.607px;fill:#4f4f4f;">B</text></g></g><g id="tooth-surfacemap-labels-right"><g id="zoomed-view-labels-left2" serif:id="zoomed-view-labels-left"><path d="M1027.807,702.586l161.067,0" style="fill:none;stroke:#e8e8e8;stroke-width:4.19px;stroke-dasharray:4.194,4.194;"/><ellipse cx="1245.932" cy="702.586" rx="57.059" ry="57.103" style="fill:#fff;stroke:#bcbcbc;stroke-width:4.19px;"/><g transform="matrix(0.99923,0,-0,1,-0.33125,0)"><g transform="matrix(68.607105,0,0,68.607105,1274.977528,727.140699)"></g><text x="1217.827px" y="727.141px" style="font-family:'ArialMT', 'Arial', sans-serif;font-size:68.607px;fill:#4f4f4f;">M</text></g></g></g><g id="tooth-surfacemap-labels-up"><g id="zoomed-view-labels-left3" serif:id="zoomed-view-labels-left"><path d="M719.124,354.069l-503.333,0" style="fill:none;stroke:#e8e8e8;stroke-width:4.19px;stroke-linejoin:miter;stroke-miterlimit:80;stroke-dasharray:4.194,4.194;"/><ellipse cx="158.732" cy="354.069" rx="57.059" ry="57.103" style="fill:#fff;stroke:#bcbcbc;stroke-width:4.19px;"/><g transform="matrix(68.607105,0,0,68.607105,180.806994,378.624371)"></g><text x="135.047px" y="378.624px" style="font-family:'ArialMT', 'Arial', sans-serif;font-size:68.607px;fill:#4f4f4f;">L</text></g></g></g><rect id="base" x="0" y="0" width="1409.333" height="1409.333" style="fill:none;"/></g></svg>