<?xml version="1.0" encoding="UTF-8" standalone="no"?><!DOCTYPE svg PUBLIC "-//W3C//DTD SVG 1.1//EN" "http://www.w3.org/Graphics/SVG/1.1/DTD/svg11.dtd"><svg width="100%" height="100%" viewBox="0 0 1410 1410" version="1.1" xmlns="http://www.w3.org/2000/svg" xmlns:xlink="http://www.w3.org/1999/xlink" xml:space="preserve" xmlns:serif="http://www.serif.com/" style="fill-rule:evenodd;clip-rule:evenodd;stroke-linejoin:round;stroke-miterlimit:2;"><g id="tooth22-surface-map"><g id="tooth-surfacemap"><rect id="tooth-surfacemap-center" x="515.778" y="672.461" width="377.777" height="74.491" style="fill:#fff;"/><path d="M511.584,746.952l0,-74.491c-0,-2.317 1.878,-4.194 4.194,-4.194l377.777,0c2.317,-0 4.194,1.878 4.194,4.194l0,74.491c-0,2.317 -1.878,4.194 -4.194,4.194l-377.777,0c-2.317,-0 -4.194,-1.878 -4.194,-4.194Zm8.389,-4.194l369.388,-0l-0,-66.102l-369.388,0l0,66.102Z" style="fill:#6b6b6b;"/><path id="tooth-surfacemap-left" d="M454.12,763.474c-10.03,-16.803 -15.494,-34.905 -15.494,-53.767c0,-24.091 8.914,-46.942 24.869,-67.431l52.283,30.185l0,74.491l-61.658,16.521Z" style="fill:#fff;"/><path d="M450.519,765.623c-10.429,-17.473 -16.087,-36.303 -16.087,-55.917c0,-25.004 9.194,-48.743 25.754,-70.008c1.286,-1.652 3.594,-2.102 5.407,-1.055l52.283,30.185c1.298,0.749 2.097,2.134 2.097,3.632l0,74.491c-0,1.898 -1.275,3.56 -3.109,4.052l-61.658,16.521c-1.812,0.485 -3.726,-0.291 -4.687,-1.902Zm5.62,-7.033l55.445,-14.856l-0,-68.851l-46.981,-27.124c-13.972,18.956 -21.782,39.903 -21.782,61.948c-0,17.092 4.695,33.527 13.318,48.883Z" style="fill:#6b6b6b;"/><path id="tooth-surfacemap-top" d="M955.213,763.474c-36.817,61.68 -135.151,105.857 -250.546,105.857c-115.395,0 -213.73,-44.177 -250.546,-105.857l61.658,-16.521l377.777,0l61.658,16.521Z" style="fill:#fff;"/><path d="M958.815,765.623c-37.374,62.613 -137.007,107.902 -254.148,107.902c-117.141,0 -216.774,-45.289 -254.148,-107.902c-0.674,-1.129 -0.779,-2.508 -0.285,-3.727c0.494,-1.218 1.531,-2.134 2.801,-2.475l61.658,-16.521c0.354,-0.095 0.719,-0.143 1.086,-0.143l377.777,0c0.367,-0 0.732,0.048 1.086,0.143l61.658,16.521c1.27,0.34 2.307,1.256 2.801,2.475c0.494,1.218 0.389,2.598 -0.285,3.727Zm-10.173,0.432l-55.638,-14.908l-376.673,0l-55.638,14.908c38.379,58.24 133.298,99.082 243.975,99.082c110.677,0 205.596,-40.841 243.975,-99.082Z" style="fill:#6b6b6b;"/><path id="tooth-surfacemap-right" d="M945.838,642.276c15.955,20.489 24.869,43.34 24.869,67.431c0,18.862 -5.464,36.964 -15.494,53.767l-61.658,-16.521l0,-74.491l52.283,-30.185Z" style="fill:#fff;"/><path d="M949.147,639.699c16.56,21.265 25.754,45.004 25.754,70.008c0,19.613 -5.657,38.444 -16.087,55.917c-0.961,1.611 -2.875,2.387 -4.687,1.902l-61.658,-16.521c-1.834,-0.491 -3.109,-2.153 -3.109,-4.052l0,-74.491c-0,-1.499 0.799,-2.883 2.097,-3.632l52.283,-30.185c1.813,-1.047 4.12,-0.596 5.407,1.055Zm-4.417,8.06l-46.981,27.124l-0,68.851l55.445,14.856c8.623,-15.356 13.318,-31.792 13.318,-48.883c0,-22.045 -7.811,-42.992 -21.782,-61.948Z" style="fill:#6b6b6b;"/><path id="tooth-surfacemap-bottom" d="M463.496,642.276c42.392,-54.437 134.491,-92.193 241.171,-92.193c106.68,0 198.779,37.756 241.171,92.193l-52.283,30.185l-377.777,0l-52.283,-30.185Z" style="fill:#fff;"/><path d="M460.186,639.699c42.995,-55.211 136.284,-93.811 244.481,-93.811c108.196,0 201.486,38.6 244.481,93.811c0.745,0.957 1.04,2.19 0.807,3.381c-0.232,1.191 -0.969,2.222 -2.02,2.829l-52.283,30.185c-0.638,0.368 -1.361,0.562 -2.097,0.562l-377.777,0c-0.736,-0 -1.46,-0.194 -2.097,-0.562l-52.283,-30.185c-1.051,-0.607 -1.787,-1.638 -2.02,-2.829c-0.232,-1.191 0.062,-2.424 0.807,-3.381Zm9.65,1.394l47.066,27.174l375.529,0l47.066,-27.174c-43.045,-51.62 -132.141,-86.816 -234.831,-86.816c-102.69,0 -191.786,35.196 -234.831,86.816Z" style="fill:#6b6b6b;"/></g><g id="tooth-surfacemap-labels"><g id="tooth-surfacemap-labels-middle"><path d="M1070.257,962.899c0.818,0.818 0.818,2.147 0,2.966c-0.818,0.818 -2.147,0.818 -2.966,0l-1.493,-1.493c-0.818,-0.818 -0.818,-2.147 -0,-2.966c0.818,-0.818 2.147,-0.818 2.966,-0l1.493,1.493Zm-4.48,-4.48c0.818,0.818 0.818,2.147 0,2.966c-0.818,0.818 -2.147,0.818 -2.966,0l-2.987,-2.987c-0.818,-0.818 -0.818,-2.147 -0,-2.966c0.818,-0.818 2.147,-0.818 2.966,-0l2.987,2.987Zm-5.974,-5.974c0.818,0.818 0.818,2.147 0,2.966c-0.818,0.818 -2.147,0.818 -2.966,0l-2.987,-2.987c-0.818,-0.818 -0.818,-2.147 -0,-2.966c0.818,-0.818 2.147,-0.818 2.966,-0l2.987,2.987Zm-5.974,-5.974c0.818,0.818 0.818,2.147 0,2.966c-0.818,0.818 -2.147,0.818 -2.966,0l-2.987,-2.987c-0.818,-0.818 -0.818,-2.147 -0,-2.966c0.818,-0.818 2.147,-0.818 2.966,-0l2.987,2.987Zm-5.973,-5.973c0.818,0.818 0.818,2.147 0,2.966c-0.818,0.818 -2.147,0.818 -2.966,0l-2.987,-2.987c-0.818,-0.818 -0.818,-2.147 -0,-2.966c0.818,-0.818 2.147,-0.818 2.966,-0l2.987,2.987Zm-5.974,-5.974c0.818,0.818 0.818,2.147 0,2.966c-0.818,0.818 -2.147,0.818 -2.966,0l-2.987,-2.987c-0.818,-0.818 -0.818,-2.147 -0,-2.966c0.818,-0.818 2.147,-0.818 2.966,-0l2.987,2.987Zm-5.973,-5.973c0.818,0.818 0.818,2.147 0,2.966c-0.818,0.818 -2.147,0.818 -2.966,0l-2.987,-2.987c-0.818,-0.818 -0.818,-2.147 -0,-2.966c0.818,-0.818 2.147,-0.818 2.966,-0l2.987,2.987Zm-5.974,-5.974c0.818,0.818 0.818,2.147 0,2.966c-0.818,0.818 -2.147,0.818 -2.966,0l-2.987,-2.987c-0.818,-0.818 -0.818,-2.147 -0,-2.966c0.818,-0.818 2.147,-0.818 2.966,-0l2.987,2.987Zm-5.973,-5.973c0.818,0.818 0.818,2.147 0,2.966c-0.818,0.818 -2.147,0.818 -2.966,0l-2.987,-2.987c-0.818,-0.818 -0.818,-2.147 -0,-2.966c0.818,-0.818 2.147,-0.818 2.966,-0l2.987,2.987Zm-5.974,-5.974c0.818,0.818 0.818,2.147 0,2.966c-0.818,0.818 -2.147,0.818 -2.966,0l-2.987,-2.987c-0.818,-0.818 -0.818,-2.147 -0,-2.966c0.818,-0.818 2.147,-0.818 2.966,-0l2.987,2.987Zm-5.973,-5.973c0.818,0.818 0.818,2.147 0,2.966c-0.818,0.818 -2.147,0.818 -2.966,0l-2.987,-2.987c-0.818,-0.818 -0.818,-2.147 -0,-2.966c0.818,-0.818 2.147,-0.818 2.966,-0l2.987,2.987Zm-5.974,-5.974c0.818,0.818 0.818,2.147 0,2.966c-0.818,0.818 -2.147,0.818 -2.966,0l-2.987,-2.987c-0.818,-0.818 -0.818,-2.147 -0,-2.966c0.818,-0.818 2.147,-0.818 2.966,-0l2.987,2.987Zm-5.973,-5.973c0.818,0.818 0.818,2.147 0,2.966c-0.818,0.818 -2.147,0.818 -2.966,0l-2.987,-2.987c-0.818,-0.818 -0.818,-2.147 -0,-2.966c0.818,-0.818 2.147,-0.818 2.966,-0l2.987,2.987Zm-5.973,-5.973c0.818,0.818 0.818,2.147 0,2.966c-0.818,0.818 -2.147,0.818 -2.966,0l-2.987,-2.987c-0.818,-0.818 -0.818,-2.147 -0,-2.966c0.818,-0.818 2.147,-0.818 2.966,-0l2.987,2.987Zm-5.974,-5.974c0.818,0.818 0.818,2.147 0,2.966c-0.818,0.818 -2.147,0.818 -2.966,0l-2.987,-2.987c-0.818,-0.818 -0.818,-2.147 -0,-2.966c0.818,-0.818 2.147,-0.818 2.966,-0l2.987,2.987Zm-5.974,-5.974c0.818,0.818 0.818,2.147 0,2.966c-0.818,0.818 -2.147,0.818 -2.966,0l-2.987,-2.987c-0.818,-0.818 -0.818,-2.147 -0,-2.966c0.818,-0.818 2.147,-0.818 2.966,-0l2.987,2.987Zm-5.973,-5.973c0.818,0.818 0.818,2.147 0,2.966c-0.818,0.818 -2.147,0.818 -2.966,0l-2.987,-2.987c-0.818,-0.818 -0.818,-2.147 -0,-2.966c0.818,-0.818 2.147,-0.818 2.966,-0l2.987,2.987Zm-5.974,-5.974c0.818,0.818 0.818,2.147 0,2.966c-0.818,0.818 -2.147,0.818 -2.966,0l-2.987,-2.987c-0.818,-0.818 -0.818,-2.147 -0,-2.966c0.818,-0.818 2.147,-0.818 2.966,-0l2.987,2.987Zm-5.973,-5.973c0.818,0.818 0.818,2.147 0,2.966c-0.818,0.818 -2.147,0.818 -2.966,0l-2.987,-2.987c-0.818,-0.818 -0.818,-2.147 -0,-2.966c0.818,-0.818 2.147,-0.818 2.966,-0l2.987,2.987Zm-5.974,-5.974c0.818,0.818 0.818,2.147 0,2.966c-0.818,0.818 -2.147,0.818 -2.966,0l-2.987,-2.987c-0.818,-0.818 -0.818,-2.147 -0,-2.966c0.818,-0.818 2.147,-0.818 2.966,-0l2.987,2.987Zm-5.974,-5.974c0.818,0.818 0.818,2.147 0,2.966c-0.818,0.818 -2.147,0.818 -2.966,0l-2.987,-2.987c-0.818,-0.818 -0.818,-2.147 -0,-2.966c0.818,-0.818 2.147,-0.818 2.966,-0l2.987,2.987Zm-5.973,-5.973c0.818,0.818 0.818,2.147 0,2.966c-0.818,0.818 -2.147,0.818 -2.966,0l-2.987,-2.987c-0.818,-0.818 -0.818,-2.147 -0,-2.966c0.818,-0.818 2.147,-0.818 2.966,-0l2.987,2.987Zm-5.974,-5.974c0.818,0.818 0.818,2.147 0,2.966c-0.818,0.818 -2.147,0.818 -2.966,0l-2.987,-2.987c-0.818,-0.818 -0.818,-2.147 -0,-2.966c0.818,-0.818 2.147,-0.818 2.966,-0l2.987,2.987Zm-5.973,-5.973c0.818,0.818 0.818,2.147 0,2.966c-0.818,0.818 -2.147,0.818 -2.966,0l-2.987,-2.987c-0.818,-0.818 -0.818,-2.147 -0,-2.966c0.818,-0.818 2.147,-0.818 2.966,-0l2.987,2.987Zm-5.973,-5.973c0.818,0.818 0.818,2.147 0,2.966c-0.818,0.818 -2.147,0.818 -2.966,0l-2.987,-2.987c-0.818,-0.818 -0.818,-2.147 -0,-2.966c0.818,-0.818 2.147,-0.818 2.966,-0l2.987,2.987Zm-5.974,-5.974c0.818,0.818 0.818,2.147 0,2.966c-0.818,0.818 -2.147,0.818 -2.966,0l-2.987,-2.987c-0.818,-0.818 -0.818,-2.147 -0,-2.966c0.818,-0.818 2.147,-0.818 2.966,-0l2.987,2.987Zm-5.974,-5.974c0.818,0.818 0.818,2.147 0,2.966c-0.818,0.818 -2.147,0.818 -2.966,0l-2.987,-2.987c-0.818,-0.818 -0.818,-2.147 -0,-2.966c0.818,-0.818 2.147,-0.818 2.966,-0l2.987,2.987Zm-5.973,-5.973c0.818,0.818 0.818,2.147 0,2.966c-0.818,0.818 -2.147,0.818 -2.966,0l-2.987,-2.987c-0.818,-0.818 -0.818,-2.147 -0,-2.966c0.818,-0.818 2.147,-0.818 2.966,-0l2.987,2.987Zm-5.974,-5.974c0.818,0.818 0.818,2.147 0,2.966c-0.818,0.818 -2.147,0.818 -2.966,0l-2.987,-2.987c-0.818,-0.818 -0.818,-2.147 -0,-2.966c0.818,-0.818 2.147,-0.818 2.966,-0l2.987,2.987Zm-5.974,-5.974c0.818,0.818 0.818,2.147 0,2.966c-0.818,0.818 -2.147,0.818 -2.966,0l-2.987,-2.987c-0.818,-0.818 -0.818,-2.147 -0,-2.966c0.818,-0.818 2.147,-0.818 2.966,-0l2.987,2.987Zm-5.973,-5.973c0.818,0.818 0.818,2.147 0,2.966c-0.818,0.818 -2.147,0.818 -2.966,0l-2.987,-2.987c-0.818,-0.818 -0.818,-2.147 -0,-2.966c0.818,-0.818 2.147,-0.818 2.966,-0l2.987,2.987Zm-5.974,-5.974c0.818,0.818 0.818,2.147 0,2.966c-0.818,0.818 -2.147,0.818 -2.966,0l-2.987,-2.987c-0.818,-0.818 -0.818,-2.147 -0,-2.966c0.818,-0.818 2.147,-0.818 2.966,-0l2.987,2.987Zm-5.974,-5.974c0.818,0.818 0.818,2.147 0,2.966c-0.818,0.818 -2.147,0.818 -2.966,0l-2.987,-2.987c-0.818,-0.818 -0.818,-2.147 -0,-2.966c0.818,-0.818 2.147,-0.818 2.966,-0l2.987,2.987Zm-5.973,-5.973c0.818,0.818 0.818,2.147 0,2.966c-0.818,0.818 -2.147,0.818 -2.966,0l-2.987,-2.987c-0.818,-0.818 -0.818,-2.147 -0,-2.966c0.818,-0.818 2.147,-0.818 2.966,-0l2.987,2.987Zm-5.974,-5.974c0.818,0.818 0.818,2.147 0,2.966c-0.818,0.818 -2.147,0.818 -2.966,0l-2.987,-2.987c-0.818,-0.818 -0.818,-2.147 -0,-2.966c0.818,-0.818 2.147,-0.818 2.966,-0l2.987,2.987Zm-5.973,-5.973c0.818,0.818 0.818,2.147 0,2.966c-0.818,0.818 -2.147,0.818 -2.966,0l-2.987,-2.987c-0.818,-0.818 -0.818,-2.147 -0,-2.966c0.818,-0.818 2.147,-0.818 2.966,-0l2.987,2.987Zm-5.974,-5.974c0.818,0.818 0.818,2.147 0,2.966c-0.818,0.818 -2.147,0.818 -2.966,0l-2.987,-2.987c-0.818,-0.818 -0.818,-2.147 -0,-2.966c0.818,-0.818 2.147,-0.818 2.966,-0l2.987,2.987Zm-5.973,-5.973c0.818,0.818 0.818,2.147 0,2.966c-0.818,0.818 -2.147,0.818 -2.966,0l-2.987,-2.987c-0.818,-0.818 -0.818,-2.147 -0,-2.966c0.818,-0.818 2.147,-0.818 2.966,-0l2.987,2.987Zm-5.974,-5.974c0.818,0.818 0.818,2.147 0,2.966c-0.818,0.818 -2.147,0.818 -2.966,0l-2.987,-2.987c-0.818,-0.818 -0.818,-2.147 -0,-2.966c0.818,-0.818 2.147,-0.818 2.966,-0l2.987,2.987Zm-5.974,-5.974c0.818,0.818 0.818,2.147 0,2.966c-0.818,0.818 -2.147,0.818 -2.966,0l-2.987,-2.987c-0.818,-0.818 -0.818,-2.147 -0,-2.966c0.818,-0.818 2.147,-0.818 2.966,-0l2.987,2.987Zm-5.973,-5.973c0.818,0.818 0.818,2.147 0,2.966c-0.818,0.818 -2.147,0.818 -2.966,0l-2.987,-2.987c-0.818,-0.818 -0.818,-2.147 -0,-2.966c0.818,-0.818 2.147,-0.818 2.966,-0l2.987,2.987Zm-5.974,-5.974c0.818,0.818 0.818,2.147 0,2.966c-0.818,0.818 -2.147,0.818 -2.966,0l-2.987,-2.987c-0.818,-0.818 -0.818,-2.147 -0,-2.966c0.818,-0.818 2.147,-0.818 2.966,-0l2.987,2.987Zm-5.974,-5.974c0.818,0.818 0.818,2.147 0,2.966c-0.818,0.818 -2.147,0.818 -2.966,0l-2.987,-2.987c-0.818,-0.818 -0.818,-2.147 -0,-2.966c0.818,-0.818 2.147,-0.818 2.966,-0l2.987,2.987Zm-5.974,-5.974c0.818,0.818 0.818,2.147 0,2.966c-0.818,0.818 -2.147,0.818 -2.966,0l-1.493,-1.493c-0.818,-0.818 -0.818,-2.147 -0,-2.966c0.818,-0.818 2.147,-0.818 2.966,-0l1.493,1.493Z" style="fill:#e8e8e8;"/><g><ellipse cx="1109.177" cy="1004.83" rx="57.059" ry="57.103" style="fill:#fff;"/><path d="M1109.177,945.63c32.649,0 59.156,26.526 59.156,59.2c0,32.674 -26.507,59.2 -59.156,59.2c-32.649,0 -59.156,-26.526 -59.156,-59.2c0,-32.674 26.507,-59.2 59.156,-59.2Zm0,4.194c-30.334,0 -54.961,24.647 -54.961,55.005c0,30.358 24.627,55.005 54.961,55.005c30.334,0 54.961,-24.647 54.961,-55.005c0,-30.358 -24.627,-55.005 -54.961,-55.005Z" style="fill:#bcbcbc;"/><g transform="matrix(0.99923,0,0,1,-0.437438,0)"><g transform="matrix(68.607105,0,0,68.607105,1119.882738,1029.384845)"></g><text x="1100.821px" y="1029.385px" style="font-family:'ArialMT', 'Arial', sans-serif;font-size:68.607px;fill:#4f4f4f;">I</text></g></g></g><g id="tooth-surfacemap-labels-left"><g id="zoomed-view-labels-left"><path d="M477.692,700.488c1.157,0 2.097,0.94 2.097,2.097c-0,1.157 -0.94,2.097 -2.097,2.097l-2.099,0c-1.157,0 -2.097,-0.94 -2.097,-2.097c0,-1.157 0.94,-2.097 2.097,-2.097l2.099,0Zm-6.296,0c1.157,0 2.097,0.94 2.097,2.097c0,1.157 -0.94,2.097 -2.097,2.097l-4.198,0c-1.157,0 -2.097,-0.94 -2.097,-2.097c0,-1.157 0.94,-2.097 2.097,-2.097l4.198,0Zm-8.395,0c1.157,0 2.097,0.94 2.097,2.097c0,1.157 -0.94,2.097 -2.097,2.097l-4.198,0c-1.157,0 -2.097,-0.94 -2.097,-2.097c0,-1.157 0.94,-2.097 2.097,-2.097l4.198,0Zm-8.395,0c1.157,0 2.097,0.94 2.097,2.097c0,1.157 -0.94,2.097 -2.097,2.097l-4.198,0c-1.157,0 -2.097,-0.94 -2.097,-2.097c0,-1.157 0.94,-2.097 2.097,-2.097l4.198,0Zm-8.395,0c1.157,0 2.097,0.94 2.097,2.097c0,1.157 -0.94,2.097 -2.097,2.097l-4.198,0c-1.157,0 -2.097,-0.94 -2.097,-2.097c0,-1.157 0.94,-2.097 2.097,-2.097l4.198,0Zm-8.395,0c1.157,0 2.097,0.94 2.097,2.097c0,1.157 -0.94,2.097 -2.097,2.097l-4.198,0c-1.157,0 -2.097,-0.94 -2.097,-2.097c0,-1.157 0.94,-2.097 2.097,-2.097l4.198,0Zm-8.395,0c1.157,0 2.097,0.94 2.097,2.097c0,1.157 -0.94,2.097 -2.097,2.097l-4.197,0c-1.157,0 -2.097,-0.94 -2.097,-2.097c0,-1.157 0.94,-2.097 2.097,-2.097l4.197,0Zm-8.396,0c1.157,0 2.097,0.94 2.097,2.097c0,1.157 -0.94,2.097 -2.097,2.097l-4.198,0c-1.157,0 -2.097,-0.94 -2.097,-2.097c0,-1.157 0.94,-2.097 2.097,-2.097l4.198,0Zm-8.395,0c1.157,0 2.097,0.94 2.097,2.097c0,1.157 -0.94,2.097 -2.097,2.097l-4.198,0c-1.157,0 -2.097,-0.94 -2.097,-2.097c0,-1.157 0.94,-2.097 2.097,-2.097l4.198,0Zm-8.395,0c1.157,0 2.097,0.94 2.097,2.097c0,1.157 -0.94,2.097 -2.097,2.097l-4.198,0c-1.157,0 -2.097,-0.94 -2.097,-2.097c0,-1.157 0.94,-2.097 2.097,-2.097l4.198,0Zm-8.395,0c1.157,0 2.097,0.94 2.097,2.097c0,1.157 -0.94,2.097 -2.097,2.097l-4.198,0c-1.157,0 -2.097,-0.94 -2.097,-2.097c0,-1.157 0.94,-2.097 2.097,-2.097l4.198,0Zm-8.395,0c1.157,0 2.097,0.94 2.097,2.097c0,1.157 -0.94,2.097 -2.097,2.097l-4.198,0c-1.157,0 -2.097,-0.94 -2.097,-2.097c0,-1.157 0.94,-2.097 2.097,-2.097l4.198,0Zm-8.396,0c1.157,0 2.097,0.94 2.097,2.097c0,1.157 -0.94,2.097 -2.097,2.097l-4.197,0c-1.157,0 -2.097,-0.94 -2.097,-2.097c0,-1.157 0.94,-2.097 2.097,-2.097l4.197,-0Zm-8.395,0c1.157,0 2.097,0.94 2.097,2.097c0,1.157 -0.94,2.097 -2.097,2.097l-4.198,0c-1.157,0 -2.097,-0.94 -2.097,-2.097c0,-1.157 0.94,-2.097 2.097,-2.097l4.198,0Zm-8.395,-0c1.157,0 2.097,0.94 2.097,2.097c0,1.157 -0.94,2.097 -2.097,2.097l-4.198,0c-1.157,0 -2.097,-0.94 -2.097,-2.097c0,-1.157 0.94,-2.097 2.097,-2.097l4.198,0Zm-8.395,0c1.157,0 2.097,0.94 2.097,2.097c0,1.157 -0.94,2.097 -2.097,2.097l-4.198,0c-1.157,0 -2.097,-0.94 -2.097,-2.097c0,-1.157 0.94,-2.097 2.097,-2.097l4.198,0Zm-8.395,0c1.157,0 2.097,0.94 2.097,2.097c0,1.157 -0.94,2.097 -2.097,2.097l-4.198,0c-1.157,0 -2.097,-0.94 -2.097,-2.097c0,-1.157 0.94,-2.097 2.097,-2.097l4.198,-0Zm-8.396,0c1.157,0 2.097,0.94 2.097,2.097c0,1.157 -0.94,2.097 -2.097,2.097l-4.198,0c-1.157,0 -2.097,-0.94 -2.097,-2.097c0,-1.157 0.94,-2.097 2.097,-2.097l4.198,0Zm-8.395,0c1.157,0 2.097,0.94 2.097,2.097c0,1.157 -0.94,2.097 -2.097,2.097l-4.198,0c-1.157,0 -2.097,-0.94 -2.097,-2.097c0,-1.157 0.94,-2.097 2.097,-2.097l4.198,0Zm-8.396,0c1.157,0 2.097,0.94 2.097,2.097c0,1.157 -0.94,2.097 -2.097,2.097l-4.198,0c-1.157,0 -2.097,-0.94 -2.097,-2.097c0,-1.157 0.94,-2.097 2.097,-2.097l4.198,0Zm-8.395,0c1.157,0 2.097,0.94 2.097,2.097c0,1.157 -0.94,2.097 -2.097,2.097l-4.198,0c-1.157,0 -2.097,-0.94 -2.097,-2.097c0,-1.157 0.94,-2.097 2.097,-2.097l4.198,0Zm-8.395,0c1.157,0 2.097,0.94 2.097,2.097c0,1.157 -0.94,2.097 -2.097,2.097l-4.198,0c-1.157,0 -2.097,-0.94 -2.097,-2.097c0,-1.157 0.94,-2.097 2.097,-2.097l4.198,0Zm-8.396,0c1.157,0 2.097,0.94 2.097,2.097c0,1.157 -0.94,2.097 -2.097,2.097l-4.198,0c-1.157,0 -2.097,-0.94 -2.097,-2.097c0,-1.157 0.94,-2.097 2.097,-2.097l4.198,-0Zm-8.395,0c1.157,0 2.097,0.94 2.097,2.097c0,1.157 -0.94,2.097 -2.097,2.097l-4.198,0c-1.157,0 -2.097,-0.94 -2.097,-2.097c0,-1.157 0.94,-2.097 2.097,-2.097l4.198,0Zm-8.395,0c1.157,0 2.097,0.94 2.097,2.097c0,1.157 -0.94,2.097 -2.097,2.097l-4.198,0c-1.157,0 -2.097,-0.94 -2.097,-2.097c0,-1.157 0.94,-2.097 2.097,-2.097l4.198,0Zm-8.395,0c1.157,0 2.097,0.94 2.097,2.097c0,1.157 -0.94,2.097 -2.097,2.097l-4.198,0c-1.157,0 -2.097,-0.94 -2.097,-2.097c0,-1.157 0.94,-2.097 2.097,-2.097l4.198,0Zm-8.396,0c1.157,0 2.097,0.94 2.097,2.097c0,1.157 -0.94,2.097 -2.097,2.097l-4.198,0c-1.157,0 -2.097,-0.94 -2.097,-2.097c0,-1.157 0.94,-2.097 2.097,-2.097l4.198,0Zm-8.395,0c1.157,0 2.097,0.94 2.097,2.097c0,1.157 -0.94,2.097 -2.097,2.097l-4.198,0c-1.157,0 -2.097,-0.94 -2.097,-2.097c0,-1.157 0.94,-2.097 2.097,-2.097l4.198,0Zm-8.395,0c1.157,0 2.097,0.94 2.097,2.097c0,1.157 -0.94,2.097 -2.097,2.097l-4.198,0c-1.157,0 -2.097,-0.94 -2.097,-2.097c0,-1.157 0.94,-2.097 2.097,-2.097l4.198,0Zm-8.395,0c1.157,0 2.097,0.94 2.097,2.097c0,1.157 -0.94,2.097 -2.097,2.097l-4.198,0c-1.157,0 -2.097,-0.94 -2.097,-2.097c0,-1.157 0.94,-2.097 2.097,-2.097l4.198,0Zm-8.395,0c1.157,0 2.097,0.94 2.097,2.097c0,1.157 -0.94,2.097 -2.097,2.097l-4.198,0c-1.157,0 -2.097,-0.94 -2.097,-2.097c0,-1.157 0.94,-2.097 2.097,-2.097l4.198,0Zm-8.395,0c1.157,0 2.097,0.94 2.097,2.097c0,1.157 -0.94,2.097 -2.097,2.097l-2.099,0c-1.157,0 -2.097,-0.94 -2.097,-2.097c-0,-1.157 0.94,-2.097 2.097,-2.097l2.099,0Z" style="fill:#e8e8e8;"/><ellipse cx="158.732" cy="702.586" rx="57.059" ry="57.103" style="fill:#fff;"/><path d="M158.732,643.386c32.649,0 59.156,26.526 59.156,59.2c0,32.674 -26.507,59.2 -59.156,59.2c-32.649,0 -59.156,-26.526 -59.156,-59.2c0,-32.674 26.507,-59.2 59.156,-59.2Zm0,4.194c-30.334,0 -54.961,24.647 -54.961,55.005c0,30.358 24.627,55.005 54.961,55.005c30.334,0 54.961,-24.647 54.961,-55.005c0,-30.358 -24.627,-55.005 -54.961,-55.005Z" style="fill:#bcbcbc;"/><g transform="matrix(68.607105,0,0,68.607105,186.501919,727.140699)"></g><text x="129.352px" y="727.141px" style="font-family:'ArialMT', 'Arial', sans-serif;font-size:68.607px;fill:#4f4f4f;">M</text></g></g><g id="tooth-surfacemap-labels-down"><g id="zoomed-view-labels-left1" serif:id="zoomed-view-labels-left"><path d="M702.569,805.166c0,-1.157 0.94,-2.097 2.097,-2.097c1.157,0 2.097,0.94 2.097,2.097l0,2.099c0,1.157 -0.94,2.097 -2.097,2.097c-1.157,0 -2.097,-0.94 -2.097,-2.097l0,-2.099Zm0,6.296c0,-1.157 0.94,-2.097 2.097,-2.097c1.157,0 2.097,0.94 2.097,2.097l0,4.198c0,1.157 -0.94,2.097 -2.097,2.097c-1.157,0 -2.097,-0.94 -2.097,-2.097l0,-4.198Zm0,8.395c0,-1.157 0.94,-2.097 2.097,-2.097c1.157,0 2.097,0.94 2.097,2.097l0,4.198c0,1.157 -0.94,2.097 -2.097,2.097c-1.157,0 -2.097,-0.94 -2.097,-2.097l0,-4.198Zm0,8.395c0,-1.157 0.94,-2.097 2.097,-2.097c1.157,0 2.097,0.94 2.097,2.097l0,4.198c0,1.157 -0.94,2.097 -2.097,2.097c-1.157,0 -2.097,-0.94 -2.097,-2.097l0,-4.198Zm0,8.395c0,-1.157 0.94,-2.097 2.097,-2.097c1.157,0 2.097,0.94 2.097,2.097l-0,4.198c-0,1.157 -0.94,2.097 -2.097,2.097c-1.157,-0 -2.097,-0.94 -2.097,-2.097l0,-4.198Zm0,8.395c0,-1.157 0.94,-2.097 2.097,-2.097c1.157,0 2.097,0.94 2.097,2.097l0,4.198c0,1.157 -0.94,2.097 -2.097,2.097c-1.157,0 -2.097,-0.94 -2.097,-2.097l0,-4.198Zm0,8.395c0,-1.157 0.94,-2.097 2.097,-2.097c1.157,0 2.097,0.94 2.097,2.097l0,4.197c0,1.157 -0.94,2.097 -2.097,2.097c-1.157,0 -2.097,-0.94 -2.097,-2.097l-0,-4.197Zm-0,8.396c0,-1.157 0.94,-2.097 2.097,-2.097c1.157,0 2.097,0.94 2.097,2.097l0,4.198c-0,1.157 -0.94,2.097 -2.097,2.097c-1.157,0 -2.097,-0.94 -2.097,-2.097l0,-4.198Zm0,8.395c0,-1.157 0.94,-2.097 2.097,-2.097c1.157,0 2.097,0.94 2.097,2.097l0,4.198c0,1.157 -0.94,2.097 -2.097,2.097c-1.157,0 -2.097,-0.94 -2.097,-2.097l0,-4.198Zm0,8.395c0,-1.157 0.94,-2.097 2.097,-2.097c1.157,0 2.097,0.94 2.097,2.097l-0,4.198c-0,1.157 -0.94,2.097 -2.097,2.097c-1.157,-0 -2.097,-0.94 -2.097,-2.097l0,-4.198Zm0,8.395c0,-1.157 0.94,-2.097 2.097,-2.097c1.157,0 2.097,0.94 2.097,2.097l0,4.198c0,1.157 -0.94,2.097 -2.097,2.097c-1.157,0 -2.097,-0.94 -2.097,-2.097l0,-4.198Zm0,8.395c0,-1.157 0.94,-2.097 2.097,-2.097c1.157,0 2.097,0.94 2.097,2.097l0,4.198c0,1.157 -0.94,2.097 -2.097,2.097c-1.157,0 -2.097,-0.94 -2.097,-2.097l0,-4.198Zm0,8.396c0,-1.157 0.94,-2.097 2.097,-2.097c1.157,0 2.097,0.94 2.097,2.097l0,4.197c0,1.157 -0.94,2.097 -2.097,2.097c-1.157,0 -2.097,-0.94 -2.097,-2.097l0,-4.197Zm0,8.395c0,-1.157 0.94,-2.097 2.097,-2.097c1.157,0 2.097,0.94 2.097,2.097l0,4.198c0,1.157 -0.94,2.097 -2.097,2.097c-1.157,0 -2.097,-0.94 -2.097,-2.097l0,-4.198Zm0,8.395c0,-1.157 0.94,-2.097 2.097,-2.097c1.157,0 2.097,0.94 2.097,2.097l-0,4.198c-0,1.157 -0.94,2.097 -2.097,2.097c-1.157,-0 -2.097,-0.94 -2.097,-2.097l0,-4.198Zm0,8.395c0,-1.157 0.94,-2.097 2.097,-2.097c1.157,0 2.097,0.94 2.097,2.097l0,4.198c0,1.157 -0.94,2.097 -2.097,2.097c-1.157,0 -2.097,-0.94 -2.097,-2.097l-0,-4.198Zm0,8.395c0,-1.157 0.94,-2.097 2.097,-2.097c1.157,0 2.097,0.94 2.097,2.097l0,4.198c0,1.157 -0.94,2.097 -2.097,2.097c-1.157,0 -2.097,-0.94 -2.097,-2.097l0,-4.198Zm0,8.396c0,-1.157 0.94,-2.097 2.097,-2.097c1.157,0 2.097,0.94 2.097,2.097l0,4.198c0,1.157 -0.94,2.097 -2.097,2.097c-1.157,0 -2.097,-0.94 -2.097,-2.097l0,-4.198Zm0,8.395c0,-1.157 0.94,-2.097 2.097,-2.097c1.157,0 2.097,0.94 2.097,2.097l0,4.198c0,1.157 -0.94,2.097 -2.097,2.097c-1.157,0 -2.097,-0.94 -2.097,-2.097l0,-4.198Zm0,8.396c0,-1.157 0.94,-2.097 2.097,-2.097c1.157,0 2.097,0.94 2.097,2.097l-0,4.198c-0,1.157 -0.94,2.097 -2.097,2.097c-1.157,-0 -2.097,-0.94 -2.097,-2.097l0,-4.198Zm0,8.395c0,-1.157 0.94,-2.097 2.097,-2.097c1.157,0 2.097,0.94 2.097,2.097l0,4.198c-0,1.157 -0.94,2.097 -2.097,2.097c-1.157,-0 -2.097,-0.94 -2.097,-2.097l0,-4.198Zm0,8.395c0,-1.157 0.94,-2.097 2.097,-2.097c1.157,0 2.097,0.94 2.097,2.097l-0,4.198c-0,1.157 -0.94,2.097 -2.097,2.097c-1.157,-0 -2.097,-0.94 -2.097,-2.097l0,-4.198Zm0,8.396c0,-1.157 0.94,-2.097 2.097,-2.097c1.157,0 2.097,0.94 2.097,2.097l0,4.198c0,1.157 -0.94,2.097 -2.097,2.097c-1.157,0 -2.097,-0.94 -2.097,-2.097l0,-4.198Zm0,8.395c0,-1.157 0.94,-2.097 2.097,-2.097c1.157,0 2.097,0.94 2.097,2.097l0,4.198c0,1.157 -0.94,2.097 -2.097,2.097c-1.157,0 -2.097,-0.94 -2.097,-2.097l-0,-4.198Zm0,8.395c0,-1.157 0.94,-2.097 2.097,-2.097c1.157,0 2.097,0.94 2.097,2.097l0,4.198c0,1.157 -0.94,2.097 -2.097,2.097c-1.157,0 -2.097,-0.94 -2.097,-2.097l0,-4.198Zm0,8.395c0,-1.157 0.94,-2.097 2.097,-2.097c1.157,0 2.097,0.94 2.097,2.097l0,4.198c0,1.157 -0.94,2.097 -2.097,2.097c-1.157,0 -2.097,-0.94 -2.097,-2.097l0,-4.198Zm0,8.396c0,-1.157 0.94,-2.097 2.097,-2.097c1.157,0 2.097,0.94 2.097,2.097l0,4.198c-0,1.157 -0.94,2.097 -2.097,2.097c-1.157,-0 -2.097,-0.94 -2.097,-2.097l0,-4.198Zm0,8.395c0,-1.157 0.94,-2.097 2.097,-2.097c1.157,0 2.097,0.94 2.097,2.097l0,4.198c0,1.157 -0.94,2.097 -2.097,2.097c-1.157,0 -2.097,-0.94 -2.097,-2.097l0,-4.198Zm0,8.395c0,-1.157 0.94,-2.097 2.097,-2.097c1.157,0 2.097,0.94 2.097,2.097l0,4.198c0,1.157 -0.94,2.097 -2.097,2.097c-1.157,0 -2.097,-0.94 -2.097,-2.097l-0,-4.198Zm0,8.395c0,-1.157 0.94,-2.097 2.097,-2.097c1.157,0 2.097,0.94 2.097,2.097l0,4.198c0,1.157 -0.94,2.097 -2.097,2.097c-1.157,0 -2.097,-0.94 -2.097,-2.097l-0,-4.198Zm0,8.395c0,-1.157 0.94,-2.097 2.097,-2.097c1.157,0 2.097,0.94 2.097,2.097l0,4.198c0,1.157 -0.94,2.097 -2.097,2.097c-1.157,0 -2.097,-0.94 -2.097,-2.097l0,-4.198Zm0,8.395c0,-1.157 0.94,-2.097 2.097,-2.097c1.157,0 2.097,0.94 2.097,2.097l0,2.099c0,1.157 -0.94,2.097 -2.097,2.097c-1.157,0 -2.097,-0.94 -2.097,-2.097l0,-2.099Z" style="fill:#e8e8e8;"/><path d="M647.564,1124.126c0,-31.491 25.587,-57.059 57.103,-57.059c31.516,0 57.103,25.567 57.103,57.059c0,31.491 -25.587,57.059 -57.103,57.059c-31.516,0 -57.103,-25.567 -57.103,-57.059Z" style="fill:#fff;"/><path d="M645.467,1124.126c0,-32.674 26.526,-59.201 59.2,-59.201c32.674,0 59.2,26.528 59.2,59.201c0,32.674 -26.526,59.201 -59.2,59.201c-32.674,0 -59.2,-26.528 -59.2,-59.201Zm4.194,0c0,30.358 24.647,55.004 55.005,55.004c30.358,0 55.005,-24.646 55.005,-55.004c0,-30.358 -24.647,-55.004 -55.005,-55.004c-30.358,0 -55.005,24.646 -55.005,55.004Z" style="fill:#bcbcbc;"/><g transform="matrix(68.607105,0,0,68.607105,722.923929,1148.665359)"></g><text x="684.768px" y="1148.665px" style="font-family:'ArialMT', 'Arial', sans-serif;font-size:68.607px;fill:#4f4f4f;">L</text></g></g><g id="tooth-surfacemap-labels-right"><g id="zoomed-view-labels-left2" serif:id="zoomed-view-labels-left"><path d="M928.679,704.683c-1.157,0 -2.097,-0.94 -2.097,-2.097c-0,-1.157 0.94,-2.097 2.097,-2.097l2.098,0c1.157,0 2.097,0.94 2.097,2.097c0,1.157 -0.94,2.097 -2.097,2.097l-2.098,0Zm6.295,-0c-1.157,0 -2.097,-0.94 -2.097,-2.097c0,-1.157 0.94,-2.097 2.097,-2.097l4.197,0c1.157,0 2.097,0.94 2.097,2.097c0,1.157 -0.94,2.097 -2.097,2.097l-4.197,0Zm8.394,0c-1.157,0 -2.097,-0.94 -2.097,-2.097c0,-1.157 0.94,-2.097 2.097,-2.097l4.197,0c1.157,0 2.097,0.94 2.097,2.097c0,1.157 -0.94,2.097 -2.097,2.097l-4.197,0Zm8.393,-0c-1.157,0 -2.097,-0.94 -2.097,-2.097c0,-1.157 0.94,-2.097 2.097,-2.097l4.197,0c1.157,0 2.097,0.94 2.097,2.097c0,1.157 -0.94,2.097 -2.097,2.097l-4.197,0Zm8.394,0c-1.157,0 -2.097,-0.94 -2.097,-2.097c0,-1.157 0.94,-2.097 2.097,-2.097l4.197,0c1.157,0 2.097,0.94 2.097,2.097c0,1.157 -0.94,2.097 -2.097,2.097l-4.197,0Zm8.393,0c-1.157,0 -2.097,-0.94 -2.097,-2.097c0,-1.157 0.94,-2.097 2.097,-2.097l4.197,0c1.157,0 2.097,0.94 2.097,2.097c0,1.157 -0.94,2.097 -2.097,2.097l-4.197,0Zm8.393,0c-1.157,0 -2.097,-0.94 -2.097,-2.097c0,-1.157 0.94,-2.097 2.097,-2.097l4.197,0c1.157,0 2.097,0.94 2.097,2.097c0,1.157 -0.94,2.097 -2.097,2.097l-4.197,0Zm8.394,0c-1.157,0 -2.097,-0.94 -2.097,-2.097c0,-1.157 0.94,-2.097 2.097,-2.097l4.197,0c1.157,0 2.097,0.94 2.097,2.097c0,1.157 -0.94,2.097 -2.097,2.097l-4.197,0Zm8.393,0c-1.157,0 -2.097,-0.94 -2.097,-2.097c0,-1.157 0.94,-2.097 2.097,-2.097l4.197,0c1.157,0 2.097,0.94 2.097,2.097c0,1.157 -0.94,2.097 -2.097,2.097l-4.197,0Zm8.393,0c-1.157,0 -2.097,-0.94 -2.097,-2.097c0,-1.157 0.94,-2.097 2.097,-2.097l4.197,0c1.157,0 2.097,0.94 2.097,2.097c0,1.157 -0.94,2.097 -2.097,2.097l-4.197,0Zm8.393,0c-1.157,0 -2.097,-0.94 -2.097,-2.097c0,-1.157 0.94,-2.097 2.097,-2.097l4.197,0c1.157,0 2.097,0.94 2.097,2.097c0,1.157 -0.94,2.097 -2.097,2.097l-4.197,0Zm8.393,0c-1.157,0 -2.097,-0.94 -2.097,-2.097c0,-1.157 0.94,-2.097 2.097,-2.097l4.197,0c1.157,0 2.097,0.94 2.097,2.097c0,1.157 -0.94,2.097 -2.097,2.097l-4.197,0Zm8.394,0c-1.157,0 -2.097,-0.94 -2.097,-2.097c0,-1.157 0.94,-2.097 2.097,-2.097l4.197,0c1.157,0 2.097,0.94 2.097,2.097c0,1.157 -0.94,2.097 -2.097,2.097l-4.197,0Zm8.393,0c-1.157,0 -2.097,-0.94 -2.097,-2.097c0,-1.157 0.94,-2.097 2.097,-2.097l4.197,0c1.157,0 2.097,0.94 2.097,2.097c0,1.157 -0.94,2.097 -2.097,2.097l-4.197,0Zm8.393,0c-1.157,0 -2.097,-0.94 -2.097,-2.097c0,-1.157 0.94,-2.097 2.097,-2.097l4.197,0c1.157,0 2.097,0.94 2.097,2.097c0,1.157 -0.94,2.097 -2.097,2.097l-4.197,0Zm8.393,0c-1.157,0 -2.097,-0.94 -2.097,-2.097c0,-1.157 0.94,-2.097 2.097,-2.097l4.197,0c1.157,0 2.097,0.94 2.097,2.097c0,1.157 -0.94,2.097 -2.097,2.097l-4.197,0Zm8.393,0c-1.157,0 -2.097,-0.94 -2.097,-2.097c0,-1.157 0.94,-2.097 2.097,-2.097l4.197,0c1.157,0 2.097,0.94 2.097,2.097c0,1.157 -0.94,2.097 -2.097,2.097l-4.197,0Zm8.394,0c-1.157,0 -2.097,-0.94 -2.097,-2.097c0,-1.157 0.94,-2.097 2.097,-2.097l4.197,0c1.157,0 2.097,0.94 2.097,2.097c0,1.157 -0.94,2.097 -2.097,2.097l-4.197,0Zm8.393,0c-1.157,0 -2.097,-0.94 -2.097,-2.097c0,-1.157 0.94,-2.097 2.097,-2.097l4.197,0c1.157,0 2.097,0.94 2.097,2.097c0,1.157 -0.94,2.097 -2.097,2.097l-4.197,0Zm8.394,0c-1.157,0 -2.097,-0.94 -2.097,-2.097c0,-1.157 0.94,-2.097 2.097,-2.097l4.197,0c1.157,0 2.097,0.94 2.097,2.097c0,1.157 -0.94,2.097 -2.097,2.097l-4.197,0Zm8.393,0c-1.157,0 -2.097,-0.94 -2.097,-2.097c0,-1.157 0.94,-2.097 2.097,-2.097l4.197,0c1.157,0 2.097,0.94 2.097,2.097c0,1.157 -0.94,2.097 -2.097,2.097l-4.197,0Zm8.393,0c-1.157,0 -2.097,-0.94 -2.097,-2.097c0,-1.157 0.94,-2.097 2.097,-2.097l4.197,-0c1.157,0 2.097,0.94 2.097,2.097c0,1.157 -0.94,2.097 -2.097,2.097l-4.197,0Zm8.394,0c-1.157,0 -2.097,-0.94 -2.097,-2.097c0,-1.157 0.94,-2.097 2.097,-2.097l4.197,0c1.157,0 2.097,0.94 2.097,2.097c0,1.157 -0.94,2.097 -2.097,2.097l-4.197,0Zm8.393,0c-1.157,0 -2.097,-0.94 -2.097,-2.097c0,-1.157 0.94,-2.097 2.097,-2.097l4.197,-0c1.157,0 2.097,0.94 2.097,2.097c0,1.157 -0.94,2.097 -2.097,2.097l-4.197,0Zm8.394,0c-1.157,0 -2.097,-0.94 -2.097,-2.097c0,-1.157 0.94,-2.097 2.097,-2.097l4.197,0c1.157,0 2.097,0.94 2.097,2.097c0,1.157 -0.94,2.097 -2.097,2.097l-4.197,0Zm8.393,0c-1.157,0 -2.097,-0.94 -2.097,-2.097c0,-1.157 0.94,-2.097 2.097,-2.097l4.197,-0c1.157,0 2.097,0.94 2.097,2.097c0,1.157 -0.94,2.097 -2.097,2.097l-4.197,0Zm8.394,0c-1.157,0 -2.097,-0.94 -2.097,-2.097c0,-1.157 0.94,-2.097 2.097,-2.097l4.197,-0c1.157,0 2.097,0.94 2.097,2.097c0,1.157 -0.94,2.097 -2.097,2.097l-4.197,0Zm8.393,0c-1.157,0 -2.097,-0.94 -2.097,-2.097c0,-1.157 0.94,-2.097 2.097,-2.097l4.197,0c1.157,0 2.097,0.94 2.097,2.097c0,1.157 -0.94,2.097 -2.097,2.097l-4.197,0Zm8.394,0c-1.157,0 -2.097,-0.94 -2.097,-2.097c0,-1.157 0.94,-2.097 2.097,-2.097l4.197,0c1.157,0 2.097,0.94 2.097,2.097c0,1.157 -0.94,2.097 -2.097,2.097l-4.197,0Zm8.393,-0c-1.157,0 -2.097,-0.94 -2.097,-2.097c0,-1.157 0.94,-2.097 2.097,-2.097l4.197,0c1.157,0 2.097,0.94 2.097,2.097c0,1.157 -0.94,2.097 -2.097,2.097l-4.197,0Zm8.393,0c-1.157,0 -2.097,-0.94 -2.097,-2.097c0,-1.157 0.94,-2.097 2.097,-2.097l4.197,0c1.157,0 2.097,0.94 2.097,2.097c0,1.157 -0.94,2.097 -2.097,2.097l-4.197,0Zm8.393,-0c-1.157,0 -2.097,-0.94 -2.097,-2.097c0,-1.157 0.94,-2.097 2.097,-2.097l2.098,0c1.157,0 2.097,0.94 2.097,2.097c-0,1.157 -0.94,2.097 -2.097,2.097l-2.098,0Z" style="fill:#e8e8e8;"/><ellipse cx="1245.932" cy="702.586" rx="57.059" ry="57.103" style="fill:#fff;"/><path d="M1245.932,761.785c-32.649,0 -59.156,-26.526 -59.156,-59.2c0,-32.674 26.507,-59.2 59.156,-59.2c32.649,0 59.156,26.526 59.156,59.2c0,32.674 -26.507,59.2 -59.156,59.2Zm0,-4.194c30.334,0 54.961,-24.647 54.961,-55.005c0,-30.358 -24.627,-55.005 -54.961,-55.005c-30.334,0 -54.961,24.647 -54.961,55.005c0,30.358 24.627,55.005 54.961,55.005Z" style="fill:#bcbcbc;"/><g transform="matrix(0.99923,0,-0,1,-0.33125,0)"><g transform="matrix(68.607105,0,0,68.607105,1271.175328,727.140699)"></g><text x="1221.629px" y="727.141px" style="font-family:'ArialMT', 'Arial', sans-serif;font-size:68.607px;fill:#4f4f4f;">D</text></g></g></g><g id="tooth-surfacemap-labels-up"><g id="zoomed-view-labels-left3" serif:id="zoomed-view-labels-left"><path d="M706.764,640.185c0,1.157 -0.94,2.097 -2.097,2.097c-1.157,0 -2.097,-0.94 -2.097,-2.097l0,-2.099c0,-1.157 0.94,-2.097 2.097,-2.097c1.157,0 2.097,0.94 2.097,2.097l0,2.099Zm-0,-6.296c0,1.157 -0.94,2.097 -2.097,2.097c-1.157,0 -2.097,-0.94 -2.097,-2.097l0,-4.198c0,-1.157 0.94,-2.097 2.097,-2.097c1.157,0 2.097,0.94 2.097,2.097l-0,4.198Zm0,-8.395c0,1.157 -0.94,2.097 -2.097,2.097c-1.157,0 -2.097,-0.94 -2.097,-2.097l0,-4.198c0,-1.157 0.94,-2.097 2.097,-2.097c1.157,0 2.097,0.94 2.097,2.097l0,4.198Zm-0,-8.395c0,1.157 -0.94,2.097 -2.097,2.097c-1.157,0 -2.097,-0.94 -2.097,-2.097l0,-4.198c0,-1.157 0.94,-2.097 2.097,-2.097c1.157,0 2.097,0.94 2.097,2.097l0,4.198Zm0,-8.395c0,1.157 -0.94,2.097 -2.097,2.097c-1.157,0 -2.097,-0.94 -2.097,-2.097l0,-4.198c0,-1.157 0.94,-2.097 2.097,-2.097c1.157,0 2.097,0.94 2.097,2.097l0,4.198Zm0,-8.395c0,1.157 -0.94,2.097 -2.097,2.097c-1.157,0 -2.097,-0.94 -2.097,-2.097l0,-4.198c0,-1.157 0.94,-2.097 2.097,-2.097c1.157,0 2.097,0.94 2.097,2.097l0,4.198Zm0,-8.395c0,1.157 -0.94,2.097 -2.097,2.097c-1.157,0 -2.097,-0.94 -2.097,-2.097l0,-4.197c0,-1.157 0.94,-2.097 2.097,-2.097c1.157,0 2.097,0.94 2.097,2.097l0,4.197Zm0,-8.396c0,1.157 -0.94,2.097 -2.097,2.097c-1.157,0 -2.097,-0.94 -2.097,-2.097l0,-4.198c0,-1.157 0.94,-2.097 2.097,-2.097c1.157,-0 2.097,0.94 2.097,2.097l0,4.198Zm0,-8.395c0,1.157 -0.94,2.097 -2.097,2.097c-1.157,0 -2.097,-0.94 -2.097,-2.097l0,-4.198c0,-1.157 0.94,-2.097 2.097,-2.097c1.157,0 2.097,0.94 2.097,2.097l0,4.198Zm0,-8.395c0,1.157 -0.94,2.097 -2.097,2.097c-1.157,0 -2.097,-0.94 -2.097,-2.097l0,-4.198c0,-1.157 0.94,-2.097 2.097,-2.097c1.157,0 2.097,0.94 2.097,2.097l0,4.198Zm0,-8.395c0,1.157 -0.94,2.097 -2.097,2.097c-1.157,0 -2.097,-0.94 -2.097,-2.097l0,-4.198c0,-1.157 0.94,-2.097 2.097,-2.097c1.157,0 2.097,0.94 2.097,2.097l0,4.198Zm0,-8.395c0,1.157 -0.94,2.097 -2.097,2.097c-1.157,0 -2.097,-0.94 -2.097,-2.097l0,-4.198c-0,-1.157 0.94,-2.097 2.097,-2.097c1.157,-0 2.097,0.94 2.097,2.097l0,4.198Zm0,-8.396c0,1.157 -0.94,2.097 -2.097,2.097c-1.157,0 -2.097,-0.94 -2.097,-2.097l0,-4.197c0,-1.157 0.94,-2.097 2.097,-2.097c1.157,0 2.097,0.94 2.097,2.097l0,4.197Zm0,-8.395c0,1.157 -0.94,2.097 -2.097,2.097c-1.157,0 -2.097,-0.94 -2.097,-2.097l0,-4.198c0,-1.157 0.94,-2.097 2.097,-2.097c1.157,0 2.097,0.94 2.097,2.097l0,4.198Zm0,-8.395c0,1.157 -0.94,2.097 -2.097,2.097c-1.157,0 -2.097,-0.94 -2.097,-2.097l0,-4.198c0,-1.157 0.94,-2.097 2.097,-2.097c1.157,0 2.097,0.94 2.097,2.097l0,4.198Zm0,-8.395c0,1.157 -0.94,2.097 -2.097,2.097c-1.157,0 -2.097,-0.94 -2.097,-2.097l0,-4.198c0,-1.157 0.94,-2.097 2.097,-2.097c1.157,0 2.097,0.94 2.097,2.097l0,4.198Zm0,-8.395c0,1.157 -0.94,2.097 -2.097,2.097c-1.157,0 -2.097,-0.94 -2.097,-2.097l0,-4.198c0,-1.157 0.94,-2.097 2.097,-2.097c1.157,0 2.097,0.94 2.097,2.097l0,4.198Zm0,-8.396c0,1.157 -0.94,2.097 -2.097,2.097c-1.157,0 -2.097,-0.94 -2.097,-2.097l0,-4.198c0,-1.157 0.94,-2.097 2.097,-2.097c1.157,-0 2.097,0.94 2.097,2.097l0,4.198Zm0,-8.395c0,1.157 -0.94,2.097 -2.097,2.097c-1.157,0 -2.097,-0.94 -2.097,-2.097l0,-4.198c0,-1.157 0.94,-2.097 2.097,-2.097c1.157,0 2.097,0.94 2.097,2.097l0,4.198Zm0,-8.396c0,1.157 -0.94,2.097 -2.097,2.097c-1.157,0 -2.097,-0.94 -2.097,-2.097l0,-4.198c0,-1.157 0.94,-2.097 2.097,-2.097c1.157,0 2.097,0.94 2.097,2.097l0,4.198Zm0,-8.395c0,1.157 -0.94,2.097 -2.097,2.097c-1.157,0 -2.097,-0.94 -2.097,-2.097l0,-4.198c0,-1.157 0.94,-2.097 2.097,-2.097c1.157,-0 2.097,0.94 2.097,2.097l0,4.198Zm0,-8.395c0,1.157 -0.94,2.097 -2.097,2.097c-1.157,0 -2.097,-0.94 -2.097,-2.097l0,-4.198c0,-1.157 0.94,-2.097 2.097,-2.097c1.157,0 2.097,0.94 2.097,2.097l0,4.198Zm0,-8.396c0,1.157 -0.94,2.097 -2.097,2.097c-1.157,0 -2.097,-0.94 -2.097,-2.097l0,-4.198c0,-1.157 0.94,-2.097 2.097,-2.097c1.157,0 2.097,0.94 2.097,2.097l0,4.198Zm0,-8.395c0,1.157 -0.94,2.097 -2.097,2.097c-1.157,0 -2.097,-0.94 -2.097,-2.097l0,-4.198c0,-1.157 0.94,-2.097 2.097,-2.097c1.157,0 2.097,0.94 2.097,2.097l0,4.198Zm0,-8.395c0,1.157 -0.94,2.097 -2.097,2.097c-1.157,0 -2.097,-0.94 -2.097,-2.097l0,-4.198c0,-1.157 0.94,-2.097 2.097,-2.097c1.157,0 2.097,0.94 2.097,2.097l0,4.198Zm0,-8.395c0,1.157 -0.94,2.097 -2.097,2.097c-1.157,0 -2.097,-0.94 -2.097,-2.097l0,-4.198c0,-1.157 0.94,-2.097 2.097,-2.097c1.157,0 2.097,0.94 2.097,2.097l0,4.198Zm0,-8.396c0,1.157 -0.94,2.097 -2.097,2.097c-1.157,0 -2.097,-0.94 -2.097,-2.097l0,-4.198c0,-1.157 0.94,-2.097 2.097,-2.097c1.157,0 2.097,0.94 2.097,2.097l0,4.198Zm0,-8.395c0,1.157 -0.94,2.097 -2.097,2.097c-1.157,0 -2.097,-0.94 -2.097,-2.097l0,-4.198c0,-1.157 0.94,-2.097 2.097,-2.097c1.157,0 2.097,0.94 2.097,2.097l0,4.198Zm0,-8.395c0,1.157 -0.94,2.097 -2.097,2.097c-1.157,0 -2.097,-0.94 -2.097,-2.097l0,-4.198c0,-1.157 0.94,-2.097 2.097,-2.097c1.157,0 2.097,0.94 2.097,2.097l0,4.198Zm0,-8.395c0,1.157 -0.94,2.097 -2.097,2.097c-1.157,0 -2.097,-0.94 -2.097,-2.097l0,-4.198c0,-1.157 0.94,-2.097 2.097,-2.097c1.157,0 2.097,0.94 2.097,2.097l0,4.198Zm0,-8.395c0,1.157 -0.94,2.097 -2.097,2.097c-1.157,0 -2.097,-0.94 -2.097,-2.097l0,-4.198c0,-1.157 0.94,-2.097 2.097,-2.097c1.157,0 2.097,0.94 2.097,2.097l0,4.198Zm0,-8.395c0,1.157 -0.94,2.097 -2.097,2.097c-1.157,0 -2.097,-0.94 -2.097,-2.097l0,-2.099c0,-1.157 0.94,-2.097 2.097,-2.097c1.157,0 2.097,0.94 2.097,2.097l0,2.099Z" style="fill:#e8e8e8;"/><path d="M761.769,321.225c0,31.491 -25.587,57.059 -57.103,57.059c-31.516,0 -57.103,-25.567 -57.103,-57.059c0,-31.491 25.587,-57.059 57.103,-57.059c31.516,0 57.103,25.567 57.103,57.059Z" style="fill:#fff;"/><path d="M763.866,321.225c0,32.649 -26.526,59.156 -59.2,59.156c-32.674,0 -59.2,-26.507 -59.2,-59.156c0,-32.649 26.526,-59.156 59.2,-59.156c32.674,0 59.2,26.507 59.2,59.156Zm-4.194,0c0,-30.334 -24.647,-54.961 -55.005,-54.961c-30.358,0 -55.005,24.627 -55.005,54.961c0,30.334 24.647,54.961 55.005,54.961c30.358,0 55.005,-24.627 55.005,-54.961Z" style="fill:#bcbcbc;"/><g transform="matrix(68.607105,0,0,68.607105,726.726129,345.795489)"></g><text x="680.966px" y="345.795px" style="font-family:'ArialMT', 'Arial', sans-serif;font-size:68.607px;fill:#4f4f4f;">L</text></g></g></g><rect id="base" x="0" y="0" width="1409.333" height="1409.333" style="fill:none;"/></g></svg>