<?xml version="1.0" encoding="UTF-8" standalone="no"?><!DOCTYPE svg PUBLIC "-//W3C//DTD SVG 1.1//EN" "http://www.w3.org/Graphics/SVG/1.1/DTD/svg11.dtd"><svg width="100%" height="100%" viewBox="0 0 212 856" version="1.1" xmlns="http://www.w3.org/2000/svg" xmlns:xlink="http://www.w3.org/1999/xlink" xml:space="preserve" xmlns:serif="http://www.serif.com/" style="fill-rule:evenodd;clip-rule:evenodd;stroke-linejoin:round;stroke-miterlimit:2;"><g id="tooth32"><g id="tooth32-column"><rect id="base" x="-0" y="25.167" width="211.4" height="805.333" style="fill:none;"/><g id="tooth32-front-view"><g id="tooth-32-front-base-shape"><path id="tooth32-front-base-root1" d="M170.409,627.473c0,0 -22.191,28.474 -97.606,14.26c-12.496,-2.355 -22.503,-7.085 -30.909,-11.111c1.276,118.4 9.661,141.047 20.336,161.222c10.691,20.207 23.564,8.841 24.965,-54.359c1.4,-63.2 38.265,-73.328 44.382,-2.589c3.586,41.466 8.051,55.666 11.132,60.316c2.175,3.283 7.42,0.594 9.076,-1.204c21.009,-22.815 18.626,-166.536 18.626,-166.536Z" style="fill:#fff;"/><path id="tooth32-front-base-root11" serif:id="tooth32-front-base-root1" d="M169.759,626.48c0,0 -22.026,28.016 -96.827,13.918c-12.423,-2.341 -22.369,-7.048 -30.726,-11.051c-0.297,-0.142 -0.624,-0.073 -0.878,0.185c-0.254,0.258 -0.402,0.672 -0.397,1.111c1.283,118.99 9.797,141.728 20.525,162.004c3.45,6.52 7.177,9.84 10.652,9.659c2.396,-0.125 4.734,-1.862 6.838,-5.518c4.797,-8.332 8.501,-27.213 9.211,-59.261c0.412,-18.587 3.916,-32.506 8.833,-40.992c3.161,-5.455 6.893,-8.63 10.733,-9.231c3.804,-0.595 7.685,1.359 11.17,5.989c5.471,7.269 9.928,20.966 11.726,41.766c3.633,42.011 8.26,56.359 11.382,61.071c1.061,1.602 2.701,2.133 4.44,1.94c2.344,-0.261 4.844,-1.813 5.932,-2.995c2.622,-2.848 4.914,-7.487 6.882,-13.482c2.866,-8.729 5.074,-20.372 6.763,-33.376c6.52,-50.193 5.353,-120.775 5.353,-120.775c-0.009,-0.529 -0.238,-1.002 -0.585,-1.209c-0.348,-0.207 -0.75,-0.111 -1.028,0.246Zm-0.279,3.665c0.134,13.221 0.391,73.359 -5.355,117.591c-1.656,12.751 -3.808,24.173 -6.618,32.732c-1.816,5.531 -3.893,9.849 -6.312,12.477c-0.898,0.975 -2.969,2.222 -4.904,2.437c-1.114,0.124 -2.196,-0.06 -2.875,-1.085c-1.18,-1.781 -2.55,-5.04 -4.016,-10.832c-2.282,-9.021 -4.728,-23.998 -6.867,-48.73c-1.871,-21.643 -6.62,-35.834 -12.312,-43.398c-3.958,-5.258 -8.39,-7.389 -12.71,-6.713c-4.285,0.671 -8.488,4.125 -12.015,10.212c-5.115,8.827 -8.834,23.274 -9.263,42.607c-0.69,31.151 -4.123,49.554 -8.785,57.653c-1.679,2.917 -3.497,4.416 -5.41,4.515c-2.988,0.155 -6.067,-2.964 -9.033,-8.57c-10.564,-19.965 -18.786,-42.385 -20.125,-158.524c8.185,3.905 17.862,8.303 29.796,10.552c64.741,12.202 90.564,-6.965 96.805,-12.926Z" style="fill:#6b6b6b;"/><path id="tooth-32-front-base-shape" d="M41.894,637.077c8.407,3.061 18.601,5.533 30.909,8.448c17.564,4.158 36.233,4.523 52.643,2.83c22.577,-2.329 40.879,-8.552 46.142,-14.145c5.16,-11.532 17.427,-43.807 8.992,-74.311c-0.491,-1.775 -1.101,-3.412 -1.819,-4.92c-14.646,-30.767 -73.999,-7.872 -73.999,-7.872c0,0 -43.457,-18.696 -64.723,0.984c-2.248,2.081 -4.127,4.393 -5.68,6.888c-17.947,28.828 7.533,81.968 7.535,82.099Z" style="fill:#fff;"/><path id="tooth32-front-base-shape1" serif:id="tooth-32-front-base-shape" d="M41.009,637.481c0.105,0.261 0.31,0.47 0.573,0.566c8.435,3.071 18.663,5.554 31.012,8.478c17.664,4.182 36.441,4.552 52.945,2.85c13.637,-1.407 25.724,-4.229 34.356,-7.474c5.895,-2.216 10.202,-4.659 12.373,-6.966c0.078,-0.083 0.142,-0.179 0.189,-0.285c5.21,-11.644 17.563,-44.24 9.046,-75.041c-0.508,-1.838 -1.141,-3.532 -1.884,-5.094c-6.022,-12.651 -19.349,-16.588 -33.232,-16.624c-18.906,-0.048 -38.771,7.067 -41.608,8.122c-2.388,-0.985 -16.933,-6.748 -32.712,-7.794c-11.658,-0.772 -23.967,1.052 -32.661,9.098c-2.316,2.143 -4.251,4.526 -5.851,7.095c-9.117,14.645 -7.286,35.46 -3.093,52.635c3.738,15.31 9.304,27.696 10.38,30.068l0.165,0.366Zm1.579,-1.235l-0.01,-0.022c-1.063,-2.342 -6.56,-14.574 -10.251,-29.692c-4.061,-16.634 -5.996,-36.804 2.834,-50.987c1.506,-2.42 3.328,-4.663 5.509,-6.681c8.319,-7.698 20.123,-9.338 31.278,-8.599c16.952,1.123 32.452,7.791 32.452,7.791c0.22,0.095 0.466,0.1 0.689,0.013c0,0 21.197,-8.18 41.294,-8.129c13.127,0.034 25.823,3.538 31.518,15.5c0.693,1.455 1.281,3.034 1.754,4.746c8.313,30.063 -3.713,61.859 -8.865,73.418c-2.076,2.129 -6.103,4.319 -11.537,6.362c-8.518,3.202 -20.445,5.979 -33.901,7.367c-16.316,1.683 -34.879,1.324 -52.341,-2.81c-12.081,-2.86 -22.119,-5.291 -30.424,-8.278Z" style="fill:#6b6b6b;"/></g><g id="tooth32-accents"><path d="M104.762,579.579c-13.465,-26.509 -40.696,-14.553 -47.132,-10.837c11.036,-4.536 27.311,-6.321 39.684,3.082c4.111,3.124 6.753,6.817 7.448,7.755Z" style="fill:#6b6b6b;"/><path d="M145.445,563.959c-8.244,-1.772 -18.812,-1.87 -27.266,1.586c-2.863,1.17 -8.246,2.869 -14.101,-3.1c-2.33,-2.376 -3.695,-5.025 -3.946,-5.511c3.237,9.438 10.468,14.62 18.952,11.096c0.782,-0.325 10.376,-4.754 24.482,-4.191c0.942,0.038 0.94,0.043 1.879,0.12Z" style="fill:#6b6b6b;"/></g><g id="tooth32-statuses"><path id="front-right" d="M167.241,632.006c-1.143,2.554 -0.122,5.614 2.277,6.831c2.4,1.216 5.276,0.13 6.418,-2.424c5.412,-12.095 18.11,-45.969 9.263,-77.961c-0.578,-2.089 -1.298,-4.014 -2.143,-5.789c-1.201,-2.523 -4.101,-3.534 -6.472,-2.256c-2.371,1.278 -3.321,4.365 -2.119,6.888c0.591,1.241 1.091,2.59 1.495,4.051c8.023,29.015 -3.812,59.692 -8.72,70.661Z" style="fill:none;"/><path id="front-left" d="M37.492,639.158c0.761,1.819 2.487,3.076 4.475,3.044c2.658,-0.043 4.783,-2.374 4.742,-5.202l-0.662,-2.559c-1.036,-2.283 -6.394,-14.204 -9.991,-28.94c-3.797,-15.553 -5.939,-34.43 2.317,-47.692c1.468,-2.358 0.861,-5.541 -1.355,-7.103c-2.216,-1.562 -5.206,-0.916 -6.674,1.442c-7.077,11.367 -8.206,26.146 -6.475,40.464c2.454,20.294 10.508,39.531 12.972,45.097c0.299,0.676 0.57,1.272 0.651,1.448Z" style="fill:none;"/><path id="front-top" d="M174.465,557.295c1.201,2.523 4.101,3.534 6.472,2.256c2.371,-1.278 3.321,-4.365 2.119,-6.888c-6.679,-14.03 -21.263,-18.831 -36.659,-18.871c-17.569,-0.045 -35.943,5.898 -41.551,7.87c-4.65,-1.805 -18.095,-6.577 -32.539,-7.534c-12.664,-0.839 -25.984,1.356 -35.429,10.096c-2.587,2.394 -4.747,5.055 -6.534,7.925c-1.468,2.358 -0.861,5.541 1.355,7.103c2.216,1.562 5.206,0.916 6.674,-1.442c1.319,-2.119 2.915,-4.084 4.825,-5.851c7.569,-7.004 18.362,-8.273 28.51,-7.6c16.322,1.081 31.248,7.5 31.248,7.5c1.102,0.474 2.329,0.498 3.446,0.067c0,0 20.517,-7.933 39.972,-7.883c11.617,0.03 23.051,2.667 28.091,13.253Z" style="fill:none;"/><path id="front-bottom" d="M43.453,632.228c-2.515,-0.916 -5.255,0.514 -6.115,3.19c-0.86,2.676 0.483,5.592 2.997,6.508c8.547,3.112 18.909,5.638 31.422,8.601c30.063,7.118 63.274,3.438 83.704,-2.822c9.565,-2.931 16.464,-6.611 19.53,-9.869c1.881,-1.999 1.883,-5.246 0.005,-7.248c-1.878,-2.002 -4.93,-2.004 -6.81,-0.005c-2.388,2.538 -7.939,4.99 -15.389,7.272c-19.269,5.904 -50.593,9.38 -78.948,2.666c-12.103,-2.865 -22.13,-5.284 -30.396,-8.294Z" style="fill:none;"/></g></g><g id="tooth32-top-view"><g id="tooth32-top-view-statuses"><ellipse id="tooth32-top-center" cx="105.7" cy="393.354" rx="50.872" ry="50.392" style="fill:#fff;"/><path d="M105.7,341.914c28.658,0 51.92,23.052 51.92,51.44c0,28.388 -23.262,51.44 -51.92,51.44c-28.658,0 -51.92,-23.052 -51.92,-51.44c0,-28.388 23.262,-51.44 51.92,-51.44Zm0,2.097c-27.495,0 -49.823,22.107 -49.823,49.343c0,27.236 22.328,49.343 49.823,49.343c27.495,0 49.823,-22.107 49.823,-49.343c0,-27.236 -22.328,-49.343 -49.823,-49.343Z" style="fill:#6b6b6b;"/><path id="tooth32-top-left" d="M47.342,451.712c-14.942,-14.942 -24.189,-35.578 -24.189,-58.358c0,-22.779 9.247,-43.416 24.189,-58.358l22.564,22.564c-9.309,9.134 -15.078,21.802 -15.078,35.794c0,13.992 5.769,26.659 15.078,35.794l-22.564,22.564Z" style="fill:#fff;"/><path d="M46.601,452.453c-15.132,-15.132 -24.496,-36.031 -24.496,-59.099c0,-23.069 9.364,-43.968 24.496,-59.099c0.41,-0.41 1.073,-0.41 1.483,0l22.564,22.564c0.198,0.198 0.308,0.467 0.307,0.746c-0.001,0.28 -0.114,0.548 -0.314,0.743c-9.114,8.944 -14.764,21.346 -14.764,35.045c0,13.699 5.65,26.102 14.764,35.045c0.2,0.196 0.313,0.464 0.314,0.743c0.001,0.28 -0.109,0.549 -0.307,0.746l-22.564,22.564c-0.41,0.41 -1.073,0.41 -1.483,0Zm0.746,-2.229l21.077,-21.077c-9.063,-9.263 -14.644,-21.888 -14.644,-35.793c0,-13.906 5.581,-26.53 14.644,-35.793l-21.077,-21.077c-14.319,14.689 -23.145,34.757 -23.145,56.87c0,22.113 8.826,42.181 23.145,56.87Z" style="fill:#6b6b6b;"/><path id="tooth32-top-top" d="M164.058,451.712c-14.942,14.942 -35.578,24.189 -58.358,24.189c-22.779,0 -43.416,-9.247 -58.358,-24.189l22.564,-22.564c9.194,9.022 21.842,14.598 35.794,14.598c13.952,0 26.599,-5.576 35.794,-14.598l22.564,22.564Z" style="fill:#fff;"/><path d="M164.799,452.453c-15.132,15.132 -36.031,24.496 -59.099,24.496c-23.069,0 -43.968,-9.364 -59.099,-24.496c-0.41,-0.41 -0.41,-1.073 -0,-1.483l22.564,-22.564c0.407,-0.407 1.065,-0.41 1.476,-0.007c9.006,8.837 21.394,14.298 35.059,14.298c13.665,0 26.054,-5.461 35.059,-14.298c0.411,-0.403 1.069,-0.4 1.476,0.007l22.564,22.564c0.41,0.41 0.41,1.073 -0,1.483Zm-2.229,-0.746l-21.091,-21.091c-9.315,8.783 -21.916,14.178 -35.78,14.178c-13.863,0 -26.464,-5.395 -35.78,-14.178l-21.091,21.091c14.689,14.319 34.757,23.145 56.87,23.145c22.113,0 42.181,-8.826 56.87,-23.145Z" style="fill:#6b6b6b;"/><path id="tooth32-top-right" d="M164.058,334.996c14.942,14.942 24.189,35.578 24.189,58.358c0,22.779 -9.247,43.416 -24.189,58.358l-22.564,-22.564c9.309,-9.134 15.078,-21.802 15.078,-35.794c0,-13.992 -5.769,-26.659 -15.078,-35.794l22.564,-22.564Z" style="fill:#fff;"/><path d="M164.799,334.255c15.132,15.132 24.496,36.031 24.496,59.099c0,23.069 -9.364,43.968 -24.496,59.099c-0.41,0.41 -1.073,0.41 -1.483,0l-22.564,-22.564c-0.198,-0.198 -0.308,-0.467 -0.307,-0.746c0.001,-0.28 0.114,-0.548 0.314,-0.743c9.114,-8.944 14.764,-21.346 14.764,-35.045c0,-13.699 -5.65,-26.102 -14.764,-35.045c-0.2,-0.196 -0.313,-0.464 -0.314,-0.743c-0.001,-0.28 0.109,-0.549 0.307,-0.746l22.564,-22.564c0.41,-0.41 1.073,-0.41 1.483,0Zm-0.746,2.229l-21.077,21.077c9.063,9.263 14.644,21.888 14.644,35.793c0,13.906 -5.581,26.53 -14.644,35.793l21.077,21.077c14.319,-14.689 23.145,-34.757 23.145,-56.87c0,-22.113 -8.826,-42.181 -23.145,-56.87Z" style="fill:#6b6b6b;"/><path id="tooth32-top-bottom" d="M47.342,334.996c14.942,-14.942 35.578,-24.189 58.358,-24.189c22.779,0 43.416,9.247 58.358,24.189l-22.564,22.564c-9.194,-9.022 -21.842,-14.598 -35.794,-14.598c-13.952,0 -26.599,5.576 -35.794,14.598l-22.564,-22.564Z" style="fill:#fff;"/><path d="M46.601,334.255c15.132,-15.132 36.031,-24.496 59.099,-24.496c23.069,0 43.968,9.364 59.099,24.496c0.41,0.41 0.41,1.073 -0,1.483l-22.564,22.564c-0.407,0.407 -1.065,0.41 -1.476,0.007c-9.006,-8.837 -21.394,-14.298 -35.059,-14.298c-13.665,0 -26.054,5.461 -35.059,14.298c-0.411,0.403 -1.069,0.4 -1.476,-0.007l-22.564,-22.564c-0.41,-0.41 -0.41,-1.073 0,-1.483Zm2.229,0.746l21.091,21.091c9.315,-8.783 21.916,-14.178 35.78,-14.178c13.863,0 26.464,5.395 35.78,14.178l21.091,-21.091c-14.689,-14.319 -34.757,-23.145 -56.87,-23.145c-22.113,0 -42.181,8.826 -56.87,23.145Z" style="fill:#6b6b6b;"/></g></g><g id="tooth32-back-view"><g id="tooth32-back-view-base-shape"><path id="tooth32-back-view-base-shape" d="M28.337,211.951c0.521,6.037 0.658,16.095 5.706,24.455c6.416,10.625 20.766,18.507 53.922,11.907c0,0 13.378,-4.914 43.955,1.966c21.092,4.745 34.011,-1.883 41.697,-13.041c5.113,-7.423 7.911,-16.852 9.258,-26.269c2.53,-17.685 -5.085,-44.118 -16.301,-58.382c-3.734,-4.749 -7.868,-8.149 -12.159,-9.428c-7.709,-2.297 -28.175,-5.125 -49.543,-5.672c-26.255,-0.672 -53.872,2.101 -60.861,13.534c-12.676,20.738 -17.2,43.241 -15.673,60.931Z" style="fill:#fff;"/><path id="tooth32-back-view-base-shape" d="M27.38,212.045c0.531,6.153 0.709,16.394 5.855,24.915c6.539,10.828 21.119,19.086 54.909,12.36c0.046,-0.009 0.092,-0.022 0.137,-0.039c0,0 13.22,-4.8 43.443,1.999c21.597,4.859 34.802,-2.013 42.671,-13.438c5.202,-7.552 8.062,-17.139 9.433,-26.72c2.565,-17.929 -5.144,-44.732 -16.515,-59.193c-3.876,-4.929 -8.184,-8.43 -12.638,-9.757c-7.746,-2.308 -28.309,-5.16 -49.779,-5.71c-15.846,-0.405 -32.184,0.446 -44.238,3.668c-8.279,2.213 -14.556,5.592 -17.453,10.331c-12.811,20.958 -17.368,43.705 -15.825,61.583Zm1.916,-0.187c-1.51,-17.502 2.98,-39.762 15.522,-60.279c2.694,-4.408 8.609,-7.403 16.309,-9.462c11.913,-3.185 28.062,-4.008 43.723,-3.607c21.266,0.544 41.635,3.348 49.307,5.634c4.129,1.231 8.088,4.53 11.681,9.099c11.061,14.067 18.583,40.131 16.088,57.571c-1.324,9.254 -4.058,18.524 -9.083,25.818c-7.502,10.891 -20.135,17.277 -40.722,12.645c-29.662,-6.673 -43.326,-2.325 -44.395,-1.958c-32.478,6.452 -46.583,-1.052 -52.873,-11.467c-4.951,-8.199 -5.046,-18.074 -5.557,-23.995Z" style="fill:#6b6b6b;"/></g><g id="tooth32-back-view-accents"><path d="M102.946,213.505c-2.977,3.292 -8.712,9.492 -23.157,12.097c-7.328,1.321 -15.768,1.057 -22.122,-0.308c9.009,3.255 21.643,4.722 31.212,0.52c6.721,-2.952 10.943,-7.236 14.066,-12.308Z" style="fill:#6b6b6b;"/><path d="M138.798,230.732c-4.801,-3.283 -14.504,-9.307 -25.04,-8.186c-6.93,0.738 -14.17,5.451 -17.646,12.991c2.666,-3.93 7.151,-7.384 11.719,-9.061c12.278,-4.509 24.385,0.899 30.967,4.256Z" style="fill:#6b6b6b;"/></g><g id="tooth32-back-view-statuses"><path id="back-right" serif:id="back-right" d="M169.582,234.457c-1.534,2.228 -0.972,5.282 1.256,6.816c2.228,1.534 5.282,0.972 6.816,-1.256c5.524,-8.02 8.618,-18.181 10.073,-28.355c2.69,-18.809 -5.371,-46.935 -17.301,-62.106c-1.672,-2.126 -4.756,-2.495 -6.882,-0.823c-2.126,1.672 -2.495,4.756 -0.823,6.882c10.503,13.357 17.671,38.099 15.302,54.659c-1.239,8.661 -3.74,17.356 -8.442,24.183Z" style="fill:none;"/><path id="back-left" serif:id="back-left" d="M48.192,153.576c1.411,-2.308 0.682,-5.327 -1.626,-6.738c-2.308,-1.411 -5.327,-0.682 -6.738,1.626c-13.293,21.746 -17.975,45.359 -16.374,63.909c0.567,6.57 0.9,17.47 6.394,26.567c1.398,2.315 4.413,3.06 6.729,1.662c2.315,-1.398 3.06,-4.413 1.662,-6.729c-4.604,-7.623 -4.543,-16.837 -5.019,-22.343c-1.452,-16.83 2.912,-38.224 14.972,-57.954Z" style="fill:none;"/><path id="back-top" d="M162.722,155.616c1.672,2.126 4.756,2.495 6.882,0.823c2.126,-1.672 2.495,-4.756 0.823,-6.882c-4.453,-5.663 -9.495,-9.571 -14.612,-11.096c-7.908,-2.357 -28.897,-5.314 -50.818,-5.874c-16.253,-0.416 -33.007,0.497 -45.371,3.802c-9.468,2.531 -16.484,6.656 -19.797,12.075c-1.411,2.308 -0.682,5.327 1.626,6.738c2.308,1.411 5.327,0.682 6.738,-1.626c2.279,-3.729 7.45,-5.976 13.965,-7.718c11.604,-3.102 27.336,-3.863 42.589,-3.473c20.816,0.532 40.759,3.231 48.269,5.469c3.466,1.033 6.69,3.925 9.707,7.761Z" style="fill:none;"/><path id="back-bottom" serif:id="back-bottom" d="M38.239,233.873c-1.398,-2.315 -4.413,-3.06 -6.729,-1.662c-2.315,1.398 -3.06,4.413 -1.662,6.729c7.059,11.689 22.597,21.442 59.075,14.18c0.249,-0.05 0.494,-0.119 0.733,-0.206c0,0 12.526,-4.302 41.19,2.147c23.737,5.34 38.159,-2.486 46.809,-15.043c1.534,-2.228 0.972,-5.282 -1.256,-6.816c-2.228,-1.534 -5.282,-0.972 -6.816,1.256c-6.723,9.76 -18.136,15.191 -36.585,11.04c-29.295,-6.591 -43.744,-2.748 -46.3,-1.929c-29.628,5.838 -42.702,-0.164 -48.458,-9.696Z" style="fill:none;"/></g></g></g><rect id="base1" serif:id="base" x="0" y="0" width="211.4" height="855.667" style="fill:none;"/></g></svg>