<?xml version="1.0" encoding="UTF-8" standalone="no"?><!DOCTYPE svg PUBLIC "-//W3C//DTD SVG 1.1//EN" "http://www.w3.org/Graphics/SVG/1.1/DTD/svg11.dtd"><svg width="100%" height="100%" viewBox="0 0 212 856" version="1.1" xmlns="http://www.w3.org/2000/svg" xmlns:xlink="http://www.w3.org/1999/xlink" xml:space="preserve" xmlns:serif="http://www.serif.com/" style="fill-rule:evenodd;clip-rule:evenodd;stroke-linejoin:round;stroke-miterlimit:2;"><g id="tooth24"><g id="tooth24-column"><g id="tooth24-front-view"><g id="tooth-24-front-base-shape"><path id="tooth9-front-view-shapes-root" d="M151.874,584.715c0,0 -10.717,7.295 -17.113,89.423c-7.047,90.475 -5.312,175.984 -16.107,177.793c-3.88,0.65 -26.173,-14.728 -32.338,-98.029c-2.601,-35.145 -6.922,-47.151 -12.862,-117.648c-1.686,-20.011 -12.191,-22.982 -15.2,-59.955c0,0 50.358,54.797 93.62,8.416Z" style="fill:#fff;"/><path d="M150.512,584.597c0.503,-0.624 0.79,-0.801 0.79,-0.801c0.448,-0.305 1.043,-0.209 1.383,0.223c0.339,0.432 0.314,1.061 -0.059,1.461c-0.138,0.148 -0.276,0.295 -0.415,0.441c-0.561,0.705 -1.947,2.716 -3.54,7.014c-3.686,9.947 -9.041,32.202 -12.864,81.292c-5.642,72.442 -5.67,141.702 -10.983,167.436c-0.83,4.022 -1.805,7.016 -2.922,8.855c-0.916,1.508 -1.973,2.31 -3.08,2.496c-0.599,0.1 -1.552,-0.035 -2.755,-0.644c-1.485,-0.751 -3.469,-2.251 -5.719,-4.847c-8.334,-9.616 -20.729,-34.801 -25.075,-93.537c-2.601,-35.142 -6.921,-47.146 -12.861,-117.636c-0.662,-7.861 -2.719,-13.041 -5.127,-18.755c-3.71,-8.802 -8.252,-18.83 -10.073,-41.203c-0.038,-0.463 0.208,-0.9 0.612,-1.091c0.405,-0.191 0.881,-0.096 1.189,0.239c0,0 12.446,13.539 30.237,21.35c17.497,7.682 40.203,9.785 61.265,-12.291Zm-3.238,6.095c-20.479,18.021 -41.987,15.616 -58.84,8.217c-13.874,-6.091 -24.57,-15.591 -28.874,-19.766c1.935,19.954 6.161,29.309 9.641,37.567c2.496,5.923 4.611,11.298 5.297,19.446c5.94,70.504 10.261,82.51 12.863,117.659c4.284,57.886 16.326,82.758 24.539,92.234c2.005,2.314 3.754,3.676 5.078,4.345c0.67,0.339 1.177,0.508 1.51,0.453c0.621,-0.104 1.129,-0.661 1.642,-1.506c1.025,-1.688 1.881,-4.451 2.643,-8.143c5.304,-25.69 5.31,-94.834 10.943,-167.151c3.853,-49.464 9.284,-71.882 12.999,-81.905c0.19,-0.514 0.377,-0.997 0.56,-1.451Z" style="fill:#6b6b6b;"/><path id="tooth-24-front-base-shape" d="M151.874,589.187c0,0 -39.32,52.968 -93.62,-3.02c0,0 -1.79,-73.319 0,-91.607c0.689,-7.043 4.008,-16.732 10.74,-18.12c14.645,-3.02 62.973,-2.852 77.13,0c6.001,1.209 7.811,17.113 7.811,17.113l-2.061,95.633Z" style="fill:#fff;"/><path d="M152.715,589.813c0,0 -14.422,19.423 -37.907,22.644c-15.603,2.14 -35.256,-2.822 -57.307,-25.559c-0.184,-0.189 -0.289,-0.441 -0.296,-0.704c0,0 -1.788,-73.421 0.005,-91.734c0.429,-4.379 1.851,-9.741 4.417,-13.644c1.813,-2.758 4.197,-4.791 7.154,-5.401c14.725,-3.036 63.315,-2.869 77.549,-0.001c2.07,0.417 3.785,2.273 5.061,4.782c2.663,5.233 3.584,13.241 3.584,13.241c0.005,0.047 0.007,0.094 0.006,0.141l-2.061,95.633c-0.005,0.217 -0.077,0.428 -0.206,0.602Zm-1.883,-0.991l2.051,-95.223c-0.096,-0.796 -0.989,-7.791 -3.361,-12.452c-0.944,-1.856 -2.075,-3.369 -3.606,-3.677c-14.08,-2.837 -62.146,-3.005 -76.711,-0.001c-2.428,0.501 -4.337,2.234 -5.826,4.499c-2.386,3.63 -3.684,8.624 -4.082,12.696c-1.709,17.462 -0.145,85.169 -0.005,91.068c21.272,21.804 40.164,26.713 55.231,24.647c21.049,-2.887 34.537,-19.291 36.309,-21.557Z" style="fill:#6b6b6b;"/></g><g id="tooth24-front-view-statuses"><path id="front-left" d="M61.398,586.091c0.042,1.736 -1.332,3.179 -3.068,3.222c-1.736,0.042 -3.179,-1.332 -3.222,-3.068c0,0 -1.783,-73.626 0.014,-91.99c0.308,-3.146 1.099,-6.774 2.424,-10.071c0.648,-1.611 2.481,-2.393 4.092,-1.745c1.611,0.648 2.393,2.481 1.745,4.092c-1.097,2.728 -1.745,5.733 -2,8.337c-1.782,18.211 0.014,91.223 0.014,91.223Z" style="fill:none;"/><path id="front-right" d="M149.128,485.891c-0.507,-1.661 0.43,-3.42 2.091,-3.927c1.661,-0.507 3.42,0.43 3.927,2.091c1.395,4.573 1.914,9.143 1.914,9.143c0.016,0.141 0.022,0.282 0.019,0.423l-2.061,95.633c-0.037,1.736 -1.477,3.115 -3.213,3.077c-1.736,-0.037 -3.115,-1.477 -3.077,-3.213l2.055,-95.414c-0.11,-0.864 -0.595,-4.338 -1.655,-7.814Z" style="fill:none;"/><path id="front-top" d="M63.384,486.531c-0.648,1.611 -2.481,2.393 -4.092,1.745c-1.611,-0.648 -2.393,-2.481 -1.745,-4.092c2.177,-5.414 5.871,-9.805 10.811,-10.824c14.884,-3.069 63.999,-2.902 78.387,-0.003c1.838,0.37 3.5,1.502 4.871,3.257c1.501,1.92 2.685,4.671 3.53,7.442c0.507,1.661 -0.43,3.42 -2.091,3.927c-1.661,0.507 -3.42,-0.43 -3.927,-2.091c-0.521,-1.709 -1.175,-3.427 -2.027,-4.772c-0.475,-0.75 -0.907,-1.455 -1.598,-1.594c-13.926,-2.806 -61.467,-2.974 -75.874,-0.003c-3.031,0.625 -4.908,3.687 -6.244,7.009Z" style="fill:none;"/><path id="front-bottom" d="M149.348,587.312c1.035,-1.394 3.007,-1.686 4.401,-0.651c1.394,1.035 1.686,3.007 0.651,4.401c0,0 -17.537,23.574 -45.54,23.938c-14.937,0.194 -32.981,-6.142 -52.864,-26.643c-1.209,-1.246 -1.178,-3.24 0.068,-4.448c1.246,-1.209 3.24,-1.178 4.448,0.068c18.215,18.781 34.581,24.909 48.266,24.732c24.965,-0.324 40.57,-21.397 40.57,-21.397Z" style="fill:none;"/></g></g><g id="tooth24-top-view"><rect id="tooth24-top-center" x="69.512" y="382.868" width="72.377" height="14.272" style="fill:#fff;"/><path d="M68.463,397.14l0,-14.272c0,-0.579 0.469,-1.049 1.049,-1.049l72.377,0c0.579,0 1.049,0.469 1.049,1.049l0,14.272c0,0.579 -0.469,1.049 -1.049,1.049l-72.377,0c-0.579,-0 -1.049,-0.469 -1.049,-1.049Zm2.097,-1.049l70.28,0l-0,-12.174l-70.28,-0l-0,12.174Z" style="fill:#6b6b6b;"/><path id="tooth24-top-left" d="M57.699,400.305c-1.922,-3.219 -2.968,-6.687 -2.968,-10.301c0,-4.615 1.708,-8.994 4.765,-12.919l10.017,5.783l0,14.272l-11.813,3.165Z" style="fill:#fff;"/><path d="M56.798,400.842c-2.021,-3.387 -3.117,-7.037 -3.117,-10.838c0,-4.844 1.778,-9.444 4.986,-13.563c0.322,-0.413 0.898,-0.526 1.352,-0.264l10.017,5.783c0.324,0.187 0.524,0.533 0.524,0.908l0,14.272c0,0.475 -0.319,0.89 -0.777,1.013l-11.813,3.165c-0.453,0.121 -0.931,-0.073 -1.172,-0.475Zm1.408,-1.759l10.256,-2.748l-0,-12.861l-8.688,-5.016c-2.563,3.541 -3.996,7.442 -3.996,11.546c0,3.171 0.856,6.222 2.428,9.079Z" style="fill:#6b6b6b;"/><path id="tooth24-top-top" d="M153.701,400.305c-7.054,11.817 -25.893,20.281 -48.001,20.281c-22.108,0 -40.948,-8.464 -48.001,-20.281l11.813,-3.165l72.377,0l11.813,3.165Z" style="fill:#fff;"/><path d="M154.602,400.842c-7.193,12.05 -26.357,20.792 -48.902,20.792c-22.545,0 -41.709,-8.742 -48.902,-20.792c-0.168,-0.282 -0.195,-0.627 -0.071,-0.932c0.124,-0.305 0.383,-0.534 0.7,-0.619l11.813,-3.165c0.089,-0.024 0.18,-0.036 0.271,-0.036l72.377,0c0.092,-0 0.183,0.012 0.271,0.036l11.813,3.165c0.317,0.085 0.577,0.314 0.7,0.619c0.124,0.305 0.097,0.649 -0.071,0.932Zm-2.553,0.105l-10.298,-2.759l-72.101,0l-10.298,2.759c7.436,10.956 25.42,18.59 46.349,18.59c20.928,0 38.912,-7.634 46.349,-18.59Z" style="fill:#6b6b6b;"/><path id="tooth24-top-right" d="M151.905,377.085c3.057,3.925 4.765,8.303 4.765,12.919c0,3.614 -1.047,7.082 -2.968,10.301l-11.813,-3.165l0,-14.272l10.017,-5.783Z" style="fill:#fff;"/><path d="M152.732,376.441c3.208,4.119 4.986,8.719 4.986,13.563c0,3.802 -1.095,7.452 -3.117,10.838c-0.24,0.403 -0.719,0.597 -1.172,0.475l-11.813,-3.165c-0.458,-0.123 -0.777,-0.538 -0.777,-1.013l0,-14.272c0,-0.375 0.2,-0.721 0.524,-0.908l10.017,-5.783c0.453,-0.262 1.03,-0.149 1.352,0.264Zm-1.108,2.017l-8.688,5.016l-0,12.861l10.256,2.748c1.572,-2.857 2.428,-5.908 2.428,-9.079c0,-4.104 -1.433,-8.005 -3.996,-11.546Z" style="fill:#6b6b6b;"/><path id="tooth24-top-bottom" d="M59.495,377.085c8.122,-10.429 25.767,-17.663 46.205,-17.663c20.438,0 38.083,7.234 46.205,17.663l-10.017,5.783l-72.377,0l-10.017,-5.783Z" style="fill:#fff;"/><path d="M58.668,376.441c8.272,-10.623 26.215,-18.067 47.032,-18.067c20.817,0 38.76,7.444 47.032,18.067c0.186,0.239 0.26,0.548 0.202,0.845c-0.058,0.298 -0.242,0.556 -0.505,0.707l-10.017,5.783c-0.159,0.092 -0.34,0.14 -0.524,0.14l-72.377,0c-0.184,0 -0.365,-0.048 -0.524,-0.14l-10.017,-5.783c-0.263,-0.152 -0.447,-0.41 -0.505,-0.707c-0.058,-0.298 0.016,-0.606 0.202,-0.845Zm2.418,0.352l8.707,5.027l71.815,0l8.707,-5.027c-8.279,-9.725 -25.173,-16.322 -44.615,-16.322c-19.442,0 -36.335,6.597 -44.615,16.322Z" style="fill:#6b6b6b;"/></g><g id="tooth24-back-view"><g id="tooth24-back-view-base-shape"><path id="tooth24-back-view-base-shape" serif:id="tooth24-back-view-base-shape" d="M63.659,138.419c8.052,-7.374 23.866,-11.147 39.971,-11.436c16.873,-0.303 34.065,3.219 42.985,10.429c2.737,2.213 4.887,5.767 6.559,10.308c10.326,28.039 2.454,93.698 2.405,113.512c-0.014,5.732 -3.973,12.576 -9.306,14.313c-8.413,2.74 -28.169,2.13 -41.171,2.13c-12.3,0 -28.657,0.611 -36.841,-2.13c-5.89,-1.972 -11.335,-4.245 -12.264,-14.313c0,0 -8.465,-82.615 2.321,-113.566c1.424,-4.085 3.183,-7.27 5.341,-9.246Z" style="fill:#fff;"/><path id="tooth24-back-view-base-shape" serif:id="tooth24-back-view-base-shape" d="M62.951,137.646c8.195,-7.505 24.269,-11.417 40.66,-11.711c17.145,-0.308 34.599,3.335 43.663,10.662c2.862,2.314 5.135,6.013 6.884,10.761c4.163,11.304 5.414,28.673 5.386,46.726c-0.041,26.869 -2.887,55.262 -2.917,67.15c-0.015,6.145 -4.313,13.445 -10.03,15.307c-8.48,2.762 -28.39,2.182 -41.495,2.182c-12.412,0 -28.916,0.581 -37.174,-2.184c-3.734,-1.25 -7.273,-2.658 -9.739,-5.847c-1.653,-2.138 -2.84,-5.082 -3.236,-9.359c-0.076,-0.746 -8.405,-83.079 2.375,-114.013c1.492,-4.281 3.361,-7.604 5.623,-9.675Zm1.416,1.547c-2.055,1.882 -3.703,4.929 -5.059,8.818c-10.743,30.828 -2.268,113.114 -2.268,113.114l0.001,0.011c0.348,3.774 1.348,6.388 2.807,8.274c2.202,2.848 5.411,4.024 8.746,5.141c8.11,2.716 24.32,2.076 36.508,2.076c12.899,0 32.5,0.64 40.846,-2.078c4.949,-1.612 8.569,-7.999 8.582,-13.319c0.029,-11.888 2.875,-40.28 2.917,-67.148c0.027,-17.771 -1.159,-34.872 -5.257,-45.998c-1.596,-4.334 -3.622,-7.742 -6.234,-9.855c-8.776,-7.094 -25.706,-10.494 -42.307,-10.196c-15.819,0.284 -31.373,3.918 -39.282,11.161Z" style="fill:#6b6b6b;"/></g><g id="tooth24-back-view-statuses"><path id="back-left" d="M59.127,260.911c0.177,1.727 -1.082,3.273 -2.809,3.45c-1.727,0.177 -3.273,-1.082 -3.45,-2.809c0,0 -8.435,-83.601 2.48,-114.922c0.571,-1.64 2.366,-2.507 4.006,-1.935c1.64,0.571 2.507,2.366 1.935,4.006c-10.657,30.581 -2.162,112.21 -2.162,112.21Z" style="fill:none;"/><path id="back-right" d="M150.222,148.808c-0.6,-1.629 0.236,-3.439 1.865,-4.039c1.629,-0.6 3.439,0.236 4.039,1.865c4.229,11.481 5.544,29.117 5.515,47.454c-0.041,26.87 -2.887,55.263 -2.917,67.152c-0.004,1.736 -1.417,3.142 -3.154,3.138c-1.736,-0.004 -3.142,-1.417 -3.138,-3.154c0.029,-11.887 2.875,-40.279 2.917,-67.146c0.027,-17.487 -1.095,-34.321 -5.128,-45.27Z" style="fill:none;"/><path id="back-top" d="M61.289,148.701c-0.571,1.64 -2.366,2.507 -4.006,1.935c-1.64,-0.571 -2.507,-2.366 -1.935,-4.006c1.628,-4.673 3.718,-8.271 6.187,-10.531c8.481,-7.767 25.076,-11.957 42.039,-12.261c17.69,-0.317 35.667,3.568 45.019,11.128c3.112,2.515 5.633,6.505 7.534,11.667c0.6,1.629 -0.236,3.439 -1.865,4.039c-1.629,0.6 -3.439,-0.236 -4.039,-1.865c-1.444,-3.92 -3.222,-7.038 -5.585,-8.948c-8.488,-6.862 -24.895,-10.019 -40.951,-9.731c-15.247,0.274 -30.28,3.629 -37.903,10.611c-1.848,1.692 -3.276,4.464 -4.495,7.962Z" style="fill:none;"/><path id="back-bottom" d="M152.433,261.224c0.004,-1.736 1.417,-3.142 3.154,-3.138c1.736,0.004 3.142,1.417 3.138,3.154c-0.017,6.97 -4.993,15.184 -11.478,17.296c-8.613,2.806 -28.834,2.285 -42.145,2.285c-12.635,0 -29.433,0.522 -37.84,-2.293c-4.133,-1.384 -8.002,-3.022 -10.732,-6.552c-1.849,-2.391 -3.224,-5.669 -3.665,-10.455c-0.159,-1.729 1.115,-3.262 2.844,-3.421c1.729,-0.159 3.262,1.115 3.421,2.844c0.301,3.269 1.114,5.55 2.377,7.184c1.939,2.508 4.817,3.452 7.752,4.435c7.961,2.666 23.878,1.967 35.842,1.967c12.693,0 31.984,0.7 40.196,-1.975c4.182,-1.362 7.124,-6.834 7.135,-11.33Z" style="fill:none;"/></g></g></g><rect id="base" x="-0" y="0" width="211.4" height="855.667" style="fill:none;"/></g></svg>