<?xml version="1.0" encoding="UTF-8" standalone="no"?><!DOCTYPE svg PUBLIC "-//W3C//DTD SVG 1.1//EN" "http://www.w3.org/Graphics/SVG/1.1/DTD/svg11.dtd"><svg width="100%" height="100%" viewBox="0 0 212 856" version="1.1" xmlns="http://www.w3.org/2000/svg" xmlns:xlink="http://www.w3.org/1999/xlink" xml:space="preserve" xmlns:serif="http://www.serif.com/" style="fill-rule:evenodd;clip-rule:evenodd;stroke-linejoin:round;stroke-miterlimit:2;"><g id="tooth14"><g id="tooth14-column"><rect id="base" x="0" y="0" width="211.4" height="855.667" style="fill:none;"/><g id="tooth14-front-view"><g id="tooth-14-front-base-shape"><path id="tooth14-front-shape-root-back" d="M135.697,144.067c0,0 -14.452,-30.678 -21.14,-11.073c-6.688,19.605 -10.689,77.033 -24.16,78.52c0,0 38.536,83.69 45.3,-67.447Z" style="fill:#e5e5e5;"/><path d="M136.745,144.113c-1.629,36.408 -5.108,59.238 -9.436,72.913c-2.978,9.41 -6.419,14.579 -9.889,16.939c-5.462,3.715 -11.206,0.912 -16.068,-4.04c-6.822,-6.948 -11.907,-17.974 -11.907,-17.974c-0.141,-0.306 -0.126,-0.661 0.04,-0.955c0.166,-0.293 0.463,-0.489 0.798,-0.526c1.377,-0.152 2.61,-1.035 3.773,-2.421c1.983,-2.364 3.694,-6.14 5.243,-10.779c6.219,-18.631 9.585,-50.891 14.267,-64.616c1.496,-4.386 3.46,-6.43 5.452,-7.041c2.081,-0.638 4.353,0.205 6.536,1.997c5.743,4.712 11.093,16.009 11.093,16.009c0.073,0.154 0.107,0.324 0.099,0.494Zm-2.107,0.168c-0.769,-1.592 -5.419,-10.949 -10.415,-15.049c-1.555,-1.276 -3.109,-2.068 -4.591,-1.613c-1.571,0.482 -2.902,2.255 -4.082,5.713c-4.681,13.722 -8.045,45.976 -14.262,64.603c-1.649,4.942 -3.513,8.944 -5.625,11.463c-1.167,1.392 -2.423,2.349 -3.755,2.831c1.462,2.938 5.659,10.85 10.94,16.228c4.083,4.158 8.805,6.895 13.392,3.775c3.229,-2.196 6.298,-7.083 9.069,-15.838c4.285,-13.54 7.706,-36.127 9.329,-72.113Z" style="fill:#6b6b6b;"/><path id="tooth14-front-shape-root" d="M176.971,285c0,0 11.782,-148.014 -31.207,-160.06c0,0 -6.907,-4.046 -13.087,36.24c-6.18,40.286 -29.738,99.102 -53.353,23.153c0,0 -25.632,-92.599 -39.26,-44.293c-13.628,48.306 1.159,122.861 -9.06,144.96c0,0 62.927,-41.418 145.967,0Z" style="fill:#fff;"/><path d="M146.14,123.957c5.328,1.519 9.86,5.03 13.684,10.069c5.618,7.403 9.719,18.143 12.659,30.558c11.312,47.777 5.533,120.499 5.533,120.499c-0.028,0.347 -0.226,0.658 -0.529,0.83c-0.303,0.171 -0.672,0.181 -0.984,0.025c-82.446,-41.121 -144.922,-0.062 -144.922,-0.062c-0.391,0.258 -0.906,0.224 -1.261,-0.081c-0.355,-0.306 -0.464,-0.81 -0.268,-1.235c4.047,-8.751 4.073,-25.814 3.582,-46.195c-0.746,-30.98 -2.783,-69.534 5.42,-98.609c1.695,-6.009 3.601,-9.9 5.587,-12.121c1.497,-1.674 3.072,-2.463 4.659,-2.583c1.575,-0.119 3.194,0.426 4.813,1.57c2.176,1.538 4.39,4.195 6.542,7.579c10.249,16.114 19.435,48.976 19.676,49.842c5.581,17.944 11.104,28.274 16.443,33.022c3.259,2.898 6.403,3.6 9.403,2.542c4.803,-1.694 9.136,-7.529 12.934,-15.325c5.88,-12.07 10.32,-28.859 12.529,-43.261c3.771,-24.582 7.912,-32.903 10.538,-35.651c1.11,-1.161 2.049,-1.486 2.683,-1.568c0.644,-0.083 1.083,0.068 1.278,0.155Zm-0.659,1.993c0.092,0.026 0.283,0.039 0.283,0.039l-0.514,-0.135l0.066,0.032c0,-0 -0.749,0.021 -1.621,0.933c-2.539,2.656 -6.337,10.759 -9.981,34.52c-2.24,14.604 -6.754,31.623 -12.716,43.862c-4.097,8.409 -8.942,14.557 -14.122,16.384c-3.655,1.289 -7.524,0.578 -11.494,-2.953c-5.503,-4.894 -11.306,-15.488 -17.058,-33.987l-0.009,-0.032c0,0 -9.162,-33.147 -19.427,-49.287c-1.978,-3.11 -3.983,-5.578 -5.982,-6.991c-1.165,-0.823 -2.311,-1.278 -3.444,-1.192c-1.44,0.109 -2.793,1.088 -4.124,2.999c-1.517,2.177 -2.941,5.5 -4.262,10.183c-8.151,28.892 -6.083,67.205 -5.342,97.99c0.451,18.74 0.376,34.724 -2.664,44.235c12.71,-7.169 69.995,-34.864 142.972,0.821c0.753,-10.724 4.685,-74.875 -5.597,-118.303c-2.389,-10.092 -5.544,-19.058 -9.703,-25.945c-4.053,-6.71 -9.047,-11.432 -15.258,-13.173Z" style="fill:#6b6b6b;"/><path id="tooth-14-front-base-shape" d="M40.557,279.072c75.175,-31.432 136.04,4.664 136.581,5.927c5.069,11.832 21.015,52.724 2.852,79.527c-21.879,32.286 -55.367,10.067 -81.54,13.087c-22.002,2.539 -58.222,15.719 -70.929,-9.895c-3.005,-6.058 -4.695,-14.286 -4.571,-25.338c0.339,-30.118 3.333,-45.248 6.122,-52.833c0.68,-1.849 1.512,-3.333 2.445,-4.547c2.584,-3.362 5.958,-4.639 9.039,-5.927Z" style="fill:#fff;"/><path d="M40.153,278.105c60.541,-25.314 111.863,-7.109 130.249,1.833c3.741,1.819 6.139,3.268 7.006,3.905c0.218,0.16 0.364,0.289 0.445,0.375l0.249,0.37c3.066,7.156 10.072,24.859 11.237,43.71c0.785,12.695 -1.083,25.901 -8.481,36.818c-11.208,16.54 -25.379,19.145 -40.111,17.975c-14.31,-1.136 -29.153,-5.938 -42.177,-4.435c-11.025,1.272 -25.614,5.205 -39.038,5.616c-13.819,0.424 -26.395,-2.873 -32.951,-16.087c-3.062,-6.173 -4.807,-14.554 -4.68,-25.816c0.341,-30.319 3.379,-45.548 6.186,-53.183c0.722,-1.962 1.607,-3.535 2.598,-4.824c2.713,-3.529 6.232,-4.903 9.466,-6.256Zm136.11,7.512c-0.475,-0.31 -3.184,-2.046 -6.778,-3.794c-18.142,-8.823 -68.784,-26.762 -128.523,-1.784c-2.928,1.224 -6.157,2.404 -8.612,5.599c-0.876,1.14 -1.654,2.534 -2.292,4.27c-2.771,7.534 -5.721,22.566 -6.058,52.483c-0.122,10.842 1.514,18.917 4.462,24.86c6.152,12.401 18.039,15.321 31.008,14.923c13.364,-0.41 27.886,-4.337 38.862,-5.603c13.149,-1.517 28.137,3.281 42.584,4.428c14.025,1.114 27.538,-1.315 38.208,-17.061c7.133,-10.526 8.88,-23.271 8.124,-35.512c-1.136,-18.376 -7.923,-35.639 -10.984,-42.809Z" style="fill:#6b6b6b;"/></g><g id="tooth14-front-accents"><path d="M102.503,342.38c14.66,27.12 44.308,14.889 51.314,11.087c-12.016,4.641 -29.734,6.466 -43.205,-3.153c-4.476,-3.196 -7.352,-6.974 -8.109,-7.933Z" style="fill:#6b6b6b;"/><path d="M58.21,358.36c8.975,1.813 20.482,1.913 29.686,-1.622c3.117,-1.197 8.978,-2.935 15.353,3.171c2.537,2.43 4.023,5.141 4.296,5.638c-3.525,-9.655 -11.397,-14.957 -20.634,-11.351c-0.851,0.332 -11.297,4.864 -26.655,4.287c-1.026,-0.039 -1.023,-0.044 -2.045,-0.123Z" style="fill:#6b6b6b;"/></g><g id="tooth14-front-statuses"><path id="front-bottom" d="M182.595,366.291c0.974,-1.437 0.598,-3.395 -0.839,-4.369c-1.437,-0.974 -3.395,-0.598 -4.369,0.839c-10.132,14.952 -22.988,17.204 -36.306,16.147c-14.583,-1.158 -29.718,-5.952 -42.99,-4.421c-10.927,1.261 -25.382,5.183 -38.686,5.59c-12.119,0.372 -23.316,-2.171 -29.065,-13.759c-0.772,-1.555 -2.661,-2.192 -4.216,-1.42c-1.555,0.772 -2.192,2.661 -1.42,4.216c5.626,11.34 15.351,15.911 26.632,17.013c15.503,1.514 34.089,-3.846 47.476,-5.39c12.901,-1.489 27.597,3.317 41.771,4.442c15.439,1.226 30.266,-1.555 42.013,-18.889Z" style="fill:none;"/><path id="front-right" d="M180.03,283.761c-0.684,-1.596 -2.535,-2.337 -4.13,-1.653c-1.596,0.684 -2.337,2.535 -1.653,4.13c2.969,6.929 9.778,24.064 10.906,42.317c0.728,11.786 -0.899,24.071 -7.767,34.206c-0.974,1.437 -0.598,3.395 0.839,4.369c1.437,0.974 3.395,0.598 4.369,-0.839c7.662,-11.307 9.651,-24.974 8.838,-38.123c-1.184,-19.151 -8.288,-37.137 -11.403,-44.407Z" style="fill:none;"/><path id="front-left" d="M24.703,369.116c0.772,1.555 2.661,2.192 4.216,1.42c1.555,-0.772 2.192,-2.661 1.42,-4.216c-2.834,-5.712 -4.361,-13.483 -4.243,-23.905c0.332,-29.514 3.196,-44.35 5.929,-51.783c0.555,-1.509 1.225,-2.724 1.987,-3.715c1.058,-1.376 0.8,-3.353 -0.577,-4.411c-1.376,-1.058 -3.353,-0.8 -4.411,0.577c-1.105,1.438 -2.099,3.19 -2.904,5.379c-2.845,7.737 -5.969,23.162 -6.315,53.883c-0.131,11.683 1.722,20.368 4.898,26.771Z" style="fill:none;"/><path id="front-top" d="M174.886,287.197c0.882,0.903 2.262,1.222 3.491,0.695c1.596,-0.684 2.337,-2.535 1.653,-4.13l-0.494,-0.805l-0.888,-0.804c-0.908,-0.667 -3.413,-2.195 -7.33,-4.1c-18.63,-9.06 -70.632,-27.531 -131.975,-1.881c-3.541,1.48 -7.35,3.05 -10.32,6.912c-1.058,1.376 -0.8,3.353 0.577,4.411c1.376,1.058 3.353,0.8 4.411,-0.577c2.199,-2.861 5.137,-3.846 7.759,-4.942c58.936,-24.643 108.898,-6.969 126.797,1.735c3.369,1.638 5.917,3.232 6.319,3.487Z" style="fill:none;"/></g></g><g id="tooth14-top-view"><g id="tooth14-top-view-statuses"><ellipse id="tooth14-top-center" cx="103.394" cy="508.367" rx="50.872" ry="50.392" style="fill:#fff;"/><path d="M103.394,456.926c28.658,0 51.92,23.052 51.92,51.44c0,28.388 -23.262,51.44 -51.92,51.44c-28.658,0 -51.92,-23.052 -51.92,-51.44c0,-28.388 23.262,-51.44 51.92,-51.44Zm0,2.097c-27.495,0 -49.823,22.107 -49.823,49.343c0,27.236 22.328,49.343 49.823,49.343c27.495,0 49.823,-22.107 49.823,-49.343c0,-27.236 -22.328,-49.343 -49.823,-49.343Z" style="fill:#6b6b6b;"/><path id="tooth14-top-left" d="M45.036,566.725c-14.942,-14.942 -24.189,-35.578 -24.189,-58.358c0,-22.779 9.247,-43.416 24.189,-58.358l22.564,22.564c-9.309,9.134 -15.078,21.802 -15.078,35.794c0,13.992 5.769,26.659 15.078,35.794l-22.564,22.564Z" style="fill:#fff;"/><path d="M44.294,567.466c-15.132,-15.132 -24.496,-36.031 -24.496,-59.099c0,-23.069 9.364,-43.968 24.496,-59.099c0.41,-0.41 1.073,-0.41 1.483,0l22.564,22.564c0.198,0.198 0.308,0.467 0.307,0.746c-0.001,0.28 -0.114,0.548 -0.314,0.743c-9.114,8.944 -14.764,21.346 -14.764,35.045c0,13.699 5.65,26.102 14.764,35.045c0.2,0.196 0.313,0.464 0.314,0.743c0.001,0.28 -0.109,0.549 -0.307,0.746l-22.564,22.564c-0.41,0.41 -1.073,0.41 -1.483,0Zm0.746,-2.229l21.077,-21.077c-9.063,-9.263 -14.644,-21.888 -14.644,-35.793c0,-13.906 5.581,-26.53 14.644,-35.793l-21.077,-21.077c-14.319,14.689 -23.145,34.757 -23.145,56.87c0,22.113 8.826,42.181 23.145,56.87Z" style="fill:#6b6b6b;"/><path id="tooth14-top-bottom" d="M161.751,566.725c-14.942,14.942 -35.578,24.189 -58.358,24.189c-22.779,0 -43.416,-9.247 -58.358,-24.189l22.564,-22.564c9.194,9.022 21.842,14.598 35.794,14.598c13.952,0 26.599,-5.576 35.794,-14.598l22.564,22.564Z" style="fill:#fff;"/><path d="M162.493,567.466c-15.132,15.132 -36.031,24.496 -59.099,24.496c-23.069,0 -43.968,-9.364 -59.099,-24.496c-0.41,-0.41 -0.41,-1.073 -0,-1.483l22.564,-22.564c0.407,-0.407 1.065,-0.41 1.476,-0.007c9.006,8.837 21.394,14.298 35.059,14.298c13.665,0 26.054,-5.461 35.059,-14.298c0.411,-0.403 1.069,-0.4 1.476,0.007l22.564,22.564c0.41,0.41 0.41,1.073 -0,1.483Zm-2.229,-0.746l-21.091,-21.091c-9.315,8.783 -21.916,14.178 -35.78,14.178c-13.863,0 -26.464,-5.395 -35.78,-14.178l-21.091,21.091c14.689,14.319 34.757,23.145 56.87,23.145c22.113,0 42.181,-8.826 56.87,-23.145Z" style="fill:#6b6b6b;"/><path id="tooth14-top-right" d="M161.751,450.009c14.942,14.942 24.189,35.578 24.189,58.358c0,22.779 -9.247,43.416 -24.189,58.358l-22.564,-22.564c9.309,-9.134 15.078,-21.802 15.078,-35.794c0,-13.992 -5.769,-26.659 -15.078,-35.794l22.564,-22.564Z" style="fill:#fff;"/><path d="M162.493,449.267c15.132,15.132 24.496,36.031 24.496,59.099c0,23.069 -9.364,43.968 -24.496,59.099c-0.41,0.41 -1.073,0.41 -1.483,0l-22.564,-22.564c-0.198,-0.198 -0.308,-0.467 -0.307,-0.746c0.001,-0.28 0.114,-0.548 0.314,-0.743c9.114,-8.944 14.764,-21.346 14.764,-35.045c0,-13.699 -5.65,-26.102 -14.764,-35.045c-0.2,-0.196 -0.313,-0.464 -0.314,-0.743c-0.001,-0.28 0.109,-0.549 0.307,-0.746l22.564,-22.564c0.41,-0.41 1.073,-0.41 1.483,0Zm-0.746,2.229l-21.077,21.077c9.063,9.263 14.644,21.888 14.644,35.793c0,13.906 -5.581,26.53 -14.644,35.793l21.077,21.077c14.319,-14.689 23.145,-34.757 23.145,-56.87c0,-22.113 -8.826,-42.181 -23.145,-56.87Z" style="fill:#6b6b6b;"/><path id="tooth14-top-top" d="M45.036,450.009c14.942,-14.942 35.578,-24.189 58.358,-24.189c22.779,0 43.416,9.247 58.358,24.189l-22.564,22.564c-9.194,-9.022 -21.842,-14.598 -35.794,-14.598c-13.952,0 -26.599,5.576 -35.794,14.598l-22.564,-22.564Z" style="fill:#fff;"/><path d="M44.294,449.267c15.132,-15.132 36.031,-24.496 59.099,-24.496c23.069,0 43.968,9.364 59.099,24.496c0.41,0.41 0.41,1.073 -0,1.483l-22.564,22.564c-0.407,0.407 -1.065,0.41 -1.476,0.007c-9.006,-8.837 -21.394,-14.298 -35.059,-14.298c-13.665,0 -26.054,5.461 -35.059,14.298c-0.411,0.403 -1.069,0.4 -1.476,-0.007l-22.564,-22.564c-0.41,-0.41 -0.41,-1.073 0,-1.483Zm2.229,0.746l21.091,21.091c9.315,-8.783 21.916,-14.178 35.78,-14.178c13.863,0 26.464,5.395 35.78,14.178l21.091,-21.091c-14.689,-14.319 -34.757,-23.145 -56.87,-23.145c-22.113,0 -42.181,8.826 -56.87,23.145Z" style="fill:#6b6b6b;"/></g></g><g id="tooth14-back-view"><g id="tooth14-back-view-base-shape"><path id="tooth14-back-view-base-shape" d="M188.462,682.139c-0.557,-6.459 -0.704,-17.218 -6.104,-26.162c-6.864,-11.367 -22.215,-19.799 -57.686,-12.738c0,0 -14.311,5.257 -47.023,-2.103c-22.564,-5.076 -36.384,2.015 -44.607,13.952c-5.47,7.941 -8.463,18.028 -9.904,28.102c-2.706,18.919 5.44,47.197 17.439,62.457c3.995,5.081 8.417,8.718 13.008,10.086c8.247,2.458 30.141,5.483 53.001,6.068c28.088,0.718 57.632,-2.248 65.109,-14.479c13.561,-22.185 18.4,-46.259 16.767,-65.184Z" style="fill:#fff;"/><path id="tooth14-back-view-base-shape" serif:id="tooth14-back-view-base-shape" d="M189.487,682.039c-0.568,-6.583 -0.759,-17.538 -6.263,-26.654c-6.995,-11.584 -22.593,-20.418 -58.741,-13.223c-0.05,0.01 -0.099,0.024 -0.147,0.041c0,0 -14.143,5.135 -46.474,-2.139c-23.104,-5.198 -37.23,2.153 -45.65,14.376c-5.565,8.08 -8.625,18.335 -10.091,28.585c-2.744,19.18 5.503,47.854 17.667,63.324c4.146,5.273 8.755,9.018 13.52,10.438c8.286,2.469 30.284,5.52 53.254,6.108c16.951,0.434 34.43,-0.477 47.325,-3.924c8.856,-2.368 15.572,-5.982 18.671,-11.052c13.705,-22.421 18.58,-46.756 16.929,-65.881Zm-2.049,0.2c1.616,18.723 -3.188,42.537 -16.605,64.486c-2.882,4.715 -9.21,7.92 -17.447,10.122c-12.745,3.407 -30.021,4.287 -46.774,3.859c-22.75,-0.582 -44.541,-3.582 -52.748,-6.028c-4.417,-1.316 -8.652,-4.846 -12.496,-9.735c-11.833,-15.048 -19.88,-42.932 -17.211,-61.589c1.416,-9.9 4.341,-19.816 9.716,-27.62c8.026,-11.651 21.54,-18.483 43.564,-13.528c31.732,7.139 46.35,2.487 47.493,2.094c34.745,-6.902 49.834,1.125 56.563,12.267c5.297,8.771 5.399,19.335 5.945,25.67Z" style="fill:#6b6b6b;"/></g><g id="tooth14-back-view-accents"><path d="M101.53,680.477c3.185,-3.522 9.32,-10.155 24.773,-12.941c7.839,-1.413 16.868,-1.13 23.665,0.33c-9.638,-3.482 -23.154,-5.052 -33.391,-0.556c-7.19,3.158 -11.707,7.741 -15.048,13.167Z" style="fill:#6b6b6b;"/><path d="M70.292,662.048c5.136,3.512 15.516,9.957 26.788,8.757c7.414,-0.789 15.159,-5.831 18.878,-13.897c-2.852,4.204 -7.65,7.899 -12.537,9.694c-13.135,4.823 -26.087,-0.961 -33.129,-4.553Z" style="fill:#6b6b6b;"/></g><g id="tooth14-back-view-statuses"><path id="back-left" serif:id="back-left" d="M37.36,658.063c1.642,-2.383 1.039,-5.651 -1.344,-7.292c-2.383,-1.642 -5.651,-1.039 -7.292,1.344c-5.91,8.58 -9.219,19.45 -10.776,30.334c-2.878,20.122 5.746,50.21 18.508,66.44c1.789,2.275 5.088,2.669 7.362,0.881c2.275,-1.789 2.669,-5.088 0.881,-7.362c-11.236,-14.289 -18.904,-40.758 -16.37,-58.474c1.325,-9.265 4.001,-18.567 9.031,-25.871Z" style="fill:none;"/><path id="back-right" d="M167.221,744.589c-1.509,2.469 -0.73,5.699 1.739,7.208c2.469,1.509 5.699,0.73 7.208,-1.739c14.22,-23.264 19.23,-48.525 17.517,-68.369c-0.607,-7.028 -0.963,-18.689 -6.84,-28.421c-1.496,-2.477 -4.721,-3.274 -7.199,-1.778c-2.477,1.496 -3.274,4.721 -1.778,7.199c4.925,8.155 4.861,18.013 5.369,23.902c1.554,18.004 -3.115,40.891 -16.017,61.998Z" style="fill:none;"/><path id="back-bottom" serif:id="back-bottom" d="M44.699,742.407c-1.789,-2.275 -5.088,-2.669 -7.362,-0.881c-2.275,1.789 -2.669,5.088 -0.881,7.362c4.764,6.058 10.158,10.239 15.632,11.87c8.46,2.521 30.913,5.685 54.364,6.284c17.387,0.445 35.311,-0.532 48.538,-4.068c10.128,-2.708 17.634,-7.12 21.178,-12.918c1.509,-2.469 0.73,-5.699 -1.739,-7.208c-2.469,-1.509 -5.699,-0.73 -7.208,1.739c-2.438,3.989 -7.97,6.393 -14.939,8.256c-12.414,3.318 -29.244,4.133 -45.562,3.715c-22.269,-0.57 -43.604,-3.457 -51.637,-5.851c-3.708,-1.105 -7.157,-4.199 -10.384,-8.302Z" style="fill:none;"/><path id="back-top" serif:id="back-top" d="M177.869,658.688c1.496,2.477 4.721,3.274 7.199,1.778c2.477,-1.496 3.274,-4.721 1.778,-7.199c-7.551,-12.505 -24.174,-22.938 -63.198,-15.17c-0.267,0.053 -0.529,0.127 -0.784,0.221c0,0 -13.4,4.603 -44.064,-2.296c-25.393,-5.713 -40.822,2.659 -50.075,16.093c-1.642,2.383 -1.039,5.651 1.344,7.292c2.383,1.642 5.651,1.039 7.292,-1.344c7.192,-10.441 19.401,-16.251 39.138,-11.811c31.34,7.051 46.797,2.939 49.532,2.063c31.696,-6.245 45.682,0.176 51.84,10.373Z" style="fill:none;"/></g></g></g><rect id="base1" serif:id="base" x="0" y="0" width="211.4" height="855.667" style="fill:none;"/></g></svg>