<?xml version="1.0" encoding="UTF-8" standalone="no"?><!DOCTYPE svg PUBLIC "-//W3C//DTD SVG 1.1//EN" "http://www.w3.org/Graphics/SVG/1.1/DTD/svg11.dtd"><svg width="100%" height="100%" viewBox="0 0 212 856" version="1.1" xmlns="http://www.w3.org/2000/svg" xmlns:xlink="http://www.w3.org/1999/xlink" xml:space="preserve" xmlns:serif="http://www.serif.com/" style="fill-rule:evenodd;clip-rule:evenodd;stroke-linejoin:round;stroke-miterlimit:2;"><g id="tooth6"><g id="tooth6-column"><g id="tooth6-front-view"><g id="tooth-6-front-base-shape"><path id="tooth6-front-view-shapes-roots" d="M63.633,310.092c0,0 16.394,-53.354 22.25,-122.34c4.307,-50.746 0.748,-157.908 10.042,-159.518c3.341,-0.579 21.062,32.204 27.102,76.785c5.668,41.833 19.127,120.962 25.167,206.079c0,0 -47.313,-42.28 -84.56,-1.007Z" style="fill:#fff;"/><path id="tooth6-front-view-shapes-roots1" serif:id="tooth6-front-view-shapes-roots" d="M62.63,309.784c0,0 16.362,-53.258 22.207,-122.12c3.447,-40.61 1.861,-117.339 5.848,-147.231c0.722,-5.416 1.655,-9.338 2.79,-11.323c0.67,-1.173 1.474,-1.77 2.27,-1.908c0.398,-0.069 0.924,0.016 1.516,0.415c0.761,0.512 1.821,1.692 3.054,3.515c6.48,9.582 18.889,37.862 23.751,73.748c5.669,41.847 19.132,121.001 25.174,206.145c0.03,0.426 -0.201,0.828 -0.584,1.016c-0.383,0.188 -0.842,0.125 -1.161,-0.159c0,0 -46.486,-41.639 -83.083,-1.086c-0.329,0.365 -0.868,0.452 -1.296,0.209c-0.428,-0.243 -0.629,-0.75 -0.485,-1.22Zm33.364,-280.479c-0.114,0.057 -0.214,0.167 -0.325,0.297c-0.276,0.326 -0.528,0.789 -0.773,1.37c-0.86,2.038 -1.55,5.377 -2.132,9.737c-3.984,29.871 -2.392,106.549 -5.837,147.131c-4.907,57.812 -17.203,104.665 -21.093,118.438c32.854,-32.227 72.097,-4.703 81.137,2.45c-6.12,-84.158 -19.373,-162.15 -24.984,-203.569c-4.802,-35.444 -17.009,-63.391 -23.41,-72.855c-0.894,-1.322 -1.657,-2.266 -2.265,-2.779c-0.099,-0.083 -0.238,-0.173 -0.318,-0.222Z" style="fill:#6b6b6b;"/><path id="tooth-6-front-base-shape" serif:id="tooth-6-front-base-shape" d="M63.633,311.099c0,0 -10.764,57.729 -2.866,69.46c7.897,11.731 31.121,28.533 46.153,30.2c15.032,1.667 43.638,-19.378 46.132,-32.213c2.494,-12.835 -4.859,-67.447 -4.859,-67.447c0,0 -44.99,-54.741 -84.56,0Z" style="fill:#fff;"/><path id="tooth-6-front-base-shape" serif:id="tooth-6-front-base-shape" d="M62.783,310.484c12.107,-16.749 24.747,-23.397 36.461,-24.57c10.955,-1.096 21.138,2.61 29.407,7.479c12.307,7.246 20.352,17.04 20.352,17.04c0.124,0.151 0.203,0.333 0.229,0.526c0,0 7.356,54.887 4.849,67.787c-1.281,6.592 -9.188,15.361 -18.785,22.199c-9.576,6.824 -20.788,11.711 -28.492,10.856c-15.273,-1.694 -38.884,-18.738 -46.907,-30.657c-2.442,-3.628 -3.243,-11.51 -3.042,-20.785c0.457,-21.068 5.747,-49.453 5.747,-49.453c0.028,-0.152 0.09,-0.297 0.181,-0.422Zm1.838,1.038c-0.5,2.73 -5.24,29.065 -5.67,48.883c-0.115,5.319 0.078,10.163 0.759,13.937c0.43,2.381 1.042,4.319 1.926,5.632c7.771,11.544 30.606,28.103 45.399,29.743c7.328,0.813 17.935,-3.989 27.044,-10.48c5.514,-3.929 10.477,-8.496 13.827,-12.888c2.156,-2.827 3.643,-5.565 4.117,-8.003c2.373,-12.214 -4.246,-62.445 -4.829,-66.805c-1.26,-1.476 -8.72,-9.931 -19.607,-16.34c-7.914,-4.659 -17.65,-8.248 -28.134,-7.199c-11.212,1.122 -23.239,7.565 -34.832,23.521Z" style="fill:#6b6b6b;"/></g><g id="tooth6-front-view-statuses"><path id="front-right" d="M156.14,379.145c-0.331,1.704 -1.984,2.819 -3.688,2.488c-1.704,-0.331 -2.819,-1.984 -2.488,-3.688c2.457,-12.643 -4.889,-66.427 -4.889,-66.427c-0.232,-1.721 0.977,-3.306 2.698,-3.537c1.721,-0.232 3.306,0.977 3.537,2.698c0,0 7.361,55.438 4.829,68.466Z" style="fill:none;"/><path id="front-left" d="M60.54,310.522c0.318,-1.707 1.962,-2.834 3.669,-2.516c1.707,0.318 2.834,1.962 2.516,3.669c0,0 -5.226,27.995 -5.677,48.775c-0.112,5.159 0.066,9.859 0.727,13.518c0.368,2.037 0.846,3.71 1.602,4.833c0.97,1.44 0.587,3.397 -0.853,4.366c-1.44,0.97 -3.397,0.587 -4.366,-0.853c-2.588,-3.845 -3.613,-12.172 -3.399,-22.002c0.46,-21.212 5.783,-49.792 5.783,-49.792Z" style="fill:none;"/><path id="front-bottom" d="M58.157,382.316c-0.97,-1.44 -0.587,-3.397 0.853,-4.366c1.44,-0.97 3.397,-0.587 4.366,0.853c7.519,11.169 29.578,27.243 43.89,28.83c6.953,0.771 16.953,-3.945 25.596,-10.103c5.331,-3.799 10.137,-8.206 13.376,-12.452c1.927,-2.527 3.302,-4.952 3.726,-7.131c0.331,-1.704 1.984,-2.819 3.688,-2.488c1.704,0.331 2.819,1.984 2.488,3.688c-1.349,6.942 -9.521,16.306 -19.627,23.507c-10.043,7.157 -21.86,12.129 -29.94,11.233c-15.753,-1.747 -40.14,-19.277 -48.416,-31.57Z" style="fill:none;"/><path id="front-top" d="M150.623,309.101c1.102,1.341 0.908,3.325 -0.433,4.428c-1.341,1.102 -3.325,0.908 -4.428,-0.433c0,0 -7.611,-9.242 -19.239,-16.089c-7.559,-4.45 -16.847,-7.922 -26.861,-6.92c-10.8,1.081 -22.317,7.411 -33.479,22.854c-1.017,1.407 -2.985,1.724 -4.392,0.707c-1.407,-1.017 -1.724,-2.985 -0.707,-4.392c12.58,-17.403 25.78,-24.21 37.952,-25.428c11.425,-1.144 22.056,2.681 30.68,7.758c12.647,7.445 20.908,17.516 20.908,17.516Z" style="fill:none;"/></g></g><g id="tooth6-top-view"><rect id="tooth6-top-center" x="69.512" y="517.198" width="72.377" height="14.272" style="fill:#fff;"/><path d="M68.463,531.469l0,-14.272c0,-0.579 0.469,-1.049 1.049,-1.049l72.377,0c0.579,0 1.049,0.469 1.049,1.049l0,14.272c0,0.579 -0.469,1.049 -1.049,1.049l-72.377,0c-0.579,-0 -1.049,-0.469 -1.049,-1.049Zm2.097,-1.049l70.28,0l-0,-12.174l-70.28,-0l-0,12.174Z" style="fill:#6b6b6b;"/><path id="tooth6-top-left" d="M57.699,534.634c-1.922,-3.219 -2.968,-6.687 -2.968,-10.301c0,-4.615 1.708,-8.994 4.765,-12.919l10.017,5.783l0,14.272l-11.813,3.165Z" style="fill:#fff;"/><path d="M56.798,535.172c-2.021,-3.387 -3.117,-7.037 -3.117,-10.838c0,-4.844 1.778,-9.444 4.986,-13.563c0.322,-0.413 0.898,-0.526 1.352,-0.264l10.017,5.783c0.324,0.187 0.524,0.533 0.524,0.908l0,14.272c0,0.475 -0.319,0.89 -0.777,1.013l-11.813,3.165c-0.453,0.121 -0.931,-0.073 -1.172,-0.475Zm1.408,-1.759l10.256,-2.748l-0,-12.861l-8.688,-5.016c-2.563,3.541 -3.996,7.442 -3.996,11.546c0,3.171 0.856,6.222 2.428,9.079Z" style="fill:#6b6b6b;"/><path id="tooth6-top-bottom" d="M153.701,534.634c-7.054,11.817 -25.893,20.281 -48.001,20.281c-22.108,0 -40.948,-8.464 -48.001,-20.281l11.813,-3.165l72.377,0l11.813,3.165Z" style="fill:#fff;"/><path d="M154.602,535.172c-7.193,12.05 -26.357,20.792 -48.902,20.792c-22.545,0 -41.709,-8.742 -48.902,-20.792c-0.168,-0.282 -0.195,-0.627 -0.071,-0.932c0.124,-0.305 0.383,-0.534 0.7,-0.619l11.813,-3.165c0.089,-0.024 0.18,-0.036 0.271,-0.036l72.377,0c0.092,-0 0.183,0.012 0.271,0.036l11.813,3.165c0.317,0.085 0.577,0.314 0.7,0.619c0.124,0.305 0.097,0.649 -0.071,0.932Zm-2.553,0.105l-10.298,-2.759l-72.101,0l-10.298,2.759c7.436,10.956 25.42,18.59 46.349,18.59c20.928,0 38.912,-7.634 46.349,-18.59Z" style="fill:#6b6b6b;"/><path id="tooth6-top-right" d="M151.905,511.414c3.057,3.925 4.765,8.303 4.765,12.919c0,3.614 -1.047,7.082 -2.968,10.301l-11.813,-3.165l0,-14.272l10.017,-5.783Z" style="fill:#fff;"/><path d="M152.732,510.77c3.208,4.119 4.986,8.719 4.986,13.563c0,3.802 -1.095,7.452 -3.117,10.838c-0.24,0.403 -0.719,0.597 -1.172,0.475l-11.813,-3.165c-0.458,-0.123 -0.777,-0.538 -0.777,-1.013l0,-14.272c0,-0.375 0.2,-0.721 0.524,-0.908l10.017,-5.783c0.453,-0.262 1.03,-0.149 1.352,0.264Zm-1.108,2.017l-8.688,5.016l-0,12.861l10.256,2.748c1.572,-2.857 2.428,-5.908 2.428,-9.079c0,-4.104 -1.433,-8.005 -3.996,-11.546Z" style="fill:#6b6b6b;"/><path id="tooth6-top-top" d="M59.495,511.414c8.122,-10.429 25.767,-17.663 46.205,-17.663c20.438,0 38.083,7.234 46.205,17.663l-10.017,5.783l-72.377,0l-10.017,-5.783Z" style="fill:#fff;"/><path d="M58.668,510.77c8.272,-10.623 26.215,-18.067 47.032,-18.067c20.817,0 38.76,7.444 47.032,18.067c0.186,0.239 0.26,0.548 0.202,0.845c-0.058,0.298 -0.242,0.556 -0.505,0.707l-10.017,5.783c-0.159,0.092 -0.34,0.14 -0.524,0.14l-72.377,0c-0.184,0 -0.365,-0.048 -0.524,-0.14l-10.017,-5.783c-0.263,-0.152 -0.447,-0.41 -0.505,-0.707c-0.058,-0.298 0.016,-0.606 0.202,-0.845Zm2.418,0.352l8.707,5.027l71.815,0l8.707,-5.027c-8.279,-9.725 -25.173,-16.322 -44.615,-16.322c-19.442,0 -36.335,6.597 -44.615,16.322Z" style="fill:#6b6b6b;"/></g><g id="tooth6-back-view"><g id="tooth6-back-view-base-shape"><path id="tooth6-back-view-base-shape" serif:id="tooth6-back-view-base-shape" d="M63.859,659.961c-6.012,14.25 -6.003,39.965 -4.251,57.046c1.372,13.372 4.274,23.322 10.521,36.752c1.271,2.733 2.681,5.611 4.245,8.691c0,0 44.297,8.656 64.599,-1.082c0,0 1.14,-2.913 2.74,-7.379c3.412,-9.528 8.915,-26.125 9.9,-36.592c1.574,-16.732 2.519,-42.112 -3.194,-56.421c-8.057,-20.181 -42.11,-23.153 -42.11,-23.153c0,0 -35.233,5.033 -42.45,22.138Z" style="fill:#fff;"/><path id="tooth6-back-view-base-shape" serif:id="tooth6-back-view-base-shape" d="M62.893,659.553c2.981,-7.066 10.545,-12.193 18.604,-15.734c11.837,-5.202 24.664,-7.034 24.664,-7.034c0.079,-0.011 0.16,-0.014 0.239,-0.007c0,0 12.434,1.085 24.147,6.374c7.941,3.586 15.521,9.109 18.845,17.435c5.762,14.433 4.852,40.031 3.264,56.908c-0.992,10.539 -6.521,27.254 -9.956,36.847c-1.606,4.484 -2.75,7.408 -2.75,7.408c-0.097,0.247 -0.284,0.448 -0.523,0.563c-8.245,3.955 -20.384,4.954 -31.987,4.69c-17.235,-0.392 -33.267,-3.525 -33.267,-3.525c-0.317,-0.062 -0.588,-0.266 -0.734,-0.554c-1.57,-3.091 -2.985,-5.98 -4.261,-8.723c-6.303,-13.552 -9.229,-23.593 -10.613,-37.087c-1.768,-17.236 -1.739,-43.182 4.328,-57.561Zm1.932,0.815c-5.958,14.121 -5.91,39.605 -4.174,56.532c1.359,13.25 4.239,23.108 10.428,36.417c1.203,2.587 2.531,5.303 3.996,8.198c2.821,0.522 17.139,3.045 32.411,3.392c11.08,0.252 22.672,-0.622 30.66,-4.31c0.358,-0.93 1.327,-3.469 2.578,-6.963c3.389,-9.462 8.865,-25.942 9.843,-36.337c1.561,-16.587 2.539,-41.749 -3.123,-55.934c-3.121,-7.818 -10.305,-12.934 -17.761,-16.301c-10.718,-4.84 -22.058,-6.059 -23.35,-6.185c-1.323,0.2 -13.088,2.067 -23.993,6.86c-7.549,3.317 -14.724,8.012 -17.516,14.63Z" style="fill:#6b6b6b;"/></g><g id="tooth6-back-view-statuses"><path id="back-right" serif:id="back-right" d="M144.674,755.049c-0.585,1.635 -2.388,2.486 -4.022,1.901c-1.635,-0.585 -2.486,-2.388 -1.901,-4.022c3.342,-9.331 8.765,-25.575 9.729,-35.826c1.533,-16.297 2.581,-41.023 -2.983,-54.96c-0.644,-1.612 0.143,-3.444 1.755,-4.088c1.612,-0.644 3.444,0.143 4.088,1.755c5.861,14.681 5.019,40.714 3.404,57.882c-1.005,10.684 -6.587,27.633 -10.07,37.358Z" style="fill:none;"/><path id="back-left" serif:id="back-left" d="M60.961,658.738c0.675,-1.6 2.522,-2.35 4.121,-1.676c1.6,0.675 2.35,2.522 1.676,4.121c-5.849,13.862 -5.724,38.886 -4.02,55.502c1.334,13.007 4.168,22.682 10.244,35.746c0.732,1.574 0.049,3.447 -1.526,4.179c-1.574,0.732 -3.447,0.049 -4.179,-1.526c-6.417,-13.797 -9.388,-24.021 -10.798,-37.757c-1.8,-17.546 -1.694,-43.952 4.482,-58.59Z" style="fill:none;"/><path id="back-bottom" serif:id="back-bottom" d="M67.277,755.086c-0.732,-1.574 -0.049,-3.447 1.526,-4.179c1.574,-0.732 3.447,-0.049 4.179,1.526c1.064,2.288 2.227,4.678 3.497,7.205c4.308,0.761 17.291,2.86 31.057,3.173c10.393,0.236 21.26,-0.489 28.965,-3.776c0.471,-1.238 1.275,-3.38 2.251,-6.107c0.585,-1.635 2.388,-2.486 4.022,-1.901c1.635,0.585 2.486,2.388 1.901,4.022c-1.618,4.518 -2.772,7.465 -2.772,7.465c-0.29,0.742 -0.851,1.345 -1.569,1.69c-8.494,4.074 -20.988,5.168 -32.942,4.896c-17.418,-0.396 -33.621,-3.563 -33.621,-3.563c-0.951,-0.186 -1.763,-0.799 -2.202,-1.663c-1.581,-3.114 -3.007,-6.024 -4.292,-8.788Z" style="fill:none;"/><path id="back-top" serif:id="back-top" d="M151.341,659.81c0.644,1.612 -0.143,3.444 -1.755,4.088c-1.612,0.644 -3.444,-0.143 -4.088,-1.755c-2.919,-7.311 -9.704,-12.019 -16.676,-15.167c-9.916,-4.478 -20.38,-5.765 -22.431,-5.983c-2.112,0.333 -13.04,2.199 -23.205,6.667c-7.038,3.093 -13.824,7.354 -16.427,13.525c-0.675,1.6 -2.522,2.35 -4.121,1.676c-1.6,-0.675 -2.35,-2.522 -1.676,-4.121c3.17,-7.514 11.123,-13.073 19.693,-16.839c12.1,-5.317 25.211,-7.19 25.211,-7.19c0.238,-0.034 0.479,-0.041 0.718,-0.02c0,0 12.785,1.114 24.828,6.552c8.425,3.805 16.403,9.735 19.93,18.569Z" style="fill:none;"/></g></g></g><rect id="base" x="0" y="0" width="211.4" height="855.667" style="fill:none;"/></g></svg>