<?xml version="1.0" encoding="UTF-8" standalone="no"?><!DOCTYPE svg PUBLIC "-//W3C//DTD SVG 1.1//EN" "http://www.w3.org/Graphics/SVG/1.1/DTD/svg11.dtd"><svg width="100%" height="100%" viewBox="0 0 212 856" version="1.1" xmlns="http://www.w3.org/2000/svg" xmlns:xlink="http://www.w3.org/1999/xlink" xml:space="preserve" xmlns:serif="http://www.serif.com/" style="fill-rule:evenodd;clip-rule:evenodd;stroke-linejoin:round;stroke-miterlimit:2;"><g id="tooth25"><g id="tooth25-column"><rect id="base" x="-0" y="6.923" width="211.4" height="805.333" style="fill:none;"/><g id="tooth25-front-view"><g id="tooth-25-front-base-shape"><path id="tooth25-front-view-shapes-root" d="M59.526,589.52c0,0 10.717,7.236 17.113,88.696c7.047,89.739 5.312,174.553 16.107,176.348c3.88,0.645 26.173,-14.609 32.338,-97.232c2.601,-34.86 6.922,-46.768 12.862,-116.691c1.686,-19.849 12.191,-22.795 15.2,-59.468c0,0 -50.358,54.351 -93.62,8.348Z" style="fill:#fff;"/><path d="M60.888,589.404c21.063,21.897 43.768,19.811 61.265,12.192c17.79,-7.747 30.237,-21.176 30.237,-21.176c0.308,-0.332 0.784,-0.427 1.189,-0.237c0.405,0.19 0.65,0.624 0.612,1.082c-1.821,22.191 -6.363,32.138 -10.073,40.868c-2.408,5.667 -4.465,10.806 -5.127,18.603c-5.939,69.917 -10.26,81.823 -12.861,116.68c-4.347,58.258 -16.742,83.239 -25.075,92.776c-2.25,2.575 -4.234,4.063 -5.719,4.807c-1.204,0.603 -2.157,0.738 -2.755,0.638c-1.107,-0.184 -2.165,-0.98 -3.08,-2.475c-1.117,-1.824 -2.092,-4.794 -2.922,-8.783c-5.313,-25.525 -5.341,-94.222 -10.983,-166.075c-3.823,-48.69 -9.178,-70.764 -12.864,-80.631c-1.593,-4.262 -2.979,-6.257 -3.54,-6.956c-0.138,-0.145 -0.277,-0.291 -0.415,-0.438c-0.373,-0.397 -0.399,-1.021 -0.059,-1.449c0.339,-0.428 0.935,-0.523 1.383,-0.221c0,0 0.286,0.175 0.79,0.794Zm3.238,6.045c0.183,0.45 0.369,0.929 0.56,1.439c3.715,9.942 9.146,32.178 12.999,81.24c5.633,71.73 5.639,140.311 10.943,165.792c0.762,3.662 1.618,6.402 2.643,8.076c0.513,0.838 1.021,1.391 1.642,1.494c0.333,0.055 0.84,-0.113 1.51,-0.449c1.324,-0.664 3.073,-2.015 5.078,-4.31c8.213,-9.4 20.255,-34.069 24.539,-91.485c2.601,-34.863 6.922,-46.772 12.863,-116.703c0.687,-8.082 2.801,-13.414 5.297,-19.288c3.481,-8.191 7.707,-17.47 9.641,-37.261c-4.303,4.14 -14.999,13.563 -28.874,19.605c-16.853,7.339 -38.361,9.724 -58.84,-8.15Z" style="fill:#6b6b6b;"/><path id="tooth-25-front-base-shape" serif:id="tooth-25-front-base-shape" d="M59.526,589.187c0,0 39.32,52.968 93.62,-3.02c0,0 1.79,-73.319 0,-91.607c-0.689,-7.043 -4.008,-16.732 -10.74,-18.12c-14.645,-3.02 -62.973,-2.852 -77.13,0c-6.001,1.209 -7.811,17.113 -7.811,17.113l2.061,95.633Z" style="fill:#fff;"/><path d="M58.478,589.21l-2.061,-95.633c-0.001,-0.047 0.001,-0.094 0.006,-0.141c0,0 0.922,-8.008 3.584,-13.241c1.277,-2.509 2.991,-4.365 5.061,-4.782c14.234,-2.868 62.825,-3.035 77.549,0.001c2.957,0.61 5.342,2.643 7.154,5.401c2.566,3.903 3.988,9.265 4.417,13.644c1.792,18.313 0.005,91.734 0.005,91.734c-0.006,0.264 -0.112,0.515 -0.296,0.704c-22.052,22.737 -41.704,27.698 -57.307,25.559c-23.485,-3.221 -37.907,-22.644 -37.907,-22.644c-0.13,-0.175 -0.202,-0.385 -0.206,-0.602Zm2.09,-0.388c1.774,2.267 15.261,18.67 36.309,21.556c15.067,2.066 33.959,-2.843 55.231,-24.647c0.14,-5.899 1.704,-73.606 -0.005,-91.068c-0.399,-4.072 -1.696,-9.067 -4.082,-12.696c-1.489,-2.264 -3.397,-3.998 -5.826,-4.499c-14.565,-3.004 -62.631,-2.836 -76.711,0.001c-1.531,0.308 -2.662,1.822 -3.606,3.677c-2.377,4.671 -3.269,11.685 -3.362,12.458l2.052,95.218Z" style="fill:#6b6b6b;"/></g><g id="tooth25-front-view-statuses"><path id="front-right" d="M150.002,586.091c-0.042,1.736 1.332,3.179 3.068,3.222c1.736,0.042 3.179,-1.332 3.222,-3.068c0,0 1.783,-73.626 -0.014,-91.99c-0.308,-3.146 -1.099,-6.774 -2.424,-10.071c-0.648,-1.611 -2.481,-2.393 -4.092,-1.745c-1.611,0.648 -2.393,2.481 -1.745,4.092c1.097,2.728 1.745,5.733 2,8.337c1.782,18.211 -0.014,91.223 -0.014,91.223Z" style="fill:none;"/><path id="front-left" d="M62.272,485.891c0.507,-1.661 -0.43,-3.42 -2.091,-3.927c-1.661,-0.507 -3.42,0.43 -3.927,2.091c-1.395,4.573 -1.914,9.143 -1.914,9.143c-0.016,0.141 -0.022,0.282 -0.019,0.423l2.061,95.633c0.037,1.736 1.477,3.115 3.213,3.077c1.736,-0.037 3.115,-1.477 3.077,-3.213l-2.055,-95.414c0.11,-0.864 0.595,-4.338 1.655,-7.814Z" style="fill:none;"/><path id="front-top" d="M148.016,486.531c0.648,1.611 2.481,2.393 4.092,1.745c1.611,-0.648 2.393,-2.481 1.745,-4.092c-2.177,-5.414 -5.871,-9.805 -10.811,-10.824c-14.884,-3.069 -63.999,-2.902 -78.387,-0.003c-1.838,0.37 -3.5,1.502 -4.871,3.257c-1.501,1.92 -2.685,4.671 -3.53,7.442c-0.507,1.661 0.43,3.42 2.091,3.927c1.661,0.507 3.42,-0.43 3.927,-2.091c0.521,-1.709 1.175,-3.427 2.027,-4.772c0.475,-0.75 0.907,-1.455 1.598,-1.594c13.926,-2.806 61.467,-2.974 75.874,-0.003c3.031,0.625 4.908,3.687 6.244,7.009Z" style="fill:none;"/><path id="front-bottom" d="M62.052,587.312c-1.035,-1.394 -3.007,-1.686 -4.401,-0.651c-1.394,1.035 -1.686,3.007 -0.651,4.401c0,0 17.537,23.574 45.54,23.938c14.937,0.194 32.981,-6.142 52.864,-26.643c1.209,-1.246 1.178,-3.24 -0.068,-4.448c-1.246,-1.209 -3.24,-1.178 -4.448,0.068c-18.215,18.781 -34.581,24.909 -48.266,24.732c-24.965,-0.324 -40.57,-21.397 -40.57,-21.397Z" style="fill:none;"/></g></g><g id="tooth25-top-view"><rect id="tooth25-top-center" x="69.512" y="382.868" width="72.377" height="14.272" style="fill:#fff;"/><path d="M68.463,397.14l0,-14.272c0,-0.579 0.469,-1.049 1.049,-1.049l72.377,0c0.579,0 1.049,0.469 1.049,1.049l0,14.272c0,0.579 -0.469,1.049 -1.049,1.049l-72.377,0c-0.579,-0 -1.049,-0.469 -1.049,-1.049Zm2.097,-1.049l70.28,0l-0,-12.174l-70.28,-0l-0,12.174Z" style="fill:#6b6b6b;"/><path id="tooth25-top-left" d="M57.699,400.305c-1.922,-3.219 -2.968,-6.687 -2.968,-10.301c0,-4.615 1.708,-8.994 4.765,-12.919l10.017,5.783l0,14.272l-11.813,3.165Z" style="fill:#fff;"/><path d="M56.798,400.842c-2.021,-3.387 -3.117,-7.037 -3.117,-10.838c0,-4.844 1.778,-9.444 4.986,-13.563c0.322,-0.413 0.898,-0.526 1.352,-0.264l10.017,5.783c0.324,0.187 0.524,0.533 0.524,0.908l0,14.272c0,0.475 -0.319,0.89 -0.777,1.013l-11.813,3.165c-0.453,0.121 -0.931,-0.073 -1.172,-0.475Zm1.408,-1.759l10.256,-2.748l-0,-12.861l-8.688,-5.016c-2.563,3.541 -3.996,7.442 -3.996,11.546c0,3.171 0.856,6.222 2.428,9.079Z" style="fill:#6b6b6b;"/><path id="tooth25-top-top" d="M153.701,400.305c-7.054,11.817 -25.893,20.281 -48.001,20.281c-22.108,0 -40.948,-8.464 -48.001,-20.281l11.813,-3.165l72.377,0l11.813,3.165Z" style="fill:#fff;"/><path d="M154.602,400.842c-7.193,12.05 -26.357,20.792 -48.902,20.792c-22.545,0 -41.709,-8.742 -48.902,-20.792c-0.168,-0.282 -0.195,-0.627 -0.071,-0.932c0.124,-0.305 0.383,-0.534 0.7,-0.619l11.813,-3.165c0.089,-0.024 0.18,-0.036 0.271,-0.036l72.377,0c0.092,-0 0.183,0.012 0.271,0.036l11.813,3.165c0.317,0.085 0.577,0.314 0.7,0.619c0.124,0.305 0.097,0.649 -0.071,0.932Zm-2.553,0.105l-10.298,-2.759l-72.101,0l-10.298,2.759c7.436,10.956 25.42,18.59 46.349,18.59c20.928,0 38.912,-7.634 46.349,-18.59Z" style="fill:#6b6b6b;"/><path id="tooth25-top-right" d="M151.905,377.085c3.057,3.925 4.765,8.303 4.765,12.919c0,3.614 -1.047,7.082 -2.968,10.301l-11.813,-3.165l0,-14.272l10.017,-5.783Z" style="fill:#fff;"/><path d="M152.732,376.441c3.208,4.119 4.986,8.719 4.986,13.563c0,3.802 -1.095,7.452 -3.117,10.838c-0.24,0.403 -0.719,0.597 -1.172,0.475l-11.813,-3.165c-0.458,-0.123 -0.777,-0.538 -0.777,-1.013l0,-14.272c0,-0.375 0.2,-0.721 0.524,-0.908l10.017,-5.783c0.453,-0.262 1.03,-0.149 1.352,0.264Zm-1.108,2.017l-8.688,5.016l-0,12.861l10.256,2.748c1.572,-2.857 2.428,-5.908 2.428,-9.079c0,-4.104 -1.433,-8.005 -3.996,-11.546Z" style="fill:#6b6b6b;"/><path id="tooth25-top-bottom" d="M59.495,377.085c8.122,-10.429 25.767,-17.663 46.205,-17.663c20.438,0 38.083,7.234 46.205,17.663l-10.017,5.783l-72.377,0l-10.017,-5.783Z" style="fill:#fff;"/><path d="M58.668,376.441c8.272,-10.623 26.215,-18.067 47.032,-18.067c20.817,0 38.76,7.444 47.032,18.067c0.186,0.239 0.26,0.548 0.202,0.845c-0.058,0.298 -0.242,0.556 -0.505,0.707l-10.017,5.783c-0.159,0.092 -0.34,0.14 -0.524,0.14l-72.377,0c-0.184,0 -0.365,-0.048 -0.524,-0.14l-10.017,-5.783c-0.263,-0.152 -0.447,-0.41 -0.505,-0.707c-0.058,-0.298 0.016,-0.606 0.202,-0.845Zm2.418,0.352l8.707,5.027l71.815,0l8.707,-5.027c-8.279,-9.725 -25.173,-16.322 -44.615,-16.322c-19.442,0 -36.335,6.597 -44.615,16.322Z" style="fill:#6b6b6b;"/></g><g id="tooth25-back-view"><g id="tooth25-back-view-base-shape"><path id="tooth25-back-view-base-shape" serif:id="tooth25-back-view-base-shape" d="M147.741,138.419c-8.052,-7.374 -23.866,-11.147 -39.971,-11.436c-16.873,-0.303 -34.065,3.219 -42.985,10.429c-2.737,2.213 -4.887,5.767 -6.559,10.308c-10.326,28.039 -2.454,93.698 -2.405,113.512c0.014,5.732 3.973,12.576 9.306,14.313c8.413,2.74 28.169,2.13 41.171,2.13c12.3,0 28.657,0.611 36.841,-2.13c5.89,-1.972 11.335,-4.245 12.264,-14.313c0,0 8.465,-82.615 -2.321,-113.566c-1.424,-4.085 -3.183,-7.27 -5.341,-9.246Z" style="fill:#fff;"/><path id="tooth25-back-view-base-shape" serif:id="tooth25-back-view-base-shape" d="M148.449,137.646c-8.195,-7.505 -24.269,-11.417 -40.66,-11.711c-17.145,-0.308 -34.599,3.335 -43.663,10.662c-2.862,2.314 -5.135,6.013 -6.884,10.761c-4.163,11.304 -5.414,28.673 -5.386,46.726c0.041,26.869 2.887,55.262 2.917,67.15c0.015,6.145 4.313,13.445 10.03,15.307c8.48,2.762 28.39,2.182 41.495,2.182c12.412,0 28.916,0.581 37.174,-2.184c3.734,-1.25 7.273,-2.658 9.739,-5.847c1.653,-2.138 2.84,-5.082 3.236,-9.359c0.076,-0.746 8.405,-83.079 -2.375,-114.013c-1.492,-4.281 -3.361,-7.604 -5.623,-9.675Zm-1.416,1.547c2.055,1.882 3.703,4.929 5.059,8.818c10.743,30.828 2.268,113.114 2.268,113.114l-0.001,0.011c-0.348,3.774 -1.348,6.388 -2.807,8.274c-2.202,2.848 -5.411,4.024 -8.746,5.141c-8.11,2.716 -24.32,2.076 -36.508,2.076c-12.899,0 -32.5,0.64 -40.846,-2.078c-4.949,-1.612 -8.569,-7.999 -8.582,-13.319c-0.029,-11.888 -2.875,-40.28 -2.917,-67.148c-0.027,-17.771 1.159,-34.872 5.257,-45.998c1.596,-4.334 3.622,-7.742 6.234,-9.855c8.776,-7.094 25.706,-10.494 42.307,-10.196c15.819,0.284 31.373,3.918 39.282,11.161Z" style="fill:#6b6b6b;"/></g><g id="tooth25-back-view-statuses"><path id="back-right" d="M152.273,260.911c-0.177,1.727 1.082,3.273 2.809,3.45c1.727,0.177 3.273,-1.082 3.45,-2.809c0,0 8.435,-83.601 -2.48,-114.922c-0.571,-1.64 -2.366,-2.507 -4.006,-1.935c-1.64,0.571 -2.507,2.366 -1.935,4.006c10.657,30.581 2.162,112.21 2.162,112.21Z" style="fill:none;"/><path id="back-left" d="M61.178,148.808c0.6,-1.629 -0.236,-3.439 -1.865,-4.039c-1.629,-0.6 -3.439,0.236 -4.039,1.865c-4.229,11.481 -5.544,29.117 -5.515,47.454c0.041,26.87 2.887,55.263 2.917,67.152c0.004,1.736 1.417,3.142 3.154,3.138c1.736,-0.004 3.142,-1.417 3.138,-3.154c-0.029,-11.887 -2.875,-40.279 -2.917,-67.146c-0.027,-17.487 1.095,-34.321 5.128,-45.27Z" style="fill:none;"/><path id="back-top" serif:id="back-top" d="M150.111,148.701c0.571,1.64 2.366,2.507 4.006,1.935c1.64,-0.571 2.507,-2.366 1.935,-4.006c-1.628,-4.673 -3.718,-8.271 -6.187,-10.531c-8.481,-7.767 -25.076,-11.957 -42.039,-12.261c-17.69,-0.317 -35.667,3.568 -45.019,11.128c-3.112,2.515 -5.633,6.505 -7.534,11.667c-0.6,1.629 0.236,3.439 1.865,4.039c1.629,0.6 3.439,-0.236 4.039,-1.865c1.444,-3.92 3.222,-7.038 5.585,-8.948c8.488,-6.862 24.895,-10.019 40.951,-9.731c15.247,0.274 30.28,3.629 37.903,10.611c1.848,1.692 3.276,4.464 4.495,7.962Z" style="fill:none;"/><path id="back-bottom" d="M58.967,261.224c-0.004,-1.736 -1.417,-3.142 -3.154,-3.138c-1.736,0.004 -3.142,1.417 -3.138,3.154c0.017,6.97 4.993,15.184 11.478,17.296c8.613,2.806 28.834,2.285 42.145,2.285c12.635,0 29.433,0.522 37.84,-2.293c4.133,-1.384 8.002,-3.022 10.732,-6.552c1.849,-2.391 3.224,-5.669 3.665,-10.455c0.159,-1.729 -1.115,-3.262 -2.844,-3.421c-1.729,-0.159 -3.262,1.115 -3.421,2.844c-0.301,3.269 -1.114,5.55 -2.377,7.184c-1.939,2.508 -4.817,3.452 -7.752,4.435c-7.961,2.666 -23.878,1.967 -35.842,1.967c-12.693,0 -31.984,0.7 -40.196,-1.975c-4.182,-1.362 -7.124,-6.834 -7.135,-11.33Z" style="fill:none;"/></g></g></g><rect id="base1" serif:id="base" x="-0" y="0" width="211.4" height="855.667" style="fill:none;"/></g></svg>