<?xml version="1.0" encoding="UTF-8" standalone="no"?><!DOCTYPE svg PUBLIC "-//W3C//DTD SVG 1.1//EN" "http://www.w3.org/Graphics/SVG/1.1/DTD/svg11.dtd"><svg width="100%" height="100%" viewBox="0 0 212 856" version="1.1" xmlns="http://www.w3.org/2000/svg" xmlns:xlink="http://www.w3.org/1999/xlink" xml:space="preserve" xmlns:serif="http://www.serif.com/" style="fill-rule:evenodd;clip-rule:evenodd;stroke-linecap:round;stroke-linejoin:round;stroke-miterlimit:1.5;"><g id="tooth5"><g id="tooth5-column"><g id="tooth5-front-view"><g id="tooth-5-front-base-shape"><path id="tooth5-front-view-shapes1" serif:id="tooth-5-front-base-shape" d="M54.985,320.988c0,0 13.087,-220.98 13.087,-233.547c0,-9.06 6.15,-32.616 14.093,-17.113c7.943,15.503 41.369,146.585 41.273,181.2c0,0 -21.546,-155.369 -19.144,-170.127c2.402,-14.758 47.331,87.58 49.344,234.553c0,0 -56.37,33.324 -98.653,5.033Z" style="fill:#fff;"/><path id="tooth5-front-view-shapes-roots" d="M53.938,320.926c13.783,-230.469 13.12,-230.505 13.272,-234.409c0.296,-7.622 4.243,-24.355 10.911,-21.991c3.805,1.349 6.233,8.299 8.302,14.487c6.693,20.016 18.702,65.75 27.395,106.228c-3.767,-29.48 -7.703,-62.072 -9.489,-82.586c-1.852,-21.276 -0.994,-22.679 0.199,-23.335c1.04,-0.572 3.197,-0.784 8.771,11.013c13.825,29.266 39.483,114.227 41.297,223.885c0.003,0.161 0.031,1.864 -0.014,2.015c-0.118,0.398 -0.221,0.488 -2.409,1.661c-14.316,7.674 -60.912,28.148 -97.266,4.299c-0.064,-0.042 -0.649,-0.426 -0.766,-0.584c-0.164,-0.223 -0.113,-0.244 -0.202,-0.683Zm62.769,-113.394c-2.002,-10.484 -4.677,-23.296 -8.25,-38.89c-10.078,-43.995 -22.783,-89.961 -27.242,-98.266c-3.031,-5.645 -5.311,-5.211 -7.476,-1.786c-2.16,3.417 -4.695,11.501 -4.79,19.195c-0.18,14.646 -11.704,212.402 -12.883,232.657c6.163,4.023 29.848,19.137 73.269,4.963c9.32,-3.042 17.765,-6.912 23.31,-10.019c-0.177,-12.458 -0.807,-91.414 -23.836,-175.133c-10.537,-38.304 -20.557,-58.183 -23.479,-59.387c-1.365,2.347 1.435,29.825 1.471,30.191c2.059,21.044 6.036,54.503 11.508,96.236c3.557,18.629 5.89,34.511 5.933,43.821c0,0.011 0.143,0.885 -0.489,1.154c-0.472,0.201 -1.036,-0.098 -1.113,-0.63c-0.12,-0.832 -2.699,-19.468 -5.934,-44.106Z" style="fill:#6b6b6b;"/><path id="tooth-5-front-base-shape" serif:id="tooth-5-front-base-shape" d="M60.849,296.814c-1.166,2.175 -2.752,6.979 -4.19,13.414c-4.505,20.163 -7.551,56.332 8.377,77.75c5.921,7.962 14.464,13.885 26.528,16.19c28.307,5.409 55.043,-6.863 61.231,-15.183c7.818,-10.511 7.181,-55.888 -1.146,-81.616c-1.497,-4.626 -3.243,-8.617 -5.233,-11.656c-13.058,-19.937 -68.453,-30.822 -85.567,1.101Z" style="fill:#fff;"/><path id="tooth5-front-view-shapes3" serif:id="tooth-5-front-base-shape" d="M59.925,296.319c8.756,-16.334 27.269,-21.8 45.301,-20.549c17.981,1.248 35.405,9.196 42.067,19.369c2.034,3.105 3.824,7.18 5.354,11.908c5.868,18.131 7.948,45.955 5.965,64.647c-0.87,8.2 -2.558,14.668 -4.975,17.917c-2.547,3.425 -8.453,7.539 -16.518,10.841c-11.909,4.875 -28.544,8.034 -45.751,4.746c-12.36,-2.362 -21.107,-8.438 -27.173,-16.595c-16.105,-21.656 -13.114,-58.217 -8.559,-78.604c1.467,-6.565 3.1,-11.462 4.289,-13.68Zm1.848,0.991c-1.142,2.131 -2.682,6.842 -4.091,13.147c-4.455,19.939 -7.556,55.715 8.195,76.895c5.776,7.767 14.114,13.538 25.883,15.786c16.761,3.203 32.963,0.122 44.563,-4.627c7.607,-3.114 13.227,-6.921 15.63,-10.152c2.274,-3.057 3.754,-9.172 4.573,-16.887c1.956,-18.442 -0.085,-45.893 -5.875,-63.78c-1.465,-4.525 -3.166,-8.432 -5.113,-11.404c-6.395,-9.765 -23.198,-17.228 -40.458,-18.426c-17.209,-1.194 -34.95,3.859 -43.307,19.447Z" style="fill:#6b6b6b;"/></g><g id="tooth5-front-view-accents"><path d="M119.177,387.126c-4.089,-3.907 -8.894,-5.637 -17.671,-6.971c-16.703,-2.54 -27.453,-0.321 -22.219,-1.304c4.828,-0.907 15.756,-2.39 24.535,-0.515c11.496,2.455 15.253,8.652 15.355,8.791Z" style="fill:#6b6b6b;"/><path d="M136.352,379.71c-5.771,1.288 -20.958,4.336 -28.941,-5.56c-1.506,-1.867 -2.866,-4.609 -3.115,-7.019c2.763,7.894 12.096,10.536 12.434,10.653c7.781,2.681 15.918,2.172 19.622,1.927Z" style="fill:#6b6b6b;"/></g><g id="tooth5-front-view-statuses"><path id="front-left" d="M53.589,309.542c0.379,-1.694 2.062,-2.763 3.756,-2.384c1.694,0.379 2.763,2.062 2.384,3.756c-4.355,19.491 -7.566,54.482 7.831,75.187c1.036,1.393 0.746,3.365 -0.647,4.402c-1.393,1.036 -3.365,0.746 -4.402,-0.647c-16.459,-22.132 -13.578,-59.478 -8.923,-80.313Z" style="fill:none;"/><path id="front-right" d="M155.32,390.863c-1.036,1.393 -3.008,1.683 -4.402,0.647c-1.393,-1.036 -1.683,-3.008 -0.647,-4.402c2.131,-2.865 3.403,-8.627 4.17,-15.857c1.93,-18.191 -0.074,-45.269 -5.785,-62.913c-0.535,-1.652 0.372,-3.427 2.024,-3.962c1.652,-0.535 3.427,0.372 3.962,2.024c5.947,18.375 8.065,46.571 6.055,65.514c-0.921,8.685 -2.818,15.506 -5.378,18.948Z" style="fill:none;"/><path id="front-bottom" d="M62.512,389.855c-1.036,-1.393 -0.746,-3.365 0.647,-4.402c1.393,-1.036 3.365,-0.746 4.402,0.647c5.486,7.377 13.416,12.842 24.594,14.978c16.314,3.117 32.084,0.114 43.375,-4.508c7.15,-2.927 12.483,-6.426 14.742,-9.462c1.036,-1.393 3.008,-1.683 4.402,-0.647c1.393,1.036 1.683,3.008 0.647,4.402c-2.692,3.619 -8.884,8.041 -17.407,11.53c-12.218,5.002 -29.285,8.238 -46.939,4.865c-12.95,-2.474 -22.106,-8.857 -28.462,-17.403Z" style="fill:none;"/><path id="front-top" d="M154.643,306.401c0.535,1.652 -0.372,3.427 -2.024,3.962c-1.652,0.535 -3.427,-0.372 -3.962,-2.024c-1.399,-4.323 -3.012,-8.061 -4.872,-10.901c-6.129,-9.357 -22.309,-16.334 -38.849,-17.482c-16.386,-1.137 -33.356,3.502 -41.314,18.346c-1.095,2.043 -2.542,6.569 -3.892,12.613c-0.379,1.694 -2.062,2.763 -3.756,2.384c-1.694,-0.379 -2.763,-2.062 -2.384,-3.756c1.525,-6.825 3.251,-11.907 4.487,-14.214c9.156,-17.08 28.44,-22.958 47.295,-21.65c18.701,1.298 36.747,9.732 43.676,20.312c2.12,3.238 3.999,7.482 5.595,12.411Z" style="fill:none;"/></g></g><g id="tooth5-top-view"><path id="tooth5-top-center" d="M88.841,535.692c-4.316,-4.316 -6.988,-10.278 -6.988,-16.859c0,-6.581 2.671,-12.542 6.988,-16.859c4.316,-4.316 10.278,-6.988 16.859,-6.988c6.581,0 12.542,2.671 16.859,6.988c4.316,4.316 6.988,10.278 6.988,16.859c0,6.581 -2.671,12.542 -6.988,16.859c-4.316,4.316 -10.278,6.988 -16.859,6.988c-6.581,0 -12.542,-2.671 -16.859,-6.988Z" style="fill:#fff;"/><path d="M88.017,536.516c-4.527,-4.527 -7.329,-10.78 -7.329,-17.683c0,-6.902 2.802,-13.155 7.329,-17.683c4.527,-4.527 10.78,-7.329 17.683,-7.329c6.902,0 13.155,2.802 17.683,7.329c4.527,4.527 7.329,10.78 7.329,17.683c0,6.902 -2.802,13.155 -7.329,17.683c-4.527,4.527 -10.78,7.329 -17.683,7.329c-6.902,0 -13.155,-2.802 -17.683,-7.329Zm1.648,-1.648c4.106,4.106 9.776,6.647 16.035,6.647c6.259,0 11.929,-2.541 16.035,-6.647c4.106,-4.106 6.647,-9.776 6.647,-16.035c0,-6.259 -2.541,-11.929 -6.647,-16.035c-4.106,-4.106 -9.776,-6.647 -16.035,-6.647c-6.259,0 -11.929,2.541 -16.035,6.647c-4.106,4.106 -6.647,9.776 -6.647,16.035c0,6.259 2.541,11.929 6.647,16.035Z" style="fill:#808080;"/><path id="tooth5-top-left" d="M66.275,558.259c-10.094,-10.094 -16.341,-24.036 -16.341,-39.425c0,-15.389 6.247,-29.331 16.341,-39.425l22.567,22.567c-4.316,4.316 -6.988,10.278 -6.988,16.859c0,6.581 2.671,12.542 6.988,16.859l-22.567,22.567Z" style="fill:#fff;"/><path d="M65.451,559.082c-10.305,-10.305 -16.683,-24.538 -16.683,-40.249c0,-15.711 6.377,-29.944 16.683,-40.249c0.455,-0.455 1.193,-0.455 1.648,-0l22.567,22.567c0.455,0.455 0.455,1.193 -0,1.648c-4.106,4.106 -6.647,9.776 -6.647,16.035c0,6.259 2.541,11.929 6.647,16.035c0.455,0.455 0.455,1.193 0,1.648l-22.567,22.567c-0.455,0.455 -1.193,0.455 -1.648,-0Zm0.833,-2.48l20.929,-20.929c-4.052,-4.446 -6.524,-10.356 -6.524,-16.84c0,-6.483 2.472,-12.394 6.524,-16.84l-20.929,-20.929c-9.404,9.811 -15.185,23.12 -15.185,37.769c0,14.649 5.782,27.958 15.185,37.769Z" style="fill:#6b6b6b;"/><path id="tooth5-top-bottom" d="M145.125,558.259c-10.094,10.094 -24.036,16.341 -39.425,16.341c-15.389,0 -29.331,-6.247 -39.425,-16.341l22.567,-22.567c4.316,4.316 10.278,6.988 16.859,6.988c6.581,0 12.542,-2.671 16.859,-6.988l22.567,22.567Z" style="fill:#fff;"/><path d="M145.949,559.082c-10.305,10.305 -24.538,16.683 -40.249,16.683c-15.711,0 -29.944,-6.377 -40.249,-16.683c-0.455,-0.455 -0.455,-1.193 0,-1.648l22.567,-22.567c0.455,-0.455 1.193,-0.455 1.648,-0c4.106,4.106 9.776,6.647 16.035,6.647c6.259,0 11.929,-2.541 16.035,-6.647c0.455,-0.455 1.193,-0.455 1.648,-0l22.567,22.567c0.455,0.455 0.455,1.193 -0,1.648Zm-2.48,-0.833l-20.929,-20.929c-4.446,4.052 -10.356,6.524 -16.84,6.524c-6.483,0 -12.394,-2.472 -16.84,-6.524l-20.929,20.929c9.811,9.404 23.12,15.185 37.769,15.185c14.649,0 27.958,-5.782 37.769,-15.185Z" style="fill:#6b6b6b;"/><path id="tooth5-top-right" d="M145.125,479.408c10.094,10.094 16.341,24.036 16.341,39.425c0,15.389 -6.247,29.331 -16.341,39.425l-22.567,-22.567c4.316,-4.316 6.988,-10.278 6.988,-16.859c0,-6.581 -2.671,-12.542 -6.988,-16.859l22.567,-22.567Z" style="fill:#fff;"/><path d="M145.949,478.584c10.305,10.305 16.683,24.538 16.683,40.249c0,15.711 -6.377,29.944 -16.683,40.249c-0.455,0.455 -1.193,0.455 -1.648,0l-22.567,-22.567c-0.455,-0.455 -0.455,-1.193 0,-1.648c4.106,-4.106 6.647,-9.776 6.647,-16.035c0,-6.259 -2.541,-11.929 -6.647,-16.035c-0.455,-0.455 -0.455,-1.193 0,-1.648l22.567,-22.567c0.455,-0.455 1.193,-0.455 1.648,-0Zm-0.833,2.48l-20.929,20.929c4.052,4.446 6.524,10.356 6.524,16.84c0,6.483 -2.472,12.394 -6.524,16.84l20.929,20.929c9.404,-9.811 15.185,-23.12 15.185,-37.769c0,-14.649 -5.782,-27.958 -15.185,-37.769Z" style="fill:#6b6b6b;"/><path id="tooth5-top-top" d="M66.275,479.408c10.094,-10.094 24.036,-16.341 39.425,-16.341c15.389,0 29.331,6.247 39.425,16.341l-22.567,22.567c-4.316,-4.316 -10.278,-6.988 -16.859,-6.988c-6.581,0 -12.542,2.671 -16.859,6.988l-22.567,-22.567Z" style="fill:#fff;"/><path d="M65.451,478.584c10.305,-10.305 24.538,-16.683 40.249,-16.683c15.711,0 29.944,6.377 40.249,16.683c0.455,0.455 0.455,1.193 -0,1.648l-22.567,22.567c-0.455,0.455 -1.193,0.455 -1.648,0c-4.106,-4.106 -9.776,-6.647 -16.035,-6.647c-6.259,0 -11.929,2.541 -16.035,6.647c-0.455,0.455 -1.193,0.455 -1.648,-0l-22.567,-22.567c-0.455,-0.455 -0.455,-1.193 -0,-1.648Zm2.48,0.833l20.929,20.929c4.446,-4.052 10.356,-6.524 16.84,-6.524c6.483,0 12.394,2.472 16.84,6.524l20.929,-20.929c-9.811,-9.404 -23.12,-15.185 -37.769,-15.185c-14.649,0 -27.958,5.782 -37.769,15.185Z" style="fill:#6b6b6b;"/></g><g id="tooth5-back-view"><g id="tooth5-back-view-base-shape"><path id="tooth5-back-view-base-shape" serif:id="tooth5-back-view-base-shape" d="M54.777,670.876c-4.231,11.719 -2.072,39.709 2.884,58.387c2.04,7.689 5.385,16.175 10.443,22.759c3.16,4.113 6.989,7.484 11.586,9.454c12.919,5.537 41.391,6.04 55.484,1.007c5.04,-1.8 8.702,-6.031 11.481,-11.44c5.253,-10.225 7.355,-24.662 9.659,-34.866c3.474,-15.384 3.22,-34.97 0,-47.313c-6.04,-23.153 -39.909,-27.355 -47.809,-27.18c-6.25,0.139 -43.916,2.013 -53.728,29.193Z" style="fill:#fff;stroke:#808080;stroke-width:2.1px;"/></g><g id="tooth-accents"><path d="M111.611,666.529c2.266,-2.802 8.411,-7.843 23.058,-6.221c1.244,0.138 3.131,0.455 3.403,0.501c-1.083,-0.005 -16.795,-0.621 -23.548,7.008c-1.413,1.596 -1.162,2.075 -1.951,2.451c-0.938,0.447 -1.649,-0.195 -1.754,-0.29c-0.51,-0.46 -6.371,-7.308 -26.132,-9.733c-2.603,-0.319 -4.596,-0.421 -4.997,-0.441c1.689,-0.122 11.951,-0.866 21.104,1.615c5.848,1.586 8.959,3.589 10.818,5.111Z" style="fill:#6b6b6b;"/><path d="M108.183,652.721c-0.018,0.032 -0.446,0.487 -0.226,2.241c0.575,4.579 4.19,13.001 4.188,13.019c-0.078,0.646 -0.445,1.191 -0.523,1.837c-0.441,-0.374 -0.992,-0.482 -1.433,-0.856c-0.001,-0.001 -2.002,-7.361 -2.446,-12.19c-0.314,-3.416 0.303,-3.871 0.441,-4.051Z" style="fill:#6b6b6b;"/></g><g id="tooth5-back-view-statuses"><path id="back-right" serif:id="back-right" d="M149.528,752.519c-0.815,1.586 -2.763,2.211 -4.349,1.397c-1.586,-0.815 -2.211,-2.763 -1.397,-4.349c5.135,-9.995 7.129,-24.126 9.381,-34.102c3.362,-14.887 3.141,-33.842 0.025,-45.787c-0.45,-1.725 0.585,-3.49 2.31,-3.94c1.725,-0.45 3.49,0.585 3.94,2.31c3.324,12.742 3.611,32.96 0.025,48.84c-2.356,10.433 -4.566,25.177 -9.936,35.631Z" style="fill:none;"/><path id="back-left" serif:id="back-left" d="M51.739,669.779c0.605,-1.677 2.458,-2.546 4.135,-1.941c1.677,0.605 2.546,2.458 1.941,4.135c-4.092,11.335 -1.825,38.397 2.968,56.462c1.937,7.299 5.08,15.37 9.882,21.62c1.086,1.414 0.82,3.443 -0.594,4.529c-1.414,1.086 -3.443,0.82 -4.529,-0.594c-5.315,-6.918 -8.86,-15.82 -11.003,-23.899c-5.118,-19.291 -7.17,-48.208 -2.8,-60.312Z" style="fill:none;"/><path id="back-bottom" serif:id="back-bottom" d="M65.543,753.99c-1.086,-1.414 -0.82,-3.443 0.594,-4.529c1.414,-1.086 3.443,-0.82 4.529,0.594c2.815,3.664 6.201,6.698 10.297,8.453c12.37,5.301 39.632,5.753 53.126,0.934c4.303,-1.537 7.322,-5.256 9.695,-9.875c0.815,-1.586 2.763,-2.211 4.349,-1.397c1.586,0.815 2.211,2.763 1.397,4.349c-3.186,6.201 -7.49,10.942 -13.268,13.006c-14.693,5.247 -44.375,4.692 -57.843,-1.08c-5.099,-2.185 -9.37,-5.893 -12.875,-10.455Z" style="fill:none;"/><path id="back-top" serif:id="back-top" d="M159.44,668.048c0.45,1.725 -0.585,3.49 -2.31,3.94c-1.725,0.45 -3.49,-0.585 -3.94,-2.31c-2.174,-8.334 -8.448,-13.859 -15.537,-17.575c-11.213,-5.878 -24.577,-7.291 -29.075,-7.191c-3.598,0.08 -18.05,0.742 -31.067,6.906c-8.318,3.939 -16.086,10.157 -19.696,20.156c-0.605,1.677 -2.458,2.546 -4.135,1.941c-1.677,-0.605 -2.546,-2.458 -1.941,-4.135c4.24,-11.745 13.236,-19.173 23.007,-23.8c14.118,-6.685 29.785,-7.439 33.687,-7.525c4.982,-0.111 19.796,1.417 32.217,7.928c8.667,4.543 16.131,11.477 18.789,21.665Z" style="fill:none;"/></g></g></g><rect id="base" x="0" y="0" width="211.4" height="855.667" style="fill:none;"/></g></svg>