<?xml version="1.0" encoding="UTF-8" standalone="no"?><!DOCTYPE svg PUBLIC "-//W3C//DTD SVG 1.1//EN" "http://www.w3.org/Graphics/SVG/1.1/DTD/svg11.dtd"><svg width="100%" height="100%" viewBox="0 0 212 856" version="1.1" xmlns="http://www.w3.org/2000/svg" xmlns:xlink="http://www.w3.org/1999/xlink" xml:space="preserve" xmlns:serif="http://www.serif.com/" style="fill-rule:evenodd;clip-rule:evenodd;stroke-linejoin:round;stroke-miterlimit:2;"><g id="tooth31"><g id="tooth31-column"><rect id="base" x="0" y="25.167" width="211.4" height="805.333" style="fill:none;"/><g id="tooth2-front-view"><g id="tooth-31-front-base-shape"><path id="tooth31-front-view-shape-root1" d="M173.919,609.575c-8.211,4.599 -16.96,6.003 -58.824,8.013c-30.474,1.463 -55.93,-2.276 -76.107,-7.393c-6.71,111.698 25.338,173.612 37.867,195.134c5.457,9.375 8.477,7.532 9.748,7.036c16.849,-6.579 -13.634,-128.654 15.843,-137.385c31.676,-9.382 18.404,155.594 47.313,133.778c28.91,-21.816 24.16,-199.181 24.16,-199.181c0,-0.001 0,-0.002 0.001,-0.003Z" style="fill:#fff;"/><path id="tooth31-front-view-shape-root11" serif:id="tooth31-front-view-shape-root1" d="M174.967,609.517c-0.01,-0.387 -0.118,-0.762 -0.311,-1.044c-0.292,-0.425 -0.725,-0.56 -1.108,-0.345c-8.164,4.572 -16.865,5.915 -58.487,7.913c-30.389,1.459 -55.775,-2.269 -75.895,-7.372c-0.289,-0.073 -0.585,0.035 -0.817,0.299c-0.232,0.264 -0.379,0.659 -0.405,1.09c-6.75,112.36 25.513,174.63 38.116,196.281c3.556,6.11 6.212,7.719 8.024,8.004c1.286,0.202 2.2,-0.251 2.788,-0.481c3.032,-1.184 4.856,-5.541 5.657,-12.322c1.079,-9.141 0.42,-22.875 -0.514,-38.003c-1.377,-22.298 -3.344,-47.679 -0.886,-65.54c1.554,-11.288 4.863,-19.526 11.524,-21.499c7.116,-2.108 11.674,5.44 15.07,17.459c5.421,19.183 7.722,49.689 10.987,74.726c1.848,14.177 4.017,26.625 7.168,34.431c1.693,4.195 3.687,7.092 6.016,8.394c2.374,1.327 5.127,1.055 8.343,-1.371c3.626,-2.736 6.767,-7.782 9.449,-14.599c3.895,-9.901 6.85,-23.587 9.067,-39.104c8.542,-59.783 6.214,-146.918 6.214,-146.918Zm-2.047,2.24c0.288,13.622 1.495,90.044 -6.219,144.038c-2.164,15.149 -5.026,28.521 -8.829,38.188c-2.45,6.228 -5.278,10.897 -8.59,13.397c-2.566,1.936 -4.752,2.292 -6.646,1.233c-1.941,-1.085 -3.546,-3.587 -4.957,-7.083c-3.058,-7.575 -5.117,-19.675 -6.911,-33.431c-3.291,-25.244 -5.645,-55.991 -11.111,-75.333c-3.861,-13.666 -9.328,-21.699 -17.418,-19.303c-6.282,1.861 -10.056,8.481 -12.141,18.053c-2.969,13.63 -2.465,33.409 -1.354,53.093c1.093,19.368 2.76,38.639 2.101,51.665c-0.21,4.147 -0.651,7.636 -1.454,10.24c-0.698,2.262 -1.665,3.812 -3.056,4.355c-0.429,0.167 -1.091,0.542 -2.03,0.395c-1.525,-0.239 -3.662,-1.802 -6.655,-6.943c-12.392,-21.288 -43.968,-82.334 -37.715,-192.317c20.052,4.985 45.199,8.573 75.194,7.133c39.794,-1.911 49.836,-3.325 57.791,-7.379Z" style="fill:#6b6b6b;"/><path id="tooth-31-front-base-shape" d="M38.96,618.71c-0.013,0.139 32.213,7.047 76.07,5.425c41.858,-1.548 50.613,-2.312 58.824,-5.427c17.977,-49.463 18.029,-78.55 9.515,-95.129c-19.051,-37.096 -80.989,-11.575 -80.989,-11.575c-45.064,-12.878 -66.345,-3.654 -74.973,13.774c-7.725,15.604 -5.307,37.784 -0.734,56.563c4.905,20.142 12.287,36.37 12.287,36.37Z" style="fill:#fff;"/><path id="tooth31-front-view-shape1" serif:id="tooth-31-front-base-shape" d="M37.995,619.082l0.106,0.23l0.178,0.196l0.273,0.17c0.069,0.03 0.449,0.14 1.13,0.286c5.625,1.21 35.779,6.683 75.386,5.218c42.097,-1.557 50.899,-2.362 59.158,-5.494c0.285,-0.108 0.509,-0.335 0.614,-0.622c18.133,-49.891 18.05,-79.244 9.462,-95.967c-7.814,-15.215 -22.632,-20.216 -37.639,-20.669c-20.572,-0.621 -41.445,7.321 -44.339,8.466c-45.6,-12.952 -67.102,-3.266 -75.856,14.415c-7.823,15.801 -5.444,38.261 -0.813,57.276c4.93,20.246 12.352,36.556 12.352,36.556l-0.011,-0.062Zm1.903,-0.842c0.103,0.201 0.122,0.394 0.106,0.565c0.016,-0.181 -0.015,-0.363 -0.09,-0.529c0,0 -0.006,-0.012 -0.016,-0.036Zm-0.186,-0.417c-1.213,-2.748 -7.619,-17.655 -12.021,-35.731c-4.515,-18.541 -6.973,-40.442 0.655,-55.85c8.48,-17.129 29.452,-25.888 73.745,-13.231c0.227,0.065 0.469,0.051 0.688,-0.039c0,0 22.08,-9.102 43.82,-8.446c14.264,0.431 28.41,5.069 35.837,19.531c8.415,16.385 8.255,45.079 -9.403,93.838c-8.045,2.956 -17.186,3.681 -58.042,5.192c-39.334,1.455 -69.281,-3.971 -74.868,-5.173c-0.15,-0.032 -0.29,-0.064 -0.411,-0.092Z" style="fill:#6b6b6b;"/></g><g id="tooth-accents"><path d="M106.446,545.333c-14.66,-27.12 -44.308,-14.889 -51.314,-11.087c12.016,-4.641 29.734,-6.466 43.205,3.153c4.476,3.196 7.352,6.974 8.109,7.933Z" style="fill:#6b6b6b;"/><path d="M150.739,529.354c-8.975,-1.813 -20.482,-1.913 -29.686,1.622c-3.117,1.197 -8.978,2.935 -15.353,-3.171c-2.537,-2.43 -4.023,-5.141 -4.296,-5.638c3.525,9.655 11.397,14.957 20.634,11.351c0.851,-0.332 11.297,-4.864 26.655,-4.287c1.026,0.039 1.023,0.044 2.045,0.123Z" style="fill:#6b6b6b;"/></g><g id="tooth-statuses"><path id="front-right" d="M170.962,616.737c-0.593,1.632 0.25,3.438 1.882,4.031c1.632,0.593 3.438,-0.25 4.031,-1.882c18.444,-50.748 18.092,-80.631 9.356,-97.641c-0.793,-1.544 -2.691,-2.154 -4.236,-1.361c-1.544,0.793 -2.154,2.691 -1.361,4.236c8.293,16.149 7.837,44.439 -9.673,92.618Z" style="fill:none;"/><path id="front-left" d="M30.291,526.276c0.77,-1.556 0.133,-3.445 -1.423,-4.215c-1.556,-0.77 -3.445,-0.133 -4.215,1.423c-8.018,16.195 -5.717,39.213 -0.971,58.703c4.98,20.452 12.48,36.929 12.48,36.929c0.719,1.58 2.586,2.28 4.166,1.561c1.58,-0.719 2.28,-2.586 1.561,-4.166c0,0 -7.265,-15.98 -12.094,-35.812c-4.399,-18.067 -6.936,-39.41 0.497,-54.423Z" style="fill:none;"/><path id="front-top" d="M180.635,524.119c0.793,1.544 2.691,2.154 4.236,1.361c1.544,-0.793 2.154,-2.691 1.361,-4.236c-8.201,-15.969 -23.691,-21.332 -39.441,-21.807c-19.762,-0.597 -39.797,6.553 -44.507,8.354c-46.678,-13.096 -68.624,-2.498 -77.63,15.693c-0.77,1.556 -0.133,3.445 1.423,4.215c1.556,0.77 3.445,0.133 4.215,-1.423c8.185,-16.533 28.537,-24.362 71.289,-12.145c0.681,0.195 1.408,0.154 2.063,-0.116c0,0 21.645,-8.932 42.957,-8.289c13.52,0.408 26.995,4.685 34.035,18.393Z" style="fill:none;"/><path id="front-bottom" d="M40.027,614.831c-0.228,-0.076 -0.468,-0.128 -0.718,-0.15c-1.729,-0.156 -3.26,1.121 -3.416,2.85l0.027,0.78l0.282,0.889l0.63,0.87l0.718,0.525l1.235,0.41c2.808,0.646 17.996,3.593 40.347,4.945c10.597,0.641 22.811,0.925 36.08,0.434c42.576,-1.574 51.472,-2.461 59.824,-5.629c1.623,-0.616 2.441,-2.434 1.826,-4.057c-0.616,-1.623 -2.434,-2.441 -4.057,-1.826c-8.07,3.061 -16.686,3.703 -57.825,5.225c-39.061,1.444 -68.801,-3.934 -74.349,-5.127c-0.247,-0.053 -0.488,-0.11 -0.603,-0.137Z" style="fill:none;"/></g></g><g id="tooth31-top-view"><g id="tooth31-top-view-statuses"><ellipse id="tooth31-top-center" cx="105.7" cy="393.354" rx="50.872" ry="50.392" style="fill:#fff;"/><path d="M105.7,341.914c28.658,0 51.92,23.052 51.92,51.44c0,28.388 -23.262,51.44 -51.92,51.44c-28.658,0 -51.92,-23.052 -51.92,-51.44c0,-28.388 23.262,-51.44 51.92,-51.44Zm0,2.097c-27.495,0 -49.823,22.107 -49.823,49.343c0,27.236 22.328,49.343 49.823,49.343c27.495,0 49.823,-22.107 49.823,-49.343c0,-27.236 -22.328,-49.343 -49.823,-49.343Z" style="fill:#6b6b6b;"/><path id="tooth31-top-left" d="M47.342,451.712c-14.942,-14.942 -24.189,-35.578 -24.189,-58.358c0,-22.779 9.247,-43.416 24.189,-58.358l22.564,22.564c-9.309,9.134 -15.078,21.802 -15.078,35.794c0,13.992 5.769,26.659 15.078,35.794l-22.564,22.564Z" style="fill:#fff;"/><path d="M46.601,452.453c-15.132,-15.132 -24.496,-36.031 -24.496,-59.099c0,-23.069 9.364,-43.968 24.496,-59.099c0.41,-0.41 1.073,-0.41 1.483,0l22.564,22.564c0.198,0.198 0.308,0.467 0.307,0.746c-0.001,0.28 -0.114,0.548 -0.314,0.743c-9.114,8.944 -14.764,21.346 -14.764,35.045c0,13.699 5.65,26.102 14.764,35.045c0.2,0.196 0.313,0.464 0.314,0.743c0.001,0.28 -0.109,0.549 -0.307,0.746l-22.564,22.564c-0.41,0.41 -1.073,0.41 -1.483,0Zm0.746,-2.229l21.077,-21.077c-9.063,-9.263 -14.644,-21.888 -14.644,-35.793c0,-13.906 5.581,-26.53 14.644,-35.793l-21.077,-21.077c-14.319,14.689 -23.145,34.757 -23.145,56.87c0,22.113 8.826,42.181 23.145,56.87Z" style="fill:#6b6b6b;"/><path id="tooth31-top-top" d="M164.058,451.712c-14.942,14.942 -35.578,24.189 -58.358,24.189c-22.779,0 -43.416,-9.247 -58.358,-24.189l22.564,-22.564c9.194,9.022 21.842,14.598 35.794,14.598c13.952,0 26.599,-5.576 35.794,-14.598l22.564,22.564Z" style="fill:#fff;"/><path d="M164.799,452.453c-15.132,15.132 -36.031,24.496 -59.099,24.496c-23.069,0 -43.968,-9.364 -59.099,-24.496c-0.41,-0.41 -0.41,-1.073 -0,-1.483l22.564,-22.564c0.407,-0.407 1.065,-0.41 1.476,-0.007c9.006,8.837 21.394,14.298 35.059,14.298c13.665,0 26.054,-5.461 35.059,-14.298c0.411,-0.403 1.069,-0.4 1.476,0.007l22.564,22.564c0.41,0.41 0.41,1.073 -0,1.483Zm-2.229,-0.746l-21.091,-21.091c-9.315,8.783 -21.916,14.178 -35.78,14.178c-13.863,0 -26.464,-5.395 -35.78,-14.178l-21.091,21.091c14.689,14.319 34.757,23.145 56.87,23.145c22.113,0 42.181,-8.826 56.87,-23.145Z" style="fill:#6b6b6b;"/><path id="tooth31-top-right" d="M164.058,334.996c14.942,14.942 24.189,35.578 24.189,58.358c0,22.779 -9.247,43.416 -24.189,58.358l-22.564,-22.564c9.309,-9.134 15.078,-21.802 15.078,-35.794c0,-13.992 -5.769,-26.659 -15.078,-35.794l22.564,-22.564Z" style="fill:#fff;"/><path d="M164.799,334.255c15.132,15.132 24.496,36.031 24.496,59.099c0,23.069 -9.364,43.968 -24.496,59.099c-0.41,0.41 -1.073,0.41 -1.483,0l-22.564,-22.564c-0.198,-0.198 -0.308,-0.467 -0.307,-0.746c0.001,-0.28 0.114,-0.548 0.314,-0.743c9.114,-8.944 14.764,-21.346 14.764,-35.045c0,-13.699 -5.65,-26.102 -14.764,-35.045c-0.2,-0.196 -0.313,-0.464 -0.314,-0.743c-0.001,-0.28 0.109,-0.549 0.307,-0.746l22.564,-22.564c0.41,-0.41 1.073,-0.41 1.483,0Zm-0.746,2.229l-21.077,21.077c9.063,9.263 14.644,21.888 14.644,35.793c0,13.906 -5.581,26.53 -14.644,35.793l21.077,21.077c14.319,-14.689 23.145,-34.757 23.145,-56.87c0,-22.113 -8.826,-42.181 -23.145,-56.87Z" style="fill:#6b6b6b;"/><path id="tooth31-top-bottom" d="M47.342,334.996c14.942,-14.942 35.578,-24.189 58.358,-24.189c22.779,0 43.416,9.247 58.358,24.189l-22.564,22.564c-9.194,-9.022 -21.842,-14.598 -35.794,-14.598c-13.952,0 -26.599,5.576 -35.794,14.598l-22.564,-22.564Z" style="fill:#fff;"/><path d="M46.601,334.255c15.132,-15.132 36.031,-24.496 59.099,-24.496c23.069,0 43.968,9.364 59.099,24.496c0.41,0.41 0.41,1.073 -0,1.483l-22.564,22.564c-0.407,0.407 -1.065,0.41 -1.476,0.007c-9.006,-8.837 -21.394,-14.298 -35.059,-14.298c-13.665,0 -26.054,5.461 -35.059,14.298c-0.411,0.403 -1.069,0.4 -1.476,-0.007l-22.564,-22.564c-0.41,-0.41 -0.41,-1.073 0,-1.483Zm2.229,0.746l21.091,21.091c9.315,-8.783 21.916,-14.178 35.78,-14.178c13.863,0 26.464,5.395 35.78,14.178l21.091,-21.091c-14.689,-14.319 -34.757,-23.145 -56.87,-23.145c-22.113,0 -42.181,8.826 -56.87,23.145Z" style="fill:#6b6b6b;"/></g></g><g id="tooth31-back-view"><g id="tooth31-back-view-base-shape"><path id="tooth31-back-view-base-shape" d="M22.938,208.824c0.557,6.459 0.704,17.218 6.104,26.162c6.864,11.367 22.215,19.799 57.686,12.738c0,0 14.311,-5.257 47.023,2.103c22.564,5.076 36.384,-2.015 44.607,-13.952c5.47,-7.941 8.463,-18.028 9.904,-28.102c2.706,-18.919 -5.44,-47.197 -17.439,-62.457c-3.995,-5.081 -8.417,-8.718 -13.008,-10.086c-8.247,-2.458 -30.141,-5.483 -53.001,-6.068c-28.088,-0.718 -57.632,2.248 -65.109,14.479c-13.561,22.185 -18.4,46.259 -16.767,65.184Z" style="fill:#fff;"/><path id="tooth31-back-view-base-shape" serif:id="tooth31-back-view-base-shape" d="M21.913,208.924c0.568,6.583 0.759,17.538 6.263,26.654c6.995,11.584 22.593,20.418 58.741,13.223c0.05,-0.01 0.099,-0.024 0.147,-0.041c0,0 14.143,-5.135 46.474,2.139c23.104,5.198 37.23,-2.153 45.65,-14.376c5.565,-8.08 8.625,-18.335 10.091,-28.585c2.744,-19.18 -5.503,-47.854 -17.667,-63.324c-4.146,-5.273 -8.755,-9.018 -13.52,-10.438c-8.286,-2.469 -30.284,-5.52 -53.254,-6.108c-16.951,-0.434 -34.43,0.477 -47.325,3.924c-8.856,2.368 -15.572,5.982 -18.671,11.052c-13.705,22.421 -18.58,46.756 -16.929,65.881Zm2.049,-0.2c-1.616,-18.723 3.188,-42.537 16.605,-64.486c2.882,-4.715 9.21,-7.92 17.447,-10.122c12.745,-3.407 30.021,-4.287 46.774,-3.859c22.75,0.582 44.541,3.582 52.748,6.028c4.417,1.316 8.652,4.846 12.496,9.735c11.833,15.048 19.88,42.932 17.211,61.589c-1.416,9.9 -4.341,19.816 -9.716,27.62c-8.026,11.651 -21.54,18.483 -43.564,13.528c-31.732,-7.139 -46.35,-2.487 -47.493,-2.094c-34.745,6.902 -49.834,-1.125 -56.563,-12.267c-5.297,-8.771 -5.399,-19.335 -5.945,-25.67Z" style="fill:#6b6b6b;"/></g><g id="tooth2-back-view-accents"><path d="M102.754,210.486c-3.185,3.522 -9.32,10.155 -24.773,12.941c-7.839,1.413 -16.868,1.13 -23.665,-0.33c9.638,3.482 23.154,5.052 33.391,0.556c7.19,-3.158 11.707,-7.741 15.048,-13.167Z" style="fill:#6b6b6b;"/><path d="M141.108,228.915c-5.136,-3.512 -15.516,-9.957 -26.788,-8.757c-7.414,0.789 -15.159,5.831 -18.878,13.897c2.852,-4.204 7.65,-7.899 12.537,-9.694c13.135,-4.823 26.087,0.961 33.129,4.553Z" style="fill:#6b6b6b;"/></g><g id="tooth2-back-view-statuses"><path id="back-right" serif:id="back-right" d="M174.04,232.901c-1.642,2.383 -1.039,5.651 1.344,7.292c2.383,1.642 5.651,1.039 7.292,-1.344c5.91,-8.58 9.219,-19.45 10.776,-30.334c2.878,-20.122 -5.746,-50.21 -18.508,-66.44c-1.789,-2.275 -5.088,-2.669 -7.362,-0.881c-2.275,1.789 -2.669,5.088 -0.881,7.362c11.236,14.289 18.904,40.758 16.37,58.474c-1.325,9.265 -4.001,18.567 -9.031,25.871Z" style="fill:none;"/><path id="back-left" serif:id="back-left" d="M44.179,146.375c1.509,-2.469 0.73,-5.699 -1.739,-7.208c-2.469,-1.509 -5.699,-0.73 -7.208,1.739c-14.22,23.264 -19.23,48.525 -17.517,68.369c0.607,7.028 0.963,18.689 6.84,28.421c1.496,2.477 4.721,3.274 7.199,1.778c2.477,-1.496 3.274,-4.721 1.778,-7.199c-4.925,-8.155 -4.861,-18.013 -5.369,-23.902c-1.554,-18.004 3.115,-40.891 16.017,-61.998Z" style="fill:none;"/><path id="back-top" serif:id="back-top" d="M166.701,148.557c1.789,2.275 5.088,2.669 7.362,0.881c2.275,-1.789 2.669,-5.088 0.881,-7.362c-4.764,-6.058 -10.158,-10.239 -15.632,-11.87c-8.46,-2.521 -30.913,-5.685 -54.364,-6.284c-17.387,-0.445 -35.311,0.532 -48.538,4.068c-10.128,2.708 -17.634,7.12 -21.178,12.918c-1.509,2.469 -0.73,5.699 1.739,7.208c2.469,1.509 5.699,0.73 7.208,-1.739c2.438,-3.989 7.97,-6.393 14.939,-8.256c12.414,-3.318 29.244,-4.133 45.562,-3.715c22.269,0.57 43.604,3.457 51.637,5.851c3.708,1.105 7.157,4.199 10.384,8.302Z" style="fill:none;"/><path id="back-bottom" serif:id="back-bottom" d="M33.531,232.275c-1.496,-2.477 -4.721,-3.274 -7.199,-1.778c-2.477,1.496 -3.274,4.721 -1.778,7.199c7.551,12.505 24.174,22.938 63.198,15.17c0.267,-0.053 0.529,-0.127 0.784,-0.221c0,0 13.4,-4.603 44.064,2.296c25.393,5.713 40.822,-2.659 50.075,-16.093c1.642,-2.383 1.039,-5.651 -1.344,-7.292c-2.383,-1.642 -5.651,-1.039 -7.292,1.344c-7.192,10.441 -19.401,16.251 -39.138,11.811c-31.34,-7.051 -46.797,-2.939 -49.532,-2.063c-31.696,6.245 -45.682,-0.176 -51.84,-10.373Z" style="fill:none;"/></g></g></g><rect id="base1" serif:id="base" x="0" y="0" width="211.4" height="855.667" style="fill:none;"/></g></svg>