<?xml version="1.0" encoding="UTF-8" standalone="no"?><!DOCTYPE svg PUBLIC "-//W3C//DTD SVG 1.1//EN" "http://www.w3.org/Graphics/SVG/1.1/DTD/svg11.dtd"><svg width="100%" height="100%" viewBox="0 0 1410 1410" version="1.1" xmlns="http://www.w3.org/2000/svg" xmlns:xlink="http://www.w3.org/1999/xlink" xml:space="preserve" xmlns:serif="http://www.serif.com/" style="fill-rule:evenodd;clip-rule:evenodd;stroke-linecap:round;stroke-linejoin:round;stroke-miterlimit:1.5;"><g id="tooth21-surface-map"><g id="tooth-surfacemap"><path id="tooth-surfacemap-center" d="M613.705,795.629c-23.29,-23.29 -37.703,-55.456 -37.703,-90.962c0,-35.506 14.413,-67.672 37.703,-90.962c23.29,-23.29 55.456,-37.703 90.962,-37.703c35.506,0 67.672,14.413 90.962,37.703c23.29,23.29 37.703,55.456 37.703,90.962c0,35.506 -14.413,67.672 -37.703,90.962c-23.29,23.29 -55.456,37.703 -90.962,37.703c-35.506,0 -67.672,-14.413 -90.962,-37.703Z" style="fill:#fff;"/><path d="M612.881,796.453c-23.501,-23.501 -38.044,-55.958 -38.044,-91.786c0,-35.828 14.544,-68.285 38.044,-91.786c23.501,-23.501 55.958,-38.044 91.786,-38.044c35.828,0 68.285,14.544 91.786,38.044c23.501,23.501 38.044,55.958 38.044,91.786c0,35.828 -14.544,68.285 -38.044,91.786c-23.501,23.501 -55.958,38.044 -91.786,38.044c-35.828,0 -68.285,-14.544 -91.786,-38.044Zm1.648,-1.648c23.079,23.079 54.954,37.362 90.138,37.362c35.184,0 67.059,-14.283 90.138,-37.362c23.079,-23.079 37.362,-54.954 37.362,-90.138c0,-35.184 -14.283,-67.059 -37.362,-90.138c-23.079,-23.079 -54.954,-37.362 -90.138,-37.362c-35.184,0 -67.059,14.283 -90.138,37.362c-23.079,23.079 -37.362,54.954 -37.362,90.138c0,35.184 14.283,67.059 37.362,90.138Z" style="fill:#808080;"/><path id="tooth-surfacemap-left" d="M491.946,917.387c-54.465,-54.465 -88.171,-129.687 -88.171,-212.721c0,-83.033 33.706,-158.256 88.171,-212.721l121.759,121.759c-23.29,23.29 -37.703,55.456 -37.703,90.962c0,35.506 14.413,67.672 37.703,90.962l-121.759,121.759Z" style="fill:#fff;"/><path d="M488.98,920.353c-55.224,-55.224 -89.399,-131.496 -89.399,-215.687c0,-84.191 34.175,-160.463 89.399,-215.687c1.638,-1.638 4.294,-1.638 5.932,-0l121.759,121.759c1.638,1.638 1.638,4.294 -0,5.932c-22.53,22.53 -36.474,53.648 -36.474,87.996c0,34.348 13.944,65.466 36.474,87.996c1.638,1.638 1.638,4.294 0,5.932l-121.759,121.759c-1.638,1.638 -4.294,1.638 -5.932,-0Zm2.987,-8.919l115.853,-115.853c-22.328,-23.774 -36.012,-55.759 -36.012,-90.916c0,-35.156 13.684,-67.142 36.012,-90.915l-115.853,-115.853c-51.973,53.452 -83.997,126.4 -83.997,206.768c0,80.368 32.025,153.316 83.997,206.768Z" style="fill:#6b6b6b;"/><path id="tooth-surfacemap-top" d="M917.387,917.387c-54.465,54.465 -129.687,88.171 -212.721,88.171c-83.033,0 -158.256,-33.706 -212.721,-88.171l121.759,-121.759c23.29,23.29 55.456,37.703 90.962,37.703c35.506,0 67.672,-14.413 90.962,-37.703l121.759,121.759Z" style="fill:#fff;"/><path d="M920.353,920.353c-55.224,55.224 -131.496,89.399 -215.687,89.399c-84.191,0 -160.463,-34.175 -215.687,-89.399c-1.638,-1.638 -1.638,-4.294 0,-5.932l121.759,-121.759c1.638,-1.638 4.294,-1.638 5.932,-0c22.53,22.53 53.648,36.474 87.996,36.474c34.348,0 65.466,-13.944 87.996,-36.474c1.638,-1.638 4.294,-1.638 5.932,-0l121.759,121.759c1.638,1.638 1.638,4.294 -0,5.932Zm-8.919,-2.987l-115.853,-115.853c-23.774,22.328 -55.759,36.012 -90.916,36.012c-35.156,0 -67.142,-13.684 -90.915,-36.012l-115.853,115.853c53.452,51.973 126.4,83.997 206.768,83.997c80.368,0 153.316,-32.025 206.768,-83.997Z" style="fill:#6b6b6b;"/><path id="tooth-surfacemap-right" d="M917.387,491.946c54.465,54.465 88.171,129.687 88.171,212.721c0,83.033 -33.706,158.256 -88.171,212.721l-121.759,-121.759c23.29,-23.29 37.703,-55.456 37.703,-90.962c0,-35.506 -14.413,-67.672 -37.703,-90.962l121.759,-121.759Z" style="fill:#fff;"/><path d="M920.353,488.98c55.224,55.224 89.399,131.496 89.399,215.687c0,84.191 -34.175,160.463 -89.399,215.687c-1.638,1.638 -4.294,1.638 -5.932,-0l-121.759,-121.759c-1.638,-1.638 -1.638,-4.294 -0,-5.932c22.53,-22.53 36.474,-53.648 36.474,-87.996c0,-34.348 -13.944,-65.466 -36.474,-87.996c-1.638,-1.638 -1.638,-4.294 0,-5.932l121.759,-121.759c1.638,-1.638 4.294,-1.638 5.932,-0Zm-2.987,8.919l-115.853,115.853c22.328,23.774 36.012,55.759 36.012,90.916c0,35.156 -13.684,67.142 -36.012,90.915l115.853,115.853c51.973,-53.452 83.997,-126.4 83.997,-206.768c0,-80.368 -32.025,-153.316 -83.997,-206.768Z" style="fill:#6b6b6b;"/><path id="tooth-surfacemap-bottom" d="M491.946,491.946c54.465,-54.465 129.687,-88.171 212.721,-88.171c83.033,0 158.256,33.706 212.721,88.171l-121.759,121.759c-23.29,-23.29 -55.456,-37.703 -90.962,-37.703c-35.506,0 -67.672,14.413 -90.962,37.703l-121.759,-121.759Z" style="fill:#fff;"/><path d="M488.98,488.98c55.224,-55.224 131.496,-89.399 215.687,-89.399c84.191,0 160.463,34.175 215.687,89.399c1.638,1.638 1.638,4.294 -0,5.932l-121.759,121.759c-1.638,1.638 -4.294,1.638 -5.932,-0c-22.53,-22.53 -53.648,-36.474 -87.996,-36.474c-34.348,0 -65.466,13.944 -87.996,36.474c-1.638,1.638 -4.294,1.638 -5.932,-0l-121.759,-121.759c-1.638,-1.638 -1.638,-4.294 0,-5.932Zm8.919,2.987l115.853,115.853c23.774,-22.328 55.759,-36.012 90.916,-36.012c35.156,0 67.142,13.684 90.916,36.012l115.853,-115.853c-53.452,-51.973 -126.4,-83.997 -206.768,-83.997c-80.368,0 -153.316,32.025 -206.768,83.997Z" style="fill:#6b6b6b;"/></g><g id="tooth-surface-map"><g id="zoomed-view-labels-middle"><path d="M976.632,1062.029l-256.865,-256.864" style="fill:none;stroke:#e8e8e8;stroke-width:4.19px;stroke-dasharray:4.194,4.194;"/><g><ellipse cx="1017.035" cy="1102.476" rx="57.059" ry="57.103" style="fill:#fff;"/><path d="M1017.035,1043.277c32.649,0 59.156,26.526 59.156,59.2c0,32.674 -26.507,59.2 -59.156,59.2c-32.649,0 -59.156,-26.526 -59.156,-59.2c0,-32.674 26.507,-59.2 59.156,-59.2Zm0,4.194c-30.334,0 -54.961,24.647 -54.961,55.005c0,30.358 24.627,55.005 54.961,55.005c30.334,0 54.961,-24.647 54.961,-55.005c0,-30.358 -24.627,-55.005 -54.961,-55.005Z" style="fill:#bcbcbc;"/><g transform="matrix(0.99923,0,0,1,-0.508359,0)"><g transform="matrix(68.607105,0,0,68.607105,1037.287852,1127.031512)"></g><text x="999.132px" y="1127.032px" style="font-family:'ArialMT', 'Arial', sans-serif;font-size:68.607px;fill:#4f4f4f;">O</text></g></g></g><g id="tooth-surfacemap-labels-left"><g id="zoomed-view-labels-left"><path d="M477.692,700.488c1.157,0 2.097,0.94 2.097,2.097c-0,1.157 -0.94,2.097 -2.097,2.097l-2.099,0c-1.157,0 -2.097,-0.94 -2.097,-2.097c0,-1.157 0.94,-2.097 2.097,-2.097l2.099,0Zm-6.296,0c1.157,0 2.097,0.94 2.097,2.097c0,1.157 -0.94,2.097 -2.097,2.097l-4.198,0c-1.157,0 -2.097,-0.94 -2.097,-2.097c0,-1.157 0.94,-2.097 2.097,-2.097l4.198,0Zm-8.395,0c1.157,0 2.097,0.94 2.097,2.097c0,1.157 -0.94,2.097 -2.097,2.097l-4.198,0c-1.157,0 -2.097,-0.94 -2.097,-2.097c0,-1.157 0.94,-2.097 2.097,-2.097l4.198,0Zm-8.395,0c1.157,0 2.097,0.94 2.097,2.097c0,1.157 -0.94,2.097 -2.097,2.097l-4.198,0c-1.157,0 -2.097,-0.94 -2.097,-2.097c0,-1.157 0.94,-2.097 2.097,-2.097l4.198,0Zm-8.395,0c1.157,0 2.097,0.94 2.097,2.097c0,1.157 -0.94,2.097 -2.097,2.097l-4.198,0c-1.157,0 -2.097,-0.94 -2.097,-2.097c0,-1.157 0.94,-2.097 2.097,-2.097l4.198,0Zm-8.395,0c1.157,0 2.097,0.94 2.097,2.097c0,1.157 -0.94,2.097 -2.097,2.097l-4.198,0c-1.157,0 -2.097,-0.94 -2.097,-2.097c0,-1.157 0.94,-2.097 2.097,-2.097l4.198,0Zm-8.395,0c1.157,0 2.097,0.94 2.097,2.097c0,1.157 -0.94,2.097 -2.097,2.097l-4.197,0c-1.157,0 -2.097,-0.94 -2.097,-2.097c0,-1.157 0.94,-2.097 2.097,-2.097l4.197,0Zm-8.396,0c1.157,0 2.097,0.94 2.097,2.097c0,1.157 -0.94,2.097 -2.097,2.097l-4.198,0c-1.157,0 -2.097,-0.94 -2.097,-2.097c0,-1.157 0.94,-2.097 2.097,-2.097l4.198,0Zm-8.395,0c1.157,0 2.097,0.94 2.097,2.097c0,1.157 -0.94,2.097 -2.097,2.097l-4.198,0c-1.157,0 -2.097,-0.94 -2.097,-2.097c0,-1.157 0.94,-2.097 2.097,-2.097l4.198,0Zm-8.395,0c1.157,0 2.097,0.94 2.097,2.097c0,1.157 -0.94,2.097 -2.097,2.097l-4.198,0c-1.157,0 -2.097,-0.94 -2.097,-2.097c0,-1.157 0.94,-2.097 2.097,-2.097l4.198,0Zm-8.395,0c1.157,0 2.097,0.94 2.097,2.097c0,1.157 -0.94,2.097 -2.097,2.097l-4.198,0c-1.157,0 -2.097,-0.94 -2.097,-2.097c0,-1.157 0.94,-2.097 2.097,-2.097l4.198,0Zm-8.395,0c1.157,0 2.097,0.94 2.097,2.097c0,1.157 -0.94,2.097 -2.097,2.097l-4.198,0c-1.157,0 -2.097,-0.94 -2.097,-2.097c0,-1.157 0.94,-2.097 2.097,-2.097l4.198,0Zm-8.396,0c1.157,0 2.097,0.94 2.097,2.097c0,1.157 -0.94,2.097 -2.097,2.097l-4.197,0c-1.157,0 -2.097,-0.94 -2.097,-2.097c0,-1.157 0.94,-2.097 2.097,-2.097l4.197,0Zm-8.395,0c1.157,0 2.097,0.94 2.097,2.097c0,1.157 -0.94,2.097 -2.097,2.097l-4.198,0c-1.157,0 -2.097,-0.94 -2.097,-2.097c0,-1.157 0.94,-2.097 2.097,-2.097l4.198,0Zm-8.395,0c1.157,0 2.097,0.94 2.097,2.097c0,1.157 -0.94,2.097 -2.097,2.097l-4.198,0c-1.157,0 -2.097,-0.94 -2.097,-2.097c0,-1.157 0.94,-2.097 2.097,-2.097l4.198,0Zm-8.395,0c1.157,0 2.097,0.94 2.097,2.097c0,1.157 -0.94,2.097 -2.097,2.097l-4.198,0c-1.157,0 -2.097,-0.94 -2.097,-2.097c0,-1.157 0.94,-2.097 2.097,-2.097l4.198,0Zm-8.395,0c1.157,0 2.097,0.94 2.097,2.097c0,1.157 -0.94,2.097 -2.097,2.097l-4.198,0c-1.157,0 -2.097,-0.94 -2.097,-2.097c0,-1.157 0.94,-2.097 2.097,-2.097l4.198,0Zm-8.396,0c1.157,0 2.097,0.94 2.097,2.097c0,1.157 -0.94,2.097 -2.097,2.097l-4.198,0c-1.157,0 -2.097,-0.94 -2.097,-2.097c0,-1.157 0.94,-2.097 2.097,-2.097l4.198,0Zm-8.395,0c1.157,0 2.097,0.94 2.097,2.097c0,1.157 -0.94,2.097 -2.097,2.097l-4.198,0c-1.157,0 -2.097,-0.94 -2.097,-2.097c0,-1.157 0.94,-2.097 2.097,-2.097l4.198,0Zm-8.396,0c1.157,0 2.097,0.94 2.097,2.097c0,1.157 -0.94,2.097 -2.097,2.097l-4.198,0c-1.157,0 -2.097,-0.94 -2.097,-2.097c0,-1.157 0.94,-2.097 2.097,-2.097l4.198,0Zm-8.395,0c1.157,0 2.097,0.94 2.097,2.097c0,1.157 -0.94,2.097 -2.097,2.097l-4.198,0c-1.157,0 -2.097,-0.94 -2.097,-2.097c0,-1.157 0.94,-2.097 2.097,-2.097l4.198,0Zm-8.395,0c1.157,0 2.097,0.94 2.097,2.097c0,1.157 -0.94,2.097 -2.097,2.097l-4.198,0c-1.157,0 -2.097,-0.94 -2.097,-2.097c0,-1.157 0.94,-2.097 2.097,-2.097l4.198,0Zm-8.396,0c1.157,0 2.097,0.94 2.097,2.097c0,1.157 -0.94,2.097 -2.097,2.097l-4.198,0c-1.157,0 -2.097,-0.94 -2.097,-2.097c0,-1.157 0.94,-2.097 2.097,-2.097l4.198,0Zm-8.395,0c1.157,0 2.097,0.94 2.097,2.097c0,1.157 -0.94,2.097 -2.097,2.097l-4.198,0c-1.157,0 -2.097,-0.94 -2.097,-2.097c0,-1.157 0.94,-2.097 2.097,-2.097l4.198,0Zm-8.395,0c1.157,0 2.097,0.94 2.097,2.097c0,1.157 -0.94,2.097 -2.097,2.097l-4.198,0c-1.157,0 -2.097,-0.94 -2.097,-2.097c0,-1.157 0.94,-2.097 2.097,-2.097l4.198,0Zm-8.395,0c1.157,0 2.097,0.94 2.097,2.097c0,1.157 -0.94,2.097 -2.097,2.097l-4.198,0c-1.157,0 -2.097,-0.94 -2.097,-2.097c0,-1.157 0.94,-2.097 2.097,-2.097l4.198,0Zm-8.396,0c1.157,0 2.097,0.94 2.097,2.097c0,1.157 -0.94,2.097 -2.097,2.097l-4.198,0c-1.157,0 -2.097,-0.94 -2.097,-2.097c0,-1.157 0.94,-2.097 2.097,-2.097l4.198,0Zm-8.395,0c1.157,0 2.097,0.94 2.097,2.097c0,1.157 -0.94,2.097 -2.097,2.097l-4.198,0c-1.157,0 -2.097,-0.94 -2.097,-2.097c0,-1.157 0.94,-2.097 2.097,-2.097l4.198,0Zm-8.395,0c1.157,0 2.097,0.94 2.097,2.097c0,1.157 -0.94,2.097 -2.097,2.097l-4.198,0c-1.157,0 -2.097,-0.94 -2.097,-2.097c0,-1.157 0.94,-2.097 2.097,-2.097l4.198,0Zm-8.395,0c1.157,0 2.097,0.94 2.097,2.097c0,1.157 -0.94,2.097 -2.097,2.097l-4.198,0c-1.157,0 -2.097,-0.94 -2.097,-2.097c0,-1.157 0.94,-2.097 2.097,-2.097l4.198,0Zm-8.395,0c1.157,0 2.097,0.94 2.097,2.097c0,1.157 -0.94,2.097 -2.097,2.097l-4.198,0c-1.157,0 -2.097,-0.94 -2.097,-2.097c0,-1.157 0.94,-2.097 2.097,-2.097l4.198,0Zm-8.395,0c1.157,0 2.097,0.94 2.097,2.097c0,1.157 -0.94,2.097 -2.097,2.097l-2.099,0c-1.157,0 -2.097,-0.94 -2.097,-2.097c-0,-1.157 0.94,-2.097 2.097,-2.097l2.099,0Z" style="fill:#e8e8e8;"/><ellipse cx="158.732" cy="702.586" rx="57.059" ry="57.103" style="fill:#fff;"/><path d="M158.732,643.386c32.649,0 59.156,26.526 59.156,59.2c0,32.674 -26.507,59.2 -59.156,59.2c-32.649,0 -59.156,-26.526 -59.156,-59.2c0,-32.674 26.507,-59.2 59.156,-59.2Zm0,4.194c-30.334,0 -54.961,24.647 -54.961,55.005c0,30.358 24.627,55.005 54.961,55.005c30.334,0 54.961,-24.647 54.961,-55.005c0,-30.358 -24.627,-55.005 -54.961,-55.005Z" style="fill:#bcbcbc;"/><g transform="matrix(68.607105,0,0,68.607105,186.501919,727.140699)"></g><text x="129.352px" y="727.141px" style="font-family:'ArialMT', 'Arial', sans-serif;font-size:68.607px;fill:#4f4f4f;">M</text></g></g><g id="tooth-surfacemap-labels-down"><g id="zoomed-view-labels-left1" serif:id="zoomed-view-labels-left"><path d="M564.572,930.628c0,-1.157 0.94,-2.097 2.097,-2.097l4.195,0c1.157,0 2.097,0.94 2.097,2.097c0,1.157 -0.94,2.097 -2.097,2.097l-4.195,0c-1.157,0 -2.097,-0.94 -2.097,-2.097Zm16.778,0c0,-1.157 0.94,-2.097 2.097,-2.097l4.195,0c1.157,0 2.097,0.94 2.097,2.097c0,1.157 -0.94,2.097 -2.097,2.097l-4.195,0c-1.157,0 -2.097,-0.94 -2.097,-2.097Zm-8.389,0c0,-1.157 0.94,-2.097 2.097,-2.097l4.194,0c1.157,0 2.097,0.94 2.097,2.097c-0,1.157 -0.94,2.097 -2.097,2.097l-4.194,0c-1.157,0 -2.097,-0.94 -2.097,-2.097Zm-16.778,0c0,-1.157 0.94,-2.097 2.097,-2.097l4.195,0c1.157,0 2.097,0.94 2.097,2.097c0,1.157 -0.94,2.097 -2.097,2.097l-4.195,0c-1.157,0 -2.097,-0.94 -2.097,-2.097Zm33.556,0c0,-1.157 0.94,-2.097 2.097,-2.097l4.194,0c1.157,0 2.097,0.94 2.097,2.097c-0,1.157 -0.94,2.097 -2.097,2.097l-4.194,0c-1.157,0 -2.097,-0.94 -2.097,-2.097Zm8.389,0c0,-1.157 0.94,-2.097 2.097,-2.097l4.194,0c1.157,0 2.097,0.94 2.097,2.097c0,1.157 -0.939,2.097 -2.097,2.097l-4.194,0c-1.157,0 -2.097,-0.94 -2.097,-2.097Zm83.889,0c0,-1.157 0.939,-2.097 2.097,-2.097l4.194,0c1.157,0 2.097,0.94 2.097,2.097c-0,1.157 -0.94,2.097 -2.097,2.097l-4.194,0c-1.157,0 -2.097,-0.94 -2.097,-2.097Zm-461.389,0c0,1.157 -0.94,2.097 -2.097,2.097l-2.097,0c-1.157,-0 -2.097,-0.94 -2.097,-2.097c0,-1.157 0.94,-2.097 2.097,-2.097l2.097,0c1.157,0 2.097,0.94 2.097,2.097Zm469.778,0c0,-1.157 0.94,-2.097 2.097,-2.097l4.194,0c1.157,0 2.097,0.94 2.097,2.097c-0,1.157 -0.94,2.097 -2.097,2.097l-4.194,0c-1.157,0 -2.097,-0.94 -2.097,-2.097Zm25.167,0c0,-1.157 0.94,-2.097 2.097,-2.097l2.097,0c1.157,-0 2.097,0.94 2.097,2.097c0,1.157 -0.94,2.097 -2.097,2.097l-2.097,0c-1.157,0 -2.097,-0.94 -2.097,-2.097Zm-8.389,0c0,-1.157 0.94,-2.097 2.097,-2.097l4.195,0c1.157,0 2.097,0.94 2.097,2.097c0,1.157 -0.94,2.097 -2.097,2.097l-4.195,0c-1.157,0 -2.097,-0.94 -2.097,-2.097Zm-33.556,0c0,-1.157 0.94,-2.097 2.098,-2.097l4.194,0c1.157,0 2.097,0.94 2.097,2.097c0,1.157 -0.939,2.097 -2.097,2.097l-4.194,0c-1.157,0 -2.097,-0.94 -2.098,-2.097Zm25.167,0c0,-1.157 0.94,-2.097 2.097,-2.097l4.194,0c1.157,0 2.097,0.94 2.097,2.097c0,1.157 -0.94,2.097 -2.097,2.097l-4.194,0c-1.157,0 -2.097,-0.94 -2.097,-2.097Zm-92.278,0c0,-1.157 0.939,-2.097 2.097,-2.097l4.195,0c1.157,0 2.097,0.94 2.098,2.097c-0,1.157 -0.94,2.097 -2.098,2.097l-4.195,0c-1.157,0 -2.097,-0.94 -2.097,-2.097Zm41.944,0c0,-1.157 0.94,-2.097 2.097,-2.097l4.195,0c1.157,0 2.097,0.94 2.097,2.097c-0,1.157 -0.94,2.097 -2.097,2.097l-4.195,0c-1.157,0 -2.097,-0.94 -2.097,-2.097Zm-8.388,0c0,-1.157 0.94,-2.097 2.097,-2.097l4.194,0c1.157,0 2.097,0.94 2.097,2.097c0,1.157 -0.94,2.097 -2.097,2.097l-4.194,0c-1.157,0 -2.097,-0.94 -2.097,-2.097Zm-16.778,0c0,-1.157 0.94,-2.097 2.097,-2.097l4.195,0c1.157,0 2.097,0.94 2.097,2.097c-0,1.157 -0.94,2.097 -2.097,2.097l-4.195,0c-1.157,0 -2.097,-0.94 -2.097,-2.097Zm8.389,0c0,-1.157 0.94,-2.097 2.097,-2.097l4.194,0c1.157,0 2.097,0.94 2.097,2.097c0,1.157 -0.94,2.097 -2.097,2.097l-4.194,0c-1.157,0 -2.097,-0.94 -2.097,-2.097Zm33.555,0c0,-1.157 0.94,-2.097 2.097,-2.097l4.194,0c1.157,0 2.097,0.94 2.098,2.097c-0,1.157 -0.94,2.097 -2.098,2.097l-4.194,0c-1.157,0 -2.097,-0.94 -2.097,-2.097Zm-50.334,0c0,-1.157 0.94,-2.097 2.098,-2.097l4.194,0c1.157,0 2.097,0.94 2.097,2.097c0,1.157 -0.94,2.097 -2.097,2.097l-4.194,0c-1.157,0 -2.097,-0.94 -2.098,-2.097Zm41.945,0c0,-1.157 0.94,-2.097 2.097,-2.097l4.194,0c1.157,0 2.097,0.94 2.097,2.097c0,1.157 -0.94,2.097 -2.097,2.097l-4.194,0c-1.157,0 -2.097,-0.94 -2.097,-2.097Zm-109.056,0c0,-1.157 0.939,-2.097 2.097,-2.097l4.194,0c1.157,0 2.097,0.94 2.097,2.097c-0,1.157 -0.94,2.097 -2.097,2.097l-4.194,0c-1.157,0 -2.097,-0.94 -2.097,-2.097Zm-8.388,0c0,-1.157 0.94,-2.097 2.097,-2.097l4.194,0c1.157,0 2.097,0.94 2.097,2.097c0,1.157 -0.939,2.097 -2.097,2.097l-4.194,0c-1.157,0 -2.097,-0.94 -2.097,-2.097Zm-8.389,0c0,-1.157 0.94,-2.097 2.097,-2.097l4.195,0c1.157,0 2.097,0.94 2.097,2.097c-0,1.157 -0.94,2.097 -2.097,2.097l-4.195,0c-1.157,0 -2.097,-0.94 -2.097,-2.097Zm-8.389,0c0,-1.157 0.94,-2.097 2.097,-2.097l4.195,0c1.157,0 2.097,0.94 2.097,2.097c-0,1.157 -0.94,2.097 -2.097,2.097l-4.195,0c-1.157,0 -2.097,-0.94 -2.097,-2.097Zm-8.388,0c0,-1.157 0.939,-2.097 2.097,-2.097l4.194,0c1.157,0 2.097,0.94 2.097,2.097c0,1.157 -0.94,2.097 -2.097,2.097l-4.194,0c-1.157,0 -2.097,-0.94 -2.097,-2.097Zm-8.389,0c0,-1.157 0.94,-2.097 2.097,-2.097l4.195,0c1.157,0 2.097,0.94 2.097,2.097c0,1.157 -0.939,2.097 -2.097,2.097l-4.195,0c-1.157,0 -2.097,-0.94 -2.097,-2.097Zm-8.389,0c0,-1.157 0.94,-2.097 2.097,-2.097l4.195,0c1.157,0 2.097,0.94 2.097,2.097c0,1.157 -0.94,2.097 -2.097,2.097l-4.195,0c-1.157,0 -2.097,-0.94 -2.097,-2.097Zm-8.388,0c0,-1.157 0.939,-2.097 2.097,-2.097l4.194,0c1.157,0 2.097,0.94 2.097,2.097c-0,1.157 -0.94,2.097 -2.097,2.097l-4.194,0c-1.157,0 -2.097,-0.94 -2.097,-2.097Zm-8.389,0c0,-1.157 0.94,-2.097 2.098,-2.097l4.194,0c1.157,0 2.097,0.94 2.097,2.097c0,1.157 -0.939,2.097 -2.097,2.097l-4.194,0c-1.157,0 -2.097,-0.94 -2.098,-2.097Zm-8.389,0c0,-1.157 0.94,-2.097 2.097,-2.097l4.194,0c1.157,0 2.097,0.94 2.098,2.097c-0,1.157 -0.94,2.097 -2.098,2.097l-4.194,0c-1.157,0 -2.097,-0.94 -2.097,-2.097Zm-8.389,0c0,-1.157 0.94,-2.097 2.097,-2.097l4.195,0c1.157,0 2.097,0.94 2.097,2.097c0,1.157 -0.94,2.097 -2.097,2.097l-4.195,0c-1.157,0 -2.097,-0.94 -2.097,-2.097Zm-8.389,0c0,-1.157 0.939,-2.097 2.097,-2.097l4.195,0c1.157,0 2.097,0.94 2.097,2.097c-0,1.157 -0.94,2.097 -2.097,2.097l-4.195,0c-1.157,0 -2.097,-0.94 -2.097,-2.097Zm-8.388,0c0,-1.157 0.939,-2.097 2.097,-2.097l4.195,0c1.157,0 2.097,0.94 2.097,2.097c0,1.157 -0.939,2.097 -2.097,2.097l-4.195,0c-1.157,0 -2.097,-0.94 -2.097,-2.097Zm-8.389,0c0.001,-1.157 0.94,-2.097 2.098,-2.097l4.194,0c1.157,0 2.097,0.94 2.097,2.097c0,1.157 -0.939,2.097 -2.097,2.097l-4.194,0c-1.157,0 -2.097,-0.94 -2.098,-2.097Zm-8.389,0c0,-1.157 0.939,-2.097 2.097,-2.097l4.195,0c1.157,0 2.097,0.94 2.098,2.097c-0.001,1.157 -0.94,2.097 -2.098,2.097l-4.195,0c-1.157,0 -2.097,-0.94 -2.097,-2.097Zm-8.388,0c0,-1.157 0.94,-2.097 2.097,-2.097l4.194,0c1.157,0 2.097,0.94 2.097,2.097c0,1.157 -0.939,2.097 -2.097,2.097l-4.194,0c-1.157,0 -2.097,-0.94 -2.097,-2.097Zm-8.389,0c0,-1.157 0.94,-2.097 2.097,-2.097l4.194,0c1.157,0 2.097,0.94 2.097,2.097c-0,1.157 -0.94,2.097 -2.097,2.097l-4.194,0c-1.157,0 -2.097,-0.94 -2.097,-2.097Zm-8.389,0c0,-1.157 0.94,-2.097 2.097,-2.097l4.194,0c1.157,0 2.097,0.94 2.097,2.097c-0,1.157 -0.94,2.097 -2.097,2.097l-4.194,0c-1.157,0 -2.097,-0.94 -2.097,-2.097Zm-8.389,0c0,-1.157 0.94,-2.097 2.097,-2.097l4.194,0c1.157,0 2.097,0.94 2.097,2.097c-0,1.157 -0.94,2.097 -2.097,2.097l-4.194,0c-1.157,0 -2.097,-0.94 -2.097,-2.097Zm-8.389,0c0,-1.157 0.94,-2.097 2.097,-2.097l4.194,0c1.157,0 2.097,0.94 2.097,2.097c0,1.157 -0.94,2.097 -2.097,2.097l-4.194,0c-1.157,0 -2.097,-0.94 -2.097,-2.097Zm-8.389,0c0,-1.157 0.94,-2.097 2.097,-2.097l4.195,0c1.157,0 2.097,0.94 2.097,2.097c-0,1.157 -0.94,2.097 -2.097,2.097l-4.195,0c-1.157,0 -2.097,-0.94 -2.097,-2.097Zm-8.389,0c0,-1.157 0.94,-2.097 2.097,-2.097l4.194,0c1.157,0 2.097,0.94 2.097,2.097c0,1.157 -0.94,2.097 -2.097,2.097l-4.194,0c-1.157,0 -2.097,-0.94 -2.097,-2.097Zm-8.389,0c0,-1.157 0.939,-2.097 2.097,-2.097l4.194,0c1.157,0 2.097,0.94 2.097,2.097c-0,1.157 -0.94,2.097 -2.097,2.097l-4.194,0c-1.157,0 -2.097,-0.94 -2.097,-2.097Zm-8.389,0c0,-1.157 0.939,-2.097 2.097,-2.097l4.195,0c1.157,0 2.097,0.94 2.097,2.097c0,1.157 -0.939,2.097 -2.097,2.097l-4.195,0c-1.157,0 -2.097,-0.94 -2.097,-2.097Zm-8.389,0c0,-1.157 0.94,-2.097 2.097,-2.097l4.195,0c1.157,0 2.097,0.94 2.097,2.097c0,1.157 -0.939,2.097 -2.097,2.097l-4.195,0c-1.157,0 -2.097,-0.94 -2.097,-2.097Zm-8.389,0c0,-1.157 0.94,-2.097 2.097,-2.097l4.194,0c1.157,0 2.097,0.94 2.097,2.097c-0,1.157 -0.94,2.097 -2.097,2.097l-4.194,0c-1.157,0 -2.097,-0.94 -2.097,-2.097Zm-8.389,0c0,-1.157 0.94,-2.097 2.097,-2.097l4.194,0c1.157,0 2.097,0.94 2.097,2.097c-0,1.157 -0.94,2.097 -2.097,2.097l-4.194,0c-1.157,0 -2.097,-0.94 -2.097,-2.097Zm-8.389,0c0,-1.157 0.94,-2.097 2.098,-2.097l4.194,0c1.157,0 2.097,0.94 2.097,2.097c0,1.157 -0.94,2.097 -2.097,2.097l-4.194,0c-1.157,0 -2.097,-0.94 -2.098,-2.097Zm-8.389,0c0,-1.157 0.94,-2.097 2.097,-2.097l4.194,0c1.157,0 2.097,0.94 2.098,2.097c-0,1.157 -0.94,2.097 -2.098,2.097l-4.194,0c-1.157,0 -2.097,-0.94 -2.097,-2.097Zm-8.389,0c0,-1.157 0.94,-2.097 2.097,-2.097l4.194,0c1.157,0 2.097,0.94 2.097,2.097c0,1.157 -0.94,2.097 -2.097,2.097l-4.194,0c-1.157,0 -2.097,-0.94 -2.097,-2.097Zm-8.389,0c0,-1.157 0.94,-2.097 2.097,-2.097l4.194,0c1.157,0 2.097,0.94 2.097,2.097c-0,1.157 -0.94,2.097 -2.097,2.097l-4.194,0c-1.157,0 -2.097,-0.94 -2.097,-2.097Zm-8.389,0c0,-1.157 0.94,-2.097 2.097,-2.097l4.194,0c1.157,0 2.097,0.94 2.097,2.097c-0,1.157 -0.94,2.097 -2.097,2.097l-4.194,0c-1.157,0 -2.097,-0.94 -2.097,-2.097Zm-8.389,0c0,-1.157 0.939,-2.097 2.097,-2.097l4.194,0c1.157,0 2.097,0.94 2.097,2.097c-0,1.157 -0.94,2.097 -2.097,2.097l-4.194,0c-1.157,0 -2.097,-0.94 -2.097,-2.097Zm-8.389,0c0,-1.157 0.94,-2.097 2.097,-2.097l4.195,0c1.157,0 2.097,0.94 2.097,2.097c0,1.157 -0.939,2.097 -2.097,2.097l-4.195,0c-1.157,0 -2.097,-0.94 -2.097,-2.097Zm-8.389,0c0,-1.157 0.939,-2.097 2.097,-2.097l4.194,0c1.157,0 2.097,0.94 2.097,2.097c-0,1.157 -0.94,2.097 -2.097,2.097l-4.194,0c-1.157,0 -2.097,-0.94 -2.097,-2.097Zm-8.389,0c0,-1.157 0.94,-2.097 2.098,-2.097l4.194,0c1.157,0 2.097,0.94 2.097,2.097c0,1.157 -0.939,2.097 -2.097,2.097l-4.194,0c-1.157,0 -2.097,-0.94 -2.098,-2.097Zm-8.389,0c0,-1.157 0.94,-2.097 2.097,-2.097l4.194,0c1.157,0 2.097,0.94 2.098,2.097c-0,1.157 -0.94,2.097 -2.098,2.097l-4.194,0c-1.157,0 -2.097,-0.94 -2.097,-2.097Zm-8.389,0c0,-1.157 0.94,-2.097 2.097,-2.097l4.194,0c1.157,0 2.097,0.94 2.097,2.097c0,1.157 -0.94,2.097 -2.097,2.097l-4.194,0c-1.157,0 -2.097,-0.94 -2.097,-2.097Zm-8.389,0c0,-1.157 0.94,-2.097 2.097,-2.097l4.194,0c1.157,0 2.097,0.94 2.097,2.097c0,1.157 -0.94,2.097 -2.097,2.097l-4.194,0c-1.157,0 -2.097,-0.94 -2.097,-2.097Zm-8.389,0c0,-1.157 0.94,-2.097 2.097,-2.097l4.194,0c1.157,0 2.097,0.94 2.097,2.097c-0,1.157 -0.94,2.097 -2.097,2.097l-4.194,0c-1.157,0 -2.097,-0.94 -2.097,-2.097Z" style="fill:#e8e8e8;"/><ellipse cx="158.732" cy="930.628" rx="57.059" ry="57.103" style="fill:#fff;"/><path d="M158.732,871.428c32.649,0 59.156,26.526 59.156,59.2c0,32.674 -26.507,59.2 -59.156,59.2c-32.649,0 -59.156,-26.526 -59.156,-59.2c0,-32.674 26.507,-59.2 59.156,-59.2Zm0,4.194c-30.334,0 -54.961,24.647 -54.961,55.005c0,30.358 24.627,55.005 54.961,55.005c30.334,0 54.961,-24.647 54.961,-55.005c0,-30.358 -24.627,-55.005 -54.961,-55.005Z" style="fill:#bcbcbc;"/><g transform="matrix(68.607105,0,0,68.607105,180.806994,955.18311)"></g><text x="135.047px" y="955.183px" style="font-family:'ArialMT', 'Arial', sans-serif;font-size:68.607px;fill:#4f4f4f;">B</text></g></g><g id="tooth-surfacemap-labels-right"><g id="zoomed-view-labels-left2" serif:id="zoomed-view-labels-left"><path d="M928.679,704.683c-1.157,0 -2.097,-0.94 -2.097,-2.097c-0,-1.157 0.94,-2.097 2.097,-2.097l2.098,0c1.157,0 2.097,0.94 2.097,2.097c0,1.157 -0.94,2.097 -2.097,2.097l-2.098,0Zm6.295,0c-1.157,0 -2.097,-0.94 -2.097,-2.097c0,-1.157 0.94,-2.097 2.097,-2.097l4.197,0c1.157,0 2.097,0.94 2.097,2.097c0,1.157 -0.94,2.097 -2.097,2.097l-4.197,0Zm8.394,0c-1.157,0 -2.097,-0.94 -2.097,-2.097c0,-1.157 0.94,-2.097 2.097,-2.097l4.197,0c1.157,0 2.097,0.94 2.097,2.097c0,1.157 -0.94,2.097 -2.097,2.097l-4.197,0Zm8.393,0c-1.157,0 -2.097,-0.94 -2.097,-2.097c0,-1.157 0.94,-2.097 2.097,-2.097l4.197,0c1.157,0 2.097,0.94 2.097,2.097c0,1.157 -0.94,2.097 -2.097,2.097l-4.197,0Zm8.394,0c-1.157,0 -2.097,-0.94 -2.097,-2.097c0,-1.157 0.94,-2.097 2.097,-2.097l4.197,0c1.157,0 2.097,0.94 2.097,2.097c0,1.157 -0.94,2.097 -2.097,2.097l-4.197,0Zm8.393,0c-1.157,0 -2.097,-0.94 -2.097,-2.097c0,-1.157 0.94,-2.097 2.097,-2.097l4.197,0c1.157,0 2.097,0.94 2.097,2.097c0,1.157 -0.94,2.097 -2.097,2.097l-4.197,0Zm8.393,0c-1.157,0 -2.097,-0.94 -2.097,-2.097c0,-1.157 0.94,-2.097 2.097,-2.097l4.197,0c1.157,0 2.097,0.94 2.097,2.097c0,1.157 -0.94,2.097 -2.097,2.097l-4.197,0Zm8.394,0c-1.157,0 -2.097,-0.94 -2.097,-2.097c0,-1.157 0.94,-2.097 2.097,-2.097l4.197,0c1.157,0 2.097,0.94 2.097,2.097c0,1.157 -0.94,2.097 -2.097,2.097l-4.197,0Zm8.393,0c-1.157,0 -2.097,-0.94 -2.097,-2.097c0,-1.157 0.94,-2.097 2.097,-2.097l4.197,0c1.157,0 2.097,0.94 2.097,2.097c0,1.157 -0.94,2.097 -2.097,2.097l-4.197,0Zm8.393,0c-1.157,0 -2.097,-0.94 -2.097,-2.097c0,-1.157 0.94,-2.097 2.097,-2.097l4.197,0c1.157,0 2.097,0.94 2.097,2.097c0,1.157 -0.94,2.097 -2.097,2.097l-4.197,0Zm8.393,0c-1.157,0 -2.097,-0.94 -2.097,-2.097c0,-1.157 0.94,-2.097 2.097,-2.097l4.197,0c1.157,0 2.097,0.94 2.097,2.097c0,1.157 -0.94,2.097 -2.097,2.097l-4.197,0Zm8.393,0c-1.157,0 -2.097,-0.94 -2.097,-2.097c0,-1.157 0.94,-2.097 2.097,-2.097l4.197,0c1.157,0 2.097,0.94 2.097,2.097c0,1.157 -0.94,2.097 -2.097,2.097l-4.197,0Zm8.394,0c-1.157,0 -2.097,-0.94 -2.097,-2.097c0,-1.157 0.94,-2.097 2.097,-2.097l4.197,0c1.157,0 2.097,0.94 2.097,2.097c0,1.157 -0.94,2.097 -2.097,2.097l-4.197,0Zm8.393,0c-1.157,0 -2.097,-0.94 -2.097,-2.097c0,-1.157 0.94,-2.097 2.097,-2.097l4.197,0c1.157,0 2.097,0.94 2.097,2.097c0,1.157 -0.94,2.097 -2.097,2.097l-4.197,0Zm8.393,0c-1.157,0 -2.097,-0.94 -2.097,-2.097c0,-1.157 0.94,-2.097 2.097,-2.097l4.197,0c1.157,0 2.097,0.94 2.097,2.097c0,1.157 -0.94,2.097 -2.097,2.097l-4.197,0Zm8.393,0c-1.157,0 -2.097,-0.94 -2.097,-2.097c0,-1.157 0.94,-2.097 2.097,-2.097l4.197,0c1.157,0 2.097,0.94 2.097,2.097c0,1.157 -0.94,2.097 -2.097,2.097l-4.197,0Zm8.393,0c-1.157,0 -2.097,-0.94 -2.097,-2.097c0,-1.157 0.94,-2.097 2.097,-2.097l4.197,0c1.157,0 2.097,0.94 2.097,2.097c0,1.157 -0.94,2.097 -2.097,2.097l-4.197,0Zm8.394,0c-1.157,0 -2.097,-0.94 -2.097,-2.097c0,-1.157 0.94,-2.097 2.097,-2.097l4.197,0c1.157,0 2.097,0.94 2.097,2.097c0,1.157 -0.94,2.097 -2.097,2.097l-4.197,0Zm8.393,0c-1.157,0 -2.097,-0.94 -2.097,-2.097c0,-1.157 0.94,-2.097 2.097,-2.097l4.197,0c1.157,0 2.097,0.94 2.097,2.097c0,1.157 -0.94,2.097 -2.097,2.097l-4.197,0Zm8.394,0c-1.157,0 -2.097,-0.94 -2.097,-2.097c0,-1.157 0.94,-2.097 2.097,-2.097l4.197,0c1.157,0 2.097,0.94 2.097,2.097c0,1.157 -0.94,2.097 -2.097,2.097l-4.197,0Zm8.393,0c-1.157,0 -2.097,-0.94 -2.097,-2.097c0,-1.157 0.94,-2.097 2.097,-2.097l4.197,0c1.157,0 2.097,0.94 2.097,2.097c0,1.157 -0.94,2.097 -2.097,2.097l-4.197,0Zm8.393,0c-1.157,0 -2.097,-0.94 -2.097,-2.097c0,-1.157 0.94,-2.097 2.097,-2.097l4.197,0c1.157,0 2.097,0.94 2.097,2.097c0,1.157 -0.94,2.097 -2.097,2.097l-4.197,0Zm8.394,0c-1.157,0 -2.097,-0.94 -2.097,-2.097c0,-1.157 0.94,-2.097 2.097,-2.097l4.197,0c1.157,0 2.097,0.94 2.097,2.097c0,1.157 -0.94,2.097 -2.097,2.097l-4.197,0Zm8.393,0c-1.157,0 -2.097,-0.94 -2.097,-2.097c0,-1.157 0.94,-2.097 2.097,-2.097l4.197,0c1.157,0 2.097,0.94 2.097,2.097c0,1.157 -0.94,2.097 -2.097,2.097l-4.197,0Zm8.394,0c-1.157,0 -2.097,-0.94 -2.097,-2.097c0,-1.157 0.94,-2.097 2.097,-2.097l4.197,0c1.157,0 2.097,0.94 2.097,2.097c0,1.157 -0.94,2.097 -2.097,2.097l-4.197,0Zm8.393,0c-1.157,0 -2.097,-0.94 -2.097,-2.097c0,-1.157 0.94,-2.097 2.097,-2.097l4.197,0c1.157,0 2.097,0.94 2.097,2.097c0,1.157 -0.94,2.097 -2.097,2.097l-4.197,0Zm8.394,0c-1.157,0 -2.097,-0.94 -2.097,-2.097c0,-1.157 0.94,-2.097 2.097,-2.097l4.197,0c1.157,0 2.097,0.94 2.097,2.097c0,1.157 -0.94,2.097 -2.097,2.097l-4.197,0Zm8.393,-0c-1.157,0 -2.097,-0.94 -2.097,-2.097c0,-1.157 0.94,-2.097 2.097,-2.097l4.197,0c1.157,0 2.097,0.94 2.097,2.097c0,1.157 -0.94,2.097 -2.097,2.097l-4.197,0Zm8.394,0c-1.157,0 -2.097,-0.94 -2.097,-2.097c0,-1.157 0.94,-2.097 2.097,-2.097l4.197,0c1.157,0 2.097,0.94 2.097,2.097c0,1.157 -0.94,2.097 -2.097,2.097l-4.197,0Zm8.393,-0c-1.157,0 -2.097,-0.94 -2.097,-2.097c0,-1.157 0.94,-2.097 2.097,-2.097l4.197,0c1.157,0 2.097,0.94 2.097,2.097c0,1.157 -0.94,2.097 -2.097,2.097l-4.197,0Zm8.393,0c-1.157,0 -2.097,-0.94 -2.097,-2.097c0,-1.157 0.94,-2.097 2.097,-2.097l4.197,0c1.157,0 2.097,0.94 2.097,2.097c0,1.157 -0.94,2.097 -2.097,2.097l-4.197,0Zm8.393,0c-1.157,0 -2.097,-0.94 -2.097,-2.097c0,-1.157 0.94,-2.097 2.097,-2.097l2.098,0c1.157,0 2.097,0.94 2.097,2.097c-0,1.157 -0.94,2.097 -2.097,2.097l-2.098,0Z" style="fill:#e8e8e8;"/><ellipse cx="1245.932" cy="702.586" rx="57.059" ry="57.103" style="fill:#fff;"/><path d="M1245.932,761.785c-32.649,0 -59.156,-26.526 -59.156,-59.2c0,-32.674 26.507,-59.2 59.156,-59.2c32.649,0 59.156,26.526 59.156,59.2c0,32.674 -26.507,59.2 -59.156,59.2Zm0,-4.194c30.334,0 54.961,-24.647 54.961,-55.005c0,-30.358 -24.627,-55.005 -54.961,-55.005c-30.334,0 -54.961,24.647 -54.961,55.005c0,30.358 24.627,55.005 54.961,55.005Z" style="fill:#bcbcbc;"/><g transform="matrix(0.99923,0,-0,1,-0.33125,0)"><g transform="matrix(68.607105,0,0,68.607105,1271.175328,727.140699)"></g><text x="1221.629px" y="727.141px" style="font-family:'ArialMT', 'Arial', sans-serif;font-size:68.607px;fill:#4f4f4f;">D</text></g></g></g><g id="tooth-surfacemap-labels-up"><g id="zoomed-view-labels-left3" serif:id="zoomed-view-labels-left"><path d="M719.124,466.177c1.157,0 2.097,0.94 2.097,2.097c-0,1.157 -0.94,2.097 -2.097,2.097l-2.133,0c-1.157,0 -2.097,-0.94 -2.097,-2.097c0,-1.157 0.94,-2.097 2.097,-2.097l2.133,-0Zm-6.398,0c1.157,0 2.097,0.94 2.097,2.097c0,1.157 -0.94,2.097 -2.097,2.097l-4.266,0c-1.157,0 -2.097,-0.94 -2.097,-2.097c0,-1.157 0.94,-2.097 2.097,-2.097l4.266,0Zm-8.531,-0c1.157,0 2.097,0.94 2.097,2.097c0,1.157 -0.94,2.097 -2.097,2.097l-4.266,0c-1.157,0 -2.097,-0.94 -2.097,-2.097c0,-1.157 0.94,-2.097 2.097,-2.097l4.266,0Zm-8.531,0c1.157,0 2.097,0.94 2.097,2.097c0,1.157 -0.94,2.097 -2.097,2.097l-4.266,0c-1.157,0 -2.097,-0.94 -2.097,-2.097c0,-1.157 0.94,-2.097 2.097,-2.097l4.266,0Zm-8.531,0c1.157,0 2.097,0.94 2.097,2.097c0,1.157 -0.94,2.097 -2.097,2.097l-4.266,0c-1.157,0 -2.097,-0.94 -2.097,-2.097c0,-1.157 0.94,-2.097 2.097,-2.097l4.266,0Zm-8.531,0c1.157,0 2.097,0.94 2.097,2.097c0,1.157 -0.94,2.097 -2.097,2.097l-4.266,0c-1.157,0 -2.097,-0.94 -2.097,-2.097c0,-1.157 0.94,-2.097 2.097,-2.097l4.266,0Zm-8.531,0c1.157,0 2.097,0.94 2.097,2.097c0,1.157 -0.94,2.097 -2.097,2.097l-4.266,0c-1.157,0 -2.097,-0.94 -2.097,-2.097c0,-1.157 0.94,-2.097 2.097,-2.097l4.266,0Zm-8.531,0c1.157,0 2.097,0.94 2.097,2.097c0,1.157 -0.94,2.097 -2.097,2.097l-4.265,0c-1.157,0 -2.097,-0.94 -2.097,-2.097c0,-1.157 0.94,-2.097 2.097,-2.097l4.265,0Zm-8.531,0c1.157,0 2.097,0.94 2.097,2.097c0,1.157 -0.94,2.097 -2.097,2.097l-4.265,0c-1.157,0 -2.097,-0.94 -2.097,-2.097c0,-1.157 0.94,-2.097 2.097,-2.097l4.265,0Zm-8.531,0c1.157,0 2.097,0.94 2.097,2.097c0,1.157 -0.94,2.097 -2.097,2.097l-4.266,0c-1.157,0 -2.097,-0.94 -2.097,-2.097c0,-1.157 0.94,-2.097 2.097,-2.097l4.266,0Zm-8.531,0c1.157,0 2.097,0.94 2.097,2.097c0,1.157 -0.94,2.097 -2.097,2.097l-4.266,0c-1.157,0 -2.097,-0.94 -2.097,-2.097c0,-1.157 0.94,-2.097 2.097,-2.097l4.266,0Zm-8.532,0c1.157,0 2.097,0.94 2.097,2.097c0,1.157 -0.94,2.097 -2.097,2.097l-4.266,0c-1.157,0 -2.097,-0.94 -2.097,-2.097c0,-1.157 0.94,-2.097 2.097,-2.097l4.266,0Zm-8.531,0c1.157,0 2.097,0.94 2.097,2.097c0,1.157 -0.94,2.097 -2.097,2.097l-4.265,0c-1.157,0 -2.097,-0.94 -2.097,-2.097c0,-1.157 0.94,-2.097 2.097,-2.097l4.265,-0Zm-8.531,0c1.157,0 2.097,0.94 2.097,2.097c0,1.157 -0.94,2.097 -2.097,2.097l-4.265,0c-1.157,0 -2.097,-0.94 -2.097,-2.097c0,-1.157 0.94,-2.097 2.097,-2.097l4.265,0Zm-8.532,0c1.157,0 2.097,0.94 2.097,2.097c0,1.157 -0.94,2.097 -2.097,2.097l-4.266,0c-1.157,0 -2.097,-0.94 -2.097,-2.097c0,-1.157 0.94,-2.097 2.097,-2.097l4.266,0Zm-8.531,-0c1.157,0 2.097,0.94 2.097,2.097c0,1.157 -0.94,2.097 -2.097,2.097l-4.266,0c-1.157,0 -2.097,-0.94 -2.097,-2.097c0,-1.157 0.94,-2.097 2.097,-2.097l4.266,0Zm-8.531,0c1.157,0 2.097,0.94 2.097,2.097c0,1.157 -0.94,2.097 -2.097,2.097l-4.266,0c-1.157,0 -2.097,-0.94 -2.097,-2.097c0,-1.157 0.94,-2.097 2.097,-2.097l4.266,-0Zm-8.532,0c1.157,0 2.097,0.94 2.097,2.097c0,1.157 -0.94,2.097 -2.097,2.097l-4.265,0c-1.157,0 -2.097,-0.94 -2.097,-2.097c0,-1.157 0.94,-2.097 2.097,-2.097l4.265,0Zm-8.53,0c1.157,0 2.097,0.94 2.097,2.097c0,1.157 -0.94,2.097 -2.097,2.097l-4.266,0c-1.157,0 -2.097,-0.94 -2.097,-2.097c0,-1.157 0.94,-2.097 2.097,-2.097l4.266,-0Zm-8.532,0c1.157,0 2.097,0.94 2.097,2.097c0,1.157 -0.94,2.097 -2.097,2.097l-4.266,0c-1.157,0 -2.097,-0.94 -2.097,-2.097c0,-1.157 0.94,-2.097 2.097,-2.097l4.266,0Zm-8.531,0c1.157,0 2.097,0.94 2.097,2.097c0,1.157 -0.94,2.097 -2.097,2.097l-4.265,0c-1.157,0 -2.097,-0.94 -2.097,-2.097c0,-1.157 0.94,-2.097 2.097,-2.097l4.265,0Zm-8.531,0c1.157,0 2.097,0.94 2.097,2.097c0,1.157 -0.94,2.097 -2.097,2.097l-4.266,0c-1.157,0 -2.097,-0.94 -2.097,-2.097c0,-1.157 0.94,-2.097 2.097,-2.097l4.266,0Zm-8.531,0c1.157,0 2.097,0.94 2.097,2.097c0,1.157 -0.94,2.097 -2.097,2.097l-4.266,0c-1.157,0 -2.097,-0.94 -2.097,-2.097c0,-1.157 0.94,-2.097 2.097,-2.097l4.266,-0Zm-8.531,0c1.157,0 2.097,0.94 2.097,2.097c0,1.157 -0.94,2.097 -2.097,2.097l-4.265,0c-1.157,0 -2.097,-0.94 -2.097,-2.097c0,-1.157 0.94,-2.097 2.097,-2.097l4.265,0Zm-8.531,0c1.157,0 2.097,0.94 2.097,2.097c0,1.157 -0.94,2.097 -2.097,2.097l-4.265,0c-1.157,0 -2.097,-0.94 -2.097,-2.097c0,-1.157 0.94,-2.097 2.097,-2.097l4.265,0Zm-8.53,0c1.157,0 2.097,0.94 2.097,2.097c0,1.157 -0.94,2.097 -2.097,2.097l-4.266,0c-1.157,0 -2.097,-0.94 -2.097,-2.097c0,-1.157 0.94,-2.097 2.097,-2.097l4.266,0Zm-8.531,0c1.157,0 2.097,0.94 2.097,2.097c0,1.157 -0.94,2.097 -2.097,2.097l-4.265,0c-1.157,0 -2.097,-0.94 -2.097,-2.097c0,-1.157 0.94,-2.097 2.097,-2.097l4.265,0Zm-8.532,0c1.157,0 2.097,0.94 2.097,2.097c0,1.157 -0.94,2.097 -2.097,2.097l-4.266,0c-1.157,0 -2.097,-0.94 -2.097,-2.097c0,-1.157 0.94,-2.097 2.097,-2.097l4.266,0Zm-8.531,0c1.157,0 2.097,0.94 2.097,2.097c0,1.157 -0.94,2.097 -2.097,2.097l-4.266,0c-1.157,0 -2.097,-0.94 -2.097,-2.097c0,-1.157 0.94,-2.097 2.097,-2.097l4.266,0Zm-8.531,-0c1.157,0 2.097,0.94 2.097,2.097c0,1.157 -0.94,2.097 -2.097,2.097l-4.266,0c-1.157,0 -2.097,-0.94 -2.097,-2.097c0,-1.157 0.94,-2.097 2.097,-2.097l4.266,-0Zm-8.532,0c1.157,0 2.097,0.94 2.097,2.097c0,1.157 -0.94,2.097 -2.097,2.097l-4.265,0c-1.157,0 -2.097,-0.94 -2.097,-2.097c0,-1.157 0.94,-2.097 2.097,-2.097l4.265,0Zm-8.531,0c1.157,0 2.097,0.94 2.097,2.097c0,1.157 -0.94,2.097 -2.097,2.097l-4.266,0c-1.157,0 -2.097,-0.94 -2.097,-2.097c0,-1.157 0.94,-2.097 2.097,-2.097l4.266,0Zm-8.53,-0c1.157,0 2.097,0.94 2.097,2.097c0,1.157 -0.94,2.097 -2.097,2.097l-4.265,0c-1.157,0 -2.097,-0.94 -2.097,-2.097c0,-1.157 0.94,-2.097 2.097,-2.097l4.265,0Zm-8.532,0c1.157,0 2.097,0.94 2.097,2.097c0,1.157 -0.94,2.097 -2.097,2.097l-4.266,0c-1.157,0 -2.097,-0.94 -2.097,-2.097c0,-1.157 0.94,-2.097 2.097,-2.097l4.266,0Zm-8.53,0c1.157,0 2.097,0.94 2.097,2.097c0,1.157 -0.94,2.097 -2.097,2.097l-4.265,0c-1.157,0 -2.097,-0.94 -2.097,-2.097c0,-1.157 0.94,-2.097 2.097,-2.097l4.265,0Zm-8.531,0c1.157,0 2.097,0.94 2.097,2.097c0,1.157 -0.94,2.097 -2.097,2.097l-4.265,0c-1.157,0 -2.097,-0.94 -2.097,-2.097c0,-1.157 0.94,-2.097 2.097,-2.097l4.265,0Zm-8.532,0c1.157,0 2.097,0.94 2.097,2.097c0,1.157 -0.94,2.097 -2.097,2.097l-4.265,0c-1.157,0 -2.097,-0.94 -2.097,-2.097c0,-1.157 0.94,-2.097 2.097,-2.097l4.265,-0Zm-8.531,0c1.157,0 2.097,0.94 2.097,2.097c0,1.157 -0.94,2.097 -2.097,2.097l-4.266,0c-1.157,0 -2.097,-0.94 -2.097,-2.097c0,-1.157 0.94,-2.097 2.097,-2.097l4.266,0Zm-8.531,0c1.157,0 2.097,0.94 2.097,2.097c0,1.157 -0.94,2.097 -2.097,2.097l-4.266,0c-1.157,0 -2.097,-0.94 -2.097,-2.097c0,-1.157 0.94,-2.097 2.097,-2.097l4.266,0Zm-8.53,0c1.157,0 2.097,0.94 2.097,2.097c0,1.157 -0.94,2.097 -2.097,2.097l-4.265,0c-1.157,0 -2.097,-0.94 -2.097,-2.097c0,-1.157 0.94,-2.097 2.097,-2.097l4.265,0Zm-8.531,0c1.157,0 2.097,0.94 2.097,2.097c0,1.157 -0.94,2.097 -2.097,2.097l-4.265,0c-1.157,0 -2.097,-0.94 -2.097,-2.097c0,-1.157 0.94,-2.097 2.097,-2.097l4.265,0Zm-8.531,0c1.157,0 2.097,0.94 2.097,2.097c0,1.157 -0.94,2.097 -2.097,2.097l-4.266,0c-1.157,0 -2.097,-0.94 -2.097,-2.097c0,-1.157 0.94,-2.097 2.097,-2.097l4.266,0Zm-8.531,-0c1.157,0 2.097,0.94 2.097,2.097c0,1.157 -0.94,2.097 -2.097,2.097l-4.266,0c-1.157,0 -2.097,-0.94 -2.097,-2.097c0,-1.157 0.94,-2.097 2.097,-2.097l4.266,0Zm-8.531,0c1.157,0 2.097,0.94 2.097,2.097c0,1.157 -0.94,2.097 -2.097,2.097l-4.265,0c-1.157,0 -2.097,-0.94 -2.097,-2.097c0,-1.157 0.94,-2.097 2.097,-2.097l4.265,0Zm-8.532,0c1.157,0 2.097,0.94 2.097,2.097c0,1.157 -0.94,2.097 -2.097,2.097l-4.265,0c-1.157,0 -2.097,-0.94 -2.097,-2.097c0,-1.157 0.94,-2.097 2.097,-2.097l4.265,0Zm-8.53,0c1.157,0 2.097,0.94 2.097,2.097c0,1.157 -0.94,2.097 -2.097,2.097l-4.265,0c-1.157,0 -2.097,-0.94 -2.097,-2.097c0,-1.157 0.94,-2.097 2.097,-2.097l4.265,-0Zm-8.531,0c1.157,0 2.097,0.94 2.097,2.097c0,1.157 -0.94,2.097 -2.097,2.097l-4.266,0c-1.157,0 -2.097,-0.94 -2.097,-2.097c0,-1.157 0.94,-2.097 2.097,-2.097l4.266,0Zm-8.532,0c1.157,0 2.097,0.94 2.097,2.097c0,1.157 -0.94,2.097 -2.097,2.097l-4.265,0c-1.157,0 -2.097,-0.94 -2.097,-2.097c0,-1.157 0.94,-2.097 2.097,-2.097l4.265,0Zm-8.531,-0c1.157,0 2.097,0.94 2.097,2.097c0,1.157 -0.94,2.097 -2.097,2.097l-4.266,0c-1.157,0 -2.097,-0.94 -2.097,-2.097c0,-1.157 0.94,-2.097 2.097,-2.097l4.266,0Zm-8.531,0c1.157,0 2.097,0.94 2.097,2.097c0,1.157 -0.94,2.097 -2.097,2.097l-4.265,0c-1.157,0 -2.097,-0.94 -2.097,-2.097c0,-1.157 0.94,-2.097 2.097,-2.097l4.265,-0Zm-8.531,0c1.157,0 2.097,0.94 2.097,2.097c0,1.157 -0.94,2.097 -2.097,2.097l-4.265,0c-1.157,0 -2.097,-0.94 -2.097,-2.097c0,-1.157 0.94,-2.097 2.097,-2.097l4.265,0Zm-8.531,0c1.157,0 2.097,0.94 2.097,2.097c0,1.157 -0.94,2.097 -2.097,2.097l-4.265,0c-1.157,0 -2.097,-0.94 -2.097,-2.097c0,-1.157 0.94,-2.097 2.097,-2.097l4.265,-0Zm-8.531,0c1.157,0 2.097,0.94 2.097,2.097c0,1.157 -0.94,2.097 -2.097,2.097l-4.266,0c-1.157,0 -2.097,-0.94 -2.097,-2.097c0,-1.157 0.94,-2.097 2.097,-2.097l4.266,0Zm-8.531,0c1.157,0 2.097,0.94 2.097,2.097c0,1.157 -0.94,2.097 -2.097,2.097l-4.265,0c-1.157,0 -2.097,-0.94 -2.097,-2.097c0,-1.157 0.94,-2.097 2.097,-2.097l4.265,0Zm-8.531,0c1.157,0 2.097,0.94 2.097,2.097c0,1.157 -0.94,2.097 -2.097,2.097l-4.266,0c-1.157,0 -2.097,-0.94 -2.097,-2.097c0,-1.157 0.94,-2.097 2.097,-2.097l4.266,0Zm-8.531,0c1.157,0 2.097,0.94 2.097,2.097c0,1.157 -0.94,2.097 -2.097,2.097l-4.266,0c-1.157,0 -2.097,-0.94 -2.097,-2.097c0,-1.157 0.94,-2.097 2.097,-2.097l4.266,-0Zm-8.531,0c1.157,0 2.097,0.94 2.097,2.097c0,1.157 -0.94,2.097 -2.097,2.097l-4.266,0c-1.157,0 -2.097,-0.94 -2.097,-2.097c0,-1.157 0.94,-2.097 2.097,-2.097l4.266,0Zm-8.531,0c1.157,0 2.097,0.94 2.097,2.097c0,1.157 -0.94,2.097 -2.097,2.097l-4.266,0c-1.157,0 -2.097,-0.94 -2.097,-2.097c0,-1.157 0.94,-2.097 2.097,-2.097l4.266,0Zm-8.531,0c1.157,0 2.097,0.94 2.097,2.097c0,1.157 -0.94,2.097 -2.097,2.097l-4.266,0c-1.157,0 -2.097,-0.94 -2.097,-2.097c0,-1.157 0.94,-2.097 2.097,-2.097l4.266,0Zm-8.531,0c1.157,0 2.097,0.94 2.097,2.097c0,1.157 -0.94,2.097 -2.097,2.097l-2.133,0c-1.157,0 -2.097,-0.94 -2.097,-2.097c-0,-1.157 0.94,-2.097 2.097,-2.097l2.133,0Z" style="fill:#e8e8e8;"/><ellipse cx="158.732" cy="468.274" rx="57.059" ry="57.103" style="fill:#fff;"/><path d="M158.732,409.074c32.649,0 59.156,26.526 59.156,59.2c0,32.674 -26.507,59.2 -59.156,59.2c-32.649,0 -59.156,-26.526 -59.156,-59.2c0,-32.674 26.507,-59.2 59.156,-59.2Zm0,4.194c-30.334,0 -54.961,24.647 -54.961,55.005c0,30.358 24.627,55.005 54.961,55.005c30.334,0 54.961,-24.647 54.961,-55.005c0,-30.358 -24.627,-55.005 -54.961,-55.005Z" style="fill:#bcbcbc;"/><g transform="matrix(68.607105,0,0,68.607105,180.806994,492.82942)"></g><text x="135.047px" y="492.829px" style="font-family:'ArialMT', 'Arial', sans-serif;font-size:68.607px;fill:#4f4f4f;">L</text></g></g></g><rect id="base" x="0" y="0" width="1409.333" height="1409.333" style="fill:none;"/></g></svg>