<?xml version="1.0" encoding="UTF-8" standalone="no"?><!DOCTYPE svg PUBLIC "-//W3C//DTD SVG 1.1//EN" "http://www.w3.org/Graphics/SVG/1.1/DTD/svg11.dtd"><svg width="100%" height="100%" viewBox="0 0 212 856" version="1.1" xmlns="http://www.w3.org/2000/svg" xmlns:xlink="http://www.w3.org/1999/xlink" xml:space="preserve" xmlns:serif="http://www.serif.com/" style="fill-rule:evenodd;clip-rule:evenodd;stroke-linejoin:round;stroke-miterlimit:2;"><g id="tooth12"><g id="tooth12-column"><rect id="base" x="0" y="0" width="211.4" height="855.667" style="fill:none;"/><g id="tooth12-front-view"><g id="tooth12-front-view-shapes"><path id="tooth12-front-view-shapes1" serif:id="tooth12-front-view-shapes" d="M156.415,317.089c0,0 -13.087,-220.98 -13.087,-233.547c0,-9.06 -6.15,-32.616 -14.093,-17.113c-7.943,15.503 -41.369,146.585 -41.273,181.2c0,0 21.546,-155.369 19.144,-170.127c-2.402,-14.758 -47.331,87.58 -49.344,234.553c0,0 56.37,33.324 98.653,5.033Z" style="fill:#fff;"/><path id="tooth12-front-view-shapes-roots" d="M157.462,317.027c-13.783,-230.469 -13.12,-230.505 -13.272,-234.409c-0.296,-7.622 -4.243,-24.355 -10.911,-21.991c-3.805,1.349 -6.233,8.299 -8.302,14.487c-6.693,20.016 -18.702,65.75 -27.395,106.228c3.767,-29.48 7.703,-62.072 9.489,-82.586c1.852,-21.276 0.994,-22.679 -0.199,-23.335c-1.04,-0.572 -3.197,-0.784 -8.771,11.013c-13.825,29.266 -39.483,114.227 -41.297,223.885c-0.003,0.161 -0.031,1.864 0.014,2.015c0.118,0.398 0.221,0.488 2.409,1.661c14.316,7.674 60.912,28.148 97.266,4.299c0.064,-0.042 0.649,-0.426 0.766,-0.584c0.164,-0.223 0.113,-0.244 0.202,-0.683Zm-62.769,-113.394c2.002,-10.484 4.677,-23.296 8.25,-38.89c10.078,-43.995 22.783,-89.961 27.242,-98.266c3.031,-5.645 5.311,-5.211 7.476,-1.786c2.16,3.417 4.695,11.501 4.79,19.195c0.18,14.646 11.704,212.402 12.883,232.657c-6.163,4.023 -29.848,19.137 -73.269,4.963c-9.32,-3.042 -17.765,-6.912 -23.31,-10.019c0.177,-12.458 0.807,-91.414 23.836,-175.133c10.537,-38.304 20.557,-58.183 23.479,-59.387c1.365,2.347 -1.435,29.825 -1.471,30.191c-2.059,21.044 -6.036,54.503 -11.508,96.236c-3.557,18.629 -5.89,34.511 -5.933,43.821c-0,0.011 -0.143,0.885 0.489,1.154c0.472,0.201 1.036,-0.098 1.113,-0.63c0.12,-0.832 2.699,-19.468 5.934,-44.106Z" style="fill:#6b6b6b;"/><path id="tooth-12-front-base-shape" serif:id="tooth12-front-view-shapes" d="M150.551,292.915c1.166,2.175 2.752,6.979 4.19,13.414c4.505,20.163 7.551,56.332 -8.377,77.75c-5.921,7.962 -14.464,13.885 -26.528,16.19c-28.307,5.409 -55.043,-6.863 -61.231,-15.183c-7.818,-10.511 -7.181,-55.888 1.146,-81.616c1.497,-4.626 3.243,-8.617 5.233,-11.656c13.058,-19.937 68.453,-30.822 85.567,1.101Z" style="fill:#fff;"/><path d="M151.475,292.419c1.189,2.219 2.822,7.116 4.289,13.68c4.555,20.387 7.546,56.948 -8.559,78.604c-6.066,8.157 -14.813,14.233 -27.173,16.595c-17.207,3.288 -33.842,0.129 -45.751,-4.746c-8.065,-3.302 -13.971,-7.416 -16.518,-10.841c-2.417,-3.25 -4.105,-9.717 -4.975,-17.917c-1.983,-18.692 0.097,-46.516 5.965,-64.647c1.53,-4.727 3.32,-8.803 5.354,-11.908c6.662,-10.173 24.087,-18.121 42.067,-19.369c18.032,-1.252 36.544,4.214 45.301,20.549Zm-1.848,0.991c-8.357,-15.589 -26.099,-20.642 -43.307,-19.447c-17.26,1.198 -34.062,8.661 -40.458,18.426c-1.947,2.972 -3.648,6.879 -5.113,11.404c-5.789,17.888 -7.831,45.339 -5.875,63.78c0.818,7.715 2.299,13.83 4.573,16.887c2.403,3.231 8.023,7.037 15.63,10.152c11.6,4.749 27.802,7.83 44.563,4.627c11.769,-2.249 20.107,-8.019 25.883,-15.786c15.751,-21.18 12.65,-56.957 8.195,-76.895c-1.409,-6.304 -2.948,-11.016 -4.091,-13.147Z" style="fill:#6b6b6b;"/></g><g id="tooth12-front-view-accents"><path d="M116.272,383.226c-4.089,-3.907 -8.894,-5.637 -17.671,-6.971c-16.703,-2.54 -27.453,-0.321 -22.219,-1.304c4.828,-0.907 15.756,-2.39 24.535,-0.515c11.496,2.455 15.253,8.652 15.355,8.791Z" style="fill:#6b6b6b;"/><path d="M133.447,375.81c-5.771,1.288 -20.958,4.336 -28.941,-5.56c-1.506,-1.867 -2.866,-4.609 -3.115,-7.019c2.763,7.894 12.096,10.536 12.434,10.653c7.781,2.681 15.918,2.172 19.622,1.927Z" style="fill:#6b6b6b;"/></g><g id="tooth12-front-view-statuses"><path id="front-right" d="M157.811,305.642c-0.379,-1.694 -2.062,-2.763 -3.756,-2.384c-1.694,0.379 -2.763,2.062 -2.384,3.756c4.355,19.491 7.566,54.482 -7.831,75.187c-1.036,1.393 -0.746,3.365 0.647,4.402c1.393,1.036 3.365,0.746 4.402,-0.647c16.459,-22.132 13.578,-59.478 8.923,-80.313Z" style="fill:none;"/><path id="front-left" d="M56.08,386.963c1.036,1.393 3.008,1.683 4.402,0.647c1.393,-1.036 1.683,-3.008 0.647,-4.402c-2.131,-2.865 -3.403,-8.627 -4.17,-15.857c-1.93,-18.191 0.074,-45.269 5.785,-62.913c0.535,-1.652 -0.372,-3.427 -2.024,-3.962c-1.652,-0.535 -3.427,0.372 -3.962,2.024c-5.947,18.375 -8.065,46.571 -6.055,65.514c0.921,8.685 2.818,15.506 5.378,18.948Z" style="fill:none;"/><path id="front-bottom" d="M148.888,385.955c1.036,-1.393 0.746,-3.365 -0.647,-4.402c-1.393,-1.036 -3.365,-0.746 -4.402,0.647c-5.486,7.377 -13.416,12.842 -24.594,14.978c-16.314,3.117 -32.084,0.114 -43.375,-4.508c-7.15,-2.927 -12.483,-6.426 -14.742,-9.462c-1.036,-1.393 -3.008,-1.683 -4.402,-0.647c-1.393,1.036 -1.683,3.008 -0.647,4.402c2.692,3.619 8.884,8.041 17.407,11.53c12.218,5.002 29.285,8.238 46.939,4.865c12.95,-2.474 22.106,-8.857 28.462,-17.403Z" style="fill:none;"/><path id="front-top" d="M56.757,302.501c-0.535,1.652 0.372,3.427 2.024,3.962c1.652,0.535 3.427,-0.372 3.962,-2.024c1.399,-4.323 3.012,-8.061 4.872,-10.901c6.129,-9.357 22.309,-16.334 38.849,-17.482c16.386,-1.137 33.356,3.502 41.314,18.346c1.095,2.043 2.542,6.569 3.892,12.613c0.379,1.694 2.062,2.763 3.756,2.384c1.694,-0.379 2.763,-2.062 2.384,-3.756c-1.525,-6.825 -3.251,-11.907 -4.487,-14.214c-9.156,-17.08 -28.44,-22.958 -47.295,-21.65c-18.701,1.298 -36.747,9.732 -43.676,20.312c-2.12,3.238 -3.999,7.482 -5.595,12.411Z" style="fill:none;"/></g></g><g id="tooth12-top-view"><path id="tooth12-top-center" d="M87.021,535.692c-4.316,-4.316 -6.988,-10.278 -6.988,-16.859c0,-6.581 2.671,-12.542 6.988,-16.859c4.316,-4.316 10.278,-6.988 16.859,-6.988c6.581,0 12.542,2.671 16.859,6.988c4.316,4.316 6.988,10.278 6.988,16.859c0,6.581 -2.671,12.542 -6.988,16.859c-4.316,4.316 -10.278,6.988 -16.859,6.988c-6.581,0 -12.542,-2.671 -16.859,-6.988Z" style="fill:#fff;"/><path d="M86.197,536.516c-4.527,-4.527 -7.329,-10.78 -7.329,-17.683c0,-6.902 2.802,-13.155 7.329,-17.683c4.527,-4.527 10.78,-7.329 17.683,-7.329c6.902,0 13.155,2.802 17.683,7.329c4.527,4.527 7.329,10.78 7.329,17.683c0,6.902 -2.802,13.155 -7.329,17.683c-4.527,4.527 -10.78,7.329 -17.683,7.329c-6.902,0 -13.155,-2.802 -17.683,-7.329Zm1.648,-1.648c4.106,4.106 9.776,6.647 16.035,6.647c6.259,0 11.929,-2.541 16.035,-6.647c4.106,-4.106 6.647,-9.776 6.647,-16.035c0,-6.259 -2.541,-11.929 -6.647,-16.035c-4.106,-4.106 -9.776,-6.647 -16.035,-6.647c-6.259,0 -11.929,2.541 -16.035,6.647c-4.106,4.106 -6.647,9.776 -6.647,16.035c0,6.259 2.541,11.929 6.647,16.035Z" style="fill:#808080;"/><path id="tooth12-top-left" d="M64.454,558.259c-10.094,-10.094 -16.341,-24.036 -16.341,-39.425c0,-15.389 6.247,-29.331 16.341,-39.425l22.567,22.567c-4.316,4.316 -6.988,10.278 -6.988,16.859c0,6.581 2.671,12.542 6.988,16.859l-22.567,22.567Z" style="fill:#fff;"/><path d="M63.63,559.082c-10.305,-10.305 -16.683,-24.538 -16.683,-40.249c0,-15.711 6.377,-29.944 16.683,-40.249c0.455,-0.455 1.193,-0.455 1.648,-0l22.567,22.567c0.455,0.455 0.455,1.193 -0,1.648c-4.106,4.106 -6.647,9.776 -6.647,16.035c0,6.259 2.541,11.929 6.647,16.035c0.455,0.455 0.455,1.193 0,1.648l-22.567,22.567c-0.455,0.455 -1.193,0.455 -1.648,-0Zm0.833,-2.48l20.929,-20.929c-4.052,-4.446 -6.524,-10.356 -6.524,-16.84c0,-6.483 2.472,-12.394 6.524,-16.84l-20.929,-20.929c-9.404,9.811 -15.185,23.12 -15.185,37.769c0,14.649 5.782,27.958 15.185,37.769Z" style="fill:#6b6b6b;"/><path id="tooth12-top-bottom" d="M143.305,558.259c-10.094,10.094 -24.036,16.341 -39.425,16.341c-15.389,0 -29.331,-6.247 -39.425,-16.341l22.567,-22.567c4.316,4.316 10.278,6.988 16.859,6.988c6.581,0 12.542,-2.671 16.859,-6.988l22.567,22.567Z" style="fill:#fff;"/><path d="M144.129,559.082c-10.305,10.305 -24.538,16.683 -40.249,16.683c-15.711,0 -29.944,-6.377 -40.249,-16.683c-0.455,-0.455 -0.455,-1.193 0,-1.648l22.567,-22.567c0.455,-0.455 1.193,-0.455 1.648,-0c4.106,4.106 9.776,6.647 16.035,6.647c6.259,0 11.929,-2.541 16.035,-6.647c0.455,-0.455 1.193,-0.455 1.648,-0l22.567,22.567c0.455,0.455 0.455,1.193 -0,1.648Zm-2.48,-0.833l-20.929,-20.929c-4.446,4.052 -10.356,6.524 -16.84,6.524c-6.483,0 -12.394,-2.472 -16.84,-6.524l-20.929,20.929c9.811,9.404 23.12,15.185 37.769,15.185c14.649,0 27.958,-5.782 37.769,-15.185Z" style="fill:#6b6b6b;"/><path id="tooth12-top-right" d="M143.305,479.408c10.094,10.094 16.341,24.036 16.341,39.425c0,15.389 -6.247,29.331 -16.341,39.425l-22.567,-22.567c4.316,-4.316 6.988,-10.278 6.988,-16.859c0,-6.581 -2.671,-12.542 -6.988,-16.859l22.567,-22.567Z" style="fill:#fff;"/><path d="M144.129,478.584c10.305,10.305 16.683,24.538 16.683,40.249c0,15.711 -6.377,29.944 -16.683,40.249c-0.455,0.455 -1.193,0.455 -1.648,0l-22.567,-22.567c-0.455,-0.455 -0.455,-1.193 0,-1.648c4.106,-4.106 6.647,-9.776 6.647,-16.035c0,-6.259 -2.541,-11.929 -6.647,-16.035c-0.455,-0.455 -0.455,-1.193 0,-1.648l22.567,-22.567c0.455,-0.455 1.193,-0.455 1.648,-0Zm-0.833,2.48l-20.929,20.929c4.052,4.446 6.524,10.356 6.524,16.84c0,6.483 -2.472,12.394 -6.524,16.84l20.929,20.929c9.404,-9.811 15.185,-23.12 15.185,-37.769c0,-14.649 -5.782,-27.958 -15.185,-37.769Z" style="fill:#6b6b6b;"/><path id="tooth12-top-top" d="M64.454,479.408c10.094,-10.094 24.036,-16.341 39.425,-16.341c15.389,0 29.331,6.247 39.425,16.341l-22.567,22.567c-4.316,-4.316 -10.278,-6.988 -16.859,-6.988c-6.581,0 -12.542,2.671 -16.859,6.988l-22.567,-22.567Z" style="fill:#fff;"/><path d="M63.63,478.584c10.305,-10.305 24.538,-16.683 40.249,-16.683c15.711,0 29.944,6.377 40.249,16.683c0.455,0.455 0.455,1.193 -0,1.648l-22.567,22.567c-0.455,0.455 -1.193,0.455 -1.648,0c-4.106,-4.106 -9.776,-6.647 -16.035,-6.647c-6.259,0 -11.929,2.541 -16.035,6.647c-0.455,0.455 -1.193,0.455 -1.648,-0l-22.567,-22.567c-0.455,-0.455 -0.455,-1.193 -0,-1.648Zm2.48,0.833l20.929,20.929c4.446,-4.052 10.356,-6.524 16.84,-6.524c6.483,0 12.394,2.472 16.84,6.524l20.929,-20.929c-9.811,-9.404 -23.12,-15.185 -37.769,-15.185c-14.649,0 -27.958,5.782 -37.769,15.185Z" style="fill:#6b6b6b;"/></g><g id="tooth12-back-view"><g id="tooth12-shape"><path id="tooth12-back-view-base-shape" d="M156.623,668.292c4.231,11.719 2.072,39.709 -2.884,58.387c-2.04,7.689 -5.385,16.175 -10.443,22.759c-3.16,4.113 -6.989,7.484 -11.586,9.454c-12.919,5.537 -41.391,6.04 -55.484,1.007c-5.04,-1.8 -8.702,-6.031 -11.481,-11.44c-5.253,-10.225 -7.355,-24.662 -9.659,-34.866c-3.474,-15.384 -3.22,-34.97 0,-47.313c6.04,-23.153 39.909,-27.355 47.809,-27.18c6.25,0.139 43.916,2.013 53.728,29.193Z" style="fill:#fff;"/><path d="M157.609,667.936c4.276,11.844 2.152,40.135 -2.857,59.012c-2.074,7.816 -5.483,16.437 -10.625,23.129c-3.272,4.259 -7.244,7.739 -12.005,9.779c-13.097,5.613 -41.962,6.133 -56.25,1.03c-5.28,-1.886 -9.15,-6.282 -12.061,-11.949c-5.291,-10.299 -7.428,-24.836 -9.749,-35.115c-3.51,-15.545 -3.246,-35.336 0.008,-47.809c2.495,-9.562 9.556,-16.02 17.691,-20.284c12.013,-6.297 26.338,-7.786 31.156,-7.679c3.8,0.084 19.057,0.807 32.803,7.316c9.281,4.394 17.861,11.414 21.889,22.569Zm-1.973,0.712c-3.823,-10.589 -12.005,-17.215 -20.814,-21.386c-13.388,-6.339 -28.251,-7.033 -31.952,-7.115c-4.661,-0.104 -18.515,1.349 -30.136,7.44c-7.622,3.995 -14.298,9.996 -16.635,18.956c-3.186,12.214 -3.429,31.595 0.008,46.818c2.287,10.13 4.354,24.468 9.569,34.618c2.647,5.153 6.1,9.217 10.901,10.932c13.899,4.964 41.978,4.477 54.719,-0.983c4.435,-1.901 8.12,-5.162 11.168,-9.129c4.975,-6.476 8.254,-14.827 10.261,-22.389c4.903,-18.479 7.097,-46.167 2.911,-57.762Z" style="fill:#6b6b6b;"/></g><g id="tooth12-accents"><path d="M105.249,663.945c2.266,-2.802 8.411,-7.843 23.058,-6.221c1.244,0.138 3.131,0.455 3.403,0.501c-1.083,-0.005 -16.795,-0.621 -23.548,7.008c-1.413,1.596 -1.162,2.075 -1.951,2.451c-0.938,0.447 -1.649,-0.195 -1.754,-0.29c-0.51,-0.46 -6.371,-7.308 -26.132,-9.733c-2.603,-0.319 -4.596,-0.421 -4.997,-0.441c1.689,-0.122 11.951,-0.866 21.104,1.615c5.848,1.586 8.959,3.589 10.818,5.111Z" style="fill:#6b6b6b;"/><path d="M102.451,649.3c-0.018,0.032 -0.446,0.487 -0.226,2.241c0.575,4.579 4.19,13.001 4.188,13.019c-0.078,0.646 -0.445,1.191 -0.523,1.837c-0.441,-0.374 -0.992,-0.482 -1.433,-0.856c-0.001,-0.001 -2.002,-7.361 -2.446,-12.19c-0.314,-3.416 0.303,-3.871 0.441,-4.051Z" style="fill:#6b6b6b;"/></g><g id="tooth12-back-view-statuses"><path id="back-left" serif:id="front-left" d="M61.872,749.934c0.815,1.586 2.763,2.211 4.349,1.397c1.586,-0.815 2.211,-2.763 1.397,-4.349c-5.135,-9.995 -7.129,-24.126 -9.381,-34.102c-3.362,-14.887 -3.141,-33.842 -0.025,-45.787c0.45,-1.725 -0.585,-3.49 -2.31,-3.94c-1.725,-0.45 -3.49,0.585 -3.94,2.31c-3.324,12.742 -3.611,32.96 -0.025,48.84c2.356,10.433 4.566,25.177 9.936,35.631Z" style="fill:none;"/><path id="back-right" serif:id="front-right" d="M159.661,667.195c-0.605,-1.677 -2.458,-2.546 -4.135,-1.941c-1.677,0.605 -2.546,2.458 -1.941,4.135c4.092,11.335 1.825,38.397 -2.968,56.462c-1.937,7.299 -5.08,15.37 -9.882,21.62c-1.086,1.414 -0.82,3.443 0.594,4.529c1.414,1.086 3.443,0.82 4.529,-0.594c5.315,-6.918 8.86,-15.82 11.003,-23.899c5.118,-19.291 7.17,-48.208 2.8,-60.312Z" style="fill:none;"/><path id="back-bottom" serif:id="front-bottom" d="M145.857,751.406c1.086,-1.414 0.82,-3.443 -0.594,-4.529c-1.414,-1.086 -3.443,-0.82 -4.529,0.594c-2.815,3.664 -6.201,6.698 -10.297,8.453c-12.37,5.301 -39.632,5.753 -53.126,0.934c-4.303,-1.537 -7.322,-5.256 -9.695,-9.875c-0.815,-1.586 -2.763,-2.211 -4.349,-1.397c-1.586,0.815 -2.211,2.763 -1.397,4.349c3.186,6.201 7.49,10.942 13.268,13.006c14.693,5.247 44.375,4.692 57.843,-1.08c5.099,-2.185 9.37,-5.893 12.875,-10.455Z" style="fill:none;"/><path id="back-top" d="M51.96,665.463c-0.45,1.725 0.585,3.49 2.31,3.94c1.725,0.45 3.49,-0.585 3.94,-2.31c2.174,-8.334 8.448,-13.859 15.537,-17.575c11.213,-5.878 24.577,-7.291 29.075,-7.191c3.598,0.08 18.05,0.742 31.067,6.906c8.318,3.939 16.086,10.157 19.696,20.156c0.605,1.677 2.458,2.546 4.135,1.941c1.677,-0.605 2.546,-2.458 1.941,-4.135c-4.24,-11.745 -13.236,-19.173 -23.007,-23.8c-14.118,-6.685 -29.785,-7.439 -33.687,-7.525c-4.982,-0.111 -19.796,1.417 -32.217,7.928c-8.667,4.543 -16.131,11.477 -18.789,21.665Z" style="fill:none;"/></g></g></g><rect id="base1" serif:id="base" x="-0" y="0" width="211.4" height="855.667" style="fill:none;"/></g></svg>