<?xml version="1.0" encoding="UTF-8" standalone="no"?><!DOCTYPE svg PUBLIC "-//W3C//DTD SVG 1.1//EN" "http://www.w3.org/Graphics/SVG/1.1/DTD/svg11.dtd"><svg width="100%" height="100%" viewBox="0 0 212 856" version="1.1" xmlns="http://www.w3.org/2000/svg" xmlns:xlink="http://www.w3.org/1999/xlink" xml:space="preserve" xmlns:serif="http://www.serif.com/" style="fill-rule:evenodd;clip-rule:evenodd;stroke-linejoin:round;stroke-miterlimit:2;"><g id="tooth29"><g id="tooth29-column"><rect id="base" x="-0" y="25.167" width="211.4" height="805.333" style="fill:none;"/><g id="tooth29-front-view"><g id="tooth-29-front-base-shape"><path id="tooth29-front-view-shapes-root" d="M60.875,588.765c0,0 11.76,48.434 19.127,110.293c7.366,61.859 24.506,214.632 43.287,109.081c18.78,-105.551 -2.475,-171.664 26.173,-223.01c0,0 -46.984,46.948 -88.587,3.636Z" style="fill:#fff;"/><path id="tooth29-front-view-shapes-root1" serif:id="tooth29-front-view-shapes-root" d="M59.868,589.119c0,0 11.74,48.358 19.095,110.118c4.431,37.205 12.409,107.214 22.133,134.418c1.624,4.544 3.319,7.927 5.03,9.859c1.345,1.519 2.735,2.202 4.119,2.07c1.917,-0.183 3.983,-2.049 5.968,-6.249c2.643,-5.595 5.364,-15.549 8.101,-30.931c11.283,-63.411 8.143,-112.606 10.014,-152.922c1.235,-26.597 4.649,-49.298 16.004,-69.649c0.291,-0.521 0.219,-1.22 -0.167,-1.641c-0.387,-0.421 -0.972,-0.436 -1.373,-0.035c0,0 -46.264,46.303 -87.231,3.653c-0.352,-0.366 -0.862,-0.41 -1.253,-0.107c-0.391,0.303 -0.57,0.879 -0.44,1.416Zm2.924,3.19c33.832,32.109 70.446,7.841 82.904,-2.306c-9.279,19.282 -12.316,40.654 -13.462,65.337c-1.867,40.213 1.283,89.284 -9.971,152.534c-2.962,16.647 -5.85,26.789 -8.696,31.808c-1.098,1.937 -2.131,3.061 -3.201,3.333c-0.883,0.225 -1.734,-0.219 -2.591,-1.112c-1.636,-1.703 -3.203,-4.913 -4.752,-9.248c-9.677,-27.072 -17.574,-96.753 -21.983,-133.778c-6.145,-51.606 -15.345,-93.883 -18.247,-106.569Z" style="fill:#6b6b6b;"/><path id="tooth-29-front-base-shape" d="M60.875,597.536c-4.85,-8.039 -16.978,-56.516 4.596,-81.485c5.903,-6.832 14.33,-11.904 26.119,-13.905c28.307,-4.806 55.043,6.098 61.231,13.491c9.224,11.02 6.678,65.162 -6.38,82.877c-13.058,17.715 -68.453,27.387 -85.567,-0.978Z" style="fill:#fff;"/><path id="tooth29-front-view-shape1" serif:id="tooth-29-front-base-shape" d="M59.977,598.078c8.751,14.504 27.247,19.385 45.267,18.274c17.969,-1.108 35.384,-8.182 42.042,-17.216c7.927,-10.754 12.09,-34.763 12.084,-54.668c-0.002,-7.964 -0.667,-15.268 -2,-20.801c-0.925,-3.839 -2.19,-6.846 -3.744,-8.703c-2.547,-3.043 -8.455,-6.705 -16.52,-9.639c-11.893,-4.326 -28.506,-7.13 -45.691,-4.213c-12.072,2.05 -20.692,7.258 -26.737,14.253c-10.961,12.686 -13.417,31.329 -12.461,47.837c0.955,16.477 5.3,30.798 7.76,34.875Zm1.796,-1.083c-2.39,-3.962 -6.534,-17.899 -7.462,-33.913c-0.926,-15.983 1.341,-34.062 11.954,-46.345c5.762,-6.668 13.994,-11.603 25.501,-13.557c16.783,-2.849 33.008,-0.109 44.623,4.116c7.607,2.767 13.226,6.143 15.629,9.014c1.397,1.67 2.482,4.396 3.313,7.848c1.302,5.402 1.94,12.535 1.942,20.31c0.006,19.442 -3.932,42.919 -11.675,53.424c-6.4,8.682 -23.212,15.302 -40.483,16.367c-17.221,1.062 -34.979,-3.403 -43.342,-17.264Z" style="fill:#6b6b6b;"/></g><g id="tooth29-front-view-accents"><path d="M119.202,512.024c-3.263,3.117 -7.529,5.873 -21.704,7.521c-3.466,0.403 -11.319,1.067 -19.526,0.492c19.586,3.845 29.041,0.02 30.976,-0.715c6.618,-2.516 9.169,-5.822 10.254,-7.298Z" style="fill:#6b6b6b;"/><path d="M136.749,518.896c-5.771,-1.288 -20.958,-4.336 -28.941,5.56c-1.506,1.867 -2.866,4.609 -3.115,7.019c2.763,-7.894 12.096,-10.536 12.434,-10.653c7.781,-2.681 15.918,-2.172 19.622,-1.927Z" style="fill:#6b6b6b;"/></g><g id="tooth29-front-view-statuses"><path id="front-right" d="M155.234,513.618c-1.114,-1.331 -3.1,-1.508 -4.431,-0.393c-1.331,1.114 -1.508,3.1 -0.393,4.431c1.241,1.482 2.144,3.928 2.883,6.993c1.27,5.272 1.881,12.233 1.883,19.82c0.005,18.979 -3.708,41.925 -11.266,52.179c-1.03,1.398 -0.732,3.369 0.666,4.399c1.398,1.03 3.369,0.732 4.399,-0.666c8.112,-11.005 12.499,-35.544 12.493,-55.913c-0.002,-8.152 -0.694,-15.628 -2.059,-21.292c-1.018,-4.226 -2.464,-7.514 -4.175,-9.558Z" style="fill:none;"/><path id="front-left" d="M58.181,599.161c0.897,1.487 2.832,1.965 4.319,1.068c1.487,-0.897 1.965,-2.832 1.068,-4.319c-2.321,-3.848 -6.263,-17.4 -7.164,-32.951c-0.896,-15.458 1.183,-32.973 11.447,-44.852c1.135,-1.314 0.99,-3.302 -0.324,-4.437c-1.314,-1.135 -3.302,-0.99 -4.437,0.324c-11.31,13.089 -13.955,32.297 -12.967,49.33c0.982,16.94 5.529,31.646 8.058,35.837Z" style="fill:none;"/><path id="front-top" d="M63.091,513.995c-1.135,1.314 -0.99,3.302 0.324,4.437c1.314,1.135 3.302,0.99 4.437,-0.324c5.479,-6.341 13.323,-11.003 24.265,-12.861c16.382,-2.781 32.218,-0.105 43.555,4.019c7.15,2.601 12.479,5.691 14.737,8.389c1.114,1.331 3.1,1.508 4.431,0.393c1.331,-1.114 1.508,-3.1 0.393,-4.431c-2.056,-2.457 -6.112,-5.337 -11.697,-7.919c-12.196,-5.637 -31.935,-10.141 -52.473,-6.654c-12.637,2.145 -21.645,7.627 -27.973,14.95Z" style="fill:none;"/><path id="front-bottom" d="M148.974,600.381c1.03,-1.398 0.732,-3.369 -0.666,-4.399c-1.398,-1.03 -3.369,-0.732 -4.399,0.666c-6.141,8.332 -22.35,14.496 -38.924,15.518c-16.423,1.013 -33.441,-3.035 -41.417,-16.254c-0.897,-1.487 -2.832,-1.965 -4.319,-1.068c-1.487,0.897 -1.965,2.832 -1.068,4.319c9.138,15.147 28.373,20.445 47.191,19.284c18.667,-1.151 36.684,-8.68 43.601,-18.064Z" style="fill:none;"/></g></g><g id="tooth29-top-view"><path id="tooth29-top-center" d="M88.841,405.991c-4.316,-4.316 -6.988,-10.278 -6.988,-16.859c0,-6.581 2.671,-12.542 6.988,-16.859c4.316,-4.316 10.278,-6.988 16.859,-6.988c6.581,0 12.542,2.671 16.859,6.988c4.316,4.316 6.988,10.278 6.988,16.859c0,6.581 -2.671,12.542 -6.988,16.859c-4.316,4.316 -10.278,6.988 -16.859,6.988c-6.581,0 -12.542,-2.671 -16.859,-6.988Z" style="fill:#fff;"/><path d="M88.017,406.814c-4.527,-4.527 -7.329,-10.78 -7.329,-17.683c0,-6.902 2.802,-13.155 7.329,-17.683c4.527,-4.527 10.78,-7.329 17.683,-7.329c6.902,0 13.155,2.802 17.683,7.329c4.527,4.527 7.329,10.78 7.329,17.683c0,6.902 -2.802,13.155 -7.329,17.683c-4.527,4.527 -10.78,7.329 -17.683,7.329c-6.902,0 -13.155,-2.802 -17.683,-7.329Zm1.648,-1.648c4.106,4.106 9.776,6.647 16.035,6.647c6.259,0 11.929,-2.541 16.035,-6.647c4.106,-4.106 6.647,-9.776 6.647,-16.035c0,-6.259 -2.541,-11.929 -6.647,-16.035c-4.106,-4.106 -9.776,-6.647 -16.035,-6.647c-6.259,0 -11.929,2.541 -16.035,6.647c-4.106,4.106 -6.647,9.776 -6.647,16.035c0,6.259 2.541,11.929 6.647,16.035Z" style="fill:#808080;"/><path id="tooth29-top-left" d="M66.275,428.557c-10.094,-10.094 -16.341,-24.036 -16.341,-39.425c0,-15.389 6.247,-29.331 16.341,-39.425l22.567,22.567c-4.316,4.316 -6.988,10.278 -6.988,16.859c0,6.581 2.671,12.542 6.988,16.859l-22.567,22.567Z" style="fill:#fff;"/><path d="M65.451,429.381c-10.305,-10.305 -16.683,-24.538 -16.683,-40.249c0,-15.711 6.377,-29.944 16.683,-40.249c0.455,-0.455 1.193,-0.455 1.648,-0l22.567,22.567c0.455,0.455 0.455,1.193 -0,1.648c-4.106,4.106 -6.647,9.776 -6.647,16.035c0,6.259 2.541,11.929 6.647,16.035c0.455,0.455 0.455,1.193 0,1.648l-22.567,22.567c-0.455,0.455 -1.193,0.455 -1.648,-0Zm0.833,-2.48l20.929,-20.929c-4.052,-4.446 -6.524,-10.356 -6.524,-16.84c0,-6.483 2.472,-12.394 6.524,-16.84l-20.929,-20.929c-9.404,9.811 -15.185,23.12 -15.185,37.769c0,14.649 5.782,27.958 15.185,37.769Z" style="fill:#6b6b6b;"/><path id="tooth29-top-top" d="M145.125,428.557c-10.094,10.094 -24.036,16.341 -39.425,16.341c-15.389,0 -29.331,-6.247 -39.425,-16.341l22.567,-22.567c4.316,4.316 10.278,6.988 16.859,6.988c6.581,0 12.542,-2.671 16.859,-6.988l22.567,22.567Z" style="fill:#fff;"/><path d="M145.949,429.381c-10.305,10.305 -24.538,16.683 -40.249,16.683c-15.711,0 -29.944,-6.377 -40.249,-16.683c-0.455,-0.455 -0.455,-1.193 0,-1.648l22.567,-22.567c0.455,-0.455 1.193,-0.455 1.648,-0c4.106,4.106 9.776,6.647 16.035,6.647c6.259,0 11.929,-2.541 16.035,-6.647c0.455,-0.455 1.193,-0.455 1.648,-0l22.567,22.567c0.455,0.455 0.455,1.193 -0,1.648Zm-2.48,-0.833l-20.929,-20.929c-4.446,4.052 -10.356,6.524 -16.84,6.524c-6.483,0 -12.394,-2.472 -16.84,-6.524l-20.929,20.929c9.811,9.404 23.12,15.185 37.769,15.185c14.649,0 27.958,-5.782 37.769,-15.185Z" style="fill:#6b6b6b;"/><path id="tooth29-top-right" d="M145.125,349.707c10.094,10.094 16.341,24.036 16.341,39.425c0,15.389 -6.247,29.331 -16.341,39.425l-22.567,-22.567c4.316,-4.316 6.988,-10.278 6.988,-16.859c0,-6.581 -2.671,-12.542 -6.988,-16.859l22.567,-22.567Z" style="fill:#fff;"/><path d="M145.949,348.883c10.305,10.305 16.683,24.538 16.683,40.249c0,15.711 -6.377,29.944 -16.683,40.249c-0.455,0.455 -1.193,0.455 -1.648,0l-22.567,-22.567c-0.455,-0.455 -0.455,-1.193 0,-1.648c4.106,-4.106 6.647,-9.776 6.647,-16.035c0,-6.259 -2.541,-11.929 -6.647,-16.035c-0.455,-0.455 -0.455,-1.193 0,-1.648l22.567,-22.567c0.455,-0.455 1.193,-0.455 1.648,-0Zm-0.833,2.48l-20.929,20.929c4.052,4.446 6.524,10.356 6.524,16.84c0,6.483 -2.472,12.394 -6.524,16.84l20.929,20.929c9.404,-9.811 15.185,-23.12 15.185,-37.769c0,-14.649 -5.782,-27.958 -15.185,-37.769Z" style="fill:#6b6b6b;"/><path id="tooth29-top-bottom" d="M66.275,349.707c10.094,-10.094 24.036,-16.341 39.425,-16.341c15.389,0 29.331,6.247 39.425,16.341l-22.567,22.567c-4.316,-4.316 -10.278,-6.988 -16.859,-6.988c-6.581,0 -12.542,2.671 -16.859,6.988l-22.567,-22.567Z" style="fill:#fff;"/><path d="M65.451,348.883c10.305,-10.305 24.538,-16.683 40.249,-16.683c15.711,0 29.944,6.377 40.249,16.683c0.455,0.455 0.455,1.193 -0,1.648l-22.567,22.567c-0.455,0.455 -1.193,0.455 -1.648,0c-4.106,-4.106 -9.776,-6.647 -16.035,-6.647c-6.259,0 -11.929,2.541 -16.035,6.647c-0.455,0.455 -1.193,0.455 -1.648,-0l-22.567,-22.567c-0.455,-0.455 -0.455,-1.193 -0,-1.648Zm2.48,0.833l20.929,20.929c4.446,-4.052 10.356,-6.524 16.84,-6.524c6.483,0 12.394,2.472 16.84,6.524l20.929,-20.929c-9.811,-9.404 -23.12,-15.185 -37.769,-15.185c-14.649,0 -27.958,5.782 -37.769,15.185Z" style="fill:#6b6b6b;"/></g><g id="tooth29-back-view"><g id="tooth29-back-view-base-shape"><path id="tooth29-back-view-base-shape" d="M54.777,222.083c-4.231,-11.719 -2.072,-39.709 2.884,-58.387c2.04,-7.689 5.385,-16.175 10.443,-22.759c3.16,-4.113 6.989,-7.484 11.586,-9.454c12.919,-5.537 41.391,-6.04 55.484,-1.007c5.04,1.8 8.702,6.031 11.481,11.44c5.253,10.225 7.355,24.662 9.659,34.866c3.474,15.384 3.22,34.97 0,47.313c-6.04,23.153 -39.909,27.355 -47.809,27.18c-6.25,-0.139 -43.916,-2.013 -53.728,-29.193Z" style="fill:#fff;"/><path id="tooth29-back-view-base-shape" serif:id="tooth29-back-view-base-shape" d="M53.791,222.439c-4.276,-11.844 -2.152,-40.135 2.857,-59.012c2.074,-7.816 5.483,-16.437 10.625,-23.129c3.272,-4.259 7.244,-7.739 12.005,-9.779c13.097,-5.613 41.962,-6.133 56.25,-1.03c5.28,1.886 9.15,6.282 12.061,11.949c5.291,10.299 7.428,24.836 9.749,35.115c3.51,15.545 3.246,35.336 -0.008,47.809c-2.495,9.562 -9.556,16.02 -17.691,20.284c-12.013,6.297 -26.338,7.786 -31.156,7.679c-3.8,-0.084 -19.057,-0.807 -32.803,-7.316c-9.281,-4.394 -17.861,-11.414 -21.889,-22.569Zm1.973,-0.712c3.823,10.589 12.005,17.215 20.814,21.386c13.388,6.339 28.251,7.033 31.952,7.115c4.661,0.104 18.515,-1.349 30.136,-7.44c7.622,-3.995 14.298,-9.996 16.635,-18.956c3.186,-12.214 3.429,-31.595 -0.008,-46.818c-2.287,-10.13 -4.354,-24.468 -9.569,-34.618c-2.647,-5.153 -6.1,-9.217 -10.901,-10.932c-13.899,-4.964 -41.978,-4.477 -54.719,0.983c-4.435,1.901 -8.12,5.162 -11.168,9.129c-4.975,6.476 -8.254,14.827 -10.261,22.389c-4.903,18.479 -7.097,46.167 -2.911,57.762Z" style="fill:#6c6c6c;"/></g><g id="tooth29-back-view-accents"><path d="M111.611,226.43c2.266,2.802 8.411,7.843 23.058,6.221c1.244,-0.138 3.131,-0.455 3.403,-0.501c-1.083,0.005 -16.795,0.621 -23.548,-7.008c-1.413,-1.596 -1.162,-2.075 -1.951,-2.451c-0.938,-0.447 -1.649,0.195 -1.754,0.29c-0.51,0.46 -6.371,7.308 -26.132,9.733c-2.603,0.319 -4.596,0.421 -4.997,0.441c1.689,0.122 11.951,0.866 21.104,-1.615c5.848,-1.586 8.959,-3.589 10.818,-5.111Z" style="fill:#6c6c6c;"/><path d="M108.454,240.593c-0.018,-0.031 -0.446,-0.469 -0.226,-2.157c0.575,-4.407 4.189,-12.514 4.187,-12.531c-0.078,-0.622 -0.445,-1.146 -0.523,-1.768c-0.441,0.36 -0.992,0.464 -1.433,0.824c-0.001,0.001 -2.002,7.085 -2.446,11.733c-0.314,3.288 0.303,3.726 0.441,3.899Z" style="fill:#6c6c6c;"/></g><g id="tooth29-back-view-satuses"><path id="back-right" serif:id="back-right" d="M149.528,140.441c-0.815,-1.586 -2.763,-2.211 -4.349,-1.397c-1.586,0.815 -2.211,2.763 -1.397,4.349c5.135,9.995 7.129,24.126 9.381,34.102c3.362,14.887 3.141,33.842 0.025,45.787c-0.45,1.725 0.585,3.49 2.31,3.94c1.725,0.45 3.49,-0.585 3.94,-2.31c3.324,-12.742 3.611,-32.96 0.025,-48.84c-2.356,-10.433 -4.566,-25.177 -9.936,-35.631Z" style="fill:none;"/><path id="back-left" serif:id="back-left" d="M51.739,223.18c0.605,1.677 2.458,2.546 4.135,1.941c1.677,-0.605 2.546,-2.458 1.941,-4.135c-4.092,-11.335 -1.825,-38.397 2.968,-56.462c1.937,-7.299 5.08,-15.37 9.882,-21.62c1.086,-1.414 0.82,-3.443 -0.594,-4.529c-1.414,-1.086 -3.443,-0.82 -4.529,0.594c-5.315,6.918 -8.86,15.82 -11.003,23.899c-5.118,19.291 -7.17,48.208 -2.8,60.312Z" style="fill:none;"/><path id="back-top" serif:id="back-top" d="M65.543,138.97c-1.086,1.414 -0.82,3.443 0.594,4.529c1.414,1.086 3.443,0.82 4.529,-0.594c2.815,-3.664 6.201,-6.698 10.297,-8.453c12.37,-5.301 39.632,-5.753 53.126,-0.934c4.303,1.537 7.322,5.256 9.695,9.875c0.815,1.586 2.763,2.211 4.349,1.397c1.586,-0.815 2.211,-2.763 1.397,-4.349c-3.186,-6.201 -7.49,-10.942 -13.268,-13.006c-14.693,-5.247 -44.375,-4.692 -57.843,1.08c-5.099,2.185 -9.37,5.893 -12.875,10.455Z" style="fill:none;"/><path id="back-bottom" serif:id="back-bottom" d="M159.44,224.912c0.45,-1.725 -0.585,-3.49 -2.31,-3.94c-1.725,-0.45 -3.49,0.585 -3.94,2.31c-2.174,8.334 -8.448,13.859 -15.537,17.575c-11.213,5.878 -24.577,7.291 -29.075,7.191c-3.598,-0.08 -18.05,-0.742 -31.067,-6.906c-8.318,-3.939 -16.086,-10.157 -19.696,-20.156c-0.605,-1.677 -2.458,-2.546 -4.135,-1.941c-1.677,0.605 -2.546,2.458 -1.941,4.135c4.24,11.745 13.236,19.173 23.007,23.8c14.118,6.685 29.785,7.439 33.687,7.525c4.982,0.111 19.796,-1.417 32.217,-7.928c8.667,-4.543 16.131,-11.477 18.789,-21.665Z" style="fill:none;"/></g></g></g><rect id="base1" serif:id="base" x="-0" y="0" width="211.4" height="855.667" style="fill:none;"/></g></svg>