<?xml version="1.0" encoding="UTF-8" standalone="no"?><!DOCTYPE svg PUBLIC "-//W3C//DTD SVG 1.1//EN" "http://www.w3.org/Graphics/SVG/1.1/DTD/svg11.dtd"><svg width="100%" height="100%" viewBox="0 0 212 856" version="1.1" xmlns="http://www.w3.org/2000/svg" xmlns:xlink="http://www.w3.org/1999/xlink" xml:space="preserve" xmlns:serif="http://www.serif.com/" style="fill-rule:evenodd;clip-rule:evenodd;stroke-linejoin:round;stroke-miterlimit:2;"><g id="tooth7"><g id="tooth7-column"><g id="tooth7-front-view"><g id="tooth-7-front-base-shape"><path id="tooth-front-shapes-root" d="M63.635,303.978c0,0 15.259,-30.431 16.107,-99.66c1.486,-121.274 23.926,-139.324 33.22,-140.933c3.341,-0.579 7.629,40.985 11.073,82.547c2.59,31.244 9.06,35.233 11.073,104.693c0.518,17.868 10.496,20.451 13.087,53.353c0,0 -47.313,-41.273 -84.56,0Z" style="fill:#fff;"/><path id="tooth-front-shapes-root1" serif:id="tooth-front-shapes-root" d="M62.698,303.508c0,-0 15.151,-30.296 15.996,-99.203c0.895,-73.033 9.406,-108.761 18.051,-126.013c5.99,-11.953 12.161,-15.269 16.039,-15.941l0.432,-0.01l0.395,0.107l0.376,0.219c0.134,0.102 0.272,0.235 0.407,0.405c0.532,0.668 1.126,2.177 1.69,4.43c2.925,11.699 6.236,45.021 8.997,78.342c2.591,31.261 9.062,35.252 11.076,104.75c0.203,6.992 1.895,11.589 4.004,16.651c3.263,7.831 7.512,16.735 9.08,36.651c0.033,0.425 -0.194,0.828 -0.574,1.019c-0.381,0.191 -0.839,0.134 -1.161,-0.147c0,0 -46.492,-40.645 -83.092,-0.088c-0.352,0.39 -0.937,0.459 -1.37,0.163c-0.433,-0.296 -0.581,-0.867 -0.346,-1.336Zm50.115,-239.027c-3.56,0.756 -8.865,4.117 -14.194,14.75c-8.581,17.125 -16.94,52.604 -17.829,125.099c-0.653,53.271 -9.819,83.672 -14.075,94.985c32.637,-30.916 71.218,-4.636 80.224,2.305c-1.684,-17.87 -5.645,-26.203 -8.714,-33.569c-2.203,-5.287 -3.953,-10.094 -4.164,-17.397c-2.012,-69.423 -8.482,-73.41 -11.07,-104.637c-2.75,-33.177 -6.03,-66.357 -8.942,-78.006c-0.343,-1.373 -0.675,-2.431 -1.006,-3.13c-0.067,-0.141 -0.16,-0.293 -0.23,-0.4Z" style="fill:#6b6b6b;"/><path id="tooth-7-front-base-shape" d="M63.794,304.458c0,0 36.057,-53.175 84.4,0c0,0 0.723,70.738 -0.452,88.107c-0.397,5.872 -1.599,13.993 -6.595,16.107c-7.139,3.02 -24.795,2.013 -36.24,2.013c-10.827,0 -25.446,1.031 -32.429,-2.013c-5.438,-2.371 -9.848,-6.091 -9.469,-16.253l0.784,-87.96Z" style="fill:#fff;"/><path id="tooth-front-shapes1" serif:id="tooth-7-front-base-shape" d="M62.927,303.869c0,0 18.062,-26.566 45.818,-23.905c11.841,1.135 25.485,7.574 40.226,23.788c0.173,0.19 0.27,0.438 0.273,0.695c0,0 0.722,70.803 -0.454,88.188c-0.246,3.634 -0.805,8.099 -2.314,11.563c-1.091,2.505 -2.683,4.493 -4.918,5.438c-2.938,1.243 -7.604,1.846 -12.904,2.095c-7.742,0.363 -16.864,0.001 -23.745,0.001c-10.968,0 -25.774,0.983 -32.848,-2.101c-2.899,-1.264 -5.509,-2.906 -7.358,-5.568c-1.834,-2.64 -2.938,-6.3 -2.74,-11.67l0.784,-87.946c0.002,-0.207 0.065,-0.408 0.181,-0.579Zm1.914,0.922l-0.781,87.636l-0.001,0.03c-0.179,4.784 0.733,8.06 2.366,10.411c1.62,2.332 3.934,3.735 6.474,4.842c2.703,1.178 6.591,1.705 10.95,1.938c6.74,0.36 14.581,-0.012 21.06,-0.012c6.853,0 15.937,0.363 23.646,0.001c5.001,-0.235 9.412,-0.759 12.185,-1.932c1.762,-0.745 2.953,-2.37 3.813,-4.345c1.418,-3.254 1.914,-7.454 2.145,-10.867c1.122,-16.589 0.509,-81.907 0.453,-87.625c-14.162,-15.475 -27.219,-21.725 -38.605,-22.817c-25.041,-2.4 -41.815,20.083 -43.704,22.74Z" style="fill:#6b6b6b;"/></g><g id="tooth7-front-view-statuses"><path id="front-right" d="M145.049,304.49c-0.018,-1.736 1.377,-3.16 3.114,-3.178c1.736,-0.018 3.16,1.377 3.178,3.114c0,0 0.719,70.934 -0.459,88.351c-0.209,3.09 -0.641,6.755 -1.638,9.966c-0.515,1.658 -2.279,2.586 -3.937,2.071c-1.658,-0.515 -2.586,-2.279 -2.071,-3.937c0.852,-2.744 1.191,-5.883 1.369,-8.524c1.171,-17.321 0.445,-87.863 0.445,-87.863Z" style="fill:none;"/><path id="front-left" d="M66.677,398.384c0.442,1.679 -0.562,3.401 -2.241,3.843c-1.679,0.442 -3.401,-0.562 -3.843,-2.241c-0.557,-2.116 -0.836,-4.627 -0.728,-7.638l0.784,-87.919c0.015,-1.736 1.438,-3.133 3.174,-3.118c1.736,0.015 3.133,1.438 3.118,3.174l-0.784,87.96l-0.002,0.089c-0.086,2.307 0.097,4.231 0.523,5.849Z" style="fill:none;"/><path id="front-bottom" d="M143.235,400.876c0.515,-1.658 2.279,-2.586 3.937,-2.071c1.658,0.515 2.586,2.279 2.071,3.937c-1.27,4.088 -3.521,7.409 -6.87,8.826c-3.104,1.313 -8.025,1.996 -13.623,2.258c-7.774,0.365 -16.933,0.003 -23.843,0.003c-11.251,0 -26.43,0.888 -33.686,-2.275c-4.857,-2.118 -8.953,-5.201 -10.629,-11.569c-0.442,-1.679 0.562,-3.401 2.241,-3.843c1.679,-0.442 3.401,0.562 3.843,2.241c1.092,4.146 3.897,6.024 7.059,7.403c2.522,1.099 6.157,1.549 10.224,1.766c6.704,0.358 14.503,-0.015 20.948,-0.015c6.824,0 15.87,0.364 23.548,0.003c4.703,-0.221 8.859,-0.665 11.466,-1.768c1.77,-0.749 2.641,-2.736 3.313,-4.897Z" style="fill:none;"/><path id="front-top" d="M66.398,306.223c-0.974,1.437 -2.932,1.813 -4.369,0.838c-1.437,-0.974 -1.813,-2.932 -0.838,-4.369c0,0 18.85,-27.587 47.754,-24.816c12.223,1.172 26.361,7.728 41.578,24.465c1.168,1.285 1.073,3.276 -0.211,4.444c-1.285,1.168 -3.276,1.073 -4.444,-0.211c-13.79,-15.168 -26.446,-21.373 -37.523,-22.435c-25.461,-2.44 -41.946,22.084 -41.946,22.084Z" style="fill:none;"/></g></g><g id="tooth7-back-view"><g id="tooth7-back-view-base-shape"><path id="tooth7-back-view-base-shape" serif:id="tooth7-back-view-base-shape" d="M143.28,751.61c-6.65,9.415 -21.941,14.275 -37.176,14.382c-14.832,0.105 -29.611,-4.294 -36.31,-13.378c-7.148,-9.693 -9.078,-34.274 -9.253,-58.436c-0.158,-21.741 1.104,-43.142 1.263,-53.052c0.041,-2.561 0.953,-5.166 2.388,-7.455c1.895,-3.023 4.701,-5.497 7.615,-6.596c7.468,-2.817 23.901,-2.852 34.806,-2.852c10.246,0 23.64,0.035 30.627,2.852c3.614,1.457 6.945,2.786 9.102,6.596c1.031,1.822 1.794,4.212 2.191,7.455c0,0 2.214,25.852 2.335,52.906c0.107,23.955 -1.426,48.852 -7.589,57.579Z" style="fill:#fff;"/><path id="tooth7-back-view-base-shape" serif:id="tooth7-back-view-base-shape" d="M144.136,752.215c-6.808,9.64 -22.426,14.716 -38.026,14.826c-15.195,0.107 -30.299,-4.498 -37.162,-13.804c-2.93,-3.974 -5.036,-10.378 -6.482,-18.231c-2.126,-11.544 -2.87,-26.258 -2.976,-40.821c-0.158,-21.751 1.104,-43.162 1.263,-53.077c0.044,-2.745 1.01,-5.541 2.548,-7.995c2.021,-3.224 5.025,-5.848 8.134,-7.021c7.548,-2.847 24.154,-2.92 35.176,-2.92c10.378,0 23.942,0.075 31.019,2.928c3.835,1.547 7.333,3.008 9.623,7.052c1.086,1.918 1.902,4.43 2.319,7.844l0.004,0.038c0,0 2.217,25.894 2.339,52.991c0.065,14.432 -0.467,29.204 -2.236,40.606c-1.206,7.771 -3.013,13.999 -5.544,17.582Zm-1.713,-1.21c2.4,-3.398 4.041,-9.326 5.185,-16.694c1.755,-11.308 2.276,-25.961 2.212,-40.275c-0.119,-26.585 -2.262,-52.009 -2.332,-52.82c-0.377,-3.053 -1.085,-5.309 -2.058,-7.029c-2.025,-3.577 -5.189,-4.773 -8.582,-6.14c-6.896,-2.781 -20.122,-2.776 -30.235,-2.776c-10.789,0 -27.048,-0.002 -34.436,2.785c-2.721,1.026 -5.328,3.35 -7.097,6.172c-1.332,2.125 -2.19,4.538 -2.228,6.915c-0.159,9.905 -1.421,31.297 -1.263,53.028c0.105,14.432 0.834,29.015 2.942,40.456c1.376,7.471 3.319,13.585 6.107,17.366c6.535,8.862 20.989,13.054 35.459,12.952c14.871,-0.105 29.837,-4.748 36.327,-13.939Z" style="fill:#6b6b6b;"/></g><g id="tooth7-back-view-statuses"><path id="back-right" d="M143.604,635.22c-0.855,-1.511 -0.323,-3.432 1.188,-4.287c1.511,-0.855 3.432,-0.323 4.287,1.188c1.195,2.11 2.116,4.867 2.576,8.622l0.012,0.114c0,0 2.225,25.976 2.347,53.16c0.065,14.55 -0.477,29.442 -2.261,40.937c-1.269,8.174 -3.242,14.702 -5.904,18.471c-1.002,1.418 -2.966,1.756 -4.384,0.755c-1.418,-1.002 -1.756,-2.966 -0.755,-4.384c2.269,-3.212 3.744,-8.84 4.826,-15.806c1.741,-11.215 2.251,-25.747 2.187,-39.944c-0.117,-26.179 -2.203,-51.227 -2.322,-52.617c-0.336,-2.69 -0.937,-4.689 -1.797,-6.209Z" style="fill:none;"/><path id="back-left" d="M72.325,750.747c1.03,1.397 0.733,3.368 -0.665,4.399c-1.397,1.03 -3.368,0.733 -4.399,-0.665c-3.073,-4.167 -5.34,-10.861 -6.856,-19.095c-2.145,-11.648 -2.904,-26.492 -3.011,-41.185c-0.158,-21.771 1.104,-43.202 1.263,-53.126c0.05,-3.114 1.124,-6.292 2.868,-9.075c0.922,-1.471 2.865,-1.917 4.336,-0.995c1.471,0.922 1.917,2.865 0.995,4.336c-1.125,1.795 -1.876,3.826 -1.908,5.835c-0.159,9.896 -1.421,31.268 -1.263,52.979c0.104,14.302 0.819,28.754 2.907,40.091c1.306,7.089 3.087,12.913 5.732,16.501Z" style="fill:none;"/><path id="back-bottom" d="M140.71,749.795c1.002,-1.418 2.966,-1.756 4.384,-0.755c1.418,1.002 1.756,2.966 0.755,4.384c-7.126,10.09 -23.397,15.598 -39.724,15.713c-15.921,0.113 -31.674,-4.906 -38.864,-14.657c-1.03,-1.397 -0.733,-3.368 0.665,-4.399c1.397,-1.03 3.368,-0.733 4.399,0.665c6.208,8.418 20.011,12.196 33.756,12.099c14.144,-0.1 28.456,-4.31 34.629,-13.051Z" style="fill:none;"/><path id="back-top" d="M66.857,635.341c-0.922,1.471 -2.865,1.917 -4.336,0.995c-1.471,-0.922 -1.917,-2.865 -0.995,-4.336c2.273,-3.626 5.675,-6.55 9.171,-7.869c7.709,-2.908 24.66,-3.055 35.917,-3.055c10.643,0 24.546,0.154 31.803,3.08c4.279,1.725 8.11,3.452 10.663,7.964c0.855,1.511 0.323,3.432 -1.188,4.287c-1.511,0.855 -3.432,0.323 -4.287,-1.188c-1.761,-3.111 -4.591,-4.039 -7.541,-5.228c-6.716,-2.708 -19.602,-2.624 -29.451,-2.624c-10.555,0 -26.468,-0.077 -33.696,2.65c-2.334,0.88 -4.543,2.903 -6.06,5.324Z" style="fill:none;"/></g></g></g><g id="tooth7-top-view"><rect id="tooth7-top-center" x="73.21" y="517.198" width="72.377" height="14.272" style="fill:#fff;"/><path d="M72.162,531.469l0,-14.272c0,-0.579 0.469,-1.049 1.049,-1.049l72.377,0c0.579,0 1.049,0.469 1.049,1.049l0,14.272c0,0.579 -0.469,1.049 -1.049,1.049l-72.377,0c-0.579,-0 -1.049,-0.469 -1.049,-1.049Zm2.097,-1.049l70.28,0l-0,-12.174l-70.28,-0l-0,12.174Z" style="fill:#6b6b6b;"/><path id="tooth7-top-left" d="M61.398,534.634c-1.922,-3.219 -2.968,-6.687 -2.968,-10.301c0,-4.615 1.708,-8.994 4.765,-12.919l10.017,5.783l0,14.272l-11.813,3.165Z" style="fill:#fff;"/><path d="M60.497,535.172c-2.021,-3.387 -3.117,-7.037 -3.117,-10.838c0,-4.844 1.778,-9.444 4.986,-13.563c0.322,-0.413 0.898,-0.526 1.352,-0.264l10.017,5.783c0.324,0.187 0.524,0.533 0.524,0.908l0,14.272c0,0.475 -0.319,0.89 -0.777,1.013l-11.813,3.165c-0.453,0.121 -0.931,-0.073 -1.172,-0.475Zm1.408,-1.759l10.256,-2.748l-0,-12.861l-8.688,-5.016c-2.563,3.541 -3.996,7.442 -3.996,11.546c0,3.171 0.856,6.222 2.428,9.079Z" style="fill:#6b6b6b;"/><path id="tooth7-top-bottom" d="M157.4,534.634c-7.054,11.817 -25.893,20.281 -48.001,20.281c-22.108,0 -40.948,-8.464 -48.001,-20.281l11.813,-3.165l72.377,0l11.813,3.165Z" style="fill:#fff;"/><path d="M158.3,535.172c-7.193,12.05 -26.357,20.792 -48.902,20.792c-22.545,0 -41.709,-8.742 -48.902,-20.792c-0.168,-0.282 -0.195,-0.627 -0.071,-0.932c0.124,-0.305 0.383,-0.534 0.7,-0.619l11.813,-3.165c0.089,-0.024 0.18,-0.036 0.271,-0.036l72.377,0c0.092,-0 0.183,0.012 0.271,0.036l11.813,3.165c0.317,0.085 0.577,0.314 0.7,0.619c0.124,0.305 0.097,0.649 -0.071,0.932Zm-2.553,0.105l-10.298,-2.759l-72.101,0l-10.298,2.759c7.436,10.956 25.42,18.59 46.349,18.59c20.928,0 38.912,-7.634 46.349,-18.59Z" style="fill:#6b6b6b;"/><path id="tooth7-top-right" d="M155.604,511.414c3.057,3.925 4.765,8.303 4.765,12.919c0,3.614 -1.047,7.082 -2.968,10.301l-11.813,-3.165l0,-14.272l10.017,-5.783Z" style="fill:#fff;"/><path d="M156.431,510.77c3.208,4.119 4.986,8.719 4.986,13.563c0,3.802 -1.095,7.452 -3.117,10.838c-0.24,0.403 -0.719,0.597 -1.172,0.475l-11.813,-3.165c-0.458,-0.123 -0.777,-0.538 -0.777,-1.013l0,-14.272c0,-0.375 0.2,-0.721 0.524,-0.908l10.017,-5.783c0.453,-0.262 1.03,-0.149 1.352,0.264Zm-1.108,2.017l-8.688,5.016l-0,12.861l10.256,2.748c1.572,-2.857 2.428,-5.908 2.428,-9.079c0,-4.104 -1.433,-8.005 -3.996,-11.546Z" style="fill:#6b6b6b;"/><path id="tooth7-top-top" d="M63.194,511.414c8.122,-10.429 25.767,-17.663 46.205,-17.663c20.438,0 38.083,7.234 46.205,17.663l-10.017,5.783l-72.377,0l-10.017,-5.783Z" style="fill:#fff;"/><path d="M62.366,510.77c8.272,-10.623 26.215,-18.067 47.032,-18.067c20.817,0 38.76,7.444 47.032,18.067c0.186,0.239 0.26,0.548 0.202,0.845c-0.058,0.298 -0.242,0.556 -0.505,0.707l-10.017,5.783c-0.159,0.092 -0.34,0.14 -0.524,0.14l-72.377,0c-0.184,0 -0.365,-0.048 -0.524,-0.14l-10.017,-5.783c-0.263,-0.152 -0.447,-0.41 -0.505,-0.707c-0.058,-0.298 0.016,-0.606 0.202,-0.845Zm2.418,0.352l8.707,5.027l71.815,0l8.707,-5.027c-8.279,-9.725 -25.173,-16.322 -44.615,-16.322c-19.442,0 -36.335,6.597 -44.615,16.322Z" style="fill:#6b6b6b;"/></g><rect id="base" x="0" y="0" width="211.4" height="855.667" style="fill:none;"/></g></svg>