<?xml version="1.0" encoding="UTF-8" standalone="no"?><!DOCTYPE svg PUBLIC "-//W3C//DTD SVG 1.1//EN" "http://www.w3.org/Graphics/SVG/1.1/DTD/svg11.dtd"><svg width="100%" height="100%" viewBox="0 0 212 856" version="1.1" xmlns="http://www.w3.org/2000/svg" xmlns:xlink="http://www.w3.org/1999/xlink" xml:space="preserve" xmlns:serif="http://www.serif.com/" style="fill-rule:evenodd;clip-rule:evenodd;stroke-linejoin:round;stroke-miterlimit:2;"><g id="tooth9"><g id="tooth9-column"><rect id="base" x="-0" y="0" width="211.4" height="855.667" style="fill:none;"/><g id="tooth9-front-view"><g id="tooth-9-front-base-shape"><path id="tooth9-front-view-shapes-root" d="M147.312,295.922c0,0 -10.717,-6.981 -17.113,-85.567c-7.047,-86.573 -5.312,-168.396 -16.107,-170.127c-3.88,-0.622 -26.173,14.093 -32.338,93.802c-2.601,33.63 -6.922,45.118 -12.862,112.575c-1.686,19.149 -12.191,21.991 -15.2,57.37c0,0 50.358,-52.434 93.62,-8.053Z" style="fill:#fff;"/><path d="M147.41,294.529c0.218,0.218 0.435,0.438 0.652,0.661c0.373,0.383 0.399,0.985 0.059,1.398c-0.206,0.251 -0.506,0.383 -0.81,0.383c-0.197,0 -0.396,-0.055 -0.572,-0.17c0,0 -0.286,-0.169 -0.79,-0.766c-21.063,-21.124 -43.768,-19.112 -61.265,-11.761c-17.79,7.474 -30.237,20.429 -30.237,20.429c-0.308,0.32 -0.784,0.412 -1.189,0.229c-0.405,-0.183 -0.65,-0.602 -0.612,-1.044c1.821,-21.409 6.363,-31.004 10.073,-39.426c2.408,-5.467 4.465,-10.425 5.127,-17.946c5.939,-67.45 10.26,-78.937 12.861,-112.563c4.347,-56.203 16.742,-80.302 25.075,-89.503c2.25,-2.484 4.234,-3.919 5.719,-4.638c1.204,-0.582 2.157,-0.712 2.755,-0.616c1.107,0.178 2.165,0.945 3.08,2.388c1.117,1.76 2.092,4.625 2.922,8.473c5.313,24.624 5.341,90.898 10.983,160.216c3.823,46.973 9.178,68.268 12.864,77.786c1.493,3.854 2.66,5.672 3.303,6.472Zm-4.699,-4.327c-0.183,-0.434 -0.369,-0.897 -0.56,-1.388c-3.715,-9.591 -9.146,-31.043 -12.999,-78.374c-5.633,-69.199 -5.639,-135.362 -10.943,-159.944c-0.762,-3.533 -1.618,-6.176 -2.643,-7.791c-0.513,-0.809 -1.021,-1.342 -1.642,-1.441c-0.333,-0.053 -0.84,0.109 -1.51,0.433c-1.324,0.64 -3.073,1.944 -5.078,4.157c-8.213,9.068 -20.255,32.867 -24.539,88.257c-2.601,33.633 -6.922,45.122 -12.863,112.586c-0.687,7.797 -2.801,12.941 -5.297,18.608c-3.481,7.902 -7.707,16.854 -9.641,35.947c4.303,-3.994 14.999,-13.084 28.874,-18.913c16.853,-7.08 38.361,-9.381 58.84,7.863Z" style="fill:#6b6b6b;"/><path id="tooth-9-front-base-shape" serif:id="tooth-9-front-base-shape" d="M147.312,295.922c0,0 -39.32,-52.968 -93.62,3.02c0,0 -1.79,73.319 0,91.607c0.689,7.043 4.008,16.732 10.74,18.12c14.645,3.02 62.973,2.852 77.13,0c6.001,-1.209 7.811,-17.113 7.811,-17.113l-2.061,-95.633Z" style="fill:#fff;"/><path d="M148.36,295.9l2.061,95.633c0.001,0.047 -0.001,0.094 -0.006,0.141c0,0 -0.922,8.008 -3.584,13.241c-1.277,2.509 -2.991,4.365 -5.061,4.782c-14.234,2.868 -62.825,3.035 -77.549,-0.001c-2.957,-0.61 -5.342,-2.643 -7.154,-5.401c-2.566,-3.903 -3.988,-9.265 -4.417,-13.644c-1.792,-18.313 -0.005,-91.734 -0.005,-91.734c0.006,-0.264 0.112,-0.515 0.296,-0.704c22.052,-22.737 41.704,-27.698 57.307,-25.559c23.485,3.221 37.907,22.644 37.907,22.644c0.13,0.175 0.202,0.385 0.206,0.602Zm-2.09,0.388c-1.774,-2.267 -15.261,-18.67 -36.309,-21.556c-15.067,-2.066 -33.959,2.843 -55.231,24.647c-0.14,5.899 -1.704,73.606 0.005,91.068c0.399,4.072 1.696,9.067 4.082,12.696c1.489,2.264 3.397,3.998 5.826,4.499c14.565,3.004 62.631,2.836 76.711,-0.001c1.531,-0.308 2.662,-1.822 3.606,-3.677c2.377,-4.671 3.269,-11.685 3.362,-12.458l-2.052,-95.218Z" style="fill:#6b6b6b;"/></g><g id="tooth9-front-view-statuses"><path id="front-left" d="M56.836,299.019c0.042,-1.736 -1.332,-3.179 -3.068,-3.222c-1.736,-0.042 -3.179,1.332 -3.222,3.068c0,0 -1.783,73.626 0.014,91.99c0.308,3.146 1.099,6.774 2.424,10.071c0.648,1.611 2.481,2.393 4.092,1.745c1.611,-0.648 2.393,-2.481 1.745,-4.092c-1.097,-2.728 -1.745,-5.733 -2,-8.337c-1.782,-18.211 0.014,-91.223 0.014,-91.223Z" style="fill:none;"/><path id="front-right" d="M144.566,399.218c-0.507,1.661 0.43,3.42 2.091,3.927c1.661,0.507 3.42,-0.43 3.927,-2.091c1.395,-4.573 1.914,-9.143 1.914,-9.143c0.016,-0.141 0.022,-0.282 0.019,-0.423l-2.061,-95.633c-0.037,-1.736 -1.477,-3.115 -3.213,-3.077c-1.736,0.037 -3.115,1.477 -3.077,3.213l2.055,95.414c-0.11,0.864 -0.595,4.338 -1.655,7.814Z" style="fill:none;"/><path id="front-bottom" d="M58.822,398.579c-0.648,-1.611 -2.481,-2.393 -4.092,-1.745c-1.611,0.648 -2.393,2.481 -1.745,4.092c2.177,5.414 5.871,9.805 10.811,10.824c14.884,3.069 63.999,2.902 78.387,0.003c1.838,-0.37 3.5,-1.502 4.871,-3.257c1.501,-1.92 2.685,-4.671 3.53,-7.442c0.507,-1.661 -0.43,-3.42 -2.091,-3.927c-1.661,-0.507 -3.42,0.43 -3.927,2.091c-0.521,1.709 -1.175,3.427 -2.027,4.772c-0.475,0.75 -0.907,1.455 -1.598,1.594c-13.926,2.806 -61.467,2.974 -75.874,0.003c-3.031,-0.625 -4.908,-3.687 -6.244,-7.009Z" style="fill:none;"/><path id="front-top" d="M144.786,297.797c1.035,1.394 3.007,1.686 4.401,0.651c1.394,-1.035 1.686,-3.007 0.651,-4.401c0,0 -17.537,-23.574 -45.54,-23.938c-14.937,-0.194 -32.981,6.142 -52.864,26.643c-1.209,1.246 -1.178,3.24 0.068,4.448c1.246,1.209 3.24,1.178 4.448,-0.068c18.215,-18.781 34.581,-24.909 48.266,-24.732c24.965,0.324 40.57,21.397 40.57,21.397Z" style="fill:none;"/></g></g><g id="tooth9-top-view"><rect id="tooth9-top-center" x="69.183" y="517.198" width="72.377" height="14.272" style="fill:#fff;"/><path d="M68.135,531.469l0,-14.272c0,-0.579 0.469,-1.049 1.049,-1.049l72.377,0c0.579,0 1.049,0.469 1.049,1.049l0,14.272c0,0.579 -0.469,1.049 -1.049,1.049l-72.377,0c-0.579,-0 -1.049,-0.469 -1.049,-1.049Zm2.097,-1.049l70.28,0l-0,-12.174l-70.28,-0l-0,12.174Z" style="fill:#6b6b6b;"/><path id="tooth9-top-left" d="M57.37,534.634c-1.922,-3.219 -2.968,-6.687 -2.968,-10.301c0,-4.615 1.708,-8.994 4.765,-12.919l10.017,5.783l0,14.272l-11.813,3.165Z" style="fill:#fff;"/><path d="M56.47,535.172c-2.021,-3.387 -3.117,-7.037 -3.117,-10.838c0,-4.844 1.778,-9.444 4.986,-13.563c0.322,-0.413 0.898,-0.526 1.352,-0.264l10.017,5.783c0.324,0.187 0.524,0.533 0.524,0.908l0,14.272c0,0.475 -0.319,0.89 -0.777,1.013l-11.813,3.165c-0.453,0.121 -0.931,-0.073 -1.172,-0.475Zm1.408,-1.759l10.256,-2.748l-0,-12.861l-8.688,-5.016c-2.563,3.541 -3.996,7.442 -3.996,11.546c0,3.171 0.856,6.222 2.428,9.079Z" style="fill:#6b6b6b;"/><path id="tooth9-top-bottom" d="M153.373,534.634c-7.054,11.817 -25.893,20.281 -48.001,20.281c-22.108,0 -40.948,-8.464 -48.001,-20.281l11.813,-3.165l72.377,0l11.813,3.165Z" style="fill:#fff;"/><path d="M154.273,535.172c-7.193,12.05 -26.357,20.792 -48.902,20.792c-22.545,0 -41.709,-8.742 -48.902,-20.792c-0.168,-0.282 -0.195,-0.627 -0.071,-0.932c0.124,-0.305 0.383,-0.534 0.7,-0.619l11.813,-3.165c0.089,-0.024 0.18,-0.036 0.271,-0.036l72.377,0c0.092,-0 0.183,0.012 0.271,0.036l11.813,3.165c0.317,0.085 0.577,0.314 0.7,0.619c0.124,0.305 0.097,0.649 -0.071,0.932Zm-2.553,0.105l-10.298,-2.759l-72.101,0l-10.298,2.759c7.436,10.956 25.42,18.59 46.349,18.59c20.928,0 38.912,-7.634 46.349,-18.59Z" style="fill:#6b6b6b;"/><path id="tooth9-top-right" d="M151.577,511.414c3.057,3.925 4.765,8.303 4.765,12.919c0,3.614 -1.047,7.082 -2.968,10.301l-11.813,-3.165l0,-14.272l10.017,-5.783Z" style="fill:#fff;"/><path d="M152.404,510.77c3.208,4.119 4.986,8.719 4.986,13.563c0,3.802 -1.095,7.452 -3.117,10.838c-0.24,0.403 -0.719,0.597 -1.172,0.475l-11.813,-3.165c-0.458,-0.123 -0.777,-0.538 -0.777,-1.013l0,-14.272c0,-0.375 0.2,-0.721 0.524,-0.908l10.017,-5.783c0.453,-0.262 1.03,-0.149 1.352,0.264Zm-1.108,2.017l-8.688,5.016l-0,12.861l10.256,2.748c1.572,-2.857 2.428,-5.908 2.428,-9.079c0,-4.104 -1.433,-8.005 -3.996,-11.546Z" style="fill:#6b6b6b;"/><path id="tooth9-top-top" d="M59.167,511.414c8.122,-10.429 25.767,-17.663 46.205,-17.663c20.438,0 38.083,7.234 46.205,17.663l-10.017,5.783l-72.377,0l-10.017,-5.783Z" style="fill:#fff;"/><path d="M58.339,510.77c8.272,-10.623 26.215,-18.067 47.032,-18.067c20.817,0 38.76,7.444 47.032,18.067c0.186,0.239 0.26,0.548 0.202,0.845c-0.058,0.298 -0.242,0.556 -0.505,0.707l-10.017,5.783c-0.159,0.092 -0.34,0.14 -0.524,0.14l-72.377,0c-0.184,0 -0.365,-0.048 -0.524,-0.14l-10.017,-5.783c-0.263,-0.152 -0.447,-0.41 -0.505,-0.707c-0.058,-0.298 0.016,-0.606 0.202,-0.845Zm2.418,0.352l8.707,5.027l71.815,0l8.707,-5.027c-8.279,-9.725 -25.173,-16.322 -44.615,-16.322c-19.442,0 -36.335,6.597 -44.615,16.322Z" style="fill:#6b6b6b;"/></g><g id="tooth9-back-view"><g id="tooth9-back-view-base-shape"><path id="tooth9-back-view-base-shape" d="M63.659,758.215c8.052,7.374 23.866,11.147 39.971,11.436c16.873,0.303 34.065,-3.219 42.985,-10.429c2.737,-2.213 4.887,-5.767 6.559,-10.308c10.326,-28.039 2.454,-93.698 2.405,-113.512c-0.014,-5.732 -3.973,-12.576 -9.306,-14.313c-8.413,-2.74 -28.169,-2.13 -41.171,-2.13c-12.3,0 -28.657,-0.611 -36.841,2.13c-5.89,1.972 -11.335,4.245 -12.264,14.313c0,0 -8.465,82.615 2.321,113.566c1.424,4.085 3.183,7.27 5.341,9.246Z" style="fill:#fff;"/><path id="tooth9-back-view-base-shape" serif:id="tooth9-back-view-base-shape" d="M62.951,758.989c8.195,7.505 24.269,11.417 40.66,11.711c17.145,0.308 34.599,-3.335 43.663,-10.662c2.862,-2.314 5.135,-6.013 6.884,-10.761c4.163,-11.304 5.414,-28.673 5.386,-46.726c-0.041,-26.869 -2.887,-55.262 -2.917,-67.15c-0.015,-6.145 -4.313,-13.445 -10.03,-15.307c-8.48,-2.762 -28.39,-2.182 -41.495,-2.182c-12.412,0 -28.916,-0.581 -37.174,2.184c-3.734,1.25 -7.273,2.658 -9.739,5.847c-1.653,2.138 -2.84,5.082 -3.236,9.359c-0.076,0.746 -8.405,83.079 2.375,114.013c1.492,4.281 3.361,7.604 5.623,9.675Zm1.416,-1.547c-2.055,-1.882 -3.703,-4.929 -5.059,-8.818c-10.743,-30.828 -2.268,-113.114 -2.268,-113.114l0.001,-0.011c0.348,-3.774 1.348,-6.388 2.807,-8.274c2.202,-2.848 5.411,-4.024 8.746,-5.141c8.11,-2.716 24.32,-2.076 36.508,-2.076c12.899,0 32.5,-0.64 40.846,2.078c4.949,1.612 8.569,7.999 8.582,13.319c0.029,11.888 2.875,40.28 2.917,67.148c0.027,17.771 -1.159,34.872 -5.257,45.998c-1.596,4.334 -3.622,7.742 -6.234,9.855c-8.776,7.094 -25.706,10.494 -42.307,10.196c-15.819,-0.284 -31.373,-3.918 -39.282,-11.161Z" style="fill:#6b6b6b;"/></g><g id="tooth9-back-view-statuses"><path id="back-left" d="M59.127,635.723c0.177,-1.727 -1.082,-3.273 -2.809,-3.45c-1.727,-0.177 -3.273,1.082 -3.45,2.809c0,0 -8.435,83.601 2.48,114.922c0.571,1.64 2.366,2.507 4.006,1.935c1.64,-0.571 2.507,-2.366 1.935,-4.006c-10.657,-30.581 -2.162,-112.21 -2.162,-112.21Z" style="fill:none;"/><path id="back-right" d="M150.222,747.827c-0.6,1.629 0.236,3.439 1.865,4.039c1.629,0.6 3.439,-0.236 4.039,-1.865c4.229,-11.481 5.544,-29.117 5.515,-47.454c-0.041,-26.87 -2.887,-55.263 -2.917,-67.152c-0.004,-1.736 -1.417,-3.142 -3.154,-3.138c-1.736,0.004 -3.142,1.417 -3.138,3.154c0.029,11.887 2.875,40.279 2.917,67.146c0.027,17.487 -1.095,34.321 -5.128,45.27Z" style="fill:none;"/><path id="back-bottom" d="M61.289,747.934c-0.571,-1.64 -2.366,-2.507 -4.006,-1.935c-1.64,0.571 -2.507,2.366 -1.935,4.006c1.628,4.673 3.718,8.271 6.187,10.531c8.481,7.767 25.076,11.957 42.039,12.261c17.69,0.317 35.667,-3.568 45.019,-11.128c3.112,-2.515 5.633,-6.505 7.534,-11.667c0.6,-1.629 -0.236,-3.439 -1.865,-4.039c-1.629,-0.6 -3.439,0.236 -4.039,1.865c-1.444,3.92 -3.222,7.038 -5.585,8.948c-8.488,6.862 -24.895,10.019 -40.951,9.731c-15.247,-0.274 -30.28,-3.629 -37.903,-10.611c-1.848,-1.692 -3.276,-4.464 -4.495,-7.962Z" style="fill:none;"/><path id="back-top" d="M152.433,635.411c0.004,1.736 1.417,3.142 3.154,3.138c1.736,-0.004 3.142,-1.417 3.138,-3.154c-0.017,-6.97 -4.993,-15.184 -11.478,-17.296c-8.613,-2.806 -28.834,-2.285 -42.145,-2.285c-12.635,0 -29.433,-0.522 -37.84,2.293c-4.133,1.384 -8.002,3.022 -10.732,6.552c-1.849,2.391 -3.224,5.669 -3.665,10.455c-0.159,1.729 1.115,3.262 2.844,3.421c1.729,0.159 3.262,-1.115 3.421,-2.844c0.301,-3.269 1.114,-5.55 2.377,-7.184c1.939,-2.508 4.817,-3.452 7.752,-4.435c7.961,-2.666 23.878,-1.967 35.842,-1.967c12.693,0 31.984,-0.7 40.196,1.975c4.182,1.362 7.124,6.834 7.135,11.33Z" style="fill:none;"/></g></g></g><rect id="base1" serif:id="base" x="-0" y="0" width="211.4" height="855.667" style="fill:none;"/></g></svg>