<?xml version="1.0" encoding="UTF-8" standalone="no"?><!DOCTYPE svg PUBLIC "-//W3C//DTD SVG 1.1//EN" "http://www.w3.org/Graphics/SVG/1.1/DTD/svg11.dtd"><svg width="100%" height="100%" viewBox="0 0 212 856" version="1.1" xmlns="http://www.w3.org/2000/svg" xmlns:xlink="http://www.w3.org/1999/xlink" xml:space="preserve" xmlns:serif="http://www.serif.com/" style="fill-rule:evenodd;clip-rule:evenodd;stroke-linejoin:round;stroke-miterlimit:2;"><g id="tooth21"><g id="tooth21-column"><rect id="base" x="0" y="20.906" width="211.4" height="805.333" style="fill:none;"/><g id="tooth21-front-view"><g id="tooth-21-front-base-shape"><path id="tooth28-front-view-shapes-root" d="M60.811,596.682c0,0 12.141,43.714 19.746,99.544c7.605,55.83 25.3,193.715 44.688,98.45c19.388,-95.264 -2.555,-154.934 27.021,-201.276c0,0 -48.505,42.372 -91.455,3.282Z" style="fill:#fff;"/><path id="tooth28-front-view-shapes-root1" serif:id="tooth28-front-view-shapes-root" d="M59.772,597.002c0,0 12.121,43.645 19.713,99.386c4.574,33.579 12.811,96.765 22.85,121.318c1.677,4.101 3.426,7.154 5.193,8.898c1.389,1.371 2.823,1.987 4.252,1.868c1.979,-0.165 4.112,-1.849 6.161,-5.64c2.729,-5.05 5.537,-14.034 8.363,-27.916c11.648,-57.232 8.406,-101.632 10.339,-138.018c1.275,-24.005 4.8,-44.494 16.522,-62.861c0.3,-0.47 0.226,-1.101 -0.173,-1.481c-0.399,-0.38 -1.003,-0.393 -1.417,-0.031c0,0 -47.762,41.79 -90.055,3.297c-0.363,-0.33 -0.889,-0.37 -1.293,-0.097c-0.404,0.273 -0.589,0.793 -0.454,1.278Zm3.019,2.879c34.928,28.98 72.727,7.076 85.588,-2.081c-9.58,17.403 -12.715,36.692 -13.898,58.97c-1.927,36.294 1.324,80.583 -10.294,137.668c-3.058,15.025 -6.039,24.178 -8.977,28.708c-1.134,1.748 -2.2,2.762 -3.304,3.009c-0.912,0.203 -1.79,-0.198 -2.675,-1.003c-1.689,-1.537 -3.307,-4.434 -4.906,-8.347c-9.99,-24.434 -18.143,-87.324 -22.695,-120.74c-6.344,-46.576 -15.841,-84.733 -18.838,-96.183Z" style="fill:#6b6b6b;"/><path id="tooth-21-front-base-shape" serif:id="tooth-21-front-base-shape" d="M150.551,602.246c1.166,-2.175 2.752,-6.979 4.19,-13.414c4.505,-20.163 7.551,-56.332 -8.377,-77.75c-5.921,-7.962 -14.464,-13.885 -26.528,-16.19c-28.307,-5.409 -55.043,6.863 -61.231,15.183c-7.818,10.511 -7.181,55.888 1.146,81.616c1.497,4.626 3.243,8.617 5.233,11.656c13.058,19.937 68.453,30.822 85.567,-1.101Z" style="fill:#fff;"/><path d="M151.475,602.741c-8.756,16.334 -27.269,21.8 -45.301,20.549c-17.981,-1.248 -35.405,-9.196 -42.067,-19.369c-2.034,-3.105 -3.824,-7.18 -5.354,-11.908c-5.868,-18.131 -7.948,-45.955 -5.965,-64.647c0.87,-8.2 2.558,-14.668 4.975,-17.917c2.547,-3.425 8.453,-7.539 16.518,-10.841c11.909,-4.875 28.544,-8.034 45.751,-4.746c12.36,2.362 21.107,8.438 27.173,16.595c16.105,21.656 13.114,58.217 8.559,78.604c-1.467,6.565 -3.1,11.462 -4.289,13.68Zm-1.848,-0.991c1.142,-2.131 2.682,-6.842 4.091,-13.147c4.455,-19.939 7.556,-55.715 -8.195,-76.895c-5.776,-7.767 -14.114,-13.538 -25.883,-15.786c-16.761,-3.203 -32.963,-0.122 -44.563,4.627c-7.607,3.114 -13.227,6.921 -15.63,10.152c-2.274,3.057 -3.754,9.172 -4.573,16.887c-1.956,18.442 0.085,45.893 5.875,63.78c1.465,4.525 3.166,8.432 5.113,11.404c6.395,9.765 23.198,17.228 40.458,18.426c17.209,1.194 34.95,-3.859 43.307,-19.447Z" style="fill:#6b6b6b;"/></g><g id="tooth21-front-view-accents"><path d="M116.272,511.934c-4.089,3.907 -8.894,5.637 -17.671,6.971c-16.703,2.54 -27.453,0.321 -22.219,1.304c4.828,0.907 15.756,2.39 24.535,0.515c11.496,-2.455 15.253,-8.652 15.355,-8.791Z" style="fill:#6b6b6b;"/><path d="M136.144,518.896c-5.771,-1.288 -20.958,-4.336 -28.941,5.56c-1.506,1.867 -2.866,4.609 -3.115,7.019c2.763,-7.894 12.096,-10.536 12.434,-10.653c7.781,-2.681 15.918,-2.172 19.622,-1.927Z" style="fill:#6b6b6b;"/></g><g id="tooth21-front-view-statuses"><path id="front-right" d="M157.811,589.518c-0.379,1.694 -2.062,2.763 -3.756,2.384c-1.694,-0.379 -2.763,-2.062 -2.384,-3.756c4.355,-19.491 7.566,-54.482 -7.831,-75.187c-1.036,-1.393 -0.746,-3.365 0.647,-4.402c1.393,-1.036 3.365,-0.746 4.402,0.647c16.459,22.132 13.578,59.478 8.923,80.313Z" style="fill:none;"/><path id="front-left" d="M56.08,508.197c1.036,-1.393 3.008,-1.683 4.402,-0.647c1.393,1.036 1.683,3.008 0.647,4.402c-2.131,2.865 -3.403,8.627 -4.17,15.857c-1.93,18.191 0.074,45.269 5.785,62.913c0.535,1.652 -0.372,3.427 -2.024,3.962c-1.652,0.535 -3.427,-0.372 -3.962,-2.024c-5.947,-18.375 -8.065,-46.571 -6.055,-65.514c0.921,-8.685 2.818,-15.506 5.378,-18.948Z" style="fill:none;"/><path id="front-top" d="M148.888,509.205c1.036,1.393 0.746,3.365 -0.647,4.402c-1.393,1.036 -3.365,0.746 -4.402,-0.647c-5.486,-7.377 -13.416,-12.842 -24.594,-14.978c-16.314,-3.117 -32.084,-0.114 -43.375,4.508c-7.15,2.927 -12.483,6.426 -14.742,9.462c-1.036,1.393 -3.008,1.683 -4.402,0.647c-1.393,-1.036 -1.683,-3.008 -0.647,-4.402c2.692,-3.619 8.884,-8.041 17.407,-11.53c12.218,-5.002 29.285,-8.238 46.939,-4.865c12.95,2.474 22.106,8.857 28.462,17.403Z" style="fill:none;"/><path id="front-bottom" d="M56.757,592.659c-0.535,-1.652 0.372,-3.427 2.024,-3.962c1.652,-0.535 3.427,0.372 3.962,2.024c1.399,4.323 3.012,8.061 4.872,10.901c6.129,9.357 22.309,16.334 38.849,17.482c16.386,1.137 33.356,-3.502 41.314,-18.346c1.095,-2.043 2.542,-6.569 3.892,-12.613c0.379,-1.694 2.062,-2.763 3.756,-2.384c1.694,0.379 2.763,2.062 2.384,3.756c-1.525,6.825 -3.251,11.907 -4.487,14.214c-9.156,17.08 -28.44,22.958 -47.295,21.65c-18.701,-1.298 -36.747,-9.732 -43.676,-20.312c-2.12,-3.238 -3.999,-7.482 -5.595,-12.411Z" style="fill:none;"/></g></g><g id="tooth21-top-view"><path id="tooth21-top-center" d="M88.841,405.991c-4.316,-4.316 -6.988,-10.278 -6.988,-16.859c0,-6.581 2.671,-12.542 6.988,-16.859c4.316,-4.316 10.278,-6.988 16.859,-6.988c6.581,0 12.542,2.671 16.859,6.988c4.316,4.316 6.988,10.278 6.988,16.859c0,6.581 -2.671,12.542 -6.988,16.859c-4.316,4.316 -10.278,6.988 -16.859,6.988c-6.581,0 -12.542,-2.671 -16.859,-6.988Z" style="fill:#fff;"/><path d="M88.017,406.814c-4.527,-4.527 -7.329,-10.78 -7.329,-17.683c0,-6.902 2.802,-13.155 7.329,-17.683c4.527,-4.527 10.78,-7.329 17.683,-7.329c6.902,0 13.155,2.802 17.683,7.329c4.527,4.527 7.329,10.78 7.329,17.683c0,6.902 -2.802,13.155 -7.329,17.683c-4.527,4.527 -10.78,7.329 -17.683,7.329c-6.902,0 -13.155,-2.802 -17.683,-7.329Zm1.648,-1.648c4.106,4.106 9.776,6.647 16.035,6.647c6.259,0 11.929,-2.541 16.035,-6.647c4.106,-4.106 6.647,-9.776 6.647,-16.035c0,-6.259 -2.541,-11.929 -6.647,-16.035c-4.106,-4.106 -9.776,-6.647 -16.035,-6.647c-6.259,0 -11.929,2.541 -16.035,6.647c-4.106,4.106 -6.647,9.776 -6.647,16.035c0,6.259 2.541,11.929 6.647,16.035Z" style="fill:#6b6b6b;"/><path id="tooth21-top-left" d="M66.275,428.557c-10.094,-10.094 -16.341,-24.036 -16.341,-39.425c0,-15.389 6.247,-29.331 16.341,-39.425l22.567,22.567c-4.316,4.316 -6.988,10.278 -6.988,16.859c0,6.581 2.671,12.542 6.988,16.859l-22.567,22.567Z" style="fill:#fff;"/><path d="M65.451,429.381c-10.305,-10.305 -16.683,-24.538 -16.683,-40.249c0,-15.711 6.377,-29.944 16.683,-40.249c0.455,-0.455 1.193,-0.455 1.648,-0l22.567,22.567c0.455,0.455 0.455,1.193 -0,1.648c-4.106,4.106 -6.647,9.776 -6.647,16.035c0,6.259 2.541,11.929 6.647,16.035c0.455,0.455 0.455,1.193 0,1.648l-22.567,22.567c-0.455,0.455 -1.193,0.455 -1.648,-0Zm0.833,-2.48l20.929,-20.929c-4.052,-4.446 -6.524,-10.356 -6.524,-16.84c0,-6.483 2.472,-12.394 6.524,-16.84l-20.929,-20.929c-9.404,9.811 -15.185,23.12 -15.185,37.769c0,14.649 5.782,27.958 15.185,37.769Z" style="fill:#6b6b6b;"/><path id="tooth21-top-top" d="M145.125,428.557c-10.094,10.094 -24.036,16.341 -39.425,16.341c-15.389,0 -29.331,-6.247 -39.425,-16.341l22.567,-22.567c4.316,4.316 10.278,6.988 16.859,6.988c6.581,0 12.542,-2.671 16.859,-6.988l22.567,22.567Z" style="fill:#fff;"/><path d="M145.949,429.381c-10.305,10.305 -24.538,16.683 -40.249,16.683c-15.711,0 -29.944,-6.377 -40.249,-16.683c-0.455,-0.455 -0.455,-1.193 0,-1.648l22.567,-22.567c0.455,-0.455 1.193,-0.455 1.648,-0c4.106,4.106 9.776,6.647 16.035,6.647c6.259,0 11.929,-2.541 16.035,-6.647c0.455,-0.455 1.193,-0.455 1.648,-0l22.567,22.567c0.455,0.455 0.455,1.193 -0,1.648Zm-2.48,-0.833l-20.929,-20.929c-4.446,4.052 -10.356,6.524 -16.84,6.524c-6.483,0 -12.394,-2.472 -16.84,-6.524l-20.929,20.929c9.811,9.404 23.12,15.185 37.769,15.185c14.649,0 27.958,-5.782 37.769,-15.185Z" style="fill:#6b6b6b;"/><path id="tooth21-top-right" d="M145.125,349.707c10.094,10.094 16.341,24.036 16.341,39.425c0,15.389 -6.247,29.331 -16.341,39.425l-22.567,-22.567c4.316,-4.316 6.988,-10.278 6.988,-16.859c0,-6.581 -2.671,-12.542 -6.988,-16.859l22.567,-22.567Z" style="fill:#fff;"/><path d="M145.949,348.883c10.305,10.305 16.683,24.538 16.683,40.249c0,15.711 -6.377,29.944 -16.683,40.249c-0.455,0.455 -1.193,0.455 -1.648,0l-22.567,-22.567c-0.455,-0.455 -0.455,-1.193 0,-1.648c4.106,-4.106 6.647,-9.776 6.647,-16.035c0,-6.259 -2.541,-11.929 -6.647,-16.035c-0.455,-0.455 -0.455,-1.193 0,-1.648l22.567,-22.567c0.455,-0.455 1.193,-0.455 1.648,-0Zm-0.833,2.48l-20.929,20.929c4.052,4.446 6.524,10.356 6.524,16.84c0,6.483 -2.472,12.394 -6.524,16.84l20.929,20.929c9.404,-9.811 15.185,-23.12 15.185,-37.769c0,-14.649 -5.782,-27.958 -15.185,-37.769Z" style="fill:#6b6b6b;"/><path id="tooth21-top-bottom" d="M66.275,349.707c10.094,-10.094 24.036,-16.341 39.425,-16.341c15.389,0 29.331,6.247 39.425,16.341l-22.567,22.567c-4.316,-4.316 -10.278,-6.988 -16.859,-6.988c-6.581,0 -12.542,2.671 -16.859,6.988l-22.567,-22.567Z" style="fill:#fff;"/><path d="M65.451,348.883c10.305,-10.305 24.538,-16.683 40.249,-16.683c15.711,0 29.944,6.377 40.249,16.683c0.455,0.455 0.455,1.193 -0,1.648l-22.567,22.567c-0.455,0.455 -1.193,0.455 -1.648,0c-4.106,-4.106 -9.776,-6.647 -16.035,-6.647c-6.259,0 -11.929,2.541 -16.035,6.647c-0.455,0.455 -1.193,0.455 -1.648,-0l-22.567,-22.567c-0.455,-0.455 -0.455,-1.193 -0,-1.648Zm2.48,0.833l20.929,20.929c4.446,-4.052 10.356,-6.524 16.84,-6.524c6.483,0 12.394,2.472 16.84,6.524l20.929,-20.929c-9.811,-9.404 -23.12,-15.185 -37.769,-15.185c-14.649,0 -27.958,5.782 -37.769,15.185Z" style="fill:#6b6b6b;"/></g><g id="tooth21-back-view"><g id="tooth21-back-view-base-shape"><path id="tooth21-back-view-base-shape" d="M156.623,222.083c4.231,-11.719 2.072,-39.709 -2.884,-58.387c-2.04,-7.689 -5.385,-16.175 -10.443,-22.759c-3.16,-4.113 -6.989,-7.484 -11.586,-9.454c-12.919,-5.537 -41.391,-6.04 -55.484,-1.007c-5.04,1.8 -8.702,6.031 -11.481,11.44c-5.253,10.225 -7.355,24.662 -9.659,34.866c-3.474,15.384 -3.22,34.97 0,47.313c6.04,23.153 39.909,27.355 47.809,27.18c6.25,-0.139 43.916,-2.013 53.728,-29.193Z" style="fill:#fff;"/><path d="M157.609,222.439c-4.027,11.155 -12.608,18.175 -21.889,22.569c-13.746,6.509 -29.003,7.232 -32.803,7.316c-4.818,0.107 -19.142,-1.382 -31.156,-7.679c-8.134,-4.264 -15.196,-10.722 -17.691,-20.284c-3.254,-12.473 -3.518,-32.264 -0.008,-47.809c2.321,-10.279 4.458,-24.816 9.749,-35.115c2.911,-5.667 6.781,-10.063 12.061,-11.949c14.288,-5.103 43.153,-4.583 56.25,1.03c4.76,2.04 8.733,5.52 12.005,9.779c5.141,6.692 8.551,15.313 10.625,23.129c5.009,18.877 7.133,47.167 2.857,59.012Zm-1.973,-0.712c4.186,-11.595 1.992,-39.283 -2.911,-57.762c-2.007,-7.563 -5.286,-15.914 -10.261,-22.389c-3.048,-3.967 -6.733,-7.229 -11.168,-9.129c-12.741,-5.46 -40.82,-5.947 -54.719,-0.983c-4.801,1.715 -8.254,5.779 -10.901,10.932c-5.215,10.15 -7.281,24.488 -9.569,34.618c-3.437,15.223 -3.194,34.604 -0.008,46.818c2.337,8.96 9.013,14.961 16.635,18.956c11.621,6.092 25.475,7.544 30.136,7.44c3.701,-0.082 18.563,-0.775 31.952,-7.115c8.809,-4.171 16.991,-10.798 20.814,-21.386Z" style="fill:#6b6b6b;"/></g><g id="tooth21-accents"><path d="M105.249,226.43c2.266,2.802 8.411,7.843 23.058,6.221c1.244,-0.138 3.131,-0.455 3.403,-0.501c-1.083,0.005 -16.795,0.621 -23.548,-7.008c-1.413,-1.596 -1.162,-2.075 -1.951,-2.451c-0.938,-0.447 -1.649,0.195 -1.754,0.29c-0.51,0.46 -6.371,7.308 -26.132,9.733c-2.603,0.319 -4.596,0.421 -4.997,0.441c1.689,0.122 11.951,0.866 21.104,-1.615c5.848,-1.586 8.959,-3.589 10.818,-5.111Z" style="fill:#6b6b6b;"/><path d="M102.489,240.593c-0.018,-0.031 -0.446,-0.469 -0.226,-2.157c0.575,-4.407 4.189,-12.514 4.187,-12.531c-0.078,-0.622 -0.445,-1.146 -0.523,-1.768c-0.441,0.36 -0.992,0.464 -1.433,0.824c-0.001,0.001 -2.002,7.085 -2.446,11.733c-0.314,3.288 0.303,3.726 0.441,3.899Z" style="fill:#6b6b6b;"/></g><g id="tooth21-back-view-statuses"><path id="back-left" serif:id="back-left" d="M61.872,140.441c0.815,-1.586 2.763,-2.211 4.349,-1.397c1.586,0.815 2.211,2.763 1.397,4.349c-5.135,9.995 -7.129,24.126 -9.381,34.102c-3.362,14.887 -3.141,33.842 -0.025,45.787c0.45,1.725 -0.585,3.49 -2.31,3.94c-1.725,0.45 -3.49,-0.585 -3.94,-2.31c-3.324,-12.742 -3.611,-32.96 -0.025,-48.84c2.356,-10.433 4.566,-25.177 9.936,-35.631Z" style="fill:none;"/><path id="back-right" serif:id="back-right" d="M159.661,223.18c-0.605,1.677 -2.458,2.546 -4.135,1.941c-1.677,-0.605 -2.546,-2.458 -1.941,-4.135c4.092,-11.335 1.825,-38.397 -2.968,-56.462c-1.937,-7.299 -5.08,-15.37 -9.882,-21.62c-1.086,-1.414 -0.82,-3.443 0.594,-4.529c1.414,-1.086 3.443,-0.82 4.529,0.594c5.315,6.918 8.86,15.82 11.003,23.899c5.118,19.291 7.17,48.208 2.8,60.312Z" style="fill:none;"/><path id="back-top" serif:id="back-top" d="M145.857,138.97c1.086,1.414 0.82,3.443 -0.594,4.529c-1.414,1.086 -3.443,0.82 -4.529,-0.594c-2.815,-3.664 -6.201,-6.698 -10.297,-8.453c-12.37,-5.301 -39.632,-5.753 -53.126,-0.934c-4.303,1.537 -7.322,5.256 -9.695,9.875c-0.815,1.586 -2.763,2.211 -4.349,1.397c-1.586,-0.815 -2.211,-2.763 -1.397,-4.349c3.186,-6.201 7.49,-10.942 13.268,-13.006c14.693,-5.247 44.375,-4.692 57.843,1.08c5.099,2.185 9.37,5.893 12.875,10.455Z" style="fill:none;"/><path id="back-bottom" serif:id="back-bottom" d="M51.96,224.912c-0.45,-1.725 0.585,-3.49 2.31,-3.94c1.725,-0.45 3.49,0.585 3.94,2.31c2.174,8.334 8.448,13.859 15.537,17.575c11.213,5.878 24.577,7.291 29.075,7.191c3.598,-0.08 18.05,-0.742 31.067,-6.906c8.318,-3.939 16.086,-10.157 19.696,-20.156c0.605,-1.677 2.458,-2.546 4.135,-1.941c1.677,0.605 2.546,2.458 1.941,4.135c-4.24,11.745 -13.236,19.173 -23.007,23.8c-14.118,6.685 -29.785,7.439 -33.687,7.525c-4.982,0.111 -19.796,-1.417 -32.217,-7.928c-8.667,-4.543 -16.131,-11.477 -18.789,-21.665Z" style="fill:none;"/></g></g></g><rect id="base1" serif:id="base" x="0" y="0" width="211.4" height="855.667" style="fill:none;"/></g></svg>