<?xml version="1.0" encoding="UTF-8" standalone="no"?><!DOCTYPE svg PUBLIC "-//W3C//DTD SVG 1.1//EN" "http://www.w3.org/Graphics/SVG/1.1/DTD/svg11.dtd"><svg width="100%" height="100%" viewBox="0 0 212 856" version="1.1" xmlns="http://www.w3.org/2000/svg" xmlns:xlink="http://www.w3.org/1999/xlink" xml:space="preserve" xmlns:serif="http://www.serif.com/" style="fill-rule:evenodd;clip-rule:evenodd;stroke-linejoin:round;stroke-miterlimit:2;"><g id="tooth20"><g id="tooth20-column"><rect id="base" x="0" y="25.167" width="211.4" height="805.333" style="fill:none;"/><g id="tooth20-front-view"><g id="tooth-20-front-base-shape"><path id="tooth13-front-view-shapes-root" d="M150.525,589.991c0,0 -11.76,50.102 -19.127,114.089c-7.366,63.988 -24.506,222.02 -43.287,112.836c-18.78,-109.184 2.475,-177.573 -26.173,-230.686c0,0 46.984,48.564 88.587,3.761Z" style="fill:#fff;"/><path id="tooth13-front-view-shapes-root1" serif:id="tooth13-front-view-shapes-root" d="M151.532,590.358c0,0 -11.74,50.022 -19.095,113.908c-4.431,38.486 -12.409,110.904 -22.133,139.045c-1.624,4.7 -3.319,8.2 -5.03,10.199c-1.345,1.571 -2.735,2.277 -4.119,2.141c-1.917,-0.189 -3.983,-2.119 -5.968,-6.465c-2.643,-5.788 -5.364,-16.084 -8.101,-31.995c-11.283,-65.594 -8.143,-116.482 -10.014,-158.186c-1.235,-27.513 -4.649,-50.995 -16.004,-72.046c-0.291,-0.539 -0.219,-1.262 0.167,-1.697c0.387,-0.435 0.972,-0.451 1.373,-0.036c0,0 46.264,47.896 87.231,3.778c0.352,-0.379 0.862,-0.424 1.253,-0.111c0.391,0.313 0.57,0.909 0.44,1.465Zm-2.924,3.3c-33.832,33.214 -70.446,8.11 -82.904,-2.386c9.279,19.946 12.316,42.054 13.462,67.586c1.867,41.597 -1.283,92.357 9.971,157.784c2.962,17.22 5.85,27.711 8.696,32.903c1.098,2.003 2.131,3.166 3.201,3.448c0.883,0.233 1.734,-0.227 2.591,-1.15c1.636,-1.761 3.203,-5.082 4.752,-9.566c9.677,-28.004 17.574,-100.083 21.983,-138.383c6.145,-53.382 15.345,-97.115 18.247,-110.238Z" style="fill:#6b6b6b;"/><path id="tooth-20-front-base-shape" d="M150.525,597.536c4.85,-8.039 16.978,-56.516 -4.596,-81.485c-5.903,-6.832 -14.33,-11.904 -26.119,-13.905c-28.307,-4.806 -55.043,6.098 -61.231,13.491c-9.224,11.02 -6.678,65.162 6.38,82.877c13.058,17.715 68.453,27.387 85.567,-0.978Z" style="fill:#fff;"/><path id="tooth13-front-view-shape1" serif:id="tooth-20-front-base-shape" d="M151.423,598.078c-8.751,14.504 -27.247,19.385 -45.267,18.274c-17.969,-1.108 -35.384,-8.182 -42.042,-17.216c-7.927,-10.754 -12.09,-34.763 -12.084,-54.668c0.002,-7.964 0.667,-15.268 2,-20.801c0.925,-3.839 2.19,-6.846 3.744,-8.703c2.547,-3.043 8.455,-6.705 16.52,-9.639c11.893,-4.326 28.506,-7.13 45.691,-4.213c12.072,2.05 20.692,7.258 26.737,14.253c10.961,12.686 13.417,31.329 12.461,47.837c-0.955,16.477 -5.3,30.798 -7.76,34.875Zm-1.796,-1.083c2.39,-3.962 6.534,-17.899 7.462,-33.913c0.926,-15.983 -1.341,-34.062 -11.954,-46.345c-5.762,-6.668 -13.994,-11.603 -25.501,-13.557c-16.783,-2.849 -33.008,-0.109 -44.623,4.116c-7.607,2.767 -13.226,6.143 -15.629,9.014c-1.397,1.67 -2.482,4.396 -3.313,7.848c-1.302,5.402 -1.94,12.535 -1.942,20.31c-0.006,19.442 3.932,42.919 11.675,53.424c6.4,8.682 23.212,15.302 40.483,16.367c17.221,1.062 34.979,-3.403 43.342,-17.264Z" style="fill:#6b6b6b;"/></g><g id="tooth20-front-view-accents"><path d="M116.253,512.024c-3.263,3.117 -7.529,5.873 -21.704,7.521c-3.466,0.403 -11.319,1.067 -19.526,0.492c19.586,3.845 29.041,0.02 30.976,-0.715c6.618,-2.516 9.169,-5.822 10.254,-7.298Z" style="fill:#6b6b6b;"/><path d="M136.125,518.986c-5.771,-1.288 -20.958,-4.336 -28.941,5.56c-1.506,1.867 -2.866,4.609 -3.115,7.019c2.763,-7.894 12.096,-10.536 12.434,-10.653c7.781,-2.681 15.918,-2.172 19.622,-1.927Z" style="fill:#6b6b6b;"/></g><g id="tooth20-front-view-statuses"><path id="front-left" d="M56.166,513.618c1.114,-1.331 3.1,-1.508 4.431,-0.393c1.331,1.114 1.508,3.1 0.393,4.431c-1.241,1.482 -2.144,3.928 -2.883,6.993c-1.27,5.272 -1.881,12.233 -1.883,19.82c-0.005,18.979 3.708,41.925 11.266,52.179c1.03,1.398 0.732,3.369 -0.666,4.399c-1.398,1.03 -3.369,0.732 -4.399,-0.666c-8.112,-11.005 -12.499,-35.544 -12.493,-55.913c0.002,-8.152 0.694,-15.628 2.059,-21.292c1.018,-4.226 2.464,-7.514 4.175,-9.558Z" style="fill:none;"/><path id="front-right" d="M153.219,599.161c-0.897,1.487 -2.832,1.965 -4.319,1.068c-1.487,-0.897 -1.965,-2.832 -1.068,-4.319c2.321,-3.848 6.263,-17.4 7.164,-32.951c0.896,-15.458 -1.183,-32.973 -11.447,-44.852c-1.135,-1.314 -0.99,-3.302 0.324,-4.437c1.314,-1.135 3.302,-0.99 4.437,0.324c11.31,13.089 13.955,32.297 12.967,49.33c-0.982,16.94 -5.529,31.646 -8.058,35.837Z" style="fill:none;"/><path id="front-top" d="M148.309,513.995c1.135,1.314 0.99,3.302 -0.324,4.437c-1.314,1.135 -3.302,0.99 -4.437,-0.324c-5.479,-6.341 -13.323,-11.003 -24.265,-12.861c-16.382,-2.781 -32.218,-0.105 -43.555,4.019c-7.15,2.601 -12.479,5.691 -14.737,8.389c-1.114,1.331 -3.1,1.508 -4.431,0.393c-1.331,-1.114 -1.508,-3.1 -0.393,-4.431c2.056,-2.457 6.112,-5.337 11.697,-7.919c12.196,-5.637 31.935,-10.141 52.473,-6.654c12.637,2.145 21.645,7.627 27.973,14.95Z" style="fill:none;"/><path id="front-bottom" d="M62.426,600.381c-1.03,-1.398 -0.732,-3.369 0.666,-4.399c1.398,-1.03 3.369,-0.732 4.399,0.666c6.141,8.332 22.35,14.496 38.924,15.518c16.423,1.013 33.441,-3.035 41.417,-16.254c0.897,-1.487 2.832,-1.965 4.319,-1.068c1.487,0.897 1.965,2.832 1.068,4.319c-9.138,15.147 -28.373,20.445 -47.191,19.284c-18.667,-1.151 -36.684,-8.68 -43.601,-18.064Z" style="fill:none;"/></g></g><g id="tooth20-top-view"><path id="tooth20-top-center" d="M88.841,405.991c-4.316,-4.316 -6.988,-10.278 -6.988,-16.859c0,-6.581 2.671,-12.542 6.988,-16.859c4.316,-4.316 10.278,-6.988 16.859,-6.988c6.581,0 12.542,2.671 16.859,6.988c4.316,4.316 6.988,10.278 6.988,16.859c0,6.581 -2.671,12.542 -6.988,16.859c-4.316,4.316 -10.278,6.988 -16.859,6.988c-6.581,0 -12.542,-2.671 -16.859,-6.988Z" style="fill:#fff;"/><path d="M88.017,406.814c-4.527,-4.527 -7.329,-10.78 -7.329,-17.683c0,-6.902 2.802,-13.155 7.329,-17.683c4.527,-4.527 10.78,-7.329 17.683,-7.329c6.902,0 13.155,2.802 17.683,7.329c4.527,4.527 7.329,10.78 7.329,17.683c0,6.902 -2.802,13.155 -7.329,17.683c-4.527,4.527 -10.78,7.329 -17.683,7.329c-6.902,0 -13.155,-2.802 -17.683,-7.329Zm1.648,-1.648c4.106,4.106 9.776,6.647 16.035,6.647c6.259,0 11.929,-2.541 16.035,-6.647c4.106,-4.106 6.647,-9.776 6.647,-16.035c0,-6.259 -2.541,-11.929 -6.647,-16.035c-4.106,-4.106 -9.776,-6.647 -16.035,-6.647c-6.259,0 -11.929,2.541 -16.035,6.647c-4.106,4.106 -6.647,9.776 -6.647,16.035c0,6.259 2.541,11.929 6.647,16.035Z" style="fill:#6b6b6b;"/><path id="tooth20-top-left" d="M66.275,428.557c-10.094,-10.094 -16.341,-24.036 -16.341,-39.425c0,-15.389 6.247,-29.331 16.341,-39.425l22.567,22.567c-4.316,4.316 -6.988,10.278 -6.988,16.859c0,6.581 2.671,12.542 6.988,16.859l-22.567,22.567Z" style="fill:#fff;"/><path d="M65.451,429.381c-10.305,-10.305 -16.683,-24.538 -16.683,-40.249c0,-15.711 6.377,-29.944 16.683,-40.249c0.455,-0.455 1.193,-0.455 1.648,-0l22.567,22.567c0.455,0.455 0.455,1.193 -0,1.648c-4.106,4.106 -6.647,9.776 -6.647,16.035c0,6.259 2.541,11.929 6.647,16.035c0.455,0.455 0.455,1.193 0,1.648l-22.567,22.567c-0.455,0.455 -1.193,0.455 -1.648,-0Zm0.833,-2.48l20.929,-20.929c-4.052,-4.446 -6.524,-10.356 -6.524,-16.84c0,-6.483 2.472,-12.394 6.524,-16.84l-20.929,-20.929c-9.404,9.811 -15.185,23.12 -15.185,37.769c0,14.649 5.782,27.958 15.185,37.769Z" style="fill:#6b6b6b;"/><path id="tooth20-top-top" d="M145.125,428.557c-10.094,10.094 -24.036,16.341 -39.425,16.341c-15.389,0 -29.331,-6.247 -39.425,-16.341l22.567,-22.567c4.316,4.316 10.278,6.988 16.859,6.988c6.581,0 12.542,-2.671 16.859,-6.988l22.567,22.567Z" style="fill:#fff;"/><path d="M145.949,429.381c-10.305,10.305 -24.538,16.683 -40.249,16.683c-15.711,0 -29.944,-6.377 -40.249,-16.683c-0.455,-0.455 -0.455,-1.193 0,-1.648l22.567,-22.567c0.455,-0.455 1.193,-0.455 1.648,-0c4.106,4.106 9.776,6.647 16.035,6.647c6.259,0 11.929,-2.541 16.035,-6.647c0.455,-0.455 1.193,-0.455 1.648,-0l22.567,22.567c0.455,0.455 0.455,1.193 -0,1.648Zm-2.48,-0.833l-20.929,-20.929c-4.446,4.052 -10.356,6.524 -16.84,6.524c-6.483,0 -12.394,-2.472 -16.84,-6.524l-20.929,20.929c9.811,9.404 23.12,15.185 37.769,15.185c14.649,0 27.958,-5.782 37.769,-15.185Z" style="fill:#6b6b6b;"/><path id="tooth20-top-right" d="M145.125,349.707c10.094,10.094 16.341,24.036 16.341,39.425c0,15.389 -6.247,29.331 -16.341,39.425l-22.567,-22.567c4.316,-4.316 6.988,-10.278 6.988,-16.859c0,-6.581 -2.671,-12.542 -6.988,-16.859l22.567,-22.567Z" style="fill:#fff;"/><path d="M145.949,348.883c10.305,10.305 16.683,24.538 16.683,40.249c0,15.711 -6.377,29.944 -16.683,40.249c-0.455,0.455 -1.193,0.455 -1.648,0l-22.567,-22.567c-0.455,-0.455 -0.455,-1.193 0,-1.648c4.106,-4.106 6.647,-9.776 6.647,-16.035c0,-6.259 -2.541,-11.929 -6.647,-16.035c-0.455,-0.455 -0.455,-1.193 0,-1.648l22.567,-22.567c0.455,-0.455 1.193,-0.455 1.648,-0Zm-0.833,2.48l-20.929,20.929c4.052,4.446 6.524,10.356 6.524,16.84c0,6.483 -2.472,12.394 -6.524,16.84l20.929,20.929c9.404,-9.811 15.185,-23.12 15.185,-37.769c0,-14.649 -5.782,-27.958 -15.185,-37.769Z" style="fill:#6b6b6b;"/><path id="tooth20-top-bottom" d="M66.275,349.707c10.094,-10.094 24.036,-16.341 39.425,-16.341c15.389,0 29.331,6.247 39.425,16.341l-22.567,22.567c-4.316,-4.316 -10.278,-6.988 -16.859,-6.988c-6.581,0 -12.542,2.671 -16.859,6.988l-22.567,-22.567Z" style="fill:#fff;"/><path d="M65.451,348.883c10.305,-10.305 24.538,-16.683 40.249,-16.683c15.711,0 29.944,6.377 40.249,16.683c0.455,0.455 0.455,1.193 -0,1.648l-22.567,22.567c-0.455,0.455 -1.193,0.455 -1.648,0c-4.106,-4.106 -9.776,-6.647 -16.035,-6.647c-6.259,0 -11.929,2.541 -16.035,6.647c-0.455,0.455 -1.193,0.455 -1.648,-0l-22.567,-22.567c-0.455,-0.455 -0.455,-1.193 -0,-1.648Zm2.48,0.833l20.929,20.929c4.446,-4.052 10.356,-6.524 16.84,-6.524c6.483,0 12.394,2.472 16.84,6.524l20.929,-20.929c-9.811,-9.404 -23.12,-15.185 -37.769,-15.185c-14.649,0 -27.958,5.782 -37.769,15.185Z" style="fill:#6b6b6b;"/></g><g id="tooth20-back-view"><g id="tooth20-back-view-base-shape"><path id="tooth20-back-view-base-shape" d="M156.623,222.083c4.231,-11.719 2.072,-39.709 -2.884,-58.387c-2.04,-7.689 -5.385,-16.175 -10.443,-22.759c-3.16,-4.113 -6.989,-7.484 -11.586,-9.454c-12.919,-5.537 -41.391,-6.04 -55.484,-1.007c-5.04,1.8 -8.702,6.031 -11.481,11.44c-5.253,10.225 -7.355,24.662 -9.659,34.866c-3.474,15.384 -3.22,34.97 0,47.313c6.04,23.153 39.909,27.355 47.809,27.18c6.25,-0.139 43.916,-2.013 53.728,-29.193Z" style="fill:#fff;"/><path d="M157.609,222.439c-4.027,11.155 -12.608,18.175 -21.889,22.569c-13.746,6.509 -29.003,7.232 -32.803,7.316c-4.818,0.107 -19.142,-1.382 -31.156,-7.679c-8.134,-4.264 -15.196,-10.722 -17.691,-20.284c-3.254,-12.473 -3.518,-32.264 -0.008,-47.809c2.321,-10.279 4.458,-24.816 9.749,-35.115c2.911,-5.667 6.781,-10.063 12.061,-11.949c14.288,-5.103 43.153,-4.583 56.25,1.03c4.76,2.04 8.733,5.52 12.005,9.779c5.141,6.692 8.551,15.313 10.625,23.129c5.009,18.877 7.133,47.167 2.857,59.012Zm-1.973,-0.712c4.186,-11.595 1.992,-39.283 -2.911,-57.762c-2.007,-7.563 -5.286,-15.914 -10.261,-22.389c-3.048,-3.967 -6.733,-7.229 -11.168,-9.129c-12.741,-5.46 -40.82,-5.947 -54.719,-0.983c-4.801,1.715 -8.254,5.779 -10.901,10.932c-5.215,10.15 -7.281,24.488 -9.569,34.618c-3.437,15.223 -3.194,34.604 -0.008,46.818c2.337,8.96 9.013,14.961 16.635,18.956c11.621,6.092 25.475,7.544 30.136,7.44c3.701,-0.082 18.563,-0.775 31.952,-7.115c8.809,-4.171 16.991,-10.798 20.814,-21.386Z" style="fill:#6b6b6b;"/></g><g id="tooth20-back-view-accents"><path d="M105.249,226.43c2.266,2.802 8.411,7.843 23.058,6.221c1.244,-0.138 3.131,-0.455 3.403,-0.501c-1.083,0.005 -16.795,0.621 -23.548,-7.008c-1.413,-1.596 -1.162,-2.075 -1.951,-2.451c-0.938,-0.447 -1.649,0.195 -1.754,0.29c-0.51,0.46 -6.371,7.308 -26.132,9.733c-2.603,0.319 -4.596,0.421 -4.997,0.441c1.689,0.122 11.951,0.866 21.104,-1.615c5.848,-1.586 8.959,-3.589 10.818,-5.111Z" style="fill:#6b6b6b;"/><path d="M102.537,240.593c-0.018,-0.031 -0.446,-0.469 -0.226,-2.157c0.575,-4.407 4.189,-12.514 4.187,-12.531c-0.078,-0.622 -0.445,-1.146 -0.523,-1.768c-0.441,0.36 -0.992,0.464 -1.433,0.824c-0.001,0.001 -2.002,7.085 -2.446,11.733c-0.314,3.288 0.303,3.726 0.441,3.899Z" style="fill:#6b6b6b;"/></g><g id="tooth20-back-view-satuses"><path id="back-left" serif:id="back-left" d="M61.872,140.441c0.815,-1.586 2.763,-2.211 4.349,-1.397c1.586,0.815 2.211,2.763 1.397,4.349c-5.135,9.995 -7.129,24.126 -9.381,34.102c-3.362,14.887 -3.141,33.842 -0.025,45.787c0.45,1.725 -0.585,3.49 -2.31,3.94c-1.725,0.45 -3.49,-0.585 -3.94,-2.31c-3.324,-12.742 -3.611,-32.96 -0.025,-48.84c2.356,-10.433 4.566,-25.177 9.936,-35.631Z" style="fill:none;"/><path id="back-right" serif:id="back-right" d="M159.661,223.18c-0.605,1.677 -2.458,2.546 -4.135,1.941c-1.677,-0.605 -2.546,-2.458 -1.941,-4.135c4.092,-11.335 1.825,-38.397 -2.968,-56.462c-1.937,-7.299 -5.08,-15.37 -9.882,-21.62c-1.086,-1.414 -0.82,-3.443 0.594,-4.529c1.414,-1.086 3.443,-0.82 4.529,0.594c5.315,6.918 8.86,15.82 11.003,23.899c5.118,19.291 7.17,48.208 2.8,60.312Z" style="fill:none;"/><path id="back-top" serif:id="back-top" d="M145.857,138.97c1.086,1.414 0.82,3.443 -0.594,4.529c-1.414,1.086 -3.443,0.82 -4.529,-0.594c-2.815,-3.664 -6.201,-6.698 -10.297,-8.453c-12.37,-5.301 -39.632,-5.753 -53.126,-0.934c-4.303,1.537 -7.322,5.256 -9.695,9.875c-0.815,1.586 -2.763,2.211 -4.349,1.397c-1.586,-0.815 -2.211,-2.763 -1.397,-4.349c3.186,-6.201 7.49,-10.942 13.268,-13.006c14.693,-5.247 44.375,-4.692 57.843,1.08c5.099,2.185 9.37,5.893 12.875,10.455Z" style="fill:none;"/><path id="back-bottom" serif:id="back-bottom" d="M51.96,224.912c-0.45,-1.725 0.585,-3.49 2.31,-3.94c1.725,-0.45 3.49,0.585 3.94,2.31c2.174,8.334 8.448,13.859 15.537,17.575c11.213,5.878 24.577,7.291 29.075,7.191c3.598,-0.08 18.05,-0.742 31.067,-6.906c8.318,-3.939 16.086,-10.157 19.696,-20.156c0.605,-1.677 2.458,-2.546 4.135,-1.941c1.677,0.605 2.546,2.458 1.941,4.135c-4.24,11.745 -13.236,19.173 -23.007,23.8c-14.118,6.685 -29.785,7.439 -33.687,7.525c-4.982,0.111 -19.796,-1.417 -32.217,-7.928c-8.667,-4.543 -16.131,-11.477 -18.789,-21.665Z" style="fill:none;"/></g></g></g><rect id="base1" serif:id="base" x="0" y="0" width="211.4" height="855.667" style="fill:none;"/></g></svg>