<?xml version="1.0" encoding="UTF-8" standalone="no"?><!DOCTYPE svg PUBLIC "-//W3C//DTD SVG 1.1//EN" "http://www.w3.org/Graphics/SVG/1.1/DTD/svg11.dtd"><svg width="100%" height="100%" viewBox="0 0 212 856" version="1.1" xmlns="http://www.w3.org/2000/svg" xmlns:xlink="http://www.w3.org/1999/xlink" xml:space="preserve" xmlns:serif="http://www.serif.com/" style="fill-rule:evenodd;clip-rule:evenodd;stroke-linejoin:round;stroke-miterlimit:2;"><g id="tooth18"><g id="tooth18-column"><rect id="base" x="0" y="25.167" width="211.4" height="805.333" style="fill:none;"/><g id="tooth18-front-view"><g id="tooth-18-front-base-shape"><path id="tooth15-front-view-shape-root1" d="M37.481,606.256c8.211,4.673 16.96,6.1 58.824,8.143c30.474,1.487 55.93,-2.313 76.107,-7.513c6.71,113.508 -25.338,176.425 -37.867,198.296c-5.457,9.527 -8.477,7.654 -9.748,7.15c-16.849,-6.686 13.634,-130.739 -15.843,-139.611c-31.676,-9.534 -18.404,158.115 -47.313,135.946c-28.91,-22.169 -24.16,-202.409 -24.16,-202.409c-0,-0.001 -0,-0.002 -0.001,-0.003Z" style="fill:#fff;"/><path id="tooth15-front-view-shape-root11" serif:id="tooth15-front-view-shape-root1" d="M36.433,606.197c0.01,-0.393 0.118,-0.775 0.311,-1.061c0.292,-0.432 0.725,-0.569 1.108,-0.351c8.164,4.646 16.865,6.011 58.487,8.042c30.389,1.483 55.775,-2.306 75.895,-7.491c0.289,-0.074 0.585,0.036 0.817,0.304c0.232,0.268 0.379,0.67 0.405,1.108c6.75,114.181 -25.513,177.46 -38.116,199.461c-3.556,6.209 -6.212,7.845 -8.024,8.134c-1.286,0.205 -2.2,-0.255 -2.788,-0.488c-3.032,-1.203 -4.856,-5.631 -5.657,-12.521c-1.079,-9.289 -0.42,-23.245 0.514,-38.619c1.377,-22.659 3.344,-48.451 0.886,-66.602c-1.554,-11.471 -4.863,-19.842 -11.524,-21.847c-7.116,-2.142 -11.674,5.528 -15.07,17.742c-5.421,19.494 -7.722,50.494 -10.987,75.937c-1.848,14.407 -4.017,27.056 -7.168,34.989c-1.693,4.263 -3.687,7.207 -6.016,8.53c-2.374,1.349 -5.127,1.072 -8.343,-1.394c-3.626,-2.78 -6.767,-7.908 -9.449,-14.836c-3.895,-10.062 -6.85,-23.969 -9.067,-39.737c-8.542,-60.752 -6.214,-149.299 -6.214,-149.299Zm2.047,2.277c-0.288,13.843 -1.495,91.503 6.219,146.372c2.164,15.394 5.026,28.984 8.829,38.806c2.45,6.329 5.278,11.074 8.59,13.614c2.566,1.968 4.752,2.329 6.646,1.253c1.941,-1.102 3.546,-3.645 4.957,-7.198c3.058,-7.698 5.117,-19.993 6.911,-33.973c3.291,-25.653 5.645,-56.898 11.111,-76.553c3.861,-13.887 9.328,-22.051 17.418,-19.616c6.282,1.891 10.056,8.619 12.141,18.345c2.969,13.85 2.465,33.951 1.354,53.953c-1.093,19.682 -2.76,39.266 -2.101,52.502c0.21,4.214 0.651,7.76 1.454,10.406c0.698,2.298 1.665,3.874 3.056,4.426c0.429,0.17 1.091,0.551 2.03,0.401c1.525,-0.243 3.662,-1.831 6.655,-7.056c12.392,-21.633 43.968,-83.668 37.715,-195.433c-20.052,5.066 -45.199,8.712 -75.194,7.248c-39.794,-1.942 -49.836,-3.379 -57.791,-7.498Z" style="fill:#6b6b6b;"/><path id="tooth-18-front-base-shape" d="M172.44,618.71c0.013,0.139 -32.213,7.047 -76.07,5.425c-41.858,-1.548 -50.613,-2.312 -58.824,-5.427c-17.977,-49.463 -18.029,-78.55 -9.515,-95.129c19.051,-37.096 80.989,-11.575 80.989,-11.575c45.064,-12.878 66.345,-3.654 74.973,13.774c7.725,15.604 5.307,37.784 0.734,56.563c-4.905,20.142 -12.287,36.37 -12.287,36.37Z" style="fill:#fff;"/><path id="tooth15-front-view-shape1" serif:id="tooth-18-front-base-shape" d="M173.405,619.082l-0.106,0.23l-0.178,0.196l-0.273,0.17c-0.069,0.03 -0.449,0.14 -1.13,0.286c-5.625,1.21 -35.779,6.683 -75.386,5.218c-42.097,-1.557 -50.899,-2.362 -59.158,-5.494c-0.285,-0.108 -0.509,-0.335 -0.614,-0.622c-18.133,-49.891 -18.05,-79.244 -9.462,-95.967c7.814,-15.215 22.632,-20.216 37.639,-20.669c20.572,-0.621 41.445,7.321 44.339,8.466c45.6,-12.952 67.102,-3.266 75.856,14.415c7.823,15.801 5.444,38.261 0.813,57.276c-4.93,20.246 -12.352,36.556 -12.352,36.556l0.011,-0.062Zm-1.903,-0.842c-0.103,0.201 -0.122,0.394 -0.106,0.565c-0.016,-0.181 0.015,-0.363 0.09,-0.529c0,0 0.006,-0.012 0.016,-0.036Zm0.186,-0.417c1.213,-2.748 7.619,-17.655 12.021,-35.731c4.515,-18.541 6.973,-40.442 -0.655,-55.85c-8.48,-17.129 -29.452,-25.888 -73.745,-13.231c-0.227,0.065 -0.469,0.051 -0.688,-0.039c0,0 -22.08,-9.102 -43.82,-8.446c-14.264,0.431 -28.41,5.069 -35.837,19.531c-8.415,16.385 -8.255,45.079 9.403,93.838c8.045,2.956 17.186,3.681 58.042,5.192c39.334,1.455 69.281,-3.971 74.868,-5.173c0.15,-0.032 0.29,-0.064 0.411,-0.092Z" style="fill:#6b6b6b;"/></g><g id="tooth18-accents"><path d="M104.954,545.333c14.66,-27.12 44.308,-14.889 51.314,-11.087c-12.016,-4.641 -29.734,-6.466 -43.205,3.153c-4.476,3.196 -7.352,6.974 -8.109,7.933Z" style="fill:#6b6b6b;"/><path d="M60.661,529.354c8.975,-1.813 20.482,-1.913 29.686,1.622c3.117,1.197 8.978,2.935 15.353,-3.171c2.537,-2.43 4.023,-5.141 4.296,-5.638c-3.525,9.655 -11.397,14.957 -20.634,11.351c-0.851,-0.332 -11.297,-4.864 -26.655,-4.287c-1.026,0.039 -1.023,0.044 -2.045,0.123Z" style="fill:#6b6b6b;"/></g><g id="tooth18-statuses"><path id="front-right" d="M181.109,526.276c-0.77,-1.556 -0.133,-3.445 1.423,-4.215c1.556,-0.77 3.445,-0.133 4.215,1.423c8.018,16.195 5.717,39.213 0.971,58.703c-4.98,20.452 -12.48,36.929 -12.48,36.929c-0.719,1.58 -2.586,2.28 -4.166,1.561c-1.58,-0.719 -2.28,-2.586 -1.561,-4.166c0,0 7.265,-15.98 12.094,-35.812c4.399,-18.067 6.936,-39.41 -0.497,-54.423Z" style="fill:none;"/><path id="front-left" d="M40.438,616.737c0.593,1.632 -0.25,3.438 -1.882,4.031c-1.632,0.593 -3.438,-0.25 -4.031,-1.882c-18.444,-50.748 -18.092,-80.631 -9.356,-97.641c0.793,-1.544 2.691,-2.154 4.236,-1.361c1.544,0.793 2.154,2.691 1.361,4.236c-8.293,16.149 -7.837,44.439 9.673,92.618Z" style="fill:none;"/><path id="front-top" d="M30.765,524.119c-0.793,1.544 -2.691,2.154 -4.236,1.361c-1.544,-0.793 -2.154,-2.691 -1.361,-4.236c8.201,-15.969 23.691,-21.332 39.441,-21.807c19.762,-0.597 39.797,6.553 44.507,8.354c46.678,-13.096 68.624,-2.498 77.63,15.693c0.77,1.556 0.133,3.445 -1.423,4.215c-1.556,0.77 -3.445,0.133 -4.215,-1.423c-8.185,-16.533 -28.537,-24.362 -71.289,-12.145c-0.681,0.195 -1.408,0.154 -2.063,-0.116c0,0 -21.645,-8.932 -42.957,-8.289c-13.52,0.408 -26.995,4.685 -34.035,18.393Z" style="fill:none;"/><path id="front-bottom" d="M171.373,614.831c0.228,-0.076 0.468,-0.128 0.718,-0.15c1.729,-0.156 3.26,1.121 3.416,2.85l-0.027,0.78l-0.282,0.889l-0.63,0.87l-0.718,0.525l-1.235,0.41c-2.808,0.646 -17.996,3.593 -40.347,4.945c-10.597,0.641 -22.811,0.925 -36.08,0.434c-42.576,-1.574 -51.472,-2.461 -59.824,-5.629c-1.623,-0.616 -2.441,-2.434 -1.826,-4.057c0.616,-1.623 2.434,-2.441 4.057,-1.826c8.07,3.061 16.686,3.703 57.825,5.225c39.061,1.444 68.801,-3.934 74.349,-5.127c0.247,-0.053 0.488,-0.11 0.603,-0.137Z" style="fill:none;"/></g></g><g id="tooth18-top-view"><g id="tooth18-top-view-statuses"><ellipse id="tooth18-top-center" cx="105.7" cy="393.354" rx="50.872" ry="50.392" style="fill:#fff;"/><path d="M105.7,341.914c28.658,0 51.92,23.052 51.92,51.44c0,28.388 -23.262,51.44 -51.92,51.44c-28.658,0 -51.92,-23.052 -51.92,-51.44c0,-28.388 23.262,-51.44 51.92,-51.44Zm0,2.097c-27.495,0 -49.823,22.107 -49.823,49.343c0,27.236 22.328,49.343 49.823,49.343c27.495,0 49.823,-22.107 49.823,-49.343c0,-27.236 -22.328,-49.343 -49.823,-49.343Z" style="fill:#6b6b6b;"/><path id="tooth18-top-left" d="M47.342,451.712c-14.942,-14.942 -24.189,-35.578 -24.189,-58.358c0,-22.779 9.247,-43.416 24.189,-58.358l22.564,22.564c-9.309,9.134 -15.078,21.802 -15.078,35.794c0,13.992 5.769,26.659 15.078,35.794l-22.564,22.564Z" style="fill:#fff;"/><path d="M46.601,452.453c-15.132,-15.132 -24.496,-36.031 -24.496,-59.099c0,-23.069 9.364,-43.968 24.496,-59.099c0.41,-0.41 1.073,-0.41 1.483,0l22.564,22.564c0.198,0.198 0.308,0.467 0.307,0.746c-0.001,0.28 -0.114,0.548 -0.314,0.743c-9.114,8.944 -14.764,21.346 -14.764,35.045c0,13.699 5.65,26.102 14.764,35.045c0.2,0.196 0.313,0.464 0.314,0.743c0.001,0.28 -0.109,0.549 -0.307,0.746l-22.564,22.564c-0.41,0.41 -1.073,0.41 -1.483,0Zm0.746,-2.229l21.077,-21.077c-9.063,-9.263 -14.644,-21.888 -14.644,-35.793c0,-13.906 5.581,-26.53 14.644,-35.793l-21.077,-21.077c-14.319,14.689 -23.145,34.757 -23.145,56.87c0,22.113 8.826,42.181 23.145,56.87Z" style="fill:#6b6b6b;"/><path id="tooth18-top-top" d="M164.058,451.712c-14.942,14.942 -35.578,24.189 -58.358,24.189c-22.779,0 -43.416,-9.247 -58.358,-24.189l22.564,-22.564c9.194,9.022 21.842,14.598 35.794,14.598c13.952,0 26.599,-5.576 35.794,-14.598l22.564,22.564Z" style="fill:#fff;"/><path d="M164.799,452.453c-15.132,15.132 -36.031,24.496 -59.099,24.496c-23.069,0 -43.968,-9.364 -59.099,-24.496c-0.41,-0.41 -0.41,-1.073 -0,-1.483l22.564,-22.564c0.407,-0.407 1.065,-0.41 1.476,-0.007c9.006,8.837 21.394,14.298 35.059,14.298c13.665,0 26.054,-5.461 35.059,-14.298c0.411,-0.403 1.069,-0.4 1.476,0.007l22.564,22.564c0.41,0.41 0.41,1.073 -0,1.483Zm-2.229,-0.746l-21.091,-21.091c-9.315,8.783 -21.916,14.178 -35.78,14.178c-13.863,0 -26.464,-5.395 -35.78,-14.178l-21.091,21.091c14.689,14.319 34.757,23.145 56.87,23.145c22.113,0 42.181,-8.826 56.87,-23.145Z" style="fill:#6b6b6b;"/><path id="tooth18-top-right" d="M164.058,334.996c14.942,14.942 24.189,35.578 24.189,58.358c0,22.779 -9.247,43.416 -24.189,58.358l-22.564,-22.564c9.309,-9.134 15.078,-21.802 15.078,-35.794c0,-13.992 -5.769,-26.659 -15.078,-35.794l22.564,-22.564Z" style="fill:#fff;"/><path d="M164.799,334.255c15.132,15.132 24.496,36.031 24.496,59.099c0,23.069 -9.364,43.968 -24.496,59.099c-0.41,0.41 -1.073,0.41 -1.483,0l-22.564,-22.564c-0.198,-0.198 -0.308,-0.467 -0.307,-0.746c0.001,-0.28 0.114,-0.548 0.314,-0.743c9.114,-8.944 14.764,-21.346 14.764,-35.045c0,-13.699 -5.65,-26.102 -14.764,-35.045c-0.2,-0.196 -0.313,-0.464 -0.314,-0.743c-0.001,-0.28 0.109,-0.549 0.307,-0.746l22.564,-22.564c0.41,-0.41 1.073,-0.41 1.483,0Zm-0.746,2.229l-21.077,21.077c9.063,9.263 14.644,21.888 14.644,35.793c0,13.906 -5.581,26.53 -14.644,35.793l21.077,21.077c14.319,-14.689 23.145,-34.757 23.145,-56.87c0,-22.113 -8.826,-42.181 -23.145,-56.87Z" style="fill:#6b6b6b;"/><path id="tooth18-top-bottom" d="M47.342,334.996c14.942,-14.942 35.578,-24.189 58.358,-24.189c22.779,0 43.416,9.247 58.358,24.189l-22.564,22.564c-9.194,-9.022 -21.842,-14.598 -35.794,-14.598c-13.952,0 -26.599,5.576 -35.794,14.598l-22.564,-22.564Z" style="fill:#fff;"/><path d="M46.601,334.255c15.132,-15.132 36.031,-24.496 59.099,-24.496c23.069,0 43.968,9.364 59.099,24.496c0.41,0.41 0.41,1.073 -0,1.483l-22.564,22.564c-0.407,0.407 -1.065,0.41 -1.476,0.007c-9.006,-8.837 -21.394,-14.298 -35.059,-14.298c-13.665,0 -26.054,5.461 -35.059,14.298c-0.411,0.403 -1.069,0.4 -1.476,-0.007l-22.564,-22.564c-0.41,-0.41 -0.41,-1.073 0,-1.483Zm2.229,0.746l21.091,21.091c9.315,-8.783 21.916,-14.178 35.78,-14.178c13.863,0 26.464,5.395 35.78,14.178l21.091,-21.091c-14.689,-14.319 -34.757,-23.145 -56.87,-23.145c-22.113,0 -42.181,8.826 -56.87,23.145Z" style="fill:#6b6b6b;"/></g></g><g id="tooth18-back-view"><g id="tooth18-back-view-base-shape"><path id="tooth18-back-view-base-shape" d="M188.462,208.824c-0.557,6.459 -0.704,17.218 -6.104,26.162c-6.864,11.367 -22.215,19.799 -57.686,12.738c0,0 -14.311,-5.257 -47.023,2.103c-22.564,5.076 -36.384,-2.015 -44.607,-13.952c-5.47,-7.941 -8.463,-18.028 -9.904,-28.102c-2.706,-18.919 5.44,-47.197 17.439,-62.457c3.995,-5.081 8.417,-8.718 13.008,-10.086c8.247,-2.458 30.141,-5.483 53.001,-6.068c28.088,-0.718 57.632,2.248 65.109,14.479c13.561,22.185 18.4,46.259 16.767,65.184Z" style="fill:#fff;"/><path id="tooth18-back-view-base-shape" serif:id="tooth18-back-view-base-shape" d="M189.487,208.924c-0.568,6.583 -0.759,17.538 -6.263,26.654c-6.995,11.584 -22.593,20.418 -58.741,13.223c-0.05,-0.01 -0.099,-0.024 -0.147,-0.041c0,0 -14.143,-5.135 -46.474,2.139c-23.104,5.198 -37.23,-2.153 -45.65,-14.376c-5.565,-8.08 -8.625,-18.335 -10.091,-28.585c-2.744,-19.18 5.503,-47.854 17.667,-63.324c4.146,-5.273 8.755,-9.018 13.52,-10.438c8.286,-2.469 30.284,-5.52 53.254,-6.108c16.951,-0.434 34.43,0.477 47.325,3.924c8.856,2.368 15.572,5.982 18.671,11.052c13.705,22.421 18.58,46.756 16.929,65.881Zm-2.049,-0.2c1.616,-18.723 -3.188,-42.537 -16.605,-64.486c-2.882,-4.715 -9.21,-7.92 -17.447,-10.122c-12.745,-3.407 -30.021,-4.287 -46.774,-3.859c-22.75,0.582 -44.541,3.582 -52.748,6.028c-4.417,1.316 -8.652,4.846 -12.496,9.735c-11.833,15.048 -19.88,42.932 -17.211,61.589c1.416,9.9 4.341,19.816 9.716,27.62c8.026,11.651 21.54,18.483 43.564,13.528c31.732,-7.139 46.35,-2.487 47.493,-2.094c34.745,6.902 49.834,-1.125 56.563,-12.267c5.297,-8.771 5.399,-19.335 5.945,-25.67Z" style="fill:#6b6b6b;"/></g><g id="tooth18-back-view-accents"><path d="M108.646,210.486c3.185,3.522 9.32,10.155 24.773,12.941c7.839,1.413 16.868,1.13 23.665,-0.33c-9.638,3.482 -23.154,5.052 -33.391,0.556c-7.19,-3.158 -11.707,-7.741 -15.048,-13.167Z" style="fill:#6b6b6b;"/><path d="M70.292,228.915c5.136,-3.512 15.516,-9.957 26.788,-8.757c7.414,0.789 15.159,5.831 18.878,13.897c-2.852,-4.204 -7.65,-7.899 -12.537,-9.694c-13.135,-4.823 -26.087,0.961 -33.129,4.553Z" style="fill:#6b6b6b;"/></g><g id="tooth18-back-view-statuses"><path id="back-left" serif:id="back-left" d="M37.36,232.901c1.642,2.383 1.039,5.651 -1.344,7.292c-2.383,1.642 -5.651,1.039 -7.292,-1.344c-5.91,-8.58 -9.219,-19.45 -10.776,-30.334c-2.878,-20.122 5.746,-50.21 18.508,-66.44c1.789,-2.275 5.088,-2.669 7.362,-0.881c2.275,1.789 2.669,5.088 0.881,7.362c-11.236,14.289 -18.904,40.758 -16.37,58.474c1.325,9.265 4.001,18.567 9.031,25.871Z" style="fill:none;"/><path id="back-right" serif:id="back-right" d="M167.221,146.375c-1.509,-2.469 -0.73,-5.699 1.739,-7.208c2.469,-1.509 5.699,-0.73 7.208,1.739c14.22,23.264 19.23,48.525 17.517,68.369c-0.607,7.028 -0.963,18.689 -6.84,28.421c-1.496,2.477 -4.721,3.274 -7.199,1.778c-2.477,-1.496 -3.274,-4.721 -1.778,-7.199c4.925,-8.155 4.861,-18.013 5.369,-23.902c1.554,-18.004 -3.115,-40.891 -16.017,-61.998Z" style="fill:none;"/><path id="back-top" serif:id="back-top" d="M44.699,148.557c-1.789,2.275 -5.088,2.669 -7.362,0.881c-2.275,-1.789 -2.669,-5.088 -0.881,-7.362c4.764,-6.058 10.158,-10.239 15.632,-11.87c8.46,-2.521 30.913,-5.685 54.364,-6.284c17.387,-0.445 35.311,0.532 48.538,4.068c10.128,2.708 17.634,7.12 21.178,12.918c1.509,2.469 0.73,5.699 -1.739,7.208c-2.469,1.509 -5.699,0.73 -7.208,-1.739c-2.438,-3.989 -7.97,-6.393 -14.939,-8.256c-12.414,-3.318 -29.244,-4.133 -45.562,-3.715c-22.269,0.57 -43.604,3.457 -51.637,5.851c-3.708,1.105 -7.157,4.199 -10.384,8.302Z" style="fill:none;"/><path id="back-bottom" serif:id="back-bottom" d="M177.869,232.275c1.496,-2.477 4.721,-3.274 7.199,-1.778c2.477,1.496 3.274,4.721 1.778,7.199c-7.551,12.505 -24.174,22.938 -63.198,15.17c-0.267,-0.053 -0.529,-0.127 -0.784,-0.221c0,0 -13.4,-4.603 -44.064,2.296c-25.393,5.713 -40.822,-2.659 -50.075,-16.093c-1.642,-2.383 -1.039,-5.651 1.344,-7.292c2.383,-1.642 5.651,-1.039 7.292,1.344c7.192,10.441 19.401,16.251 39.138,11.811c31.34,-7.051 46.797,-2.939 49.532,-2.063c31.696,6.245 45.682,-0.176 51.84,-10.373Z" style="fill:none;"/></g></g></g><rect id="base1" serif:id="base" x="-0" y="0" width="211.4" height="855.667" style="fill:none;"/></g></svg>