<?xml version="1.0" encoding="UTF-8" standalone="no"?><!DOCTYPE svg PUBLIC "-//W3C//DTD SVG 1.1//EN" "http://www.w3.org/Graphics/SVG/1.1/DTD/svg11.dtd"><svg width="100%" height="100%" viewBox="0 0 212 856" version="1.1" xmlns="http://www.w3.org/2000/svg" xmlns:xlink="http://www.w3.org/1999/xlink" xml:space="preserve" xmlns:serif="http://www.serif.com/" style="fill-rule:evenodd;clip-rule:evenodd;stroke-linejoin:round;stroke-miterlimit:2;"><g id="tooth2"><g id="tooth2-column"><g id="tooth2-front-view"><g id="tooth-2-front-base-shape"><path id="tooth2-front-view-shape-root2" d="M89.358,147.518c0,0 17.108,-25.091 21.14,-4.027c0,0 3.005,60.292 20.133,66.44c17.128,6.148 -31.039,49.32 -38.253,20.133c-7.214,-29.187 -12.051,-81.633 -3.02,-82.547Z" style="fill:#e5e5e5;"/><path id="tooth2-front-view-shape-root21" serif:id="tooth2-front-view-shape-root2" d="M88.745,146.566l0.001,-0.001c1.001,-1.407 4.83,-6.593 9.035,-9.794c2.688,-2.046 5.556,-3.232 7.997,-2.547c2.415,0.678 4.629,3.213 5.75,9.07c0.009,0.048 0.015,0.096 0.017,0.145c-0,-0 1.457,29.372 8.176,49.092c1.694,4.972 3.717,9.324 6.156,12.394c1.533,1.929 3.22,3.342 5.108,4.02c3.276,1.176 4.534,3.499 4.334,6.406c-0.263,3.825 -3.374,8.871 -7.932,13.468c-5.579,5.627 -13.279,10.609 -20.126,11.96c-3.605,0.711 -6.984,0.425 -9.759,-1.188c-2.77,-1.609 -4.975,-4.549 -6.143,-9.274c-5.073,-20.526 -8.968,-52.502 -7.742,-70.154c0.326,-4.688 1.027,-8.393 2.123,-10.672c0.791,-1.646 1.825,-2.614 3.003,-2.923Zm0.719,1.995c-0.779,0.079 -1.326,0.784 -1.832,1.837c-1.017,2.114 -1.619,5.56 -1.921,9.909c-1.215,17.49 2.659,49.17 7.685,69.506c0.996,4.031 2.798,6.591 5.161,7.964c2.358,1.37 5.237,1.548 8.299,0.944c6.487,-1.28 13.756,-6.046 19.042,-11.379c3.478,-3.508 6.106,-7.257 7.016,-10.442c0.4,-1.4 0.466,-2.672 0.033,-3.723c-0.413,-1.002 -1.292,-1.764 -2.67,-2.258c-2.222,-0.798 -4.239,-2.42 -6.042,-4.689c-2.565,-3.228 -4.717,-7.793 -6.499,-13.022c-6.599,-19.367 -8.194,-47.934 -8.283,-49.594c-0.471,-2.426 -1.113,-4.198 -1.904,-5.43c-0.686,-1.068 -1.467,-1.695 -2.339,-1.94c-1.902,-0.534 -4.065,0.602 -6.159,2.196c-4.661,3.549 -8.827,9.669 -8.827,9.669c-0.174,0.256 -0.453,0.421 -0.761,0.453Z" style="fill:#6b6b6b;"/><path id="tooth2-front-view-shape-root1" d="M173.919,268.32c-8.211,-3.114 -16.96,-4.065 -58.824,-5.427c-30.474,-0.991 -55.93,1.542 -76.107,5.007c-6.71,-75.647 25.338,-117.577 37.867,-132.153c5.457,-6.349 8.477,-5.101 9.748,-4.765c16.849,4.456 -13.634,87.13 15.843,93.042c31.676,6.354 18.404,-105.374 47.313,-90.6c28.91,14.774 24.16,134.893 24.16,134.893c0,0.001 0,0.001 0.001,0.002Z" style="fill:#fff;"/><path id="tooth2-front-view-shape-root11" serif:id="tooth2-front-view-shape-root1" d="M174.967,268.359c-0.01,0.262 -0.118,0.516 -0.311,0.707c-0.292,0.288 -0.725,0.379 -1.108,0.234c-8.164,-3.096 -16.865,-4.006 -58.487,-5.359c-30.389,-0.988 -55.775,1.537 -75.895,4.993c-0.289,0.05 -0.585,-0.024 -0.817,-0.203c-0.232,-0.179 -0.379,-0.446 -0.405,-0.738c-6.75,-76.095 25.513,-118.266 38.116,-132.929c3.556,-4.138 6.212,-5.228 8.024,-5.421c1.286,-0.137 2.2,0.17 2.788,0.325c3.032,0.802 4.856,3.753 5.657,8.345c1.079,6.19 0.42,15.492 -0.514,25.737c-1.377,15.101 -3.344,32.29 -0.886,44.386c1.554,7.645 4.863,13.224 11.524,14.56c7.116,1.427 11.674,-3.684 15.07,-11.824c5.421,-12.992 7.722,-33.651 10.987,-50.607c1.848,-9.601 4.017,-18.031 7.168,-23.318c1.693,-2.841 3.687,-4.803 6.016,-5.685c2.374,-0.899 5.127,-0.715 8.343,0.929c3.626,1.853 6.767,5.27 9.449,9.887c3.895,6.705 6.85,15.974 9.067,26.483c8.542,40.488 6.214,99.499 6.214,99.499Zm-2.047,-1.517c0.288,-9.226 1.495,-60.982 -6.219,-97.549c-2.164,-10.259 -5.026,-19.316 -8.829,-25.862c-2.45,-4.218 -5.278,-7.38 -8.59,-9.073c-2.566,-1.311 -4.752,-1.552 -6.646,-0.835c-1.941,0.735 -3.546,2.429 -4.957,4.797c-3.058,5.13 -5.117,13.324 -6.911,22.641c-3.291,17.096 -5.645,37.919 -11.111,51.018c-3.861,9.255 -9.328,14.696 -17.418,13.073c-6.282,-1.26 -10.056,-5.744 -12.141,-12.226c-2.969,-9.23 -2.465,-22.626 -1.354,-35.957c1.093,-13.117 2.76,-26.168 2.101,-34.99c-0.21,-2.809 -0.651,-5.171 -1.454,-6.935c-0.698,-1.532 -1.665,-2.582 -3.056,-2.949c-0.429,-0.113 -1.091,-0.367 -2.03,-0.268c-1.525,0.162 -3.662,1.22 -6.655,4.702c-12.392,14.417 -43.968,55.76 -37.715,130.245c20.052,-3.376 45.199,-5.806 75.194,-4.83c39.794,1.294 49.836,2.252 57.791,4.997Z" style="fill:#6b6b6b;"/><path id="tooth-2-front-base-shape" d="M38.96,267.421c-0.013,-0.139 32.213,-7.047 76.07,-5.425c41.858,1.548 50.613,2.312 58.824,5.427c17.977,49.463 18.029,78.55 9.515,95.129c-19.051,37.096 -80.989,11.575 -80.989,11.575c-45.064,12.878 -66.345,3.654 -74.973,-13.774c-7.725,-15.604 -5.307,-37.784 -0.734,-56.563c4.905,-20.142 12.287,-36.37 12.287,-36.37Z" style="fill:#fff;"/><path id="tooth2-front-view-shape1" serif:id="tooth-2-front-base-shape" d="M37.995,267.049l0.106,-0.23l0.178,-0.196l0.273,-0.17c0.069,-0.03 0.449,-0.14 1.13,-0.286c5.625,-1.21 35.779,-6.683 75.386,-5.218c42.097,1.557 50.899,2.362 59.158,5.494c0.285,0.108 0.509,0.335 0.614,0.622c18.133,49.891 18.05,79.244 9.462,95.967c-7.814,15.215 -22.632,20.216 -37.639,20.669c-20.572,0.621 -41.445,-7.321 -44.339,-8.466c-45.6,12.952 -67.102,3.266 -75.856,-14.415c-7.823,-15.801 -5.444,-38.261 -0.813,-57.276c4.93,-20.246 12.352,-36.556 12.352,-36.556l-0.011,0.062Zm1.903,0.842c0.103,-0.201 0.122,-0.394 0.106,-0.565c0.016,0.181 -0.015,0.363 -0.09,0.529c0,0 -0.006,0.012 -0.016,0.036Zm-0.186,0.417c-1.213,2.748 -7.619,17.655 -12.021,35.731c-4.515,18.541 -6.973,40.442 0.655,55.85c8.48,17.129 29.452,25.888 73.745,13.231c0.227,-0.065 0.469,-0.051 0.688,0.039c0,0 22.08,9.102 43.82,8.446c14.264,-0.431 28.41,-5.069 35.837,-19.531c8.415,-16.385 8.255,-45.079 -9.403,-93.838c-8.045,-2.956 -17.186,-3.681 -58.042,-5.192c-39.334,-1.455 -69.281,3.971 -74.868,5.173c-0.15,0.032 -0.29,0.064 -0.411,0.092Z" style="fill:#6b6b6b;"/></g><g id="tooth-accents"><path d="M106.446,340.798c-14.66,27.12 -44.308,14.889 -51.314,11.087c12.016,4.641 29.734,6.466 43.205,-3.153c4.476,-3.196 7.352,-6.974 8.109,-7.933Z" style="fill:#6b6b6b;"/><path d="M150.739,356.777c-8.975,1.813 -20.482,1.913 -29.686,-1.622c-3.117,-1.197 -8.978,-2.935 -15.353,3.171c-2.537,2.43 -4.023,5.141 -4.296,5.638c3.525,-9.655 11.397,-14.957 20.634,-11.351c0.851,0.332 11.297,4.864 26.655,4.287c1.026,-0.039 1.023,-0.044 2.045,-0.123Z" style="fill:#6b6b6b;"/></g><g id="tooth-statuses"><path id="front-right" d="M170.962,269.394c-0.593,-1.632 0.25,-3.438 1.882,-4.031c1.632,-0.593 3.438,0.25 4.031,1.882c18.444,50.748 18.092,80.631 9.356,97.641c-0.793,1.544 -2.691,2.154 -4.236,1.361c-1.544,-0.793 -2.154,-2.691 -1.361,-4.236c8.293,-16.149 7.837,-44.439 -9.673,-92.618Z" style="fill:none;"/><path id="front-left" d="M30.291,359.855c0.77,1.556 0.133,3.445 -1.423,4.215c-1.556,0.77 -3.445,0.133 -4.215,-1.423c-8.018,-16.195 -5.717,-39.213 -0.971,-58.703c4.98,-20.452 12.48,-36.929 12.48,-36.929c0.719,-1.58 2.586,-2.28 4.166,-1.561c1.58,0.719 2.28,2.586 1.561,4.166c0,0 -7.265,15.98 -12.094,35.812c-4.399,18.067 -6.936,39.41 0.497,54.423Z" style="fill:none;"/><path id="front-bottom" d="M180.635,362.012c0.793,-1.544 2.691,-2.154 4.236,-1.361c1.544,0.793 2.154,2.691 1.361,4.236c-8.201,15.969 -23.691,21.332 -39.441,21.807c-19.762,0.597 -39.797,-6.553 -44.507,-8.354c-46.678,13.096 -68.624,2.498 -77.63,-15.693c-0.77,-1.556 -0.133,-3.445 1.423,-4.215c1.556,-0.77 3.445,-0.133 4.215,1.423c8.185,16.533 28.537,24.362 71.289,12.145c0.681,-0.195 1.408,-0.154 2.063,0.116c0,0 21.645,8.932 42.957,8.289c13.52,-0.408 26.995,-4.685 34.035,-18.393Z" style="fill:none;"/><path id="front-top" d="M40.027,271.3c-0.228,0.076 -0.468,0.128 -0.718,0.15c-1.729,0.156 -3.26,-1.121 -3.416,-2.85l0.027,-0.78l0.282,-0.889l0.63,-0.87l0.718,-0.525l1.235,-0.41c2.808,-0.646 17.996,-3.593 40.347,-4.945c10.597,-0.641 22.811,-0.925 36.08,-0.434c42.576,1.574 51.472,2.461 59.824,5.629c1.623,0.616 2.441,2.434 1.826,4.057c-0.616,1.623 -2.434,2.441 -4.057,1.826c-8.07,-3.061 -16.686,-3.703 -57.825,-5.225c-39.061,-1.444 -68.801,3.934 -74.349,5.127c-0.247,0.053 -0.488,0.11 -0.603,0.137Z" style="fill:none;"/></g></g><g id="tooth2-top-view"><g id="tooth2-top-view-statuses"><ellipse id="tooth2-top-center" cx="105.7" cy="508.367" rx="50.872" ry="50.392" style="fill:#fff;"/><path d="M105.7,456.926c28.658,0 51.92,23.052 51.92,51.44c0,28.388 -23.262,51.44 -51.92,51.44c-28.658,0 -51.92,-23.052 -51.92,-51.44c0,-28.388 23.262,-51.44 51.92,-51.44Zm0,2.097c-27.495,0 -49.823,22.107 -49.823,49.343c0,27.236 22.328,49.343 49.823,49.343c27.495,0 49.823,-22.107 49.823,-49.343c0,-27.236 -22.328,-49.343 -49.823,-49.343Z" style="fill:#6b6b6b;"/><path id="tooth2-top-left" d="M47.342,566.725c-14.942,-14.942 -24.189,-35.578 -24.189,-58.358c0,-22.779 9.247,-43.416 24.189,-58.358l22.564,22.564c-9.309,9.134 -15.078,21.802 -15.078,35.794c0,13.992 5.769,26.659 15.078,35.794l-22.564,22.564Z" style="fill:#fff;"/><path d="M46.601,567.466c-15.132,-15.132 -24.496,-36.031 -24.496,-59.099c0,-23.069 9.364,-43.968 24.496,-59.099c0.41,-0.41 1.073,-0.41 1.483,0l22.564,22.564c0.198,0.198 0.308,0.467 0.307,0.746c-0.001,0.28 -0.114,0.548 -0.314,0.743c-9.114,8.944 -14.764,21.346 -14.764,35.045c0,13.699 5.65,26.102 14.764,35.045c0.2,0.196 0.313,0.464 0.314,0.743c0.001,0.28 -0.109,0.549 -0.307,0.746l-22.564,22.564c-0.41,0.41 -1.073,0.41 -1.483,0Zm0.746,-2.229l21.077,-21.077c-9.063,-9.263 -14.644,-21.888 -14.644,-35.793c0,-13.906 5.581,-26.53 14.644,-35.793l-21.077,-21.077c-14.319,14.689 -23.145,34.757 -23.145,56.87c0,22.113 8.826,42.181 23.145,56.87Z" style="fill:#6b6b6b;"/><path id="tooth2-top-bottom" d="M164.058,566.725c-14.942,14.942 -35.578,24.189 -58.358,24.189c-22.779,0 -43.416,-9.247 -58.358,-24.189l22.564,-22.564c9.194,9.022 21.842,14.598 35.794,14.598c13.952,0 26.599,-5.576 35.794,-14.598l22.564,22.564Z" style="fill:#fff;"/><path d="M164.799,567.466c-15.132,15.132 -36.031,24.496 -59.099,24.496c-23.069,0 -43.968,-9.364 -59.099,-24.496c-0.41,-0.41 -0.41,-1.073 -0,-1.483l22.564,-22.564c0.407,-0.407 1.065,-0.41 1.476,-0.007c9.006,8.837 21.394,14.298 35.059,14.298c13.665,0 26.054,-5.461 35.059,-14.298c0.411,-0.403 1.069,-0.4 1.476,0.007l22.564,22.564c0.41,0.41 0.41,1.073 -0,1.483Zm-2.229,-0.746l-21.091,-21.091c-9.315,8.783 -21.916,14.178 -35.78,14.178c-13.863,0 -26.464,-5.395 -35.78,-14.178l-21.091,21.091c14.689,14.319 34.757,23.145 56.87,23.145c22.113,0 42.181,-8.826 56.87,-23.145Z" style="fill:#6b6b6b;"/><path id="tooth2-top-right" d="M164.058,450.009c14.942,14.942 24.189,35.578 24.189,58.358c0,22.779 -9.247,43.416 -24.189,58.358l-22.564,-22.564c9.309,-9.134 15.078,-21.802 15.078,-35.794c0,-13.992 -5.769,-26.659 -15.078,-35.794l22.564,-22.564Z" style="fill:#fff;"/><path d="M164.799,449.267c15.132,15.132 24.496,36.031 24.496,59.099c0,23.069 -9.364,43.968 -24.496,59.099c-0.41,0.41 -1.073,0.41 -1.483,0l-22.564,-22.564c-0.198,-0.198 -0.308,-0.467 -0.307,-0.746c0.001,-0.28 0.114,-0.548 0.314,-0.743c9.114,-8.944 14.764,-21.346 14.764,-35.045c0,-13.699 -5.65,-26.102 -14.764,-35.045c-0.2,-0.196 -0.313,-0.464 -0.314,-0.743c-0.001,-0.28 0.109,-0.549 0.307,-0.746l22.564,-22.564c0.41,-0.41 1.073,-0.41 1.483,0Zm-0.746,2.229l-21.077,21.077c9.063,9.263 14.644,21.888 14.644,35.793c0,13.906 -5.581,26.53 -14.644,35.793l21.077,21.077c14.319,-14.689 23.145,-34.757 23.145,-56.87c0,-22.113 -8.826,-42.181 -23.145,-56.87Z" style="fill:#6b6b6b;"/><path id="tooth2-top-top" d="M47.342,450.009c14.942,-14.942 35.578,-24.189 58.358,-24.189c22.779,0 43.416,9.247 58.358,24.189l-22.564,22.564c-9.194,-9.022 -21.842,-14.598 -35.794,-14.598c-13.952,0 -26.599,5.576 -35.794,14.598l-22.564,-22.564Z" style="fill:#fff;"/><path d="M46.601,449.267c15.132,-15.132 36.031,-24.496 59.099,-24.496c23.069,0 43.968,9.364 59.099,24.496c0.41,0.41 0.41,1.073 -0,1.483l-22.564,22.564c-0.407,0.407 -1.065,0.41 -1.476,0.007c-9.006,-8.837 -21.394,-14.298 -35.059,-14.298c-13.665,0 -26.054,5.461 -35.059,14.298c-0.411,0.403 -1.069,0.4 -1.476,-0.007l-22.564,-22.564c-0.41,-0.41 -0.41,-1.073 0,-1.483Zm2.229,0.746l21.091,21.091c9.315,-8.783 21.916,-14.178 35.78,-14.178c13.863,0 26.464,5.395 35.78,14.178l21.091,-21.091c-14.689,-14.319 -34.757,-23.145 -56.87,-23.145c-22.113,0 -42.181,8.826 -56.87,23.145Z" style="fill:#6b6b6b;"/></g></g><g id="tooth2-back-view"><g id="tooth2-back-view-base-shape"><path id="tooth2-back-view-base-shape" d="M22.938,684.136c0.557,-6.459 0.704,-17.218 6.104,-26.162c6.864,-11.367 22.215,-19.799 57.686,-12.738c0,0 14.311,5.257 47.023,-2.103c22.564,-5.076 36.384,2.015 44.607,13.952c5.47,7.941 8.463,18.028 9.904,28.102c2.706,18.919 -5.44,47.197 -17.439,62.457c-3.995,5.081 -8.417,8.718 -13.008,10.086c-8.247,2.458 -30.141,5.483 -53.001,6.068c-28.088,0.718 -57.632,-2.248 -65.109,-14.479c-13.561,-22.185 -18.4,-46.259 -16.767,-65.184Z" style="fill:#fff;"/><path id="tooth2-back-view-base-shape" serif:id="tooth2-back-view-base-shape" d="M21.913,684.036c0.568,-6.583 0.759,-17.538 6.263,-26.654c6.995,-11.584 22.593,-20.418 58.741,-13.223c0.05,0.01 0.099,0.024 0.147,0.041c0,0 14.143,5.135 46.474,-2.139c23.104,-5.198 37.23,2.153 45.65,14.376c5.565,8.08 8.625,18.335 10.091,28.585c2.744,19.18 -5.503,47.854 -17.667,63.324c-4.146,5.273 -8.755,9.018 -13.52,10.438c-8.286,2.469 -30.284,5.52 -53.254,6.108c-16.951,0.434 -34.43,-0.477 -47.325,-3.924c-8.856,-2.368 -15.572,-5.982 -18.671,-11.052c-13.705,-22.421 -18.58,-46.756 -16.929,-65.881Zm2.049,0.2c-1.616,18.723 3.188,42.537 16.605,64.486c2.882,4.715 9.21,7.92 17.447,10.122c12.745,3.407 30.021,4.287 46.774,3.859c22.75,-0.582 44.541,-3.582 52.748,-6.028c4.417,-1.316 8.652,-4.846 12.496,-9.735c11.833,-15.048 19.88,-42.932 17.211,-61.589c-1.416,-9.9 -4.341,-19.816 -9.716,-27.62c-8.026,-11.651 -21.54,-18.483 -43.564,-13.528c-31.732,7.139 -46.35,2.487 -47.493,2.094c-34.745,-6.902 -49.834,1.125 -56.563,12.267c-5.297,8.771 -5.399,19.335 -5.945,25.67Z" style="fill:#6b6b6b;"/></g><g id="tooth2-back-view-accents"><path d="M102.754,682.474c-3.185,-3.522 -9.32,-10.155 -24.773,-12.941c-7.839,-1.413 -16.868,-1.13 -23.665,0.33c9.638,-3.482 23.154,-5.052 33.391,-0.556c7.19,3.158 11.707,7.741 15.048,13.167Z" style="fill:#6b6b6b;"/><path d="M141.108,664.044c-5.136,3.512 -15.516,9.957 -26.788,8.757c-7.414,-0.789 -15.159,-5.831 -18.878,-13.897c2.852,4.204 7.65,7.899 12.537,9.694c13.135,4.823 26.087,-0.961 33.129,-4.553Z" style="fill:#6b6b6b;"/></g><g id="tooth2-back-view-statuses"><path id="back-right" serif:id="back-right" d="M174.04,660.059c-1.642,-2.383 -1.039,-5.651 1.344,-7.292c2.383,-1.642 5.651,-1.039 7.292,1.344c5.91,8.58 9.219,19.45 10.776,30.334c2.878,20.122 -5.746,50.21 -18.508,66.44c-1.789,2.275 -5.088,2.669 -7.362,0.881c-2.275,-1.789 -2.669,-5.088 -0.881,-7.362c11.236,-14.289 18.904,-40.758 16.37,-58.474c-1.325,-9.265 -4.001,-18.567 -9.031,-25.871Z" style="fill:none;"/><path id="back-left" serif:id="back-left" d="M44.179,746.585c1.509,2.469 0.73,5.699 -1.739,7.208c-2.469,1.509 -5.699,0.73 -7.208,-1.739c-14.22,-23.264 -19.23,-48.525 -17.517,-68.369c0.607,-7.028 0.963,-18.689 6.84,-28.421c1.496,-2.477 4.721,-3.274 7.199,-1.778c2.477,1.496 3.274,4.721 1.778,7.199c-4.925,8.155 -4.861,18.013 -5.369,23.902c-1.554,18.004 3.115,40.891 16.017,61.998Z" style="fill:none;"/><path id="back-bottom" serif:id="back-bottom" d="M166.701,744.403c1.789,-2.275 5.088,-2.669 7.362,-0.881c2.275,1.789 2.669,5.088 0.881,7.362c-4.764,6.058 -10.158,10.239 -15.632,11.87c-8.46,2.521 -30.913,5.685 -54.364,6.284c-17.387,0.445 -35.311,-0.532 -48.538,-4.068c-10.128,-2.708 -17.634,-7.12 -21.178,-12.918c-1.509,-2.469 -0.73,-5.699 1.739,-7.208c2.469,-1.509 5.699,-0.73 7.208,1.739c2.438,3.989 7.97,6.393 14.939,8.256c12.414,3.318 29.244,4.133 45.562,3.715c22.269,-0.57 43.604,-3.457 51.637,-5.851c3.708,-1.105 7.157,-4.199 10.384,-8.302Z" style="fill:none;"/><path id="back-top" serif:id="back-top" d="M33.531,660.684c-1.496,2.477 -4.721,3.274 -7.199,1.778c-2.477,-1.496 -3.274,-4.721 -1.778,-7.199c7.551,-12.505 24.174,-22.938 63.198,-15.17c0.267,0.053 0.529,0.127 0.784,0.221c0,0 13.4,4.603 44.064,-2.296c25.393,-5.713 40.822,2.659 50.075,16.093c1.642,2.383 1.039,5.651 -1.344,7.292c-2.383,1.642 -5.651,1.039 -7.292,-1.344c-7.192,-10.441 -19.401,-16.251 -39.138,-11.811c-31.34,7.051 -46.797,2.939 -49.532,2.063c-31.696,-6.245 -45.682,0.176 -51.84,10.373Z" style="fill:none;"/></g></g></g><rect id="base" x="0" y="0" width="211.4" height="855.667" style="fill:none;"/></g></svg>