<?xml version="1.0" encoding="UTF-8" standalone="no"?><!DOCTYPE svg PUBLIC "-//W3C//DTD SVG 1.1//EN" "http://www.w3.org/Graphics/SVG/1.1/DTD/svg11.dtd"><svg width="100%" height="100%" viewBox="0 0 212 856" version="1.1" xmlns="http://www.w3.org/2000/svg" xmlns:xlink="http://www.w3.org/1999/xlink" xml:space="preserve" xmlns:serif="http://www.serif.com/" style="fill-rule:evenodd;clip-rule:evenodd;stroke-linejoin:round;stroke-miterlimit:2;"><g id="tooth30"><g id="tooth30-column"><rect id="base" x="-0" y="25.167" width="211.4" height="805.333" style="fill:none;"/><g id="tooth30-front-view"><g id="tooth-30-front-base-shape"><path id="tooth3--front-shape-root" serif:id="tooth3 -front-shape-root" d="M34.429,591.448c0,0 -11.782,217.618 31.207,235.329c0,0 6.907,5.949 13.087,-53.282c6.18,-59.231 29.738,-145.706 53.353,-34.041c0,0 25.632,136.145 39.26,65.122c13.628,-71.022 -1.159,-180.637 9.06,-213.128c0,0 -62.927,60.894 -145.967,0Z" style="fill:#fff;"/><path d="M65.259,828.223c-5.328,-2.233 -9.859,-7.395 -13.683,-14.804c-5.618,-10.884 -9.719,-26.675 -12.659,-44.928c-11.312,-70.244 -5.533,-177.165 -5.533,-177.165c0.028,-0.511 0.226,-0.968 0.529,-1.22c0.303,-0.252 0.672,-0.266 0.984,-0.037c82.446,60.459 144.922,0.092 144.922,0.092c0.391,-0.379 0.906,-0.33 1.261,0.12c0.355,0.449 0.464,1.19 0.268,1.815c-4.047,12.866 -4.073,37.953 -3.582,67.919c0.746,45.549 2.783,102.233 -5.42,144.981c-1.695,8.835 -3.601,14.556 -5.587,17.821c-1.497,2.461 -3.072,3.621 -4.659,3.798c-1.575,0.176 -3.194,-0.627 -4.813,-2.309c-2.176,-2.261 -4.39,-6.168 -6.542,-11.143c-10.249,-23.692 -19.435,-72.007 -19.676,-73.28c-5.581,-26.382 -11.104,-41.57 -16.443,-48.551c-3.259,-4.261 -6.403,-5.293 -9.403,-3.737c-4.803,2.491 -9.136,11.069 -12.934,22.531c-5.88,17.745 -10.32,42.43 -12.529,63.605c-3.771,36.142 -7.912,48.376 -10.538,52.417c-1.11,1.708 -2.049,2.185 -2.683,2.306c-0.645,0.122 -1.084,-0.1 -1.279,-0.228Zm0.016,0.007c0.221,0.129 0.361,0.089 0.361,0.089c-0.096,0 -0.191,-0.019 -0.283,-0.057c-0.026,-0.011 -0.052,-0.021 -0.078,-0.032Zm0.813,-2.843c0.062,-0.005 0.783,-0.089 1.616,-1.371c2.539,-3.905 6.337,-15.819 9.981,-50.754c2.24,-21.471 6.754,-46.494 12.716,-64.488c4.097,-12.364 8.942,-21.402 14.122,-24.089c3.655,-1.896 7.524,-0.85 11.494,4.341c5.503,7.195 11.306,22.771 17.058,49.97l0.009,0.046c0,0 9.162,48.735 19.427,72.465c1.978,4.573 3.983,8.202 5.982,10.279c1.165,1.211 2.311,1.879 3.444,1.752c1.44,-0.161 2.793,-1.6 4.124,-4.409c1.517,-3.201 2.941,-8.087 4.262,-14.972c8.151,-42.478 6.083,-98.808 5.342,-144.069c-0.451,-27.553 -0.376,-51.053 2.664,-65.037c-12.71,10.54 -69.995,51.259 -142.972,-1.207c-0.753,15.767 -4.685,110.086 5.597,173.936c2.389,14.838 5.544,28.02 9.703,38.145c4.053,9.866 9.047,16.808 15.258,19.367c0.059,0.024 0.116,0.056 0.169,0.094Z" style="fill:#6b6b6b;"/><path id="tooth-30-front-base-shape" d="M170.843,611.069c-75.175,31.432 -136.04,-4.664 -136.581,-5.927c-5.069,-11.832 -21.015,-52.724 -2.852,-79.527c21.879,-32.286 55.367,-10.067 81.54,-13.087c22.002,-2.539 58.222,-15.719 70.929,9.895c3.005,6.058 4.695,14.286 4.571,25.338c-0.339,30.118 -3.333,45.248 -6.122,52.833c-0.68,1.849 -1.512,3.333 -2.445,4.547c-2.584,3.362 -5.958,4.639 -9.039,5.927Z" style="fill:#fff;"/><path d="M171.247,612.037c-60.541,25.314 -111.863,7.109 -130.249,-1.833c-3.741,-1.819 -6.139,-3.268 -7.006,-3.905c-0.218,-0.16 -0.364,-0.289 -0.445,-0.375l-0.249,-0.37c-3.066,-7.156 -10.072,-24.859 -11.237,-43.71c-0.785,-12.695 1.083,-25.901 8.481,-36.818c11.208,-16.54 25.379,-19.145 40.111,-17.975c14.31,1.136 29.153,5.938 42.177,4.435c11.025,-1.272 25.614,-5.205 39.038,-5.616c13.819,-0.424 26.395,2.873 32.951,16.087c3.062,6.173 4.807,14.554 4.68,25.816c-0.341,30.319 -3.379,45.548 -6.186,53.183c-0.722,1.962 -1.607,3.535 -2.598,4.824c-2.713,3.529 -6.232,4.903 -9.466,6.256Zm-136.11,-7.512c0.475,0.31 3.184,2.046 6.778,3.794c18.142,8.823 68.784,26.762 128.523,1.784c2.928,-1.224 6.156,-2.404 8.612,-5.599c0.876,-1.14 1.654,-2.534 2.292,-4.27c2.771,-7.534 5.721,-22.566 6.058,-52.483c0.122,-10.842 -1.514,-18.917 -4.462,-24.86c-6.152,-12.401 -18.039,-15.321 -31.008,-14.923c-13.364,0.41 -27.886,4.337 -38.862,5.603c-13.149,1.517 -28.137,-3.281 -42.584,-4.428c-14.025,-1.114 -27.538,1.315 -38.208,17.061c-7.133,10.526 -8.88,23.271 -8.124,35.512c1.136,18.376 7.923,35.639 10.984,42.809Z" style="fill:#6b6b6b;"/></g><g id="tooth-front-accents"><path d="M108.897,547.762c-14.66,-27.12 -44.308,-14.889 -51.314,-11.087c12.016,-4.641 29.734,-6.466 43.205,3.153c4.476,3.196 7.352,6.974 8.109,7.933Z" style="fill:#6b6b6b;"/><path d="M153.19,531.782c-8.975,-1.813 -20.482,-1.913 -29.686,1.622c-3.117,1.197 -8.978,2.935 -15.353,-3.171c-2.537,-2.43 -4.023,-5.141 -4.296,-5.638c3.525,9.655 11.397,14.957 20.634,11.351c0.851,-0.332 11.297,-4.864 26.655,-4.287c1.026,0.039 1.023,0.044 2.045,0.123Z" style="fill:#6b6b6b;"/></g><g id="tooth30-front-statuses"><path id="front-left" d="M31.37,606.381c0.684,1.596 2.535,2.337 4.13,1.653c1.596,-0.684 2.337,-2.535 1.653,-4.13c-2.969,-6.929 -9.778,-24.064 -10.906,-42.317c-0.728,-11.786 0.899,-24.071 7.767,-34.206c0.974,-1.437 0.598,-3.395 -0.839,-4.369c-1.437,-0.974 -3.395,-0.598 -4.369,0.839c-7.662,11.307 -9.651,24.974 -8.838,38.123c1.184,19.151 8.288,37.137 11.403,44.407Z" style="fill:none;"/><path id="front-right" d="M186.697,521.026c-0.772,-1.555 -2.661,-2.192 -4.216,-1.42c-1.555,0.772 -2.192,2.661 -1.42,4.216c2.834,5.712 4.361,13.483 4.243,23.905c-0.332,29.514 -3.196,44.35 -5.929,51.783c-0.555,1.509 -1.225,2.724 -1.987,3.715c-1.058,1.376 -0.8,3.353 0.577,4.411c1.376,1.058 3.353,0.8 4.411,-0.577c1.105,-1.438 2.099,-3.19 2.904,-5.379c2.845,-7.737 5.969,-23.162 6.315,-53.883c0.131,-11.683 -1.722,-20.368 -4.898,-26.771Z" style="fill:none;"/><path id="front-top" d="M28.805,523.85c-0.974,1.437 -0.598,3.395 0.839,4.369c1.437,0.974 3.395,0.598 4.369,-0.839c10.132,-14.952 22.988,-17.204 36.306,-16.147c14.583,1.158 29.718,5.952 42.99,4.421c10.927,-1.261 25.382,-5.183 38.686,-5.59c12.119,-0.372 23.316,2.171 29.065,13.759c0.772,1.555 2.661,2.192 4.216,1.42c1.555,-0.772 2.192,-2.661 1.42,-4.216c-5.626,-11.34 -15.351,-15.911 -26.632,-17.013c-15.503,-1.514 -34.089,3.846 -47.476,5.39c-12.901,1.489 -27.597,-3.317 -41.771,-4.442c-15.439,-1.226 -30.266,1.555 -42.013,18.889Z" style="fill:none;"/><path id="front-bottom" d="M36.514,602.945c-0.882,-0.903 -2.262,-1.222 -3.491,-0.695c-1.596,0.684 -2.337,2.535 -1.653,4.13l0.494,0.805l0.888,0.804c0.908,0.667 3.413,2.195 7.33,4.1c18.63,9.06 70.632,27.531 131.975,1.881c3.541,-1.48 7.35,-3.05 10.32,-6.912c1.058,-1.376 0.8,-3.353 -0.577,-4.411c-1.376,-1.058 -3.353,-0.8 -4.411,0.577c-2.199,2.861 -5.137,3.846 -7.759,4.942c-58.936,24.643 -108.898,6.969 -126.797,-1.735c-3.369,-1.638 -5.917,-3.232 -6.319,-3.487Z" style="fill:none;"/></g></g><g id="tooth30-top-view"><g id="tooth30-top-view-statuses"><ellipse id="tooth30-top-center" cx="105.7" cy="393.354" rx="50.872" ry="50.392" style="fill:#fff;"/><path d="M105.7,341.914c28.658,0 51.92,23.052 51.92,51.44c0,28.388 -23.262,51.44 -51.92,51.44c-28.658,0 -51.92,-23.052 -51.92,-51.44c0,-28.388 23.262,-51.44 51.92,-51.44Zm0,2.097c-27.495,0 -49.823,22.107 -49.823,49.343c0,27.236 22.328,49.343 49.823,49.343c27.495,0 49.823,-22.107 49.823,-49.343c0,-27.236 -22.328,-49.343 -49.823,-49.343Z" style="fill:#6b6b6b;"/><path id="tooth30-top-left" d="M47.342,451.712c-14.942,-14.942 -24.189,-35.578 -24.189,-58.358c0,-22.779 9.247,-43.416 24.189,-58.358l22.564,22.564c-9.309,9.134 -15.078,21.802 -15.078,35.794c0,13.992 5.769,26.659 15.078,35.794l-22.564,22.564Z" style="fill:#fff;"/><path d="M46.601,452.453c-15.132,-15.132 -24.496,-36.031 -24.496,-59.099c0,-23.069 9.364,-43.968 24.496,-59.099c0.41,-0.41 1.073,-0.41 1.483,0l22.564,22.564c0.198,0.198 0.308,0.467 0.307,0.746c-0.001,0.28 -0.114,0.548 -0.314,0.743c-9.114,8.944 -14.764,21.346 -14.764,35.045c0,13.699 5.65,26.102 14.764,35.045c0.2,0.196 0.313,0.464 0.314,0.743c0.001,0.28 -0.109,0.549 -0.307,0.746l-22.564,22.564c-0.41,0.41 -1.073,0.41 -1.483,0Zm0.746,-2.229l21.077,-21.077c-9.063,-9.263 -14.644,-21.888 -14.644,-35.793c0,-13.906 5.581,-26.53 14.644,-35.793l-21.077,-21.077c-14.319,14.689 -23.145,34.757 -23.145,56.87c0,22.113 8.826,42.181 23.145,56.87Z" style="fill:#6b6b6b;"/><path id="tooth30-top-top" d="M164.058,451.712c-14.942,14.942 -35.578,24.189 -58.358,24.189c-22.779,0 -43.416,-9.247 -58.358,-24.189l22.564,-22.564c9.194,9.022 21.842,14.598 35.794,14.598c13.952,0 26.599,-5.576 35.794,-14.598l22.564,22.564Z" style="fill:#fff;"/><path d="M164.799,452.453c-15.132,15.132 -36.031,24.496 -59.099,24.496c-23.069,0 -43.968,-9.364 -59.099,-24.496c-0.41,-0.41 -0.41,-1.073 -0,-1.483l22.564,-22.564c0.407,-0.407 1.065,-0.41 1.476,-0.007c9.006,8.837 21.394,14.298 35.059,14.298c13.665,0 26.054,-5.461 35.059,-14.298c0.411,-0.403 1.069,-0.4 1.476,0.007l22.564,22.564c0.41,0.41 0.41,1.073 -0,1.483Zm-2.229,-0.746l-21.091,-21.091c-9.315,8.783 -21.916,14.178 -35.78,14.178c-13.863,0 -26.464,-5.395 -35.78,-14.178l-21.091,21.091c14.689,14.319 34.757,23.145 56.87,23.145c22.113,0 42.181,-8.826 56.87,-23.145Z" style="fill:#6b6b6b;"/><path id="tooth30-top-right" d="M164.058,334.996c14.942,14.942 24.189,35.578 24.189,58.358c0,22.779 -9.247,43.416 -24.189,58.358l-22.564,-22.564c9.309,-9.134 15.078,-21.802 15.078,-35.794c0,-13.992 -5.769,-26.659 -15.078,-35.794l22.564,-22.564Z" style="fill:#fff;"/><path d="M164.799,334.255c15.132,15.132 24.496,36.031 24.496,59.099c0,23.069 -9.364,43.968 -24.496,59.099c-0.41,0.41 -1.073,0.41 -1.483,0l-22.564,-22.564c-0.198,-0.198 -0.308,-0.467 -0.307,-0.746c0.001,-0.28 0.114,-0.548 0.314,-0.743c9.114,-8.944 14.764,-21.346 14.764,-35.045c0,-13.699 -5.65,-26.102 -14.764,-35.045c-0.2,-0.196 -0.313,-0.464 -0.314,-0.743c-0.001,-0.28 0.109,-0.549 0.307,-0.746l22.564,-22.564c0.41,-0.41 1.073,-0.41 1.483,0Zm-0.746,2.229l-21.077,21.077c9.063,9.263 14.644,21.888 14.644,35.793c0,13.906 -5.581,26.53 -14.644,35.793l21.077,21.077c14.319,-14.689 23.145,-34.757 23.145,-56.87c0,-22.113 -8.826,-42.181 -23.145,-56.87Z" style="fill:#6b6b6b;"/><path id="tooth30-top-bottom" d="M47.342,334.996c14.942,-14.942 35.578,-24.189 58.358,-24.189c22.779,0 43.416,9.247 58.358,24.189l-22.564,22.564c-9.194,-9.022 -21.842,-14.598 -35.794,-14.598c-13.952,0 -26.599,5.576 -35.794,14.598l-22.564,-22.564Z" style="fill:#fff;"/><path d="M46.601,334.255c15.132,-15.132 36.031,-24.496 59.099,-24.496c23.069,0 43.968,9.364 59.099,24.496c0.41,0.41 0.41,1.073 -0,1.483l-22.564,22.564c-0.407,0.407 -1.065,0.41 -1.476,0.007c-9.006,-8.837 -21.394,-14.298 -35.059,-14.298c-13.665,0 -26.054,5.461 -35.059,14.298c-0.411,0.403 -1.069,0.4 -1.476,-0.007l-22.564,-22.564c-0.41,-0.41 -0.41,-1.073 0,-1.483Zm2.229,0.746l21.091,21.091c9.315,-8.783 21.916,-14.178 35.78,-14.178c13.863,0 26.464,5.395 35.78,14.178l21.091,-21.091c-14.689,-14.319 -34.757,-23.145 -56.87,-23.145c-22.113,0 -42.181,8.826 -56.87,23.145Z" style="fill:#6b6b6b;"/></g></g><g id="tooth30-back-view"><g id="tooth30-back-view-base-shape"><path id="tooth30-back-view-base-shape" d="M22.938,208.824c0.557,6.459 0.704,17.218 6.104,26.162c6.864,11.367 22.215,19.799 57.686,12.738c0,0 14.311,-5.257 47.023,2.103c22.564,5.076 36.384,-2.015 44.607,-13.952c5.47,-7.941 8.463,-18.028 9.904,-28.102c2.706,-18.919 -5.44,-47.197 -17.439,-62.457c-3.995,-5.081 -8.417,-8.718 -13.008,-10.086c-8.247,-2.458 -30.141,-5.483 -53.001,-6.068c-28.088,-0.718 -57.632,2.248 -65.109,14.479c-13.561,22.185 -18.4,46.259 -16.767,65.184Z" style="fill:#fff;"/><path id="tooth30-back-view-base-shape" serif:id="tooth30-back-view-base-shape" d="M21.913,208.924c0.568,6.583 0.759,17.538 6.263,26.654c6.995,11.584 22.593,20.418 58.741,13.223c0.05,-0.01 0.099,-0.024 0.147,-0.041c0,0 14.143,-5.135 46.474,2.139c23.104,5.198 37.23,-2.153 45.65,-14.376c5.565,-8.08 8.625,-18.335 10.091,-28.585c2.744,-19.18 -5.503,-47.854 -17.667,-63.324c-4.146,-5.273 -8.755,-9.018 -13.52,-10.438c-8.286,-2.469 -30.284,-5.52 -53.254,-6.108c-16.951,-0.434 -34.43,0.477 -47.325,3.924c-8.856,2.368 -15.572,5.982 -18.671,11.052c-13.705,22.421 -18.58,46.756 -16.929,65.881Zm2.049,-0.2c-1.616,-18.723 3.188,-42.537 16.605,-64.486c2.882,-4.715 9.21,-7.92 17.447,-10.122c12.745,-3.407 30.021,-4.287 46.774,-3.859c22.75,0.582 44.541,3.582 52.748,6.028c4.417,1.316 8.652,4.846 12.496,9.735c11.833,15.048 19.88,42.932 17.211,61.589c-1.416,9.9 -4.341,19.816 -9.716,27.62c-8.026,11.651 -21.54,18.483 -43.564,13.528c-31.732,-7.139 -46.35,-2.487 -47.493,-2.094c-34.745,6.902 -49.834,-1.125 -56.563,-12.267c-5.297,-8.771 -5.399,-19.335 -5.945,-25.67Z" style="fill:#6b6b6b;"/></g><g id="tooth30-back-view-accents"><path d="M102.754,210.486c-3.185,3.522 -9.32,10.155 -24.773,12.941c-7.839,1.413 -16.868,1.13 -23.665,-0.33c9.638,3.482 23.154,5.052 33.391,0.556c7.19,-3.158 11.707,-7.741 15.048,-13.167Z" style="fill:#6b6b6b;"/><path d="M141.108,228.915c-5.136,-3.512 -15.516,-9.957 -26.788,-8.757c-7.414,0.789 -15.159,5.831 -18.878,13.897c2.852,-4.204 7.65,-7.899 12.537,-9.694c13.135,-4.823 26.087,0.961 33.129,4.553Z" style="fill:#6b6b6b;"/></g><g id="tooth30-back-view-statuses"><path id="back-right" serif:id="back-right" d="M174.04,232.901c-1.642,2.383 -1.039,5.651 1.344,7.292c2.383,1.642 5.651,1.039 7.292,-1.344c5.91,-8.58 9.219,-19.45 10.776,-30.334c2.878,-20.122 -5.746,-50.21 -18.508,-66.44c-1.789,-2.275 -5.088,-2.669 -7.362,-0.881c-2.275,1.789 -2.669,5.088 -0.881,7.362c11.236,14.289 18.904,40.758 16.37,58.474c-1.325,9.265 -4.001,18.567 -9.031,25.871Z" style="fill:none;"/><path id="back-left" serif:id="back-left" d="M44.179,146.375c1.509,-2.469 0.73,-5.699 -1.739,-7.208c-2.469,-1.509 -5.699,-0.73 -7.208,1.739c-14.22,23.264 -19.23,48.525 -17.517,68.369c0.607,7.028 0.963,18.689 6.84,28.421c1.496,2.477 4.721,3.274 7.199,1.778c2.477,-1.496 3.274,-4.721 1.778,-7.199c-4.925,-8.155 -4.861,-18.013 -5.369,-23.902c-1.554,-18.004 3.115,-40.891 16.017,-61.998Z" style="fill:none;"/><path id="back-top" serif:id="back-top" d="M166.701,148.557c1.789,2.275 5.088,2.669 7.362,0.881c2.275,-1.789 2.669,-5.088 0.881,-7.362c-4.764,-6.058 -10.158,-10.239 -15.632,-11.87c-8.46,-2.521 -30.913,-5.685 -54.364,-6.284c-17.387,-0.445 -35.311,0.532 -48.538,4.068c-10.128,2.708 -17.634,7.12 -21.178,12.918c-1.509,2.469 -0.73,5.699 1.739,7.208c2.469,1.509 5.699,0.73 7.208,-1.739c2.438,-3.989 7.97,-6.393 14.939,-8.256c12.414,-3.318 29.244,-4.133 45.562,-3.715c22.269,0.57 43.604,3.457 51.637,5.851c3.708,1.105 7.157,4.199 10.384,8.302Z" style="fill:none;"/><path id="back-bottom" d="M33.531,232.275c-1.496,-2.477 -4.721,-3.274 -7.199,-1.778c-2.477,1.496 -3.274,4.721 -1.778,7.199c7.551,12.505 24.174,22.938 63.198,15.17c0.267,-0.053 0.529,-0.127 0.784,-0.221c0,0 13.4,-4.603 44.064,2.296c25.393,5.713 40.822,-2.659 50.075,-16.093c1.642,-2.383 1.039,-5.651 -1.344,-7.292c-2.383,-1.642 -5.651,-1.039 -7.292,1.344c-7.192,10.441 -19.401,16.251 -39.138,11.811c-31.34,-7.051 -46.797,-2.939 -49.532,-2.063c-31.696,6.245 -45.682,-0.176 -51.84,-10.373Z" style="fill:none;"/></g></g></g><rect id="base1" serif:id="base" x="-0" y="0" width="211.4" height="855.667" style="fill:none;"/></g></svg>